<svg width="29" height="23" viewBox="0 0 29 23" fill="none" xmlns="http://www.w3.org/2000/svg">
    <g clip-path="url(#fv94juceea)">
        <path d="M15.534-.457a1.442 1.442 0 0 0-1.602 0L7.817 3.62H2.493a2.16 2.16 0 0 0-2.16 2.16v14.4a2.16 2.16 0 0 0 2.16 2.16h9.36v-4.32a2.883 2.883 0 0 1 2.88-2.88 2.883 2.883 0 0 1 2.88 2.88v4.32h9.36a2.16 2.16 0 0 0 2.16-2.16V5.78a2.16 2.16 0 0 0-2.16-2.16H21.65L15.535-.457zM4.654 7.94h1.44c.395 0 .72.324.72.72v2.88c0 .396-.325.72-.72.72h-1.44a.722.722 0 0 1-.72-.72V8.66c0-.396.324-.72.72-.72zm18 .72c0-.396.323-.72.72-.72h1.44c.395 0 .72.324.72.72v2.88c0 .396-.325.72-.72.72h-1.44a.722.722 0 0 1-.72-.72V8.66zm-18 5.04h1.44c.395 0 .72.324.72.72v2.88c0 .396-.325.72-.72.72h-1.44a.722.722 0 0 1-.72-.72v-2.88c0-.396.324-.72.72-.72zm18 .72c0-.396.323-.72.72-.72h1.44c.395 0 .72.324.72.72v2.88c0 .396-.325.72-.72.72h-1.44a.722.722 0 0 1-.72-.72v-2.88zm-11.88-7.2a3.96 3.96 0 1 1 7.92 0 3.96 3.96 0 0 1-7.92 0zm3.96-2.16a.722.722 0 0 0-.72.72v1.44c0 .396.324.72.72.72h1.44c.396 0 .72-.324.72-.72a.722.722 0 0 0-.72-.72h-.72v-.72a.722.722 0 0 0-.72-.72z" fill="#fff"/>
    </g>
    <defs>
        <clipPath id="fv94juceea">
            <path fill="#fff" transform="translate(.333 .3)" d="M0 0h28v22.4H0z"/>
        </clipPath>
    </defs>
</svg>
