<svg width="16" height="16" viewBox="0 0 16 16" fill="none" xmlns="http://www.w3.org/2000/svg">
<g id="phone-call-01" clip-path="url(#clip0_6347_33246)">
<path id="Icon" d="M9.36648 3.99967C10.0176 4.12672 10.6161 4.44518 11.0852 4.9143C11.5543 5.38342 11.8728 5.98185 11.9998 6.63301M9.36648 1.33301C10.7193 1.4833 11.9809 2.08912 12.944 3.05101C13.9071 4.0129 14.5145 5.27368 14.6665 6.62634M6.8178 9.24172C6.01675 8.44067 5.38422 7.53491 4.92022 6.56849C4.88031 6.48537 4.86036 6.4438 4.84503 6.39121C4.79054 6.20431 4.82968 5.9748 4.94302 5.81652C4.97491 5.77197 5.01302 5.73387 5.08923 5.65766C5.3223 5.42459 5.43883 5.30806 5.51502 5.19087C5.80235 4.74894 5.80235 4.17922 5.51502 3.7373C5.43883 3.62011 5.3223 3.50358 5.08923 3.2705L4.95931 3.14059C4.60502 2.7863 4.42787 2.60915 4.23762 2.51292C3.85924 2.32154 3.4124 2.32154 3.03402 2.51292C2.84377 2.60915 2.66662 2.7863 2.31233 3.14059L2.20724 3.24568C1.85416 3.59876 1.67762 3.7753 1.54278 4.01533C1.39317 4.28166 1.2856 4.69532 1.2865 5.00081C1.28732 5.2761 1.34073 5.46425 1.44753 5.84055C2.02151 7.86281 3.10449 9.77105 4.69648 11.363C6.28847 12.955 8.19671 14.038 10.219 14.612C10.5953 14.7188 10.7834 14.7722 11.0587 14.773C11.3642 14.7739 11.7779 14.6664 12.0442 14.5167C12.2842 14.3819 12.4608 14.2054 12.8138 13.8523L12.9189 13.7472C13.2732 13.3929 13.4504 13.2158 13.5466 13.0255C13.738 12.6471 13.738 12.2003 13.5466 11.8219C13.4504 11.6317 13.2732 11.4545 12.9189 11.1002L12.789 10.9703C12.5559 10.7372 12.4394 10.6207 12.3222 10.5445C11.8803 10.2572 11.3106 10.2572 10.8687 10.5445C10.7515 10.6207 10.6349 10.7372 10.4019 10.9703C10.3257 11.0465 10.2875 11.0846 10.243 11.1165C10.0847 11.2298 9.85521 11.269 9.66831 11.2145C9.61572 11.1992 9.57415 11.1792 9.49103 11.1393C8.52461 10.6753 7.61885 10.0428 6.8178 9.24172Z" stroke="#D83503" stroke-width="1.5" stroke-linecap="round" stroke-linejoin="round"/>
</g>
<defs>
<clipPath id="clip0_6347_33246">
<rect width="16" height="16" fill="white"/>
</clipPath>
</defs>
</svg>
