<svg width="24" height="25" viewBox="0 0 24 25" fill="none" xmlns="http://www.w3.org/2000/svg">
<g id="certificate-02">
<path id="Icon" d="M9 19H15M7 15.5H17M5 2.5H19C20.1046 2.5 21 3.49492 21 4.72222V20.2778C21 21.5051 20.1046 22.5 19 22.5H5C3.89543 22.5 3 21.5051 3 20.2778V4.72222C3 3.49492 3.89543 2.5 5 2.5ZM11.9976 6.71194C11.2978 5.9328 10.1309 5.72321 9.25414 6.43667C8.37738 7.15013 8.25394 8.34299 8.94247 9.1868C9.631 10.0306 11.9976 12 11.9976 12C11.9976 12 14.3642 10.0306 15.0527 9.1868C15.7413 8.34299 15.6329 7.14262 14.7411 6.43667C13.8492 5.73072 12.6974 5.9328 11.9976 6.71194Z" stroke="#2A2A2A" stroke-width="1.5" stroke-linecap="round" stroke-linejoin="round"/>
</g>
</svg>
