<svg width="180" height="180" viewBox="0 0 180 180" fill="none" xmlns="http://www.w3.org/2000/svg">
<rect width="180" height="180" fill="#F7931D"/>
<path d="M157.571 89.7701C157.571 77.202 149.524 67.0205 139.551 60.9006C139.485 60.8568 139.442 60.7912 139.442 60.7145C139.08 49.066 134.362 37.0562 123.523 30.805C112.619 24.51 99.7775 26.4696 89.4755 32.0859C79.1736 26.4696 66.3318 24.51 55.4277 30.805C44.5893 37.0672 39.8708 49.066 39.5095 60.7145C39.5095 60.7912 39.4657 60.8568 39.4 60.9006C29.4266 67.0205 21.3799 77.2129 21.3799 89.7701C21.3799 102.327 29.4266 112.52 39.4 118.64C39.4657 118.683 39.5095 118.749 39.5095 118.826C39.8708 130.474 44.5893 142.484 55.4277 148.735C66.3318 155.03 79.1736 153.071 89.4755 147.454C99.7775 153.071 112.619 155.03 123.523 148.735C134.362 142.473 139.08 130.474 139.442 118.826C139.442 118.749 139.485 118.683 139.551 118.64C149.524 112.52 157.571 102.327 157.571 89.7701Z" fill="white"/>
<path d="M67.1092 63.8567C69.1346 61.7875 70.2732 59.0177 70.2732 56.0947C70.2732 49.9529 65.2809 44.9607 59.1392 44.9607C56.1614 44.9607 53.3697 46.1212 51.2677 48.2232C50.1401 49.3508 50.1401 51.1791 51.2677 52.3067C52.3953 53.4234 54.2236 53.4234 55.3403 52.3067C56.3584 51.2886 57.705 50.7302 59.1392 50.7302C62.1061 50.7302 64.5146 53.1387 64.5146 56.1056C64.5146 59.0725 62.1061 61.481 59.1392 61.481C57.5518 61.481 56.2599 62.7728 56.2599 64.3603C56.2599 65.9477 57.5518 67.2396 59.1501 67.2396C63.9672 67.2396 67.8756 71.1589 67.8756 75.965C67.8756 80.7711 63.9563 84.6904 59.1501 84.6904C54.344 84.6904 50.4247 80.7711 50.4247 75.965C50.4247 74.3776 49.1329 73.0857 47.5454 73.0857C45.958 73.0857 44.6661 74.3776 44.6661 75.965C44.6661 83.9569 51.1692 90.46 59.1611 90.46C67.153 90.46 73.656 83.9569 73.656 75.965C73.656 71.0604 71.1818 66.5389 67.1202 63.8676L67.1092 63.8567Z" fill="#F7931D"/>
<path d="M91.7962 55.4925C88.5666 55.4925 85.5121 56.5325 82.9941 58.4703V53.3905C82.9941 48.5406 86.9463 44.5884 91.7962 44.5884C93.3836 44.5884 94.6755 43.2966 94.6755 41.7091C94.6755 40.1217 93.3836 38.8298 91.7962 38.8298C84.2641 38.8298 77.9143 44.6979 77.2903 52.1972C77.2465 52.3942 77.2246 52.5803 77.2246 52.7664V69.1663C77.2246 69.2868 77.2246 69.3962 77.2465 69.5057V69.6261C77.2246 69.7685 77.2246 69.9108 77.2246 70.0531C77.2246 78.0888 83.7605 84.6138 91.7853 84.6138C99.81 84.6138 106.346 78.0779 106.346 70.0531C106.346 62.0283 99.81 55.4925 91.7853 55.4925H91.7962ZM91.7962 78.8552C86.9463 78.8552 82.9941 74.903 82.9941 70.0531C82.9941 65.2032 86.9463 61.251 91.7962 61.251C96.6461 61.251 100.598 65.2032 100.598 70.0531C100.598 74.903 96.6461 78.8552 91.7962 78.8552Z" fill="#F7931D"/>
<path d="M122.166 56.2915C115.411 56.2915 109.915 61.7873 109.915 68.5421V76.556C109.915 82.9167 114.677 88.3687 120.633 89.1898V80.6943C118.871 80.4644 116.998 79.4353 115.75 77.4975C113.506 74.027 113.309 69.1662 115.422 67.4036C116.571 66.4402 117.951 66.7577 119.341 67.8086C120.064 66.4402 121.071 65.5753 122.177 65.5753C123.282 65.5753 124.29 66.4402 125.012 67.8196C126.403 66.7576 127.793 66.4402 128.932 67.4036C131.045 69.1662 130.837 74.027 128.603 77.4975C127.355 79.4243 125.494 80.4644 123.72 80.6943V89.1898C129.665 88.3687 134.438 82.9167 134.438 76.556V68.5421C134.438 61.7873 128.943 56.2915 122.188 56.2915H122.166Z" fill="#F7931D"/>
<path d="M65.5548 109.652C65.5548 113.341 68.5545 116.341 72.244 116.341H83.1699C83.1699 116.341 83.2137 116.341 83.2575 116.341H83.3341C85.3048 116.341 87.1659 115.487 88.4358 113.976C88.7752 113.571 88.9394 113.057 88.8957 112.531C88.8519 112.006 88.6001 111.524 88.195 111.184C87.363 110.484 86.1149 110.582 85.4033 111.414C84.8778 112.027 84.1224 112.378 83.3232 112.378C83.3013 112.378 83.2685 112.378 83.2356 112.378H72.233C70.7222 112.378 69.4961 111.141 69.4961 109.641V103.51H86.9141C88.0089 103.51 88.8957 102.623 88.8957 101.528C88.8957 100.434 88.0089 99.5469 86.9141 99.5469H66.8138C65.7191 99.5469 64.8323 100.434 64.8323 101.528C64.8323 102.109 65.0841 102.656 65.5329 103.028V109.63L65.5548 109.652Z" fill="#F7931D"/>
<path d="M90.8002 138.488C90.3951 138.149 89.9025 137.985 89.3551 138.028C88.8296 138.072 88.3479 138.324 88.0085 138.729C87.494 139.342 86.7276 139.693 85.9284 139.693H68.4775C67.744 139.693 67.1529 139.101 67.1529 138.368C67.1529 137.634 67.744 137.043 68.4775 137.043H85.2716C88.1837 137.043 90.5594 134.678 90.5594 131.755C90.5594 128.832 88.1946 126.468 85.2716 126.468H66.8244C65.7296 126.468 64.8429 127.354 64.8429 128.449C64.8429 129.544 65.7296 130.431 66.8244 130.431H85.2716C86.0051 130.431 86.5962 131.022 86.5962 131.755C86.5962 132.489 86.0051 133.08 85.2716 133.08H68.4775C65.5654 133.08 63.2007 135.445 63.2007 138.368C63.2007 141.291 65.5654 143.645 68.4775 143.645H85.9284C87.899 143.645 89.7602 142.78 91.0301 141.269C91.3695 140.864 91.5337 140.349 91.4899 139.824C91.4461 139.298 91.1943 138.817 90.7893 138.477L90.8002 138.488Z" fill="#F7931D"/>
<path d="M65.5437 123.534H88.8626C89.9574 123.534 90.8442 122.647 90.8442 121.552C90.8442 120.457 89.9574 119.57 88.8626 119.57H79.1847V119.078C79.1847 117.983 78.2979 117.096 77.2032 117.096C76.1084 117.096 75.2216 117.983 75.2216 119.078V119.57H65.5437C64.4489 119.57 63.5621 120.457 63.5621 121.552C63.5621 122.647 64.4489 123.534 65.5437 123.534Z" fill="#F7931D"/>
<path d="M96.0991 116.341H119.407C120.502 116.341 121.389 115.454 121.389 114.359C121.389 113.264 120.502 112.378 119.407 112.378H109.729C109.707 111.305 108.831 110.44 107.748 110.44C106.664 110.44 105.788 111.305 105.766 112.378H96.0881C94.9933 112.378 94.1066 113.264 94.1066 114.359C94.1066 115.454 94.9933 116.341 96.0881 116.341H96.0991Z" fill="#F7931D"/>
<path d="M101.934 109.674H113.659C117.141 109.674 119.965 106.838 119.965 103.368V97.2587C119.965 96.1639 119.079 95.2771 117.984 95.2771C116.889 95.2771 116.002 96.1639 116.002 97.2587V99.5687H103.347C102.252 99.5687 101.365 100.455 101.365 101.55C101.365 102.645 102.252 103.532 103.347 103.532H115.991C115.915 104.758 114.886 105.732 113.638 105.732H101.912C100.61 105.732 99.5586 104.681 99.5586 103.379V97.2696C99.5586 96.1748 98.6718 95.288 97.577 95.288C96.4822 95.288 95.5955 96.1748 95.5955 97.2696V103.379C95.5955 106.86 98.431 109.684 101.901 109.684L101.934 109.674Z" fill="#F7931D"/>
<path d="M112.751 119.625H96.0989C95.0041 119.625 94.1173 120.512 94.1173 121.607C94.1173 122.526 94.7413 123.304 95.6172 123.523V134.941C95.6172 136.036 96.5039 136.923 97.5987 136.923H112.499C112.499 136.923 112.564 136.923 112.652 136.923C112.685 136.923 112.718 136.923 112.751 136.923C117.513 136.923 121.399 133.047 121.399 128.274C121.399 123.501 117.524 119.625 112.751 119.625ZM99.5803 123.588H112.751C115.334 123.588 117.436 125.69 117.436 128.274C117.436 130.858 115.334 132.96 112.751 132.96C112.718 132.96 112.685 132.96 112.597 132.96C112.564 132.96 112.532 132.96 112.488 132.96H99.5693V123.588H99.5803Z" fill="#F7931D"/>
<path d="M166.351 89.7703C166.351 96.5361 164.589 103.039 161.085 109.093C157.637 115.071 151.955 119.669 147.401 123.008L147.236 123.128L147.215 123.325C146.601 128.942 145.452 136.156 142.014 142.134C138.511 148.177 133.771 152.961 127.903 156.355C125.198 157.91 122.319 159.092 119.287 159.88C116.254 160.658 113.068 161.063 109.751 161.063C103.292 161.063 96.5588 159.563 89.7274 156.596L89.5522 156.519L89.377 156.596C75.6046 162.552 61.6352 162.464 51.0377 156.355C40.4511 150.235 33.3788 138.182 31.66 123.271L31.6381 123.074L31.4738 122.953C19.3217 113.921 12.6216 102.141 12.6216 89.7703C12.6216 83.0045 14.3952 76.5015 17.8876 70.4473C21.3361 64.4698 27.0181 59.8717 31.5724 56.5326L31.7366 56.4122L31.7585 56.2151C32.3716 50.5989 33.5101 43.3842 36.9587 37.4067C40.4511 31.3635 45.2025 26.5793 51.0596 23.1855C61.7666 17.0109 75.32 16.9123 89.2238 22.9446L89.3989 23.0212L89.5741 22.9446C103.346 16.978 117.316 17.0656 127.913 23.1855C130.738 24.8167 133.344 26.8968 135.675 29.36L135.982 29.6666L137.164 28.6156C137.526 28.2872 138.018 28.1886 138.478 28.3419C138.927 28.4952 139.266 28.8674 139.365 29.3381L140.405 34.2975C140.504 34.7683 140.339 35.25 139.989 35.5675C139.628 35.885 139.135 35.9944 138.675 35.8412L133.858 34.2647C133.398 34.1005 133.07 33.7282 132.971 33.2575C132.862 32.7867 133.026 32.305 133.387 31.9875L134.318 31.1555L134 30.8161C131.833 28.539 129.413 26.6121 126.808 25.1123C116.648 19.2552 103.182 19.299 89.8587 25.2546C89.5741 25.375 89.2347 25.375 88.9501 25.2546C75.4952 19.2442 62.4234 19.1895 52.1762 25.1123C46.6585 28.2981 42.1918 32.8086 38.8855 38.5234C35.5793 44.2601 34.4845 51.4747 33.9043 57.1347C33.8714 57.4522 33.6963 57.7369 33.4445 57.923C28.8464 61.2511 23.1316 65.8164 19.8253 71.5421C16.53 77.2459 14.866 83.3767 14.866 89.7484C14.866 101.594 21.4347 112.87 33.3678 121.519C33.6306 121.705 33.7948 122.001 33.8276 122.307C35.3384 136.835 42.0276 148.516 52.1762 154.374C62.3249 160.231 75.7798 160.176 89.1143 154.231C89.3989 154.1 89.7383 154.1 90.023 154.231C103.478 160.242 116.539 160.296 126.808 154.374C132.325 151.188 136.792 146.677 140.087 140.962C143.394 135.237 144.489 128.011 145.08 122.351C145.102 122.045 145.277 121.749 145.529 121.563C150.138 118.235 155.841 113.669 159.148 107.944C162.443 102.24 164.118 96.1091 164.118 89.7374C164.118 77.8919 157.538 66.6046 145.605 57.9558C145.113 57.6055 144.992 56.8939 145.353 56.4012C145.715 55.9086 146.404 55.7882 146.908 56.1494C159.443 65.2362 166.34 77.1693 166.34 89.7374L166.351 89.7703Z" fill="white"/>
<path d="M136.737 54.0911C138.73 55.6895 138.609 55.9413 141.149 55.6238C140.207 57.693 140.996 58.8425 142.463 60.3314C143.733 61.6889 145.846 62.2801 147.05 60.5175C148.178 58.8425 148.407 56.226 148.353 54.2444C150.28 55.0217 152.36 55.788 154.407 55.4815C156.224 55.175 156.925 53.3905 156.301 51.7592C155.644 49.8434 154.801 48.0479 152.403 48.2778C154.057 46.4495 153.214 45.8146 152.819 43.7783C152.633 42.8039 152.776 42.0266 152.721 41.0851C152.502 38.9831 150.728 38.3043 149.053 39.5195C146.36 41.4354 145.046 45.0701 144.433 48.245C141.642 47.4567 136.759 47.4567 134.241 48.9785C132.894 49.7558 132.511 51.6607 133.836 52.6132C134.788 53.3138 135.828 53.3576 136.737 54.0802V54.0911Z" fill="#F7931D"/>
<path d="M150.564 38.9285C151.67 38.8519 152.579 39.6292 152.721 41.0962C152.776 42.0377 152.623 42.8041 152.82 43.7894C153.214 45.8147 154.057 46.4497 152.404 48.2889C152.447 48.2889 152.491 48.2889 152.535 48.2889C154.845 48.1357 155.655 49.8873 156.301 51.7704C156.936 53.4016 156.224 55.197 154.407 55.4926C154.243 55.5145 154.079 55.5364 153.903 55.5474C152.009 55.6787 150.115 54.9781 148.342 54.2555C148.397 56.2371 148.156 58.8536 147.039 60.5286C146.557 61.2403 145.911 61.5687 145.244 61.6125C144.258 61.6782 143.207 61.1417 142.452 60.3425C140.996 58.8536 140.197 57.6932 141.138 55.635C140.744 55.6787 140.416 55.7225 140.131 55.7335C138.587 55.843 138.412 55.4488 136.726 54.1023C135.818 53.3797 134.788 53.3359 133.825 52.6352C132.5 51.6828 132.884 49.7888 134.23 49.0006C135.412 48.278 137.12 47.8948 138.894 47.7853C140.886 47.654 142.945 47.851 144.423 48.2671C145.036 45.1031 146.349 41.4684 149.043 39.5416C149.557 39.1694 150.072 38.9723 150.553 38.9504M150.389 36.3886C149.415 36.4543 148.429 36.8265 147.554 37.4615C144.871 39.3774 143.372 42.4647 142.529 45.3002C141.302 45.1688 139.989 45.136 138.741 45.2126C137.098 45.3221 134.767 45.6834 132.949 46.7891C131.504 47.643 130.552 49.1757 130.475 50.8179C130.398 52.3725 131.088 53.7848 132.358 54.6934C133.07 55.2189 133.781 55.4926 134.351 55.7006C134.712 55.832 134.986 55.9415 135.15 56.0729C135.391 56.2699 135.599 56.4342 135.785 56.5874C136.639 57.299 137.328 57.8355 138.281 58.0982C138.587 59.9922 139.868 61.3169 140.635 62.0942C141.959 63.4955 143.744 64.2619 145.43 64.1414C146.941 64.0429 148.265 63.2656 149.163 61.9519C150.006 60.7038 150.466 59.204 150.696 57.7369C151.78 58.0106 152.918 58.153 154.09 58.0763C154.33 58.0654 154.56 58.0325 154.79 57.9997H154.812H154.834C156.389 57.7369 157.659 56.8721 158.414 55.5474C159.202 54.1679 159.312 52.471 158.71 50.8836C158.359 49.8764 157.637 47.8291 155.929 46.6358C155.983 45.8147 155.808 45.0484 155.578 44.282C155.48 43.9536 155.392 43.6471 155.327 43.2967C155.261 42.9573 155.272 42.6289 155.283 42.1691C155.283 41.8078 155.305 41.4028 155.283 40.9429V40.8882V40.8335C154.998 38.0856 152.951 36.2135 150.411 36.3777L150.389 36.3886Z" fill="white"/>
</svg>
