<svg xmlns="http://www.w3.org/2000/svg" width="70" height="70" viewBox="0 0 70 70">
  <g id="그룹_5498" data-name="그룹 5498" transform="translate(5295 11695)">
    <rect id="사각형_2200" data-name="사각형 2200" width="70" height="70" transform="translate(-5295 -11695)" fill="none"/>
    <g id="그룹_5366" data-name="그룹 5366" transform="translate(18399.229 -21528.029)">
      <path id="빼기_11" data-name="빼기 11" d="M48.625,43.673H36.274a6.658,6.658,0,0,0-1.27-3.8c-1.25-1.784-4.015-4.008-10.089-4.471C13.38,34.523.137,33.422.006,33.411a7.323,7.323,0,0,1,1.847-5.006C3.5,26.631,6.1,25.731,9.586,25.731c.191,0,.387,0,.583.008,3.174.088,6.521.133,9.949.133,5.843,0,9.936-.131,9.977-.133a9.016,9.016,0,0,0,2.679-.591A5.17,5.17,0,0,0,36.137,21.5H48.7c.056,8.9-.074,22.04-.075,22.171Z" transform="translate(-23685.23 9836.328)" fill="#ececec" stroke="#666" stroke-linecap="round" stroke-linejoin="round" stroke-width="2"/>
      <path id="교차_40" data-name="교차 40" d="M36.137,21.5a6.058,6.058,0,0,0,.137-1.441c-.1-5.479-6.18-6.674-6.18-6.674L12.26,12.29V8.7h26.9s9.264-.2,9.465,7.372c.038,1.435.062,3.317.075,5.426Z" transform="translate(-23685.23 9836.328)" fill="#98c9f4" stroke="#666" stroke-linecap="round" stroke-linejoin="round" stroke-width="2"/>
      <g id="사각형_2160" data-name="사각형 2160" transform="matrix(0.998, 0.07, -0.07, 0.998, -23682.811, 9869.588)" fill="#ececec" stroke="#666" stroke-linecap="round" stroke-linejoin="round" stroke-width="2">
        <path d="M0,0H12a0,0,0,0,1,0,0V3a2,2,0,0,1-2,2H2A2,2,0,0,1,0,3V0A0,0,0,0,1,0,0Z" stroke="none"/>
        <rect x="1" y="1" width="10" height="3" rx="1" fill="none"/>
      </g>
      <g id="사각형_2161" data-name="사각형 2161" transform="translate(-23634 9885.001) rotate(180)" fill="#ececec" stroke="#666" stroke-linecap="round" stroke-linejoin="round" stroke-width="2">
        <path d="M0,0H18a0,0,0,0,1,0,0V2a4,4,0,0,1-4,4H4A4,4,0,0,1,0,2V0A0,0,0,0,1,0,0Z" stroke="none"/>
        <path d="M2,1H16a1,1,0,0,1,1,1V2a3,3,0,0,1-3,3H4A3,3,0,0,1,1,2V2A1,1,0,0,1,2,1Z" fill="none"/>
      </g>
      <g id="패스_3111" data-name="패스 3111" transform="translate(-23683 9883)" fill="#98c9f4" stroke-linecap="round" stroke-linejoin="round">
        <path d="M 4.5 8.000005722045898 C 2.570090055465698 8.000005722045898 1 6.429905414581299 1 4.499995231628418 C 1 4.11775541305542 1.204439997673035 2.891385316848755 3.098099946975708 -0.233034685254097 C 3.597268342971802 -1.05662477016449 4.100224494934082 -1.822913408279419 4.500000476837158 -2.413293600082397 C 4.899770259857178 -1.82292103767395 5.402731418609619 -1.05662477016449 5.901899814605713 -0.233034685254097 C 7.795559883117676 2.891385316848755 8 4.11775541305542 8 4.499995231628418 C 8 6.429905414581299 6.429910182952881 8.000005722045898 4.5 8.000005722045898 Z" stroke="none"/>
        <path d="M 4.5 -0.5934195518493652 C 4.318686962127686 -0.3089981079101562 4.132221698760986 -0.01016330718994141 3.946450233459473 0.2965655326843262 C 2.022130012512207 3.473845481872559 2 4.459585189819336 2 4.499995231628418 C 2 5.878495216369629 3.121500015258789 6.999995231628418 4.5 6.999995231628418 C 5.878499984741211 6.999995231628418 7 5.878495216369629 7 4.499995231628418 C 7 4.459585189819336 6.977869987487793 3.473845481872559 5.053549766540527 0.2965655326843262 C 4.867778301239014 -0.01016330718994141 4.681313037872314 -0.3089981079101562 4.5 -0.5934195518493652 M 4.5 -4.162115097045898 C 4.5 -4.162115097045898 9 2.014715194702148 9 4.499995231628418 C 9 6.98528528213501 6.98528003692627 8.999995231628418 4.5 8.999995231628418 C 2.01471996307373 8.999995231628418 0 6.98528528213501 0 4.499995231628418 C 0 2.014715194702148 4.5 -4.162115097045898 4.5 -4.162115097045898 Z" stroke="none" fill="#666"/>
      </g>
    </g>
  </g>
</svg>
