<svg xmlns="http://www.w3.org/2000/svg" width="116" height="116" viewBox="0 0 116 116">
  <g id="그룹_8034" data-name="그룹 8034" transform="translate(-1065.999 -326)">
    <g id="그룹_7841" data-name="그룹 7841" transform="translate(1065.781 326)">
      <rect id="사각형_2204" data-name="사각형 2204" width="116" height="116" transform="translate(0.218)" fill="none"/>
    </g>
    <g id="그룹_7849" data-name="그룹 7849" transform="translate(18245 -1331)">
      <g id="그룹_7784" data-name="그룹 7784" transform="translate(-17144 1682)">
        <g id="사각형_2176" data-name="사각형 2176" fill="#ececec" stroke="#666" stroke-width="2">
          <rect width="46" height="61" stroke="none"/>
          <rect x="1" y="1" width="44" height="59" fill="none"/>
        </g>
        <g id="타원_247" data-name="타원 247" transform="translate(9 20)" fill="#98c9f4" stroke="#666" stroke-width="2">
          <ellipse cx="14" cy="13.5" rx="14" ry="13.5" stroke="none"/>
          <ellipse cx="14" cy="13.5" rx="13" ry="12.5" fill="none"/>
        </g>
        <ellipse id="타원_248" data-name="타원 248" cx="8" cy="7.5" rx="8" ry="7.5" transform="translate(15 26)" fill="#fff"/>
        <g id="사각형_2722" data-name="사각형 2722" transform="translate(31 31)" fill="#fff" stroke="#707070" stroke-width="1">
          <rect width="9" height="6" rx="2" stroke="none"/>
          <rect x="0.5" y="0.5" width="8" height="5" rx="1.5" fill="none"/>
        </g>
        <g id="사각형_2723" data-name="사각형 2723" fill="#98c9f4" stroke="#666" stroke-width="2">
          <rect width="46" height="9" stroke="none"/>
          <rect x="1" y="1" width="44" height="7" fill="none"/>
        </g>
        <g id="사각형_2726" data-name="사각형 2726" transform="translate(31)" fill="#fff" stroke="#666" stroke-width="2">
          <rect width="7" height="9" stroke="none"/>
          <rect x="1" y="1" width="5" height="7" fill="none"/>
        </g>
        <rect id="사각형_2724" data-name="사각형 2724" width="6" height="5" transform="translate(0 61)" fill="#666"/>
        <rect id="사각형_2725" data-name="사각형 2725" width="6" height="5" transform="translate(40 61)" fill="#666"/>
      </g>
    </g>
  </g>
</svg>
