<svg xmlns="http://www.w3.org/2000/svg" width="116" height="116" viewBox="0 0 116 116">
  <g id="그룹_8684" data-name="그룹 8684" transform="translate(-18061.999 17554)">
    <g id="그룹_8681" data-name="그룹 8681" transform="translate(18062.088 -17554)">
      <rect id="사각형_2197" data-name="사각형 2197" width="116" height="116" transform="translate(-0.089)" fill="none"/>
    </g>
    <g id="그룹_8682" data-name="그룹 8682" transform="translate(18081.842 -17533.684)">
      <g id="그룹_8335" data-name="그룹 8335" transform="translate(4.579)">
        <g id="그룹_8334" data-name="그룹 8334" transform="translate(0 0)">
          <path id="합치기_117" data-name="합치기 117" d="M3.661,0,5.937.937V4.053l-2.276.962ZM0,4.989V0H3.661V4.989Z" transform="translate(57.409 17.967)" fill="#333"/>
          <path id="선_335" data-name="선 335" d="M2,74.869H-.5V0H2Z" transform="translate(63.898 0)" fill="#ccc"/>
          <path id="사각형_2777_-_윤곽선" data-name="사각형 2777 - 윤곽선" d="M0,0A5.243,5.243,0,0,1,4.991,5.464v5.464A5.243,5.243,0,0,1,0,16.391Z" transform="translate(52.419 12.478)" fill="#666"/>
          <path id="사각형_2779_-_윤곽선" data-name="사각형 2779 - 윤곽선" d="M0,0H6.236V16.391H0Z" transform="translate(47.179 12.478)" fill="#333"/>
          <circle id="타원_256" data-name="타원 256" cx="2.496" cy="2.496" r="2.496" transform="translate(53.415 31.195)" fill="#ccc"/>
          <circle id="타원_259" data-name="타원 259" cx="2.496" cy="2.496" r="2.496" transform="translate(45.93 36.187)" fill="#ccc"/>
          <circle id="타원_257" data-name="타원 257" cx="2.496" cy="2.496" r="2.496" transform="translate(50.922 43.674)" fill="#ccc"/>
          <circle id="타원_260" data-name="타원 260" cx="2.496" cy="2.496" r="2.496" transform="translate(45.93 48.665)" fill="#ccc"/>
          <circle id="타원_258" data-name="타원 258" cx="2.496" cy="2.496" r="2.496" transform="translate(53.415 56.152)" fill="#ccc"/>
          <path id="합치기_119" data-name="합치기 119" d="M2,50.644a2,2,0,0,1-2-2V44.661a2,2,0,0,1,2-2h.4l3.541-17.7h-.22a4.991,4.991,0,0,1-4.99-4.991V4.991A4.991,4.991,0,0,1,5.716,0H40.655a4.991,4.991,0,0,1,4.991,4.991V19.965a4.991,4.991,0,0,1-4.991,4.991H20.905L17.357,42.7a2,2,0,0,1,1.6,1.96v3.983a2,2,0,0,1-2,2Z" transform="translate(1.534 8.735)" fill="#eeac2a"/>
          <path id="선_336" data-name="선 336" d="M1.967,12.622H0V0H1.967Z" transform="translate(22.49 11.288) rotate(90)" fill="#ec7203"/>
          <path id="선_336-2" data-name="선 336" d="M1.967,12.622H0V0H1.967Z" transform="translate(22.49 15.085) rotate(90)" fill="#ec7203"/>
          <path id="선_336-3" data-name="선 336" d="M1.967,12.622H0V0H1.967Z" transform="translate(22.49 18.882) rotate(90)" fill="#ec7203"/>
          <path id="패스_3496" data-name="패스 3496" d="M2,21.773H-.5V0H2Z" transform="translate(40.192 10.326)" fill="#ec7203"/>
          <path id="패스_3577" data-name="패스 3577" d="M0,0h4.99L4.509,8.168H-1.609Z" transform="translate(22.491 33.691)" fill="#333"/>
          <path id="사각형_2777_-_윤곽선-2" data-name="사각형 2777 - 윤곽선" d="M0,0C4.154,0,7.521,3.686,7.521,8.233v8.233C7.521,21.013,4.154,24.7,0,24.7Z" transform="translate(7.521 33.434) rotate(180)" fill="#ec7203"/>
        </g>
      </g>
    </g>
  </g>
</svg>
