<svg xmlns="http://www.w3.org/2000/svg" width="116" height="116" viewBox="0 0 116 116">
  <g id="그룹_8693" data-name="그룹 8693" transform="translate(-18061.999 17554)">
    <g id="그룹_8683" data-name="그룹 8683">
      <g id="그룹_8687" data-name="그룹 8687">
        <g id="그룹_8681" data-name="그룹 8681" transform="translate(18062.088 -17554)">
          <rect id="사각형_2197" data-name="사각형 2197" width="116" height="116" transform="translate(-0.089)" fill="none"/>
        </g>
      </g>
    </g>
    <g id="그룹_8691" data-name="그룹 8691" transform="translate(18081.842 -17533.684)">
      <g id="그룹_8339" data-name="그룹 8339" transform="translate(6.107 7.631)">
        <g id="그룹_8338" data-name="그룹 8338" transform="translate(0 0.794)">
          <rect id="사각형_2790" data-name="사각형 2790" width="38.693" height="7.37" transform="translate(18.54 13.329) rotate(45)" fill="#999"/>
          <path id="빼기_23" data-name="빼기 23" d="M8.972,18.426A9.456,9.456,0,0,1,.059,12.284H6.972a2,2,0,0,0,2-2V8.142a2,2,0,0,0-2-2H.059A9.456,9.456,0,0,1,8.972,0a9.345,9.345,0,0,1,9.451,9.213A9.345,9.345,0,0,1,8.972,18.426Z" transform="translate(13.029 0) rotate(45)" fill="#ccc"/>
          <path id="빼기_24" data-name="빼기 24" d="M8.969,18.426a9.452,9.452,0,0,1-8.91-6.142h6.91a2,2,0,0,0,2-2V8.142a2,2,0,0,0-2-2H.059A9.453,9.453,0,0,1,8.969,0a9.343,9.343,0,0,1,9.447,9.213A9.343,9.343,0,0,1,8.969,18.426Z" transform="translate(45.805 58.835) rotate(-135)" fill="#ccc"/>
        </g>
        <g id="그룹_8337" data-name="그룹 8337" transform="translate(6.324 14.869)">
          <path id="사각형_2786_-_윤곽선" data-name="사각형 2786 - 윤곽선" d="M9.155.058V44.279c0,2.035-1.366,3.685-3.052,3.685H3.052C1.366,47.964,0,46.314,0,44.279V.058L4.563,0" transform="translate(33.916 0) rotate(45)" fill="#c79671"/>
          <path id="사각형_2786_-_윤곽선-2" data-name="사각형 2786 - 윤곽선" d="M9.382.058l-.189,2.4c0,2.035-1.372,3.685-3.064,3.685H3.064C1.372,6.147,0,4.5,0,2.462L.189.058,4.771,0" transform="translate(4.346 29.408) rotate(45)" fill="#9d6840"/>
        </g>
        <path id="합치기_120" data-name="합치기 120" d="M31.163,27.971l-5.089-5.089H21.3L14.54,16.118S16.3,9.04,12.664,5.939,0,3.719,0,3.719,6.82.426,12.153.04a18.549,18.549,0,0,1,9.656,2.137s6.922,4.811,8.9,8.636a11.8,11.8,0,0,1,1.023,7.3l4.645,4.645a1,1,0,0,1,0,1.415l-3.8,3.8a1,1,0,0,1-1.414,0Z" transform="translate(24.322 0)" fill="#666"/>
        <rect id="사각형_2787" data-name="사각형 2787" width="5.528" height="11.055" rx="1" transform="translate(60.753 20.21) rotate(45)" fill="#999"/>
      </g>
    </g>
  </g>
</svg>
