<svg xmlns="http://www.w3.org/2000/svg" width="40" height="40" viewBox="0 0 40 40">
  <g id="그룹_5529" data-name="그룹 5529" transform="translate(-0.156 0.439)">
    <rect id="사각형_2246" data-name="사각형 2246" width="40" height="40" transform="translate(0.156 -0.439)" fill="none"/>
    <g id="그룹_5521" data-name="그룹 5521" transform="translate(4.771 5.561)">
      <g id="패스_3202" data-name="패스 3202" transform="translate(0 2.523)" fill="#fff" stroke-linecap="round">
        <path d="M 24.26782608032227 23.46423721313477 L 2.696425199508667 23.46423721313477 C 1.485315322875977 23.46423721313477 0.500005304813385 22.6135082244873 0.500005304813385 21.56780815124512 L 0.500005304813385 2.396427631378174 C 0.500005304813385 1.350727677345276 1.485315322875977 0.4999976456165314 2.696425199508667 0.4999976456165314 L 24.26782608032227 0.4999976456165314 C 25.47894477844238 0.4999976456165314 26.46425437927246 1.350727677345276 26.46425437927246 2.396427631378174 L 26.46425437927246 21.56780815124512 C 26.46425437927246 22.6135082244873 25.47894477844238 23.46423721313477 24.26782608032227 23.46423721313477 Z" stroke="none"/>
        <path d="M 2.69642448425293 0.9999980926513672 C 1.761014938354492 0.9999980926513672 0.9999961853027344 1.626438140869141 0.9999961853027344 2.396427154541016 L 0.9999961853027344 21.56780815124512 C 0.9999961853027344 22.33779716491699 1.761014938354492 22.96423721313477 2.69642448425293 22.96423721313477 L 24.26782608032227 22.96423721313477 C 25.2032356262207 22.96423721313477 25.9642448425293 22.33779716491699 25.9642448425293 21.56780815124512 L 25.9642448425293 2.396427154541016 C 25.9642448425293 1.626438140869141 25.2032356262207 0.9999980926513672 24.26782608032227 0.9999980926513672 L 2.69642448425293 0.9999980926513672 M 2.69642448425293 -1.9073486328125e-06 L 24.26782608032227 -1.9073486328125e-06 C 25.75702476501465 -1.9073486328125e-06 26.9642448425293 1.072917938232422 26.9642448425293 2.396427154541016 L 26.9642448425293 21.56780815124512 C 26.9642448425293 22.89131736755371 25.75702476501465 23.96423721313477 24.26782608032227 23.96423721313477 L 2.69642448425293 23.96423721313477 C 1.207235336303711 23.96423721313477 -3.814697265625e-06 22.89131736755371 -3.814697265625e-06 21.56780815124512 L -3.814697265625e-06 2.396427154541016 C -3.814697265625e-06 1.072917938232422 1.207235336303711 -1.9073486328125e-06 2.69642448425293 -1.9073486328125e-06 Z" stroke="none" fill="#16284c"/>
      </g>
      <g id="패스_3199" data-name="패스 3199" transform="translate(0 2.523)" fill="#16284c">
        <path d="M 26.46425437927246 8.687481880187988 L 0.500005304813385 8.687481880187988 L 0.500005304813385 3.196421384811401 C 0.500005304813385 1.709611415863037 1.485315322875977 0.5000014305114746 2.696425199508667 0.5000014305114746 L 24.26782608032227 0.5000014305114746 C 25.47894477844238 0.5000014305114746 26.46425437927246 1.709611415863037 26.46425437927246 3.196421384811401 L 26.46425437927246 8.687481880187988 Z" stroke="none"/>
        <path d="M 2.69642448425293 1.000000953674316 C 1.761014938354492 1.000000953674316 0.9999961853027344 1.985311508178711 0.9999961853027344 3.19642162322998 L 0.9999961853027344 8.187480926513672 L 25.9642448425293 8.187480926513672 L 25.9642448425293 3.19642162322998 C 25.9642448425293 1.985311508178711 25.2032356262207 1.000000953674316 24.26782608032227 1.000000953674316 L 2.69642448425293 1.000000953674316 M 2.69642448425293 9.5367431640625e-07 L 24.26782608032227 9.5367431640625e-07 C 25.75702476501465 9.5367431640625e-07 26.9642448425293 1.43109130859375 26.9642448425293 3.19642162322998 L 26.9642448425293 9.187481880187988 L -3.814697265625e-06 9.187481880187988 L -3.814697265625e-06 3.19642162322998 C -3.814697265625e-06 1.43109130859375 1.207235336303711 9.5367431640625e-07 2.69642448425293 9.5367431640625e-07 Z" stroke="none" fill="#16284c"/>
      </g>
      <rect id="사각형_2224" data-name="사각형 2224" width="2" height="8" rx="1" transform="translate(5.889)" fill="#ccc"/>
      <rect id="사각형_2225" data-name="사각형 2225" width="2" height="8" rx="1" transform="translate(18.814)" fill="#ccc"/>
      <rect id="사각형_2226" data-name="사각형 2226" width="3" height="3" transform="translate(12.889 12.632)" fill="#16284c"/>
      <rect id="사각형_2231" data-name="사각형 2231" width="3" height="3" transform="translate(12.889 17.158)" fill="#16284c"/>
      <rect id="사각형_2236" data-name="사각형 2236" width="3" height="3" transform="translate(12.889 21.684)" fill="#16284c"/>
      <rect id="사각형_2232" data-name="사각형 2232" width="3" height="3" transform="translate(2.889 17.158)" fill="#16284c"/>
      <rect id="사각형_2238" data-name="사각형 2238" width="3" height="3" transform="translate(2.889 21.684)" fill="#16284c"/>
      <rect id="사각형_2227" data-name="사각형 2227" width="3" height="3" transform="translate(17.89 12.632)" fill="#16284c"/>
      <rect id="사각형_2230" data-name="사각형 2230" width="3" height="3" transform="translate(17.89 17.158)" fill="#16284c"/>
      <rect id="사각형_2233" data-name="사각형 2233" width="3" height="3" transform="translate(7.889 17.158)" fill="#16284c"/>
      <rect id="사각형_2245" data-name="사각형 2245" width="3" height="3" transform="translate(7.889 12.632)" fill="#16284c"/>
      <rect id="사각형_2237" data-name="사각형 2237" width="3" height="3" transform="translate(7.889 21.684)" fill="#16284c"/>
      <g id="그룹_5520" data-name="그룹 5520" transform="translate(13.939 17.158)">
        <g id="타원_194" data-name="타원 194" transform="translate(5)" fill="#16284c" stroke="#16284c" stroke-width="1">
          <circle cx="8" cy="8" r="8" stroke="none"/>
          <circle cx="8" cy="8" r="7.5" fill="none"/>
        </g>
        <path id="패스_3200" data-name="패스 3200" d="M-5492.681-10701.438l2.674,2.749,5.422-5.132" transform="translate(5502.264 10709.714)" fill="none" stroke="#fff" stroke-linecap="round" stroke-linejoin="round" stroke-width="2"/>
      </g>
    </g>
  </g>
</svg>
