<svg xmlns="http://www.w3.org/2000/svg" width="116" height="116" viewBox="0 0 116 116">
  <g id="그룹_5498" data-name="그룹 5498" transform="translate(-0.236)">
    <rect id="사각형_2200" data-name="사각형 2200" width="116" height="116" transform="translate(0.236)" fill="none"/>
    <g id="그룹_5366" data-name="그룹 5366" transform="translate(14.505 23.993)">
      <path id="빼기_11" data-name="빼기 11" d="M73.194,33.377H54.6a10.022,10.022,0,0,0-1.912-5.717c-1.882-2.685-6.044-6.033-15.188-6.731C20.139,19.6.2,17.946.006,17.93a11.024,11.024,0,0,1,2.78-7.535C5.264,7.723,9.18,6.369,14.427,6.369c.287,0,.582,0,.877.012,4.777.133,9.816.2,14.976.2,8.8,0,14.957-.2,15.018-.2a13.572,13.572,0,0,0,4.033-.89A7.782,7.782,0,0,0,54.395,0H73.307c.084,13.393-.111,33.177-.113,33.376Z" transform="translate(9 19.266)" fill="#ececec" stroke="#666" stroke-linecap="round" stroke-linejoin="round" stroke-width="2"/>
      <path id="교차_40" data-name="교차 40" d="M35.943,19.266a9.119,9.119,0,0,0,.206-2.169C36,8.849,26.845,7.05,26.845,7.05L0,5.4V0H40.494S54.439-.3,54.742,11.1c.057,2.161.093,4.994.113,8.168Z" transform="translate(27.452 0)" fill="#98c9f4" stroke="#666" stroke-linecap="round" stroke-linejoin="round" stroke-width="2"/>
      <g id="사각형_2160" data-name="사각형 2160" transform="matrix(0.998, 0.07, -0.07, 0.998, 8.156, 36.968)" fill="#ececec" stroke="#666" stroke-linecap="round" stroke-linejoin="round" stroke-width="2">
        <path d="M0,0H18.064a0,0,0,0,1,0,0V5.527a2,2,0,0,1-2,2H2a2,2,0,0,1-2-2V0A0,0,0,0,1,0,0Z" stroke="none"/>
        <path d="M1,1H17.064a0,0,0,0,1,0,0V5.527a1,1,0,0,1-1,1H2a1,1,0,0,1-1-1V1A0,0,0,0,1,1,1Z" fill="none"/>
      </g>
      <g id="사각형_2161" data-name="사각형 2161" transform="translate(86.116 60.17) rotate(180)" fill="#ececec" stroke="#666" stroke-linecap="round" stroke-linejoin="round" stroke-width="2">
        <path d="M0,0H27.1a0,0,0,0,1,0,0V5.032a4,4,0,0,1-4,4H4a4,4,0,0,1-4-4V0A0,0,0,0,1,0,0Z" stroke="none"/>
        <path d="M1,1H26.1a0,0,0,0,1,0,0V5.032a3,3,0,0,1-3,3H4a3,3,0,0,1-3-3V1A0,0,0,0,1,1,1Z" fill="none"/>
      </g>
      <g id="패스_3111" data-name="패스 3111" transform="translate(10.13 55.055)" fill="#98c9f4" stroke-linecap="round" stroke-linejoin="round">
        <path d="M 6.774031162261963 14.6513671875 C 3.590221166610718 14.6513671875 1.000001192092896 12.06114673614502 1.000001192092896 8.877326965332031 C 1.000001192092896 8.109396934509277 1.420291185379028 6.127847194671631 4.235081195831299 1.484727025032043 C 5.177298069000244 -0.06950947642326355 6.127893924713135 -1.48840057849884 6.774031162261963 -2.425166368484497 C 7.420168399810791 -1.48840057849884 8.37076473236084 -0.06950947642326355 9.312981605529785 1.484727025032043 C 12.12777137756348 6.127847194671631 12.54806137084961 8.109396934509277 12.54806137084961 8.877326965332031 C 12.54806137084961 12.06114673614502 9.957840919494629 14.6513671875 6.774031162261963 14.6513671875 Z" stroke="none"/>
        <path d="M 6.774031162261963 -0.6417675018310547 C 6.258298397064209 0.1340131759643555 5.668953895568848 1.048018455505371 5.083301544189453 2.01453685760498 C 2.22235107421875 6.736026763916016 2.000000953674316 8.461087226867676 2.000000953674316 8.877326965332031 C 2.000000953674316 11.50973701477051 4.141621589660645 13.6513671875 6.774031162261963 13.6513671875 C 9.406440734863281 13.6513671875 11.54806137084961 11.50973701477051 11.54806137084961 8.877326965332031 C 11.54806137084961 8.461087226867676 11.32571125030518 6.736026763916016 8.464761734008789 2.01453685760498 C 7.879108428955078 1.048018455505371 7.289763927459717 0.1340131759643555 6.774031162261963 -0.6417675018310547 M 6.774031162261963 -4.162113189697266 C 6.774031162261963 -4.162113189697266 13.54806137084961 5.13612699508667 13.54806137084961 8.877326965332031 C 13.54806137084961 12.61852741241455 10.51522064208984 15.6513671875 6.774031162261963 15.6513671875 C 3.032840728759766 15.6513671875 9.5367431640625e-07 12.61852741241455 9.5367431640625e-07 8.877326965332031 C 9.5367431640625e-07 5.13612699508667 6.774031162261963 -4.162113189697266 6.774031162261963 -4.162113189697266 Z" stroke="none" fill="#666"/>
      </g>
    </g>
  </g>
</svg>
