<svg xmlns="http://www.w3.org/2000/svg" width="116" height="116" viewBox="0 0 116 116">
  <g id="그룹_8031" data-name="그룹 8031" transform="translate(-1298 -326)">
    <g id="그룹_5502" data-name="그룹 5502" transform="translate(1297.782 326)">
      <rect id="사각형_2204" data-name="사각형 2204" width="116" height="116" transform="translate(0.218)" fill="none"/>
    </g>
    <g id="그룹_7851" data-name="그룹 7851" transform="translate(18360 -1277)">
      <g id="사각형_2176" data-name="사각형 2176" transform="translate(-17028 1626)" fill="#ececec" stroke="#666" stroke-width="2">
        <rect width="48" height="66" rx="5" stroke="none"/>
        <rect x="1" y="1" width="46" height="64" rx="4" fill="none"/>
      </g>
      <g id="타원_247" data-name="타원 247" transform="translate(-17015 1639)" fill="#fff" stroke="#666" stroke-width="2">
        <ellipse cx="10.5" cy="11" rx="10.5" ry="11" stroke="none"/>
        <ellipse cx="10.5" cy="11" rx="9.5" ry="10" fill="none"/>
      </g>
      <g id="합치기_86" data-name="합치기 86" transform="translate(-17009.936 1642.541)" fill="#98c9f4">
        <path d="M 5.892720222473145 14.58264350891113 C 4.399380207061768 14.58264350891113 3.039040088653564 13.70215320587158 2.427080154418945 12.33949279785156 L 2.419290065765381 12.32215309143066 L 2.410200119018555 12.30544281005859 C 1.764151930809021 11.11757755279541 1.126175761222839 9.095817565917969 0.7708106637001038 7.872868537902832 L 2.162750005722046 8.514553070068359 L 2.637400150299072 8.733373641967773 L 2.834980010986328 8.249493598937988 C 3.726516962051392 6.066076755523682 5.207338333129883 3.284131765365601 6.112755298614502 1.642198801040649 C 6.260789394378662 2.756736516952515 6.549723625183105 4.281771183013916 7.107779979705811 5.687113285064697 C 7.4234299659729 6.480043411254883 7.866020202636719 7.240693092346191 8.257360458374023 7.880243301391602 L 8.543849945068359 8.348443031311035 L 8.983369827270508 8.019633293151855 C 9.528994560241699 7.611438751220703 10.07398128509521 7.153100967407227 10.51266574859619 6.768346309661865 C 10.30720806121826 9.026553153991699 9.865198135375977 11.89291477203369 9.242670059204102 12.5966329574585 L 9.209159851074219 12.63452339172363 L 9.183910369873047 12.67835330963135 C 8.50730037689209 13.8529634475708 7.246190071105957 14.58264350891113 5.892720222473145 14.58264350891113 Z" stroke="none"/>
        <path d="M 5.892720222473145 14.08264350891113 C 7.067920207977295 14.08264350891113 8.163020133972168 13.44892311096191 8.750650405883789 12.42878341674805 L 8.801150321960449 12.34112358093262 L 8.868169784545898 12.26534271240234 C 8.920330047607422 12.20639324188232 9.389430046081543 11.6036434173584 9.795809745788574 8.634193420410156 C 9.827402114868164 8.403354644775391 9.856291770935059 8.174993515014648 9.882591247558594 7.953191757202148 C 9.686261177062988 8.111448287963867 9.484634399414062 8.269063949584961 9.282890319824219 8.41999340057373 L 8.403849601745605 9.07762336730957 L 7.830870151519775 8.141213417053223 C 7.428520202636719 7.483663082122803 6.972790241241455 6.699903011322021 6.643080234527588 5.87164306640625 C 6.284856796264648 4.969545364379883 6.034292697906494 4.02075719833374 5.859360694885254 3.156209468841553 C 5.010679244995117 4.743649005889893 3.979328393936157 6.769602298736572 3.297879934310913 8.438503265380859 L 2.902719974517822 9.406252861022949 L 1.571388125419617 8.792516708374023 C 1.92209780216217 9.902852058410645 2.385404586791992 11.21334648132324 2.849440097808838 12.06655311584473 L 2.867609977722168 12.09996318817139 L 2.883190155029297 12.13465309143066 C 3.414629936218262 13.31801319122314 4.595940113067627 14.08264350891113 5.892720222473145 14.08264350891113 M 5.892720222473145 15.08264350891113 C 4.146029949188232 15.08264350891113 2.642930030822754 14.04061317443848 1.970960021018982 12.54433345794678 C 0.9622600674629211 10.68966293334961 4.272460785159637e-08 6.966953277587891 4.272460785159637e-08 6.966953277587891 L 2.372080087661743 8.060482978820801 C 3.745850086212158 4.696063041687012 6.461669921875 3.184966999469907e-06 6.461669921875 3.184966999469907e-06 C 6.461669921875 3.184966999469907e-06 6.571400165557861 2.981583118438721 7.572480201721191 5.502583026885986 C 7.867839813232422 6.244533061981201 8.276909828186035 6.954223155975342 8.683850288391113 7.61927318572998 C 9.883350372314453 6.721903324127197 11.10540008544922 5.552703380584717 11.10540008544922 5.552703380584717 C 11.10540008544922 5.552703380584717 10.75570011138916 11.64089298248291 9.617170333862305 12.92792320251465 C 8.875280380249023 14.21585273742676 7.485090255737305 15.08264350891113 5.892720222473145 15.08264350891113 Z" stroke="none" fill="#666"/>
      </g>
      <rect id="사각형_2725" data-name="사각형 2725" width="6" height="4" transform="translate(-17017 1692)" fill="#666"/>
      <rect id="사각형_2731" data-name="사각형 2731" width="6" height="4" transform="translate(-16996 1692)" fill="#666"/>
      <g id="사각형_2730" data-name="사각형 2730" transform="translate(-17011 1674)" fill="#fff" stroke="#666" stroke-width="1">
        <rect width="15" height="5" rx="2" stroke="none"/>
        <rect x="0.5" y="0.5" width="14" height="4" rx="1.5" fill="none"/>
      </g>
      <g id="사각형_2732" data-name="사각형 2732" transform="translate(-17023 1631)" fill="none" stroke="#666" stroke-width="1">
        <rect width="37" height="55" rx="2" stroke="none"/>
        <rect x="0.5" y="0.5" width="36" height="54" rx="1.5" fill="none"/>
      </g>
    </g>
  </g>
</svg>
