<svg xmlns="http://www.w3.org/2000/svg" width="116" height="116" viewBox="0 0 116 116">
  <g id="그룹_5496" data-name="그룹 5496" transform="translate(0.089)">
    <rect id="사각형_2197" data-name="사각형 2197" width="116" height="116" transform="translate(-0.089)" fill="none"/>
    <g id="그룹_5368" data-name="그룹 5368" transform="translate(21.912 22.338)">
      <g id="패스_3130" data-name="패스 3130" transform="translate(8.062 5.395) rotate(-8)" fill="#98c9f4">
        <path d="M 2.113373756408691 9.064023971557617 C 1.648919582366943 9.064023971557617 1.289468169212341 9.063802719116211 1.011718392372131 9.063449859619141 C 1.083031058311462 7.668592929840088 1.498565554618835 4.76912784576416 3.158713817596436 2.857693910598755 C 4.24441385269165 1.607653975486755 5.650774002075195 1.000004053115845 7.45815372467041 1.000004053115845 C 8.864443778991699 1.000004053115845 10.0758638381958 1.387984037399292 11.05876350402832 2.153163909912109 C 11.88086414337158 2.793154001235962 12.5693941116333 3.710253953933716 13.10525417327881 4.879004001617432 C 13.49650478363037 5.732344150543213 13.98169040679932 7.115164756774902 14.21900749206543 9.063693046569824 C 13.98697280883789 9.063894271850586 13.70541763305664 9.064014434814453 13.3637638092041 9.064014434814453 C 11.12840366363525 9.064014434814453 7.721693992614746 9.058863639831543 7.687543869018555 9.05881404876709 C 7.65135383605957 9.058863639831543 4.34869384765625 9.064023971557617 2.113373756408691 9.064023971557617 Z" stroke="none"/>
        <path d="M 7.45815372467041 2.000003814697266 C 5.998833656311035 2.000003814697266 4.864533424377441 2.466814041137695 3.990444183349609 3.427103996276855 C 2.802074432373047 4.732673645019531 2.306042671203613 6.674139022827148 2.112473487854004 8.064014434814453 C 2.112773895263672 8.064014434814453 2.11307430267334 8.064014434814453 2.113373756408691 8.064014434814453 C 4.347884178161621 8.064014434814453 7.64979362487793 8.058864593505859 7.682883739471436 8.05881404876709 L 7.689064025878906 8.05881404876709 C 7.721656799316406 8.05886173248291 10.82572841644287 8.063554763793945 13.05134963989258 8.063982963562012 C 12.81268405914307 6.825443267822266 12.47797870635986 5.910240650177002 12.19624328613281 5.295763969421387 C 11.72798347473145 4.274444103240967 11.13859367370605 3.482604026794434 10.44447326660156 2.942234039306641 C 9.630043983459473 2.30821418762207 8.653203964233398 2.000003814697266 7.45815372467041 2.000003814697266 M 7.45815372467041 3.814697265625e-06 C 15.15005397796631 -5.7220458984375e-06 15.26917362213135 10.04709434509277 15.32029342651367 10.05881404876709 C 15.37141418457031 10.07052421569824 7.686023235321045 10.05881404876709 7.686023712158203 10.05881404876709 C 7.686023235321045 10.05881404876709 0.2370624542236328 10.07052421569824 0.05175399780273438 10.05881404876709 C -0.1335659027099609 10.04709434509277 -0.2337560653686523 3.814697265625e-06 7.45815372467041 3.814697265625e-06 Z" stroke="none" fill="#666"/>
      </g>
      <path id="합치기_19" data-name="합치기 19" d="M11.055,25.469h0Zm0,0s-8.939-1-8.939-9.894V6.113C-.039,5.789,0,4.342,0,4.342V0H71.906V3.516c0,.814-.194,2.282-3,2.494V16.347s.387,8.966-9.58,8.966c-9.24,0-43.519.156-48.276.156Z" transform="translate(0 43.837)" fill="#ececec" stroke="#666" stroke-width="2"/>
      <path id="패스_3128" data-name="패스 3128" d="M-23905.445,9892.081l1.631-3.177" transform="translate(23917.625 -9819.598)" fill="none" stroke="#666" stroke-linecap="round" stroke-width="2"/>
      <path id="패스_3152" data-name="패스 3152" d="M-23901.992,9892.205l-2.367-3.3" transform="translate(23963.336 -9819.598)" fill="none" stroke="#666" stroke-linecap="round" stroke-width="2"/>
      <path id="패스_3129" data-name="패스 3129" d="M-23912.207,9886.969v-39.422s1.721-4.415,6.045-4.415,6.484,4.415,6.484,4.415" transform="translate(23914.324 -9843.132)" fill="none" stroke="#666" stroke-linecap="round" stroke-linejoin="round" stroke-width="2"/>
      <path id="패스_3131" data-name="패스 3131" d="M-23908.395,9853.481l17.373-2.481" transform="translate(23916.242 -9839.412)" fill="none" stroke="#666" stroke-linecap="round" stroke-width="2"/>
      <path id="패스_3132" data-name="패스 3132" d="M-23905.219,9855.2l.225,3.785.959,16.406" transform="translate(23917.854 -9837.034)" fill="none" stroke="#666" stroke-linecap="round" stroke-width="2" stroke-dasharray="2 4"/>
      <path id="패스_3133" data-name="패스 3133" d="M0,0,1.182,20.189" transform="matrix(0.995, -0.105, 0.105, 0.995, 17.602, 18.285)" fill="none" stroke="#666" stroke-linecap="round" stroke-width="2" stroke-dasharray="2 4"/>
      <path id="패스_3134" data-name="패스 3134" d="M0,0,1.182,20.189" transform="matrix(0.978, -0.208, 0.208, 0.978, 21.546, 17)" fill="none" stroke="#666" stroke-linecap="round" stroke-width="2" stroke-dasharray="2 4"/>
      <path id="패스_3135" data-name="패스 3135" d="M-23912.207,9876.27h4.5" transform="translate(23914.324 -9826.388)" fill="none" stroke="#666" stroke-linecap="round" stroke-width="2"/>
      <path id="패스_3136" data-name="패스 3136" d="M-23912.207,9876.27h4.5" transform="translate(23977.547 -9826.388)" fill="none" stroke="#666" stroke-linecap="round" stroke-width="2"/>
      <path id="패스_3137" data-name="패스 3137" d="M-23884.852,9846.147h3.275" transform="translate(23928.137 -9841.608)" fill="none" stroke="#666" stroke-linecap="round" stroke-width="2"/>
      <path id="패스_3138" data-name="패스 3138" d="M-23882.531,9846.821c-.07-3.144,3.281-3.5,3.281-3.5h16.691s-3.543-.627-3.344,3.5,0,24.1,0,24.1h-16.629Z" transform="translate(23929.314 -9843.05)" fill="#98c9f4" stroke="#666" stroke-linecap="round" stroke-width="2"/>
      <path id="패스_3139" data-name="패스 3139" d="M-23869.26,9843.332a2.9,2.9,0,0,1,2.771,3.151c.037,3.1,0,11.868,0,11.868" transform="translate(23936.016 -9843.032)" fill="none" stroke="#666" stroke-linecap="round" stroke-linejoin="round" stroke-width="2"/>
      <path id="패스_3140" data-name="패스 3140" d="M-23868.332,9846.3h3.967" transform="translate(23936.486 -9841.535)" fill="none" stroke="#666" stroke-linecap="round" stroke-width="2"/>
    </g>
  </g>
</svg>
