<svg xmlns="http://www.w3.org/2000/svg" width="116" height="116" viewBox="0 0 116 116">
  <g id="그룹_5497" data-name="그룹 5497" transform="translate(-0.439)">
    <rect id="사각형_2199" data-name="사각형 2199" width="116" height="116" transform="translate(0.439)" fill="none"/>
    <g id="그룹_5367" data-name="그룹 5367" transform="translate(13.44 22.258)">
      <g id="사각형_2165" data-name="사각형 2165" transform="translate(0 11.505)" fill="#ececec" stroke="#666" stroke-width="2">
        <rect width="22.58" height="15.053" stroke="none"/>
        <rect x="1" y="1" width="20.58" height="13.053" fill="none"/>
      </g>
      <g id="사각형_2166" data-name="사각형 2166" transform="translate(67.698 11.505)" fill="#ececec" stroke="#666" stroke-width="2">
        <rect width="22.58" height="15.053" stroke="none"/>
        <rect x="1" y="1" width="20.58" height="13.053" fill="none"/>
      </g>
      <path id="패스_3143" data-name="패스 3143" d="M-23775.539,9843.357v10.717l-8.785,12.107v2.271h24.992v-2.271l-8.848-12.107v-10.717" transform="translate(23816.926 -9843.357)" fill="#98c9f4" stroke="#666" stroke-width="2"/>
      <g id="사각형_2167" data-name="사각형 2167" transform="translate(0 40.106)" fill="#ececec" stroke="#666" stroke-width="2">
        <rect width="90.278" height="31.612" stroke="none"/>
        <rect x="1" y="1" width="88.278" height="29.612" fill="none"/>
      </g>
      <path id="패스_3144" data-name="패스 3144" d="M-23784.807,9870.668v32.15" transform="translate(23814.652 -9830.736)" fill="none" stroke="#666" stroke-width="2"/>
      <path id="패스_3146" data-name="패스 3146" d="M-23784.807,9870.668v32.15" transform="translate(23844.174 -9830.736)" fill="#ececec" stroke="#666" stroke-width="2"/>
      <path id="패스_3145" data-name="패스 3145" d="M-23800.434,9877.788h25.156" transform="translate(23801.066 -9825.958)" fill="#ececec" stroke="#666" stroke-width="2"/>
      <g id="패스_3151" data-name="패스 3151" transform="translate(35.96 53.654)" fill="#fff">
        <path d="M 15.55874252319336 11.04273700714111 L 1.000002264976501 11.04273700714111 L 1.000002264976501 0.9999966025352478 L 15.55874252319336 0.9999966025352478 L 15.55874252319336 11.04273700714111 Z" stroke="none"/>
        <path d="M 2.000001907348633 1.999996185302734 L 2.000001907348633 10.04273700714111 L 14.55874252319336 10.04273700714111 L 14.55874252319336 1.999996185302734 L 2.000001907348633 1.999996185302734 M 1.9073486328125e-06 -3.814697265625e-06 L 16.55874252319336 -3.814697265625e-06 L 16.55874252319336 12.04273700714111 L 1.9073486328125e-06 12.04273700714111 L 1.9073486328125e-06 -3.814697265625e-06 Z" stroke="none" fill="#666"/>
      </g>
      <g id="사각형_2169" data-name="사각형 2169" transform="translate(35.005 46.128)" fill="#707070" stroke="#666" stroke-width="2">
        <rect width="4.516" height="4.516" stroke="none"/>
        <rect x="1" y="1" width="2.516" height="2.516" fill="none"/>
      </g>
      <g id="사각형_2170" data-name="사각형 2170" transform="translate(42.006 46.128)" fill="#707070" stroke="#666" stroke-width="2">
        <rect width="4.516" height="4.516" stroke="none"/>
        <rect x="1" y="1" width="2.516" height="2.516" fill="none"/>
      </g>
      <g id="사각형_2171" data-name="사각형 2171" transform="translate(49.007 46.128)" fill="#707070" stroke="#666" stroke-width="2">
        <rect width="4.516" height="4.516" stroke="none"/>
        <rect x="1" y="1" width="2.516" height="2.516" fill="none"/>
      </g>
      <g id="사각형_2172" data-name="사각형 2172" transform="translate(72.214 49.138)" fill="#707070" stroke="#666" stroke-width="2">
        <rect width="7.527" height="4.516" stroke="none"/>
        <rect x="1" y="1" width="5.527" height="2.516" fill="none"/>
      </g>
    </g>
  </g>
</svg>
