<svg xmlns="http://www.w3.org/2000/svg" width="116" height="116" viewBox="0 0 116 116">
  <g id="그룹_5503" data-name="그룹 5503" transform="translate(-0.238)">
    <rect id="사각형_2205" data-name="사각형 2205" width="116" height="116" transform="translate(0.238)" fill="none"/>
    <g id="그룹_5364" data-name="그룹 5364" transform="translate(22.238 21.116)">
      <path id="패스_3175" data-name="패스 3175" d="M-23090.779,9886.275c6.988,6.257,2.045,22.67,2.045,22.67h-17.789v-53.181h25.672s.373,8.265-3.359,14.934-11.547,11.738-11.547,11.738a14.6,14.6,0,0,0-2.332,4.75,20.391,20.391,0,0,0-.461,5.768" transform="translate(23110.506 -9839.121)" fill="#ececec" stroke="#707070" stroke-linecap="round" stroke-linejoin="round" stroke-width="2"/>
      <path id="패스_3177" data-name="패스 3177" d="M-23103.363,9872.772h9.5" transform="translate(23113.746 -9829.869)" fill="none" stroke="#707070" stroke-linecap="round" stroke-width="2"/>
      <path id="패스_3179" data-name="패스 3179" d="M-23071.93,9886.859a50.484,50.484,0,0,0-2.295,11.139,29.2,29.2,0,0,0,1.207,10.293h17.076v-52.555h-25.461a23.694,23.694,0,0,0,2.207,12.957c3.219,6.266,10.662,12.11,10.662,12.11a14.515,14.515,0,0,1,3.264,5.327,28.52,28.52,0,0,1,1.094,7.629" transform="translate(23124.09 -9839.138)" fill="#ececec" stroke="#707070" stroke-linecap="round" stroke-linejoin="round" stroke-width="2"/>
      <path id="패스_3180" data-name="패스 3180" d="M-23103.363,9872.772h9.879" transform="translate(23155.451 -9829.869)" fill="none" stroke="#707070" stroke-linecap="round" stroke-width="2"/>
      <g id="그룹_5363" data-name="그룹 5363">
        <circle id="타원_192" data-name="타원 192" cx="2" cy="2" r="2" transform="translate(0 -0.116)" fill="#666"/>
        <circle id="타원_193" data-name="타원 193" cx="2" cy="2" r="2" transform="translate(67.334 -0.116)" fill="#666"/>
        <path id="패스_3173" data-name="패스 3173" d="M-23107.5,9846.5h66.867" transform="translate(23109.967 -9844.115)" fill="none" stroke="#666" stroke-width="2"/>
      </g>
      <path id="패스_3174" data-name="패스 3174" d="M-23107.176,9849.3v6.574s3.566-2.7,6.34-2.7,3.07,2.072,6.52,1.955,4.559-1.955,7.355-1.955,2.984,1.955,6.242,1.955,3.793-2.143,6.8-1.955,2.867,1.955,6.34,1.955,4.445-1.955,7.543-1.955,3.078,1.955,6.43,1.955,3.746-2.143,6.984-1.955a11.073,11.073,0,0,1,5.965,2.7V9849.3" transform="translate(23110.148 -9842.638)" fill="#98c9f4" stroke="#707070" stroke-linecap="round" stroke-linejoin="round" stroke-width="2"/>
    </g>
  </g>
</svg>
