<svg xmlns="http://www.w3.org/2000/svg" width="18" height="20" viewBox="0 0 18 20">
  <path id="Icon_awesome-shopping-bag" data-name="Icon awesome-shopping-bag" d="M14.143,6.25V5A5.079,5.079,0,0,0,9,0,5.079,5.079,0,0,0,3.857,5V6.25H0V16.875A3.171,3.171,0,0,0,3.214,20H14.786A3.171,3.171,0,0,0,18,16.875V6.25ZM6.429,5a2.572,2.572,0,0,1,5.143,0V6.25H6.429Zm6.429,4.688a.938.938,0,1,1,.964-.938A.951.951,0,0,1,12.857,9.688Zm-7.714,0a.938.938,0,1,1,.964-.938A.951.951,0,0,1,5.143,9.688Z" fill="#fff"/>
</svg>
