<svg xmlns="http://www.w3.org/2000/svg" width="50" height="50" viewBox="0 0 50 50">
  <g id="그룹_7910" data-name="그룹 7910" transform="translate(21348.999 5126)">
    <g id="그룹_7908" data-name="그룹 7908" transform="translate(-21348.777 -5125.667)">
      <circle id="타원_236" data-name="타원 236" cx="25" cy="25" r="25" transform="translate(-0.222 -0.334)" fill="#16284c"/>
    </g>
    <g id="그룹_7909" data-name="그룹 7909" transform="translate(300 110.924)">
      <path id="패스_3512" data-name="패스 3512" d="M0,0A3.785,3.785,0,0,0,2,.813,3.785,3.785,0,0,0,4,0a3.756,3.756,0,0,0-.826,2A3.756,3.756,0,0,0,4,4a3.868,3.868,0,0,0-2-.778A3.868,3.868,0,0,0,0,4,4.1,4.1,0,0,0,.7,2,4.1,4.1,0,0,0,0,0Z" transform="translate(-21626.453 -5218.268) rotate(-135)" fill="#fff"/>
      <path id="패스_3513" data-name="패스 3513" d="M0,0A5.678,5.678,0,0,0,3,1.219,5.678,5.678,0,0,0,6,0,5.634,5.634,0,0,0,4.761,3,5.634,5.634,0,0,0,6,6,5.8,5.8,0,0,0,3,4.833,5.8,5.8,0,0,0,0,6,6.147,6.147,0,0,0,1.052,3,6.147,6.147,0,0,0,0,0Z" transform="translate(-21634.758 -5211.621) rotate(-135)" fill="#fff"/>
      <path id="패스_3514" data-name="패스 3514" d="M-21585.2-5205.171c2.2-.321,17.8-.714,21.063,0s5,1.355,4.938,2.783-2.125,1.882-4.937,2.337-3.5-1.774-6.641-1.3c-3.172.473-3.062,2.392-6.234,2.178s-3.547-.8-6.187-1.713c-2.625-.91-3.062.106-4.641-.465-1.594-.571-1.687-1.187-1.125-2.177C-21588.375-5204.52-21587.406-5204.851-21585.2-5205.171Z" transform="translate(-49.313 -1.364)" fill="#fff"/>
      <path id="패스_3515" data-name="패스 3515" d="M-21569.758-5217.743a9.563,9.563,0,0,1-3.32,2.42c-2.016.839-3.836.483-4.738.935s-6.121,5.929-6.121,5.929-.34.709,0,1.031.609.451,1.352.257,2.969-2.513,5.254-3.351,3.9-.242,3.9,0-2.621.346-3.9.966-1.484.942-1.484,1.482.551.837,1,.9a89.364,89.364,0,0,0,9.441-.418c.938-.29,1.234-.886,1.742-1.966s.105-1.168.516-2.223a9.422,9.422,0,0,1,1.129-2Z" transform="translate(-48.583 -0.798)" fill="#fff"/>
      <rect id="사각형_2797" data-name="사각형 2797" width="9" height="5" rx="1" transform="matrix(0.766, 0.643, -0.643, 0.766, -21615.41, -5223.924)" fill="#fff"/>
    </g>
  </g>
</svg>
