<svg xmlns="http://www.w3.org/2000/svg" width="19.999" height="20" viewBox="0 0 19.999 20">
  <g id="그룹_4857" data-name="그룹 4857" transform="translate(-0.499 0.167)">
    <g id="그룹_4858" data-name="그룹 4858">
      <g id="그룹_4856" data-name="그룹 4856" transform="translate(0.499 -0.167)">
        <g id="그룹_4852" data-name="그룹 4852">
          <path id="합치기_7" data-name="합치기 7" d="M10.758,20a1.552,1.552,0,1,1,0-3.1H11.94a1.552,1.552,0,0,1,1.379.841,4.1,4.1,0,0,0,2.916-.783,3.669,3.669,0,0,0,.7-1.609h-1.22V7.586h.016a10.878,10.878,0,0,0-.67-2.127c-1.146-2.592-3.7-2.73-4.93-2.73a5.218,5.218,0,0,0-5.1,2.753,10.843,10.843,0,0,0-.742,2.1h0v7.759H2a2,2,0,0,1-2-2V9.586A2,2,0,0,1,1.69,7.61a12.933,12.933,0,0,1,.923-2.794A7.928,7.928,0,0,1,10.13,0a7.589,7.589,0,0,1,7.36,4.839,12.686,12.686,0,0,1,.821,2.771A2,2,0,0,1,20,9.586v3.758a2,2,0,0,1-1.607,1.962,5.568,5.568,0,0,1-1.079,2.678c-.711.864-2.812,1.305-4.01,1.305v-.1A1.551,1.551,0,0,1,11.94,20Z" transform="translate(0)" fill="#fff"/>
        </g>
      </g>
      <g id="그룹_4855" data-name="그룹 4855" transform="translate(8.481 6.684)">
        <path id="패스_3062" data-name="패스 3062" d="M-7877.721-3286.423a2.218,2.218,0,0,1,.1-.8,3.157,3.157,0,0,1,1.327-1.485,1.245,1.245,0,0,0,.376-.967.741.741,0,0,0-.448-.652,1.6,1.6,0,0,0-1.687.333.637.637,0,0,1-.641-.233c-.248-.333.087-.729.087-.729a2.49,2.49,0,0,1,2.785-.334,1.824,1.824,0,0,1,1.068,1.546,2.267,2.267,0,0,1-.873,1.931l-.017.011a2.248,2.248,0,0,0-.85.853,2.361,2.361,0,0,0-.1.529Z" transform="translate(7878.785 3291.578)" fill="#fff"/>
        <circle id="타원_174" data-name="타원 174" cx="0.583" cy="0.583" r="0.583" transform="translate(1.024 6.149)" fill="#fff"/>
      </g>
    </g>
  </g>
</svg>
