<svg xmlns="http://www.w3.org/2000/svg" width="30" height="30" viewBox="0 0 30 30">
  <g id="그룹_5581" data-name="그룹 5581" transform="translate(8353 3961)">
    <rect id="사각형_1862" data-name="사각형 1862" width="30" height="30" transform="translate(-8353 -3961)" fill="none"/>
    <path id="Icon_feather-heart" data-name="Icon feather-heart" d="M15.585,3.5a5.653,5.653,0,0,1,4.064,1.714,5.9,5.9,0,0,1,0,8.228L12.037,21.2a1,1,0,0,1-1.428,0L3,13.44A5.9,5.9,0,0,1,3,5.211a5.675,5.675,0,0,1,8.127,0l.2.2.2-.2A5.653,5.653,0,0,1,15.585,3.5Z" transform="translate(-8348.823 -3957.997)" fill="#16284c"/>
  </g>
</svg>
