<svg xmlns="http://www.w3.org/2000/svg" width="116" height="116" viewBox="0 0 116 116">
  <g id="그룹_5504" data-name="그룹 5504" transform="translate(0.473)">
    <rect id="사각형_2206" data-name="사각형 2206" width="116" height="116" transform="translate(-0.473)" fill="none"/>
    <g id="그룹_5359" data-name="그룹 5359" transform="translate(25.526 25.998)">
      <path id="패스_3113" data-name="패스 3113" d="M-23221.287,9845.746v4a3.928,3.928,0,0,0,3.814,2.924c3.074-.061,52.105,0,52.105,0s4.963.678,5.037-2.924a37.243,37.243,0,0,0,0-4" transform="translate(23222.447 -9845.746)" fill="#ececec" stroke="#666" stroke-linecap="round" stroke-linejoin="round" stroke-width="2"/>
      <path id="패스_3114" data-name="패스 3114" d="M-23210.713,9850.265s-.047,4.068,0,4.119c.029.03-.521,1.255-2.807,1.255-2.584,0-1.887-.288-3.572-1.255" transform="translate(23224.732 -9843.291)" fill="#ececec" stroke="#666" stroke-linecap="round" stroke-linejoin="round" stroke-width="2"/>
      <path id="패스_3115" data-name="패스 3115" d="M-23210.713,9850.265s-.047,4.068,0,4.119c.029.03-.521,1.255-2.807,1.255-2.584,0-1.887-.288-3.572-1.255" transform="translate(23245.559 -9843.291)" fill="#ececec" stroke="#666" stroke-linecap="round" stroke-linejoin="round" stroke-width="2"/>
      <path id="패스_3116" data-name="패스 3116" d="M-23210.713,9850.265s-.047,4.068,0,4.119c.029.03-.521,1.255-2.807,1.255-2.584,0-1.887-.288-3.572-1.255" transform="translate(23265.629 -9843.291)" fill="#ececec" stroke="#666" stroke-linecap="round" stroke-linejoin="round" stroke-width="2"/>
      <path id="패스_3117" data-name="패스 3117" d="M-23215.023,9855.42v31" transform="translate(23225.852 -9840.483)" fill="none" stroke="#666" stroke-linecap="round" stroke-width="2"/>
      <path id="패스_3118" data-name="패스 3118" d="M-23215.023,9855.42v18.65" transform="translate(23246.682 -9840.483)" fill="none" stroke="#666" stroke-linecap="round" stroke-width="2"/>
      <path id="패스_3119" data-name="패스 3119" d="M-23215.023,9855.42v6.084" transform="translate(23267.506 -9840.483)" fill="none" stroke="#666" stroke-linecap="round" stroke-width="2"/>
      <g id="패스_3120" data-name="패스 3120" transform="translate(0.037 45.166)" fill="#98c9f4" stroke-linecap="round" stroke-linejoin="round">
        <path d="M 18.86559867858887 11.35886192321777 C 15.70075798034668 11.35886192321777 10.87770843505859 11.35156154632568 10.82935810089111 11.35149192810059 C 10.77940845489502 11.35156154632568 6.103638172149658 11.35886192321777 2.938848257064819 11.35886192321777 C 2.034195423126221 11.35886192321777 1.409932613372803 11.35826683044434 0.9803412556648254 11.35740089416504 C 1.080777645111084 9.838501930236816 1.637834310531616 6.440204620361328 3.79403829574585 3.955361604690552 C 5.495718002319336 1.994331479072571 7.862228393554688 1.000001549720764 10.82783794403076 1.000001549720764 C 14.65504837036133 1.000001549720764 17.42871856689453 2.657521486282349 19.07180786132812 5.926521301269531 C 19.62098503112793 7.019134998321533 20.29557991027832 8.813762664794922 20.55207252502441 11.3578405380249 C 20.15509796142578 11.35845756530762 19.61071395874023 11.35886192321777 18.86559867858887 11.35886192321777 Z" stroke="none"/>
        <path d="M 10.82783794403076 2.000001907348633 C 8.210668563842773 2.000001907348633 6.203787803649902 2.801471710205078 4.69251823425293 4.450201511383057 C 3.376317977905273 5.886111736297607 2.707508087158203 7.706661701202393 2.378229141235352 8.981061935424805 C 2.25019645690918 9.476567268371582 2.159078598022461 9.944435119628906 2.09538459777832 10.35865592956543 C 2.344583511352539 10.35878753662109 2.624408721923828 10.35886192321777 2.938848495483398 10.35886192321777 C 6.102838516235352 10.35886192321777 10.7778377532959 10.35157203674316 10.82469844818115 10.35149192810059 C 10.82675838470459 10.35149192810059 10.82881832122803 10.35149192810059 10.83088779449463 10.35149192810059 C 10.87922859191895 10.35157203674316 15.7015380859375 10.35886192321777 18.86559867858887 10.35886192321777 C 19.06185340881348 10.35886192321777 19.24404144287109 10.35883235931396 19.41294288635254 10.35877990722656 C 19.11734580993652 8.543828964233398 18.606689453125 7.227864742279053 18.1783275604248 6.375611305236816 C 16.69841766357422 3.431271553039551 14.29405784606934 2.000001907348633 10.82783794403076 2.000001907348633 M 10.82783794403076 1.9073486328125e-06 C 21.71697807312012 1.9073486328125e-06 21.56301879882812 12.33491134643555 21.6353874206543 12.35149192810059 C 21.7077579498291 12.36808109283447 10.82783699035645 12.35149192810059 10.82783794403076 12.35149192810059 C 10.82783794403076 12.35149192810059 0.2826328277587891 12.36808109283447 0.02028846740722656 12.35149192810059 C -0.2420616149902344 12.33491134643555 -0.06129264831542969 1.9073486328125e-06 10.82783794403076 1.9073486328125e-06 Z" stroke="none" fill="#666"/>
      </g>
      <g id="패스_3121" data-name="패스 3121" transform="translate(20.856 33.579)" fill="#98c9f4" stroke-linecap="round" stroke-linejoin="round">
        <path d="M 18.86559867858887 11.35886192321777 C 15.70075798034668 11.35886192321777 10.87770843505859 11.35156154632568 10.82935810089111 11.35149192810059 C 10.77940845489502 11.35156154632568 6.103638172149658 11.35886192321777 2.938848257064819 11.35886192321777 C 2.034195423126221 11.35886192321777 1.409932613372803 11.35826683044434 0.9803412556648254 11.35740089416504 C 1.080777645111084 9.838501930236816 1.637834310531616 6.440204620361328 3.79403829574585 3.955361604690552 C 5.495718002319336 1.994331479072571 7.862228393554688 1.000001549720764 10.82783794403076 1.000001549720764 C 14.65504837036133 1.000001549720764 17.42871856689453 2.657521486282349 19.07180786132812 5.926521301269531 C 19.62098503112793 7.019134998321533 20.29557991027832 8.813762664794922 20.55207252502441 11.3578405380249 C 20.15509796142578 11.35845756530762 19.61071395874023 11.35886192321777 18.86559867858887 11.35886192321777 Z" stroke="none"/>
        <path d="M 10.82783794403076 2.000001907348633 C 8.210668563842773 2.000001907348633 6.203787803649902 2.801471710205078 4.69251823425293 4.450201511383057 C 3.376317977905273 5.886111736297607 2.707508087158203 7.706661701202393 2.378229141235352 8.981061935424805 C 2.25019645690918 9.476567268371582 2.159078598022461 9.944435119628906 2.09538459777832 10.35865592956543 C 2.344583511352539 10.35878753662109 2.624408721923828 10.35886192321777 2.938848495483398 10.35886192321777 C 6.102838516235352 10.35886192321777 10.7778377532959 10.35157203674316 10.82469844818115 10.35149192810059 C 10.82675838470459 10.35149192810059 10.82881832122803 10.35149192810059 10.83088779449463 10.35149192810059 C 10.87922859191895 10.35157203674316 15.7015380859375 10.35886192321777 18.86559867858887 10.35886192321777 C 19.06185340881348 10.35886192321777 19.24404144287109 10.35883235931396 19.41294288635254 10.35877990722656 C 19.11734580993652 8.543828964233398 18.606689453125 7.227864742279053 18.1783275604248 6.375611305236816 C 16.69841766357422 3.431271553039551 14.29405784606934 2.000001907348633 10.82783794403076 2.000001907348633 M 10.82783794403076 1.9073486328125e-06 C 21.71697807312012 1.9073486328125e-06 21.56301879882812 12.33491134643555 21.6353874206543 12.35149192810059 C 21.7077579498291 12.36808109283447 10.82783699035645 12.35149192810059 10.82783794403076 12.35149192810059 C 10.82783794403076 12.35149192810059 0.2826328277587891 12.36808109283447 0.02028846740722656 12.35149192810059 C -0.2420616149902344 12.33491134643555 -0.06129264831542969 1.9073486328125e-06 10.82783794403076 1.9073486328125e-06 Z" stroke="none" fill="#666"/>
      </g>
      <g id="패스_3122" data-name="패스 3122" transform="translate(41.681 21.02)" fill="#98c9f4" stroke-linecap="round" stroke-linejoin="round">
        <path d="M 18.86559867858887 11.35886192321777 C 15.70075798034668 11.35886192321777 10.87770843505859 11.35156154632568 10.82935810089111 11.35149192810059 C 10.77940845489502 11.35156154632568 6.103638172149658 11.35886192321777 2.938848257064819 11.35886192321777 C 2.034195423126221 11.35886192321777 1.409932613372803 11.35826683044434 0.9803412556648254 11.35740089416504 C 1.080777645111084 9.838501930236816 1.637834310531616 6.440204620361328 3.79403829574585 3.955361604690552 C 5.495718002319336 1.994331479072571 7.862228393554688 1.000001549720764 10.82783794403076 1.000001549720764 C 14.65504837036133 1.000001549720764 17.42871856689453 2.657521486282349 19.07180786132812 5.926521301269531 C 19.62098503112793 7.019134998321533 20.29557991027832 8.813762664794922 20.55207252502441 11.3578405380249 C 20.15509796142578 11.35845756530762 19.61071395874023 11.35886192321777 18.86559867858887 11.35886192321777 Z" stroke="none"/>
        <path d="M 10.82783794403076 2.000001907348633 C 8.210668563842773 2.000001907348633 6.203787803649902 2.801471710205078 4.69251823425293 4.450201511383057 C 3.376317977905273 5.886111736297607 2.707508087158203 7.706661701202393 2.378229141235352 8.981061935424805 C 2.25019645690918 9.476567268371582 2.159078598022461 9.944435119628906 2.09538459777832 10.35865592956543 C 2.344583511352539 10.35878753662109 2.624408721923828 10.35886192321777 2.938848495483398 10.35886192321777 C 6.102838516235352 10.35886192321777 10.7778377532959 10.35157203674316 10.82469844818115 10.35149192810059 C 10.82675838470459 10.35149192810059 10.82881832122803 10.35149192810059 10.83088779449463 10.35149192810059 C 10.87922859191895 10.35157203674316 15.7015380859375 10.35886192321777 18.86559867858887 10.35886192321777 C 19.06185340881348 10.35886192321777 19.24404144287109 10.35883235931396 19.41294288635254 10.35877990722656 C 19.11734580993652 8.543828964233398 18.606689453125 7.227864742279053 18.1783275604248 6.375611305236816 C 16.69841766357422 3.431271553039551 14.29405784606934 2.000001907348633 10.82783794403076 2.000001907348633 M 10.82783794403076 1.9073486328125e-06 C 21.71697807312012 1.9073486328125e-06 21.56301879882812 12.33491134643555 21.6353874206543 12.35149192810059 C 21.7077579498291 12.36808109283447 10.82783699035645 12.35149192810059 10.82783794403076 12.35149192810059 C 10.82783794403076 12.35149192810059 0.2826328277587891 12.36808109283447 0.02028846740722656 12.35149192810059 C -0.2420616149902344 12.33491134643555 -0.06129264831542969 1.9073486328125e-06 10.82783794403076 1.9073486328125e-06 Z" stroke="none" fill="#666"/>
      </g>
      <path id="패스_3123" data-name="패스 3123" d="M-23217.859,9884.412v2.422h7.992v-2.422" transform="translate(23224.311 -9824.716)" fill="#98c9f4" stroke="#666" stroke-linecap="round" stroke-linejoin="round" stroke-width="2"/>
      <path id="패스_3124" data-name="패스 3124" d="M-23217.859,9884.412v2.422h7.992v-2.422" transform="translate(23245.516 -9837.065)" fill="#98c9f4" stroke="#666" stroke-linecap="round" stroke-linejoin="round" stroke-width="2"/>
      <path id="패스_3125" data-name="패스 3125" d="M-23217.859,9884.412v2.422h7.992v-2.422" transform="translate(23266.398 -9849.281)" fill="#98c9f4" stroke="#666" stroke-linecap="round" stroke-linejoin="round" stroke-width="2"/>
    </g>
  </g>
</svg>
