<svg xmlns="http://www.w3.org/2000/svg" width="50" height="50" viewBox="0 0 50 50">
  <g id="그룹_7901" data-name="그룹 7901" transform="translate(21930 5215)">
    <g id="그룹_7897" data-name="그룹 7897" transform="translate(-21930 -5215)">
      <circle id="타원_236" data-name="타원 236" cx="25" cy="25" r="25" transform="translate(0 0)" fill="#16284c"/>
    </g>
    <path id="합치기_95" data-name="합치기 95" d="M9,13.11V11.557H2a2,2,0,0,1-2-2v-4a2,2,0,0,1,2-2H9V2A2,2,0,0,1,11.993.266L17.961,5.82a2.181,2.181,0,0,1,0,3.473l-5.969,5.553A2,2,0,0,1,9,13.11Z" transform="translate(-21901.59 -5184.165) rotate(-180)" fill="#fff"/>
    <g id="합치기_94" data-name="합치기 94" transform="translate(-21908.41 -5195.835)" fill="none">
      <path d="M9,13.11V11.557H2a2,2,0,0,1-2-2v-4a2,2,0,0,1,2-2H9V2A2,2,0,0,1,11.993.266L17.961,5.82a2.181,2.181,0,0,1,0,3.473l-5.969,5.553A2,2,0,0,1,9,13.11Z" stroke="none"/>
      <path d="M 11.00259971618652 14.11306381225586 L 11.00257968902588 14.11306381225586 C 11.14242649078369 14.11305522918701 11.27898025512695 14.08271503448486 11.40971565246582 14.02274036407471 L 17.26618194580078 8.574249267578125 C 17.6355094909668 8.201651573181152 17.82271766662598 7.859294891357422 17.82259941101074 7.556563377380371 C 17.82248115539551 7.253924369812012 17.63520812988281 6.911704063415527 17.26597785949707 6.539253711700439 L 11.40991401672363 1.090252995491028 C 11.27921199798584 1.030390977859497 11.14273929595947 1.000123381614685 11.00298976898193 1.000123381614685 C 10.5206298828125 1.000123381614685 10 1.383703470230103 10 2.003403425216675 L 10 4.556803226470947 L 1.999799728393555 4.556803226470947 C 1.448509812355042 4.556803226470947 0.9999997615814209 5.005313396453857 0.9999997615814209 5.55660343170166 L 0.9999997615814209 9.556203842163086 C 0.9999997615814209 10.10799312591553 1.448509812355042 10.55690383911133 1.999799728393555 10.55690383911133 L 10 10.55690383911133 L 10 13.11030387878418 C 10 13.46399307250977 10.16399955749512 13.69551372528076 10.30157947540283 13.82745361328125 C 10.49084949493408 14.00897312164307 10.74635982513428 14.11307334899902 11.00259971618652 14.11306381225586 M 11.00263977050781 15.11306381225586 C 9.957539558410645 15.11310386657715 9 14.27694320678711 9 13.11030387878418 L 9 11.55690383911133 L 1.999799728393555 11.55690383911133 C 0.8954997658729553 11.55690383911133 -2.410888555459678e-07 10.66140365600586 -2.410888555459678e-07 9.556203842163086 L -2.410888555459678e-07 5.55660343170166 C -2.410888555459678e-07 4.452303409576416 0.8954997658729553 3.556803464889526 1.999799728393555 3.556803464889526 L 9 3.556803464889526 L 9 2.003403425216675 C 9 0.4671039879322052 10.65870189666748 -0.4949974715709686 11.99249935150146 0.2664034068584442 L 17.96129989624023 5.820303440093994 C 19.10879898071289 6.967803478240967 19.11059951782227 8.144103050231934 17.96129989624023 9.293403625488281 L 11.99249935150146 14.84640312194824 C 11.67216014862061 15.02948379516602 11.33298969268799 15.11304378509521 11.00263977050781 15.11306381225586 Z" stroke="none" fill="#fff"/>
    </g>
  </g>
</svg>
