<svg xmlns="http://www.w3.org/2000/svg" width="70" height="70" viewBox="0 0 70 70">
  <g id="그룹_5497" data-name="그룹 5497" transform="translate(5380 11695)">
    <rect id="사각형_2199" data-name="사각형 2199" width="70" height="70" transform="translate(-5380 -11695)" fill="none"/>
    <g id="그룹_5367" data-name="그룹 5367" transform="translate(18431 -21527.357)">
      <g id="사각형_2165" data-name="사각형 2165" transform="translate(-23802 9851)" fill="#ececec" stroke="#666" stroke-width="2">
        <rect width="15" height="10" stroke="none"/>
        <rect x="1" y="1" width="13" height="8" fill="none"/>
      </g>
      <g id="사각형_2166" data-name="사각형 2166" transform="translate(-23765 9851)" fill="#ececec" stroke="#666" stroke-width="2">
        <rect width="15" height="10" stroke="none"/>
        <rect x="1" y="1" width="13" height="8" fill="none"/>
      </g>
      <path id="패스_3143" data-name="패스 3143" d="M-23778.488,9843.357v7.119l-5.836,8.043v1.51h16.6v-1.51l-5.881-8.043v-7.119" fill="#98c9f4" stroke="#666" stroke-width="2"/>
      <g id="사각형_2167" data-name="사각형 2167" transform="translate(-23802 9870)" fill="#ececec" stroke="#666" stroke-width="2">
        <rect width="52" height="21" stroke="none"/>
        <rect x="1" y="1" width="50" height="19" fill="none"/>
      </g>
      <path id="패스_3144" data-name="패스 3144" d="M-23784.807,9870.668v21.358" transform="translate(0 -0.784)" fill="none" stroke="#666" stroke-width="2"/>
      <path id="패스_3146" data-name="패스 3146" d="M-23784.807,9870.668v21.358" transform="translate(17 -0.784)" fill="#ececec" stroke="#666" stroke-width="2"/>
      <path id="패스_3145" data-name="패스 3145" d="M-23800.434,9877.788h16.713" transform="translate(-1.146)" fill="#ececec" stroke="#666" stroke-width="2"/>
      <g id="패스_3151" data-name="패스 3151" transform="translate(-23782 9879)" fill="#fff">
        <path d="M 10 7 L 1 7 L 1 1 L 10 1 L 10 7 Z" stroke="none"/>
        <path d="M 2 2 L 2 6 L 9 6 L 9 2 L 2 2 M 0 0 L 11 0 L 11 8 L 0 8 L 0 0 Z" stroke="none" fill="#666"/>
      </g>
      <g id="사각형_2169" data-name="사각형 2169" transform="translate(-23782 9874)" fill="#707070" stroke="#666" stroke-width="2">
        <rect width="3" height="3" stroke="none"/>
        <rect x="1" y="1" width="1" height="1" fill="none"/>
      </g>
      <g id="사각형_2170" data-name="사각형 2170" transform="translate(-23778 9874)" fill="#707070" stroke="#666" stroke-width="2">
        <rect width="3" height="3" stroke="none"/>
        <rect x="1" y="1" width="1" height="1" fill="none"/>
      </g>
      <g id="사각형_2171" data-name="사각형 2171" transform="translate(-23774 9874)" fill="#707070" stroke="#666" stroke-width="2">
        <rect width="3" height="3" stroke="none"/>
        <rect x="1" y="1" width="1" height="1" fill="none"/>
      </g>
      <g id="사각형_2172" data-name="사각형 2172" transform="translate(-23762 9876)" fill="#707070" stroke="#666" stroke-width="2">
        <rect width="5" height="3" stroke="none"/>
        <rect x="1" y="1" width="3" height="1" fill="none"/>
      </g>
    </g>
  </g>
</svg>
