<svg xmlns="http://www.w3.org/2000/svg" width="116" height="116" viewBox="0 0 116 116">
  <g id="그룹_8698" data-name="그룹 8698" transform="translate(-18061.999 17534)">
    <g id="그룹_8695" data-name="그룹 8695">
      <g id="그룹_8692" data-name="그룹 8692">
        <g id="그룹_8683" data-name="그룹 8683" transform="translate(0 20)">
          <g id="그룹_8687" data-name="그룹 8687">
            <g id="그룹_8681" data-name="그룹 8681" transform="translate(18062.088 -17554)">
              <rect id="사각형_2197" data-name="사각형 2197" width="116" height="116" transform="translate(-0.089)" fill="none"/>
            </g>
          </g>
        </g>
        <g id="그룹_8697" data-name="그룹 8697" transform="translate(18081.842 -17513.684)">
          <g id="그룹_8357" data-name="그룹 8357" transform="translate(13.738)">
            <g id="그룹_8350" data-name="그룹 8350" transform="translate(0 21.547)">
              <g id="패스_3587" data-name="패스 3587" transform="translate(0.148 2.525)" fill="#fff">
                <path d="M 23.44853973388672 39.03562545776367 C 20.43134880065918 39.03562545776367 17.49884033203125 38.51667404174805 14.73246955871582 37.4931755065918 C 12.07913970947266 36.51150512695312 9.692749977111816 35.11114501953125 7.639569759368896 33.33098602294922 C 5.604979515075684 31.56694602966309 4.00745964050293 29.52554512023926 2.891389846801758 27.26349639892578 C 1.745749711990356 24.94151496887207 1.164859771728516 22.49541473388672 1.164859771728516 19.99314498901367 C 1.164859771728516 18.56752586364746 1.083499789237976 17.12569618225098 1.004819750785828 15.73132514953613 C 0.7366897463798523 10.97948551177979 0.4834297299385071 6.491175651550293 3.430279731750488 3.37336540222168 C 4.901259899139404 1.817035555839539 7.067749500274658 0.6667655110359192 10.05355930328369 -0.1431844979524612 C 13.43458938598633 -1.060344457626343 17.94130897521973 -1.525384545326233 23.44853973388672 -1.525384545326233 C 28.95577049255371 -1.525384545326233 33.46249008178711 -1.060344457626343 36.84352111816406 -0.1431844979524612 C 39.82933044433594 0.6667655110359192 41.99581909179688 1.817035555839539 43.46680068969727 3.37336540222168 C 46.41365051269531 6.491175651550293 46.1603889465332 10.97948551177979 45.89226150512695 15.73132514953613 C 45.81357955932617 17.12569618225098 45.73221969604492 18.56752586364746 45.73221969604492 19.99314498901367 C 45.73221969604492 22.49541473388672 45.15132904052734 24.94151496887207 44.00569152832031 27.26349639892578 C 42.88961029052734 29.52554512023926 41.29209136962891 31.56694602966309 39.25749969482422 33.33098602294922 C 37.20433044433594 35.11114501953125 34.81793975830078 36.51150512695312 32.16460800170898 37.4931755065918 C 29.39823913574219 38.51667404174805 26.46573066711426 39.03562545776367 23.44853973388672 39.03562545776367 Z" stroke="none"/>
                <path d="M 23.44853973388672 -0.5253944396972656 C 18.02970886230469 -0.5253944396972656 13.61106872558594 -0.07208633422851562 10.31536102294922 0.8219261169433594 C 7.5123291015625 1.582294464111328 5.497920989990234 2.641567230224609 4.157028198242188 4.060256958007812 C 2.981281280517578 5.304214477539062 2.301139831542969 6.857715606689453 2.016609191894531 8.94920539855957 C 1.738899230957031 10.99053573608398 1.867290496826172 13.26596641540527 2.003219604492188 15.67499542236328 C 2.082679748535156 17.08319473266602 2.164848327636719 18.53934478759766 2.164848327636719 19.99314498901367 C 2.164848327636719 22.34062576293945 2.711009979248047 24.63785552978516 3.788169860839844 26.82102584838867 C 4.845008850097656 28.96301651000977 6.361209869384766 30.89907455444336 8.294658660888672 32.57542419433594 C 10.25661087036133 34.27649688720703 12.53934860229492 35.61551666259766 15.07946014404297 36.55529403686523 C 17.73439025878906 37.53756713867188 20.5501594543457 38.03561401367188 23.44853973388672 38.03561401367188 C 26.34692001342773 38.03561401367188 29.16267967224121 37.53756713867188 31.81761932373047 36.55529403686523 C 34.35771942138672 35.61551666259766 36.64046096801758 34.27649688720703 38.60242080688477 32.57542419433594 C 40.53585815429688 30.89907455444336 42.05205917358398 28.96301651000977 43.1088981628418 26.82102584838867 C 44.18605804443359 24.63785552978516 44.73221969604492 22.34062576293945 44.73221969604492 19.99314498901367 C 44.73221969604492 18.53933525085449 44.81438827514648 17.08319473266602 44.89384841918945 15.67498588562012 C 45.02978134155273 13.26595497131348 45.15816879272461 10.99053573608398 44.88045883178711 8.949195861816406 C 44.59592819213867 6.857715606689453 43.91579818725586 5.304214477539062 42.74005126953125 4.060256958007812 C 41.39915084838867 2.641567230224609 39.38475036621094 1.582294464111328 36.58171844482422 0.8219261169433594 C 33.2859992980957 -0.07209396362304688 28.86737060546875 -0.5253944396972656 23.44853973388672 -0.5253944396972656 M 23.44853973388672 -2.525394439697266 C 51.53887939453125 -2.525394439697266 46.73221969604492 9.134056091308594 46.73221969604492 19.99314498901367 C 46.73221969604492 30.85222625732422 36.30775833129883 40.03561401367188 23.44853973388672 40.03561401367188 C 10.58930969238281 40.03561401367188 0.1648483276367188 30.85222625732422 0.1648483276367188 19.99314498901367 C 0.1648483276367188 9.134056091308594 -4.641799926757812 -2.525394439697266 23.44853973388672 -2.525394439697266 Z" stroke="none" fill="#16284c"/>
              </g>
            </g>
            <path id="합치기_125" data-name="합치기 125" d="M0,3.375,2.025.788,15.208,7.905,28.571,0l1.574,2.812-5.962,10.91L15.336,9.158,6.863,14.174Z" transform="translate(9.197 61.732)" fill="#16284c"/>
            <circle id="타원_281" data-name="타원 281" cx="3.053" cy="3.053" r="3.053" transform="translate(10.729 39.684)" fill="#16284c"/>
            <circle id="타원_282" data-name="타원 282" cx="3.053" cy="3.053" r="3.053" transform="translate(32.097 39.684)" fill="#16284c"/>
            <g id="그룹_8356" data-name="그룹 8356" transform="translate(0.045)">
              <g id="그룹_8355" data-name="그룹 8355">
                <g id="타원_283" data-name="타원 283" transform="translate(19.842)" fill="#16284c" stroke="#16284c" stroke-width="1">
                  <circle cx="4.579" cy="4.579" r="4.579" stroke="none"/>
                  <circle cx="4.579" cy="4.579" r="4.079" fill="none"/>
                </g>
                <path id="패스_3597" data-name="패스 3597" d="M15.263,1H32.053A15.263,15.263,0,0,1,47.316,16.263V33.053L24.421,26.685,0,33.053V16.263A15.263,15.263,0,0,1,15.263,1Z" transform="translate(0 2.053)" fill="#16284c"/>
                <path id="패스_3598" data-name="패스 3598" d="M-16751.34-21411.223s2.246,4.418,6.48,3.029,6-8.275,17.48-7.775,14.09,6.387,16.324,7.775,6.609-2.334,6.609-2.334.707-3.365-3.375-8.445-11.477-6.7-11.477-6.7a54.108,54.108,0,0,0-8.082-.7,55.759,55.759,0,0,0-8.156.7s-6.988,1.52-11.172,6.158S-16751.34-21411.223-16751.34-21411.223Z" transform="translate(16751.357 21446.393)" fill="#fff" stroke="#16284c" stroke-width="2"/>
              </g>
              <text id="코코수리" transform="translate(22.579 18.105)" fill="#ec7203" font-size="10" font-family="NotoSansCJKkr-Bold, Noto Sans CJK KR" font-weight="700"><tspan x="-18.4" y="0">코코수리</tspan></text>
            </g>
            <path id="패스_3599" data-name="패스 3599" d="M-16797-21432.02s3.711,2.34,7.285,2.34a14.507,14.507,0,0,0,7.02-2.34" transform="translate(16813.834 21485.414)" fill="none" stroke="#16284c" stroke-linecap="round" stroke-width="2"/>
          </g>
        </g>
      </g>
    </g>
  </g>
</svg>
