<svg xmlns="http://www.w3.org/2000/svg" xmlns:xlink="http://www.w3.org/1999/xlink" width="50" height="50" viewBox="0 0 50 50">
  <defs>
    <clipPath id="clip-path">
      <rect width="50" height="50" fill="none"/>
    </clipPath>
  </defs>
  <g id="반복_그리드_2" data-name="반복 그리드 2" clip-path="url(#clip-path)">
    <g id="그룹_8431" data-name="그룹 8431" transform="translate(21367 20767)">
      <rect id="사각형_2965" data-name="사각형 2965" width="50" height="50" rx="10" transform="translate(-21367 -20767)" fill="#ccc"/>
      <path id="합치기_129" data-name="합치기 129" d="M9.111,22.957a9.385,9.385,0,0,1-4.6-9.356H4.016A1,1,0,0,1,3.2,12.029l2.448-3.5a1,1,0,0,1,1.639,0l2.448,3.5A1,1,0,0,1,8.913,13.6H7.676a6.24,6.24,0,0,0,9.06,6.75l2.038,2.428a9.353,9.353,0,0,1-9.664.177Zm11.513-2.412-2.448-3.5a1,1,0,0,1,.819-1.574H20A6.239,6.239,0,0,0,11.37,9.1L9.3,6.633a9.44,9.44,0,0,1,2.07-.825,9.374,9.374,0,0,1,11.768,9.666h.755a1,1,0,0,1,.819,1.574l-2.448,3.5a1,1,0,0,1-1.639,0Z" transform="translate(-21355.953 -20756.215)" fill="#fff"/>
    </g>
  </g>
</svg>
