<svg xmlns="http://www.w3.org/2000/svg" width="70" height="70" viewBox="0 0 70 70">
  <g id="그룹_5504" data-name="그룹 5504" transform="translate(5375 11604)">
    <rect id="사각형_2206" data-name="사각형 2206" width="70" height="70" transform="translate(-5375 -11604)" fill="none"/>
    <g id="그룹_5359" data-name="그룹 5359" transform="translate(17861.037 -21434.746)">
      <path id="패스_3113" data-name="패스 3113" d="M-23221.287,9845.746v2.592a2.545,2.545,0,0,0,2.475,1.892c1.988-.039,33.744,0,33.744,0s3.217.438,3.266-1.892a25.034,25.034,0,0,0,0-2.592" fill="#ececec" stroke="#666" stroke-linecap="round" stroke-linejoin="round" stroke-width="2"/>
      <path id="패스_3114" data-name="패스 3114" d="M-23212.957,9850.263s-.031,2.637,0,2.669-.338.813-1.818.813c-1.672,0-1.221-.186-2.312-.812" fill="#ececec" stroke="#666" stroke-linecap="round" stroke-linejoin="round" stroke-width="2"/>
      <path id="패스_3115" data-name="패스 3115" d="M-23212.957,9850.263s-.031,2.637,0,2.669-.338.813-1.818.813c-1.672,0-1.221-.186-2.312-.812" transform="translate(13.488)" fill="#ececec" stroke="#666" stroke-linecap="round" stroke-linejoin="round" stroke-width="2"/>
      <path id="패스_3116" data-name="패스 3116" d="M-23212.957,9850.263s-.031,2.637,0,2.669-.338.813-1.818.813c-1.672,0-1.221-.186-2.312-.812" transform="translate(26.488)" fill="#ececec" stroke="#666" stroke-linecap="round" stroke-linejoin="round" stroke-width="2"/>
      <path id="패스_3117" data-name="패스 3117" d="M-23215.023,9855.42v20.08" fill="none" stroke="#666" stroke-linecap="round" stroke-width="2"/>
      <path id="패스_3118" data-name="패스 3118" d="M-23215.023,9855.42v12.08" transform="translate(13.489)" fill="none" stroke="#666" stroke-linecap="round" stroke-width="2"/>
      <path id="패스_3119" data-name="패스 3119" d="M-23215.023,9855.42v3.94" transform="translate(26.978)" fill="none" stroke="#666" stroke-linecap="round" stroke-width="2"/>
      <g id="패스_3120" data-name="패스 3120" transform="translate(-23222 9875)" fill="#98c9f4" stroke-linecap="round" stroke-linejoin="round">
        <path d="M 12.20601940155029 7.00477123260498 C 10.15644931793213 7.00477123260498 7.032839775085449 7.000051021575928 7.001519680023193 7.000000953674316 C 6.968079566955566 7.000051021575928 3.93986964225769 7.00477123260498 1.890329599380493 7.00477123260498 C 1.529841780662537 7.00477123260498 1.239118337631226 7.004621505737305 1.004660248756409 7.004376888275146 C 1.124361515045166 5.948550224304199 1.537783026695251 4.096254825592041 2.772909641265869 2.721911191940308 C 3.799739599227905 1.579331040382385 5.221939563751221 1.000001072883606 6.999999523162842 1.000001072883606 C 8.292180061340332 1.000001072883606 9.392250061035156 1.305711150169373 10.26964950561523 1.908631086349487 C 10.98486995697021 2.400101184844971 11.57538986206055 3.102671146392822 12.02480983734131 3.996811151504517 C 12.3384838104248 4.620885372161865 12.71794414520264 5.614499568939209 12.90265560150146 7.00454044342041 C 12.70803737640381 7.004685878753662 12.47799968719482 7.00477123260498 12.20601940155029 7.00477123260498 Z" stroke="none"/>
        <path d="M 6.999999523162842 2.000000953674316 C 5.540359497070312 2.000000953674316 4.425909996032715 2.427731037139893 3.592959403991699 3.30764102935791 C 2.842309951782227 4.100606918334961 2.426872253417969 5.13218879699707 2.203427314758301 6.00473690032959 C 4.233393669128418 6.004312515258789 6.96803092956543 6.000048637390137 6.996859550476074 6.000000953674316 C 6.998919486999512 6.000000953674316 7.000979423522949 6.000000953674316 7.003049850463867 6.000000953674316 C 7.031852722167969 6.000047206878662 9.678449630737305 6.004047393798828 11.69714164733887 6.004685401916504 C 11.52771472930908 5.330386161804199 11.31653785705566 4.81439208984375 11.13131999969482 4.445900917053223 C 10.29258918762207 2.777201175689697 8.979839324951172 2.000000953674316 6.999999523162842 2.000000953674316 M 6.999999523162842 9.5367431640625e-07 C 14.0528392791748 9.5367431640625e-07 13.95312976837158 7.989261150360107 14 8.000000953674316 C 14.04687976837158 8.010741233825684 7.000000476837158 8.000000953674316 6.999999523162842 8.000000953674316 C 6.999999523162842 8.000000953674316 0.169917106628418 8.010741233825684 0 8.000000953674316 C -0.1699199676513672 7.989261150360107 -0.05284023284912109 9.5367431640625e-07 6.999999523162842 9.5367431640625e-07 Z" stroke="none" fill="#666"/>
      </g>
      <g id="패스_3121" data-name="패스 3121" transform="translate(-23208.516 9867.495)" fill="#98c9f4" stroke-linecap="round" stroke-linejoin="round">
        <path d="M 12.20601940155029 7.00477123260498 C 10.15644931793213 7.00477123260498 7.032839775085449 7.000051021575928 7.001519680023193 7.000000953674316 C 6.968079566955566 7.000051021575928 3.93986964225769 7.00477123260498 1.890329599380493 7.00477123260498 C 1.529841780662537 7.00477123260498 1.239118337631226 7.004621505737305 1.004660248756409 7.004376888275146 C 1.124361515045166 5.948550224304199 1.537783026695251 4.096254825592041 2.772909641265869 2.721911191940308 C 3.799739599227905 1.579331040382385 5.221939563751221 1.000001072883606 6.999999523162842 1.000001072883606 C 8.292180061340332 1.000001072883606 9.392250061035156 1.305711150169373 10.26964950561523 1.908631086349487 C 10.98486995697021 2.400101184844971 11.57538986206055 3.102671146392822 12.02480983734131 3.996811151504517 C 12.3384838104248 4.620885372161865 12.71794414520264 5.614499568939209 12.90265560150146 7.00454044342041 C 12.70803737640381 7.004685878753662 12.47799968719482 7.00477123260498 12.20601940155029 7.00477123260498 Z" stroke="none"/>
        <path d="M 6.999999523162842 2.000000953674316 C 5.540359497070312 2.000000953674316 4.425909996032715 2.427731037139893 3.592959403991699 3.30764102935791 C 2.842309951782227 4.100606918334961 2.426872253417969 5.13218879699707 2.203427314758301 6.00473690032959 C 4.233393669128418 6.004312515258789 6.96803092956543 6.000048637390137 6.996859550476074 6.000000953674316 C 6.998919486999512 6.000000953674316 7.000979423522949 6.000000953674316 7.003049850463867 6.000000953674316 C 7.031852722167969 6.000047206878662 9.678449630737305 6.004047393798828 11.69714164733887 6.004685401916504 C 11.52771472930908 5.330386161804199 11.31653785705566 4.81439208984375 11.13131999969482 4.445900917053223 C 10.29258918762207 2.777201175689697 8.979839324951172 2.000000953674316 6.999999523162842 2.000000953674316 M 6.999999523162842 9.5367431640625e-07 C 14.0528392791748 9.5367431640625e-07 13.95312976837158 7.989261150360107 14 8.000000953674316 C 14.04687976837158 8.010741233825684 7.000000476837158 8.000000953674316 6.999999523162842 8.000000953674316 C 6.999999523162842 8.000000953674316 0.169917106628418 8.010741233825684 0 8.000000953674316 C -0.1699199676513672 7.989261150360107 -0.05284023284912109 9.5367431640625e-07 6.999999523162842 9.5367431640625e-07 Z" stroke="none" fill="#666"/>
      </g>
      <g id="패스_3122" data-name="패스 3122" transform="translate(-23195.027 9859.36)" fill="#98c9f4" stroke-linecap="round" stroke-linejoin="round">
        <path d="M 12.20601940155029 7.00477123260498 C 10.15644931793213 7.00477123260498 7.032839775085449 7.000051021575928 7.001519680023193 7.000000953674316 C 6.968079566955566 7.000051021575928 3.93986964225769 7.00477123260498 1.890329599380493 7.00477123260498 C 1.529841780662537 7.00477123260498 1.239118337631226 7.004621505737305 1.004660248756409 7.004376888275146 C 1.124361515045166 5.948550224304199 1.537783026695251 4.096254825592041 2.772909641265869 2.721911191940308 C 3.799739599227905 1.579331040382385 5.221939563751221 1.000001072883606 6.999999523162842 1.000001072883606 C 8.292180061340332 1.000001072883606 9.392250061035156 1.305711150169373 10.26964950561523 1.908631086349487 C 10.98486995697021 2.400101184844971 11.57538986206055 3.102671146392822 12.02480983734131 3.996811151504517 C 12.3384838104248 4.620885372161865 12.71794414520264 5.614499568939209 12.90265560150146 7.00454044342041 C 12.70803737640381 7.004685878753662 12.47799968719482 7.00477123260498 12.20601940155029 7.00477123260498 Z" stroke="none"/>
        <path d="M 6.999999523162842 2.000000953674316 C 5.540359497070312 2.000000953674316 4.425909996032715 2.427731037139893 3.592959403991699 3.30764102935791 C 2.842309951782227 4.100606918334961 2.426872253417969 5.13218879699707 2.203427314758301 6.00473690032959 C 4.233393669128418 6.004312515258789 6.96803092956543 6.000048637390137 6.996859550476074 6.000000953674316 C 6.998919486999512 6.000000953674316 7.000979423522949 6.000000953674316 7.003049850463867 6.000000953674316 C 7.031852722167969 6.000047206878662 9.678449630737305 6.004047393798828 11.69714164733887 6.004685401916504 C 11.52771472930908 5.330386161804199 11.31653785705566 4.81439208984375 11.13131999969482 4.445900917053223 C 10.29258918762207 2.777201175689697 8.979839324951172 2.000000953674316 6.999999523162842 2.000000953674316 M 6.999999523162842 9.5367431640625e-07 C 14.0528392791748 9.5367431640625e-07 13.95312976837158 7.989261150360107 14 8.000000953674316 C 14.04687976837158 8.010741233825684 7.000000476837158 8.000000953674316 6.999999523162842 8.000000953674316 C 6.999999523162842 8.000000953674316 0.169917106628418 8.010741233825684 0 8.000000953674316 C -0.1699199676513672 7.989261150360107 -0.05284023284912109 9.5367431640625e-07 6.999999523162842 9.5367431640625e-07 Z" stroke="none" fill="#666"/>
      </g>
      <path id="패스_3123" data-name="패스 3123" d="M-23217.859,9884.412v1.568h5.178v-1.568" fill="#98c9f4" stroke="#666" stroke-linecap="round" stroke-linejoin="round" stroke-width="2"/>
      <path id="패스_3124" data-name="패스 3124" d="M-23217.859,9884.412v1.568h5.178v-1.568" transform="translate(13.735 -8)" fill="#98c9f4" stroke="#666" stroke-linecap="round" stroke-linejoin="round" stroke-width="2"/>
      <path id="패스_3125" data-name="패스 3125" d="M-23217.859,9884.412v1.568h5.178v-1.568" transform="translate(27.261 -15.912)" fill="#98c9f4" stroke="#666" stroke-linecap="round" stroke-linejoin="round" stroke-width="2"/>
    </g>
  </g>
</svg>
