<svg xmlns="http://www.w3.org/2000/svg" width="30" height="30" viewBox="0 0 30 30">
  <g id="그룹_5513" data-name="그룹 5513" transform="translate(-368 -182)">
    <rect id="사각형_2222" data-name="사각형 2222" width="30" height="30" rx="5" transform="translate(368 182)" fill="#f8f8f8"/>
    <path id="합치기_23" data-name="합치기 23" d="M0,6.5A6.5,6.5,0,0,1,11.8,2.731l.788-.455a.5.5,0,0,1,.75.442l-.069,4.114a.5.5,0,0,1-.743.428l-3.6-2a.5.5,0,0,1-.007-.869l1.133-.655a4.5,4.5,0,1,0,.385,4.94l1.46,1.446A6.5,6.5,0,0,1,0,6.5Z" transform="translate(376.333 191)" fill="#16284c"/>
  </g>
</svg>
