<svg xmlns="http://www.w3.org/2000/svg" width="30" height="30" viewBox="0 0 30 30">
  <g id="그룹_4755" data-name="그룹 4755" transform="translate(8077 5337)">
    <rect id="사각형_1846" data-name="사각형 1846" width="30" height="30" transform="translate(-8077 -5337)" fill="none"/>
    <path id="Icon_awesome-search" data-name="Icon awesome-search" d="M19.728,17.291,15.833,13.4a.937.937,0,0,0-.664-.273h-.637a8.122,8.122,0,1,0-1.406,1.406v.637a.937.937,0,0,0,.273.664l3.895,3.894a.934.934,0,0,0,1.324,0l1.106-1.105a.942.942,0,0,0,0-1.328Zm-11.6-4.168a5,5,0,1,1,5-5A5,5,0,0,1,8.126,13.124Z" transform="translate(-8072 -5332)" fill="#2e4e8e"/>
  </g>
</svg>
