<svg xmlns="http://www.w3.org/2000/svg" width="116" height="116" viewBox="0 0 116 116">
  <g id="그룹_8026" data-name="그룹 8026" transform="translate(-601.999 -476)">
    <g id="그룹_7847" data-name="그룹 7847" transform="translate(601.781 476)">
      <rect id="사각형_2204" data-name="사각형 2204" width="116" height="116" transform="translate(0.218)" fill="none"/>
    </g>
    <g id="그룹_7855" data-name="그룹 7855" transform="translate(17625.051 -1132.302)">
      <g id="패스_3433" data-name="패스 3433" transform="translate(-16998.051 1672.861) rotate(-45)" fill="#ececec" stroke-linecap="round">
        <path d="M 45.1004524230957 45.08321380615234 L 12.64392948150635 34.09160995483398 L 1.590251445770264 1.571230411529541 L 34.38964462280273 12.28116607666016 L 45.1004524230957 45.08321380615234 Z" stroke="none"/>
        <path d="M 3.180484771728516 3.142436981201172 L 13.43196487426758 33.30269622802734 L 43.53009414672852 43.49560928344727 L 33.59663391113281 13.07418060302734 L 3.180484771728516 3.142436981201172 M -3.814697265625e-06 -3.814697265625e-06 L 35.18266677856445 11.48814392089844 L 46.67080688476562 46.67080688476562 L 11.85589599609375 34.88052368164062 L -3.814697265625e-06 -3.814697265625e-06 Z" stroke="none" fill="#666"/>
      </g>
      <g id="패스_3434" data-name="패스 3434" transform="translate(-16998.051 1666.846) rotate(-45)" fill="#fff" stroke-linecap="round">
        <path d="M 45.1004524230957 45.08321380615234 L 12.64392948150635 34.09160995483398 L 1.590251445770264 1.571230411529541 L 34.38964462280273 12.28116607666016 L 45.1004524230957 45.08321380615234 Z" stroke="none"/>
        <path d="M 3.180484771728516 3.142436981201172 L 13.43196487426758 33.30269622802734 L 43.53009414672852 43.49560928344727 L 33.59663391113281 13.07418060302734 L 3.180484771728516 3.142436981201172 M -3.814697265625e-06 -3.814697265625e-06 L 35.18266677856445 11.48814392089844 L 46.67080688476562 46.67080688476562 L 11.85589599609375 34.88052368164062 L -3.814697265625e-06 -3.814697265625e-06 Z" stroke="none" fill="#666"/>
      </g>
      <g id="패스_3435" data-name="패스 3435" transform="translate(-16998.051 1660.303) rotate(-45)" fill="#98c9f4" stroke-linecap="round">
        <path d="M 45.1004524230957 45.08321380615234 L 12.64392948150635 34.09160995483398 L 1.590251445770264 1.571230411529541 L 34.38964462280273 12.28116607666016 L 45.1004524230957 45.08321380615234 Z" stroke="none"/>
        <path d="M 3.180484771728516 3.142436981201172 L 13.43196487426758 33.30269622802734 L 43.53009414672852 43.49560928344727 L 33.59663391113281 13.07418060302734 L 3.180484771728516 3.142436981201172 M -3.814697265625e-06 -3.814697265625e-06 L 35.18266677856445 11.48814392089844 L 46.67080688476562 46.67080688476562 L 11.85589599609375 34.88052368164062 L -3.814697265625e-06 -3.814697265625e-06 Z" stroke="none" fill="#666"/>
      </g>
      <path id="패스_3442" data-name="패스 3442" d="M-16969.078,1674.155a6.869,6.869,0,0,1,2.309,3.542,9.025,9.025,0,0,1-.461,4.215l31.258-14.889a5.386,5.386,0,0,0,0-3.939,5.248,5.248,0,0,0-2.914-2.71Z" transform="translate(3.222 -7.099)" fill="#98c9f4" stroke="#666" stroke-linecap="round" stroke-linejoin="round" stroke-width="2"/>
    </g>
  </g>
</svg>
