<svg xmlns="http://www.w3.org/2000/svg" width="116" height="116" viewBox="0 0 116 116">
  <g id="그룹_8032" data-name="그룹 8032" transform="translate(-485.999 -476)">
    <g id="그룹_7846" data-name="그룹 7846" transform="translate(485.781 476)">
      <rect id="사각형_2204" data-name="사각형 2204" width="116" height="116" transform="translate(0.218)" fill="none"/>
    </g>
    <g id="그룹_7854" data-name="그룹 7854" transform="translate(17598.35 -1123.13)">
      <g id="그룹_7808" data-name="그룹 7808" transform="translate(-17090.35 1644.602)">
        <g id="패스_3451" data-name="패스 3451" transform="translate(0 0)" fill="#fff">
          <path d="M 30.22952461242676 35.8011589050293 C 26.23261451721191 35.8011589050293 22.35760498046875 35.32527923583984 18.71215438842773 34.38672637939453 C 15.20785427093506 33.48452758789062 12.0660343170166 32.19620895385742 9.373974800109863 30.55755805969238 C 6.717584609985352 28.94062805175781 4.639284610748291 27.06819725036621 3.196794509887695 24.99227714538574 C 1.73911464214325 22.89449691772461 1.000004649162292 20.67672729492188 1.000004649162292 18.40057754516602 C 1.000004649162292 16.12442779541016 1.73911464214325 13.90665721893311 3.196794509887695 11.80887794494629 C 4.639284610748291 9.73295783996582 6.717584609985352 7.860527515411377 9.373974800109863 6.243597507476807 C 12.0660343170166 4.604947566986084 15.20785427093506 3.316627502441406 18.71215438842773 2.414427518844604 C 22.35760498046875 1.475877523422241 26.23261451721191 0.9999975562095642 30.22952461242676 0.9999975562095642 C 34.22643280029297 0.9999975562095642 38.10143280029297 1.475877523422241 41.74689483642578 2.414427518844604 C 45.25119400024414 3.316627502441406 48.39301300048828 4.604947566986084 51.0850830078125 6.243597507476807 C 53.74146270751953 7.860527515411377 55.81977462768555 9.73295783996582 57.26226425170898 11.80887794494629 C 58.71994400024414 13.90665721893311 59.45905303955078 16.12442779541016 59.45905303955078 18.40057754516602 C 59.45905303955078 20.67672729492188 58.71994400024414 22.89449691772461 57.26226425170898 24.99227714538574 C 55.81977462768555 27.06819725036621 53.74146270751953 28.94062805175781 51.0850830078125 30.55755805969238 C 48.39301300048828 32.19620895385742 45.25119400024414 33.48452758789062 41.74689483642578 34.38672637939453 C 38.10143280029297 35.32527923583984 34.22643280029297 35.8011589050293 30.22952461242676 35.8011589050293 Z" stroke="none"/>
          <path d="M 30.22952461242676 1.999996185302734 C 26.31665420532227 1.999996185302734 22.52554321289062 2.465255737304688 18.96147537231445 3.382846832275391 C 15.55259323120117 4.260486602783203 12.50182342529297 5.510377883911133 9.893913269042969 7.097797393798828 C 7.357376098632812 8.641777038574219 5.380424499511719 10.41880798339844 4.017993927001953 12.37950706481934 C 2.678943634033203 14.30654716491699 1.999996185302734 16.33232688903809 1.999996185302734 18.40057754516602 C 1.999996185302734 20.46882820129395 2.678943634033203 22.49460792541504 4.017993927001953 24.42164611816406 C 5.380424499511719 26.38234710693359 7.357376098632812 28.15937805175781 9.893913269042969 29.7033576965332 C 12.50182342529297 31.2907772064209 15.55259323120117 32.54066848754883 18.96147537231445 33.41830825805664 C 22.52554321289062 34.33589935302734 26.31665420532227 34.8011589050293 30.22952461242676 34.8011589050293 C 34.14238739013672 34.8011589050293 37.93350219726562 34.33589935302734 41.49756622314453 33.41830825805664 C 44.90645599365234 32.54066848754883 47.95721435546875 31.2907772064209 50.56512451171875 29.7033576965332 C 53.1016731262207 28.15937805175781 55.07861328125 26.38234710693359 56.44104385375977 24.42164611816406 C 57.78009414672852 22.49460792541504 58.45904541015625 20.46882820129395 58.45904541015625 18.40057754516602 C 58.45904541015625 16.33232688903809 57.78009414672852 14.30654716491699 56.44104385375977 12.37950706481934 C 55.07861328125 10.41880798339844 53.1016731262207 8.641777038574219 50.56512451171875 7.097797393798828 C 47.95721435546875 5.510377883911133 44.90645599365234 4.260486602783203 41.49756622314453 3.382846832275391 C 37.93350219726562 2.465255737304688 34.14238739013672 1.999996185302734 30.22952461242676 1.999996185302734 M 30.22952461242676 -3.814697265625e-06 C 46.92482376098633 -3.814697265625e-06 60.45904541015625 8.238218307495117 60.45904541015625 18.40057754516602 C 60.45904541015625 28.56293869018555 46.92482376098633 36.8011589050293 30.22952461242676 36.8011589050293 C 13.53421401977539 36.8011589050293 -3.814697265625e-06 28.56293869018555 -3.814697265625e-06 18.40057754516602 C -3.814697265625e-06 8.238218307495117 13.53421401977539 -3.814697265625e-06 30.22952461242676 -3.814697265625e-06 Z" stroke="none" fill="#666"/>
        </g>
        <g id="패스_3453" data-name="패스 3453" transform="translate(5.257 6.07)" fill="#ececec">
          <path d="M 23.65788841247559 23.4272632598877 C 17.41552925109863 23.4272632598877 11.55463886260986 22.20193290710449 7.154868602752686 19.97700309753418 C 5.043118476867676 18.90910339355469 3.390428304672241 17.6718635559082 2.242688417434692 16.29963302612305 C 1.086318373680115 14.91709327697754 0.4999984204769135 13.45825386047363 0.4999984204769135 11.96363353729248 C 0.4999984204769135 10.46901321411133 1.086318373680115 9.010173797607422 2.242688417434692 7.627633571624756 C 3.390428304672241 6.255403518676758 5.043118476867676 5.018163681030273 7.154868602752686 3.950263500213623 C 11.55463886260986 1.725333571434021 17.41552925109863 0.5000035166740417 23.65788841247559 0.5000035166740417 C 29.90024757385254 0.5000035166740417 35.76113891601562 1.725333571434021 40.16090774536133 3.950263500213623 C 42.27265930175781 5.018163681030273 43.92535018920898 6.255403518676758 45.07308959960938 7.627633571624756 C 46.22945785522461 9.010173797607422 46.81577682495117 10.46901321411133 46.81577682495117 11.96363353729248 C 46.81577682495117 13.45825386047363 46.22945785522461 14.91709327697754 45.07308959960938 16.29963302612305 C 43.92535018920898 17.6718635559082 42.27265930175781 18.90910339355469 40.16090774536133 19.97700309753418 C 35.76113891601562 22.20193290710449 29.90024757385254 23.4272632598877 23.65788841247559 23.4272632598877 Z" stroke="none"/>
          <path d="M 23.65788841247559 1.000003814697266 C 17.49241828918457 1.000003814697266 11.711669921875 2.20622444152832 7.380508422851562 4.396453857421875 C 5.329708099365234 5.43353271484375 3.730136871337891 6.628583908081055 2.626216888427734 7.948423385620117 C 1.547138214111328 9.238563537597656 1 10.58947372436523 1 11.96363353729248 C 1 13.33779335021973 1.547138214111328 14.6887035369873 2.626216888427734 15.97884368896484 C 3.730136871337891 17.29868316650391 5.329708099365234 18.49373245239258 7.380508422851562 19.53081321716309 C 11.711669921875 21.72104263305664 17.49241828918457 22.9272632598877 23.65788841247559 22.9272632598877 C 29.8233585357666 22.9272632598877 35.60411071777344 21.72104263305664 39.93526840209961 19.53081321716309 C 41.98606872558594 18.49373245239258 43.58563995361328 17.29868316650391 44.68955993652344 15.97884368896484 C 45.76863861083984 14.6887035369873 46.31577682495117 13.33779335021973 46.31577682495117 11.96363353729248 C 46.31577682495117 10.58947372436523 45.76863861083984 9.238563537597656 44.68955993652344 7.948423385620117 C 43.58563995361328 6.628583908081055 41.98606872558594 5.43353271484375 39.93526840209961 4.396453857421875 C 35.60411071777344 2.20622444152832 29.8233585357666 1.000003814697266 23.65788841247559 1.000003814697266 M 23.65788841247559 3.814697265625e-06 C 36.72377777099609 3.814697265625e-06 47.31577682495117 5.356304168701172 47.31577682495117 11.96363353729248 C 47.31577682495117 18.57096290588379 36.72377777099609 23.9272632598877 23.65788841247559 23.9272632598877 C 10.59199905395508 23.9272632598877 0 18.57096290588379 0 11.96363353729248 C 0 5.356304168701172 10.59199905395508 3.814697265625e-06 23.65788841247559 3.814697265625e-06 Z" stroke="none" fill="#707070"/>
        </g>
        <g id="빼기_20" data-name="빼기 20" transform="translate(5.514 6.07)" fill="#ececec">
          <path d="M 45.09310150146484 16.01036262512207 C 45.10233306884766 15.87415885925293 45.10695648193359 15.73775768280029 45.10695648193359 15.6011905670166 C 45.10695648193359 12.53681087493896 42.81508636474609 9.680300712585449 38.65354537963867 7.557840824127197 C 34.59891510009766 5.489911079406738 29.22756767272949 4.351050853729248 23.52894592285156 4.351050853729248 C 17.83064651489258 4.351050853729248 12.45959663391113 5.489911079406738 8.405197143554688 7.557840824127197 C 4.243886947631836 9.680300712585449 1.952146768569946 12.53682136535645 1.952146768569946 15.6011905670166 C 1.952146768569946 15.73708820343018 1.956729650497437 15.87294006347656 1.965871572494507 16.00862121582031 C 1.001874566078186 14.72877025604248 0.4999967515468597 13.36644554138184 0.4999967515468597 12.00046062469482 C 0.4999967515468597 8.992530822753906 2.850626707077026 6.137120723724365 7.118866920471191 3.960240840911865 C 11.49394702911377 1.728870868682861 17.32182693481445 0.5000008940696716 23.52894592285156 0.5000008940696716 C 29.73659706115723 0.5000008940696716 35.56485748291016 1.728870868682861 39.94008636474609 3.960250854492188 C 44.20841598510742 6.137100696563721 46.55909729003906 8.992501258850098 46.55909729003906 12.00046062469482 C 46.55909729003906 13.36621856689453 46.05714416503906 14.72917175292969 45.09310150146484 16.01036262512207 Z" stroke="none"/>
          <path d="M 45.49638366699219 14.39358043670654 C 45.86830902099609 13.60622215270996 46.05909729003906 12.8021936416626 46.05909729003906 12.00046062469482 C 46.05909729003906 9.190000534057617 43.80531692504883 6.492780685424805 39.71291732788086 4.405661106109619 C 35.40670776367188 2.209491014480591 29.65912628173828 1.000000953674316 23.52894592285156 1.000000953674316 C 17.39929580688477 1.000000953674316 11.65209674835205 2.209491014480591 7.346036911010742 4.405661106109619 C 3.253726720809937 6.492810726165771 0.9999967217445374 9.190031051635742 0.9999967217445374 12.00046062469482 C 0.9999967217445374 12.80245590209961 1.190741300582886 13.6062183380127 1.562782287597656 14.39322090148926 C 2.078425884246826 11.59983825683594 4.381872653961182 9.048645973205566 8.178016662597656 7.112431049346924 C 12.30143642425537 5.009300708770752 17.75316619873047 3.851050853729248 23.52894592285156 3.851050853729248 C 29.3050365447998 3.851050853729248 34.7570686340332 5.00929069519043 38.88071823120117 7.112421035766602 C 42.67733383178711 9.048762321472168 44.98092269897461 11.59995555877686 45.49638366699219 14.39358043670654 M 44.18464660644531 17.75276184082031 L 44.18252563476562 17.75132179260254 C 44.46414566040039 17.05079078674316 44.60695648193359 16.32739067077637 44.60695648193359 15.6011905670166 C 44.60695648193359 9.673541069030762 35.15140533447266 4.851050853729248 23.52894592285156 4.851050853729248 C 11.9071569442749 4.851050853729248 2.452146768569946 9.673541069030762 2.452146768569946 15.6011905670166 C 2.452146768569946 16.32363128662109 2.593506813049316 17.04571151733398 2.872306823730469 17.74740028381348 C 0.9924867153167725 15.99708080291748 -3.262329073550063e-06 14.00932121276855 -3.262329073550063e-06 12.00046062469482 C -3.262329073550063e-06 8.79503059387207 2.447516679763794 5.781440734863281 6.891696929931641 3.514830827713013 C 11.33578681945801 1.248260974884033 17.24433708190918 9.204101729665126e-07 23.52894592285156 9.204101729665126e-07 C 29.81407737731934 9.204101729665126e-07 35.72300720214844 1.248260974884033 40.1672477722168 3.514830827713013 C 44.61152648925781 5.781410694122314 47.05909729003906 8.795001029968262 47.05909729003906 12.00046062469482 C 47.05909729003906 14.01088047027588 46.06512832641602 15.99999046325684 44.18464660644531 17.75276184082031 Z" stroke="none" fill="#666"/>
        </g>
        <g id="타원_249" data-name="타원 249" transform="translate(6.7 10.606)" fill="#666" stroke="#666" stroke-width="1">
          <ellipse cx="22.344" cy="9.857" rx="22.344" ry="9.857" stroke="none"/>
          <ellipse cx="22.344" cy="9.857" rx="21.844" ry="9.357" fill="none"/>
        </g>
        <path id="패스_3456" data-name="패스 3456" d="M-17077.2,1647.3v2.674h13.9V1647.3" transform="translate(17100.479 -1625.371)" fill="none" stroke="#fff" stroke-linecap="round" stroke-linejoin="round" stroke-width="2"/>
        <rect id="사각형_2746" data-name="사각형 2746" width="5.257" height="2.629" transform="translate(27.729 29.006)" fill="#666"/>
      </g>
      <g id="그룹_7807" data-name="그룹 7807" transform="translate(-17070.963 1633.431)">
        <path id="패스_3452" data-name="패스 3452" d="M26.285,0C40.8,0,52.571,7.65,52.571,17.086S40.8,34.173,26.285,34.173,0,26.523,0,17.086,11.768,0,26.285,0Z" transform="translate(0 0.865)" fill="#ececec" stroke="#666" stroke-width="2"/>
        <g id="패스_3459" data-name="패스 3459" transform="translate(0.66 0)" fill="#fff">
          <path d="M 26.28525924682617 30.54385566711426 C 22.81966018676758 30.54385566711426 19.46007919311523 30.13718414306641 16.29983901977539 29.33514404296875 C 13.26434898376465 28.56476402282715 10.54363918304443 27.46516418457031 8.213289260864258 26.06687545776367 C 5.919479370117188 24.69052505493164 4.12610912322998 23.09846496582031 2.88296914100647 21.33491516113281 C 1.633519291877747 19.56241416931152 0.9999992251396179 17.69075584411621 0.9999992251396179 15.77192497253418 C 0.9999992251396179 13.85309505462646 1.633519291877747 11.98143482208252 2.88296914100647 10.20893478393555 C 4.12610912322998 8.445384979248047 5.919479370117188 6.853324890136719 8.213289260864258 5.476974964141846 C 10.54363918304443 4.078694820404053 13.26434898376465 2.979094982147217 16.29983901977539 2.208714962005615 C 19.46007919311523 1.406674981117249 22.81966018676758 1.000005006790161 26.28525924682617 1.000005006790161 C 29.75085830688477 1.000005006790161 33.11043930053711 1.406674981117249 36.27067947387695 2.208714962005615 C 39.30616760253906 2.979094982147217 42.02687835693359 4.078694820404053 44.35723114013672 5.476974964141846 C 46.65103912353516 6.853324890136719 48.44440841674805 8.445384979248047 49.68754959106445 10.20893478393555 C 50.9370002746582 11.98143482208252 51.57051849365234 13.85309505462646 51.57051849365234 15.77192497253418 C 51.57051849365234 18.01211547851562 50.70917892456055 20.16754531860352 49.01041793823242 22.17833518981934 C 47.29257965087891 24.21172523498535 44.81731033325195 25.99395561218262 41.65336990356445 27.47550582885742 C 39.63523864746094 28.42313575744629 37.30788040161133 29.17206573486328 34.73500061035156 29.70196533203125 C 32.02256774902344 30.26060485839844 29.17965888977051 30.54385566711426 26.28525924682617 30.54385566711426 Z" stroke="none"/>
          <path d="M 26.28525924682617 1.999994277954102 C 22.90254974365234 1.999994277954102 19.62572860717773 2.396324157714844 16.54583740234375 3.177974700927734 C 13.60488891601562 3.92436408996582 10.97451782226562 4.986354827880859 8.727798461914062 6.334455490112305 C 6.554187774658203 7.63868522644043 4.862689971923828 9.13609504699707 3.700309753417969 10.78508567810059 C 2.572071075439453 12.38564491271973 2 14.06345558166504 2 15.77192497253418 C 2 17.48039627075195 2.572071075439453 19.15820503234863 3.700309753417969 20.75876617431641 C 4.862689971923828 22.40775489807129 6.554180145263672 23.90515518188477 8.727798461914062 25.20939445495605 C 10.97451782226562 26.55748558044434 13.60488891601562 27.61947441101074 16.54582977294922 28.36586570739746 C 19.62572860717773 29.14751434326172 22.90254974365234 29.54384422302246 26.28525924682617 29.54384422302246 C 31.7573299407959 29.54384422302246 37.20351028442383 28.460205078125 41.22929000854492 26.56987380981445 C 44.2188606262207 25.16997528076172 46.64537811279297 23.42824554443359 48.24652862548828 21.53298568725586 C 49.78861999511719 19.70764541625977 50.57051849365234 17.76934432983398 50.57051849365234 15.77192497253418 C 50.57051849365234 14.06345558166504 49.99845123291016 12.38564491271973 48.87020874023438 10.78508567810059 C 47.70782852172852 9.13609504699707 46.01633071899414 7.63868522644043 43.84272003173828 6.334455490112305 C 41.59600067138672 4.986354827880859 38.96562957763672 3.92436408996582 36.02468109130859 3.177974700927734 C 32.94478988647461 2.396324157714844 29.66796875 1.999994277954102 26.28525924682617 1.999994277954102 M 26.28525924682617 -5.7220458984375e-06 C 40.80220794677734 -5.7220458984375e-06 52.57051849365234 7.061334609985352 52.57051849365234 15.77192497253418 C 52.57051849365234 20.82406616210938 48.61166000366211 25.3214054107666 42.07743072509766 28.38113403320312 C 37.9946403503418 30.2982349395752 32.38237762451172 31.54384422302246 26.28525924682617 31.54384422302246 C 11.768310546875 31.54384422302246 0 24.48251533508301 0 15.77192497253418 C 0 7.061334609985352 11.768310546875 -5.7220458984375e-06 26.28525924682617 -5.7220458984375e-06 Z" stroke="none" fill="#666"/>
        </g>
        <g id="패스_3460" data-name="패스 3460" transform="translate(6.872 4.483)" fill="#ececec" stroke-linecap="round" stroke-linejoin="round">
          <path d="M 19.71490669250488 21.84356117248535 C 14.53386688232422 21.84356117248535 9.670566558837891 20.70457077026367 6.020866870880127 18.63640975952148 C 2.460676670074463 16.61897087097168 0.499996691942215 13.96798038482666 0.499996691942215 11.17178058624268 C 0.499996691942215 8.375580787658691 2.460676670074463 5.72459077835083 6.020866870880127 3.70715069770813 C 9.670566558837891 1.638990640640259 14.53386688232422 0.5000005960464478 19.71490669250488 0.5000005960464478 C 24.89594650268555 0.5000005960464478 29.75924682617188 1.638990640640259 33.4089469909668 3.70715069770813 C 36.96913528442383 5.72459077835083 38.92981719970703 8.375580787658691 38.92981719970703 11.17178058624268 C 38.92981719970703 13.96798038482666 36.96913528442383 16.61897087097168 33.4089469909668 18.63640975952148 C 29.75924682617188 20.70457077026367 24.89594650268555 21.84356117248535 19.71490669250488 21.84356117248535 Z" stroke="none"/>
          <path d="M 19.71490669250488 1 C 14.61887741088867 1 9.843116760253906 2.115911483764648 6.267375946044922 4.142160415649414 C 4.578044891357422 5.099451065063477 3.260276794433594 6.202739715576172 2.350677490234375 7.421380996704102 C 1.454425811767578 8.62212085723877 0.9999961853027344 9.883940696716309 0.9999961853027344 11.17178058624268 C 0.9999961853027344 12.45962047576904 1.454425811767578 13.72144031524658 2.350677490234375 14.92218017578125 C 3.260276794433594 16.14081954956055 4.578044891357422 17.24411010742188 6.267375946044922 18.20140075683594 C 9.843116760253906 20.2276496887207 14.61887741088867 21.34356117248535 19.71490669250488 21.34356117248535 C 24.81093597412109 21.34356117248535 29.58669662475586 20.2276496887207 33.16243743896484 18.20140075683594 C 34.85176849365234 17.24411010742188 36.16953659057617 16.14081954956055 37.07913589477539 14.92218017578125 C 37.97538757324219 13.72144031524658 38.42981719970703 12.45962047576904 38.42981719970703 11.17178058624268 C 38.42981719970703 9.883940696716309 37.97538757324219 8.62212085723877 37.07913589477539 7.421380996704102 C 36.16953659057617 6.202739715576172 34.85176849365234 5.099451065063477 33.16243743896484 4.142160415649414 C 29.58669662475586 2.115911483764648 24.81093597412109 1 19.71490669250488 1 M 19.71490669250488 0 C 30.60314559936523 0 39.42981719970703 5.001781463623047 39.42981719970703 11.17178058624268 C 39.42981719970703 17.34178161621094 30.60314559936523 22.34356117248535 19.71490669250488 22.34356117248535 C 8.826665878295898 22.34356117248535 -3.814697265625e-06 17.34178161621094 -3.814697265625e-06 11.17178058624268 C -3.814697265625e-06 5.001781463623047 8.826665878295898 0 19.71490669250488 0 Z" stroke="none" fill="#666"/>
        </g>
        <line id="선_325" data-name="선 325" x2="8.215" transform="translate(10.186 14.458)" fill="none" stroke="#707070" stroke-linecap="round" stroke-width="1"/>
        <line id="선_326" data-name="선 326" y1="5.257" x2="5.257" transform="translate(17.743 17.743)" fill="none" stroke="#707070" stroke-linecap="round" stroke-width="1"/>
        <path id="패스_3463" data-name="패스 3463" d="M5.194,5.143.2.363" transform="translate(30.95 17.857)" fill="none" stroke="#707070" stroke-linecap="round" stroke-width="1"/>
        <line id="선_328" data-name="선 328" x2="6.9" transform="translate(34.83 14.458)" fill="none" stroke="#707070" stroke-linecap="round" stroke-width="1"/>
        <line id="선_329" data-name="선 329" x2="2.629" y2="1.32" transform="translate(19.058 8.537)" fill="none" stroke="#707070" stroke-linecap="round" stroke-width="1"/>
        <line id="선_330" data-name="선 330" x1="2.629" y2="1.32" transform="translate(31.544 8.537)" fill="none" stroke="#707070" stroke-linecap="round" stroke-width="1"/>
        <g id="패스_3462" data-name="패스 3462" transform="translate(21.686 10.579)" fill="none">
          <path d="M5.257,0c2.9,0,5.257,1.324,5.257,2.957S8.161,5.914,5.257,5.914,0,4.59,0,2.957,2.354,0,5.257,0Z" stroke="none"/>
          <path d="M 5.257308483123779 0.9999961853027344 C 4.039858341217041 0.9999961853027344 2.863578319549561 1.268886089324951 2.030088424682617 1.737726211547852 C 1.385078430175781 2.10054612159729 0.9999980926513672 2.556436061859131 0.9999980926513672 2.957236051559448 C 0.9999980926513672 3.358036041259766 1.385078430175781 3.813925981521606 2.030088424682617 4.176745891571045 C 2.863578319549561 4.645586013793945 4.039858341217041 4.914475917816162 5.257308483123779 4.914475917816162 C 6.474758625030518 4.914475917816162 7.65103816986084 4.645586013793945 8.484528541564941 4.176745891571045 C 9.129538536071777 3.813925981521606 9.514618873596191 3.358036041259766 9.514618873596191 2.957236051559448 C 9.514618873596191 2.556436061859131 9.129538536071777 2.10054612159729 8.484528541564941 1.737726211547852 C 7.65103816986084 1.268886089324951 6.474758625030518 0.9999961853027344 5.257308483123779 0.9999961853027344 M 5.257308483123779 -3.814697265625e-06 C 8.16083812713623 -3.814697265625e-06 10.51461887359619 1.323996067047119 10.51461887359619 2.957236051559448 C 10.51461887359619 4.590476036071777 8.16083812713623 5.914475917816162 5.257308483123779 5.914475917816162 C 2.353778839111328 5.914475917816162 -1.9073486328125e-06 4.590476036071777 -1.9073486328125e-06 2.957236051559448 C -1.9073486328125e-06 1.323996067047119 2.353778839111328 -3.814697265625e-06 5.257308483123779 -3.814697265625e-06 Z" stroke="none" fill="#666"/>
        </g>
      </g>
    </g>
  </g>
</svg>
