<svg xmlns="http://www.w3.org/2000/svg" width="116" height="116" viewBox="0 0 116 116">
  <g id="그룹_8026" data-name="그룹 8026" transform="translate(-1413.999 -326)">
    <g id="그룹_7843" data-name="그룹 7843" transform="translate(1413.508 326)">
      <rect id="사각형_2201" data-name="사각형 2201" width="116" height="116" transform="translate(0.491)" fill="none"/>
    </g>
    <g id="그룹_7853" data-name="그룹 7853" transform="translate(18482.424 -1321.669)">
      <g id="패스_3428" data-name="패스 3428" transform="translate(-17002.268 1688.239) rotate(90)" fill="#98c9f4">
        <path d="M 13.3330020904541 12.3330020904541 C 12.57408237457275 12.3330020904541 10.58466243743896 11.91750240325928 5.787601947784424 9.13475227355957 C 4.211719989776611 8.22059154510498 2.767379999160767 7.300518035888672 1.799594521522522 6.666546821594238 C 2.770205020904541 6.030746459960938 4.219673633575439 5.107422828674316 5.798411846160889 4.191981792449951 C 10.58802223205566 1.414692044258118 12.57492160797119 1.000002026557922 13.3330020904541 1.000002026557922 C 16.45752143859863 1.000002026557922 18.99950218200684 3.541981935501099 18.99950218200684 6.666501998901367 C 18.99950218200684 9.791022300720215 16.45752143859863 12.3330020904541 13.3330020904541 12.3330020904541 Z" stroke="none"/>
        <path d="M 13.3330020904541 2.000001907348633 C 12.92043209075928 2.000001907348633 11.19473171234131 2.220011711120605 6.310771942138672 5.05084228515625 C 5.347761154174805 5.609020233154297 4.432979583740234 6.170507907867432 3.64775276184082 6.666586399078369 C 4.426412582397461 7.158476829528809 5.333044052124023 7.714995384216309 6.289381980895996 8.26976203918457 C 11.18918228149414 11.11210250854492 12.91941261291504 11.3330020904541 13.3330020904541 11.3330020904541 C 15.9061222076416 11.3330020904541 17.99950218200684 9.239622116088867 17.99950218200684 6.666501998901367 C 17.99950218200684 4.093381881713867 15.9061222076416 2.000001907348633 13.3330020904541 2.000001907348633 M 13.3330020904541 1.9073486328125e-06 C 17.01481246948242 1.9073486328125e-06 19.99950218200684 2.984691619873047 19.99950218200684 6.666501998901367 C 19.99950218200684 10.34831237792969 17.01481246948242 13.3330020904541 13.3330020904541 13.3330020904541 C 9.651202201843262 13.3330020904541 1.9073486328125e-06 6.666501998901367 1.9073486328125e-06 6.666501998901367 C 1.9073486328125e-06 6.666501998901367 9.651202201843262 1.9073486328125e-06 13.3330020904541 1.9073486328125e-06 Z" stroke="none" fill="#666"/>
      </g>
      <g id="패스_3430" data-name="패스 3430" transform="translate(-16994.5 1682.328) rotate(90)" fill="#98c9f4">
        <path d="M 9.295767784118652 8.295763969421387 C 8.894287109375 8.295763969421387 7.592787742614746 8.082474708557129 4.187057495117188 6.106824398040771 C 3.28867769241333 5.585681438446045 2.452207326889038 5.061952114105225 1.810268402099609 4.647931098937988 C 2.455312013626099 4.23190450668335 3.29631495475769 3.705349445343018 4.197817325592041 3.182704448699951 C 7.595827579498291 1.212684392929077 8.894947052001953 1.000004410743713 9.295767784118652 1.000004410743713 C 11.30721759796143 1.000004410743713 12.94365787506104 2.636434316635132 12.94365787506104 4.647884368896484 C 12.94365787506104 6.659334182739258 11.30721759796143 8.295763969421387 9.295767784118652 8.295763969421387 Z" stroke="none"/>
        <path d="M 9.295766830444336 2.000004291534424 C 9.252397537231445 2.000004291534424 8.193637847900391 2.023214340209961 4.710017204284668 4.041654586791992 C 4.358471870422363 4.245344161987305 4.015999794006348 4.44983434677124 3.691193580627441 4.647926807403564 C 4.009223937988281 4.841848850250244 4.344326972961426 5.041986465454102 4.688837051391602 5.241834163665771 C 8.189277648925781 7.272414207458496 9.252227783203125 7.295764446258545 9.295766830444336 7.295764446258545 C 10.75581741333008 7.295764446258545 11.94365787506104 6.107934474945068 11.94365787506104 4.647884368896484 C 11.94365787506104 3.1878342628479 10.75581741333008 2.000004291534424 9.295766830444336 2.000004291534424 M 9.295766830444336 4.76837158203125e-06 C 11.86272716522217 4.76837158203125e-06 13.94365787506104 2.080924510955811 13.94365787506104 4.647884368896484 C 13.94365787506104 7.214844703674316 11.86272716522217 9.295763969421387 9.295766830444336 9.295763969421387 C 6.728817462921143 9.295763969421387 -2.86102294921875e-06 4.647884368896484 -2.86102294921875e-06 4.647884368896484 C -2.86102294921875e-06 4.647884368896484 6.728817462921143 4.76837158203125e-06 9.295766830444336 4.76837158203125e-06 Z" stroke="none" fill="#666"/>
      </g>
      <g id="그룹_7792" data-name="그룹 7792" transform="translate(-17032.672 1689.3)">
        <path id="패스_3429" data-name="패스 3429" d="M-16982.8,1688.9l-31.41,25.756-16.947-13.032" transform="translate(17038.045 -1688.898)" fill="none" stroke="#666" stroke-width="2"/>
        <path id="다각형_18" data-name="다각형 18" d="M5.246,0l5.246,9.18H0Z" transform="matrix(0.643, -0.766, 0.766, 0.643, 0, 13.946)" fill="#666"/>
      </g>
      <rect id="사각형_2738" data-name="사각형 2738" width="55" height="4" transform="translate(-17037.424 1716.669)" fill="#98c9f4"/>
      <g id="빼기_19" data-name="빼기 19" transform="translate(-17043.424 1720.669)" fill="#ececec">
        <path d="M 65 14 L 1 14 L 1 7.160725593566895 L 5.769973754882812 1 L 10.88012027740479 1 L 10.88012027740479 4.091800212860107 L 10.88012027740479 5.091800212860107 L 11.88012027740479 5.091800212860107 L 54.11988830566406 5.091800212860107 L 55.11988830566406 5.091800212860107 L 55.11988830566406 4.091800212860107 L 55.11988830566406 1 L 60.23003387451172 1 L 65 7.160725116729736 L 65 14 Z" stroke="none"/>
        <path d="M 64 13 L 64 7.502610206604004 L 59.73958206176758 2 L 56.11988830566406 2 L 56.11988830566406 6.091800212860107 L 9.880120277404785 6.091800212860107 L 9.880120277404785 2 L 6.260425567626953 2 L 2 7.50261116027832 L 2 13 L 64 13 M 66 15 L 0 15 L 0 6.818850040435791 L 5.279530048370361 -8.881784197001252e-16 L 11.88012027740479 -8.881784197001252e-16 L 11.88012027740479 4.091800212860107 L 54.11988830566406 4.091800212860107 L 54.11988830566406 -8.881784197001252e-16 L 60.72048187255859 -8.881784197001252e-16 L 66 6.818850040435791 L 66 15 Z" stroke="none" fill="#666"/>
      </g>
    </g>
  </g>
</svg>
