<svg xmlns="http://www.w3.org/2000/svg" width="116" height="116" viewBox="0 0 116 116">
  <g id="그룹_8027" data-name="그룹 8027" transform="translate(-370 -476)">
    <rect id="사각형_2202" data-name="사각형 2202" width="116" height="116" transform="translate(370 476)" fill="none"/>
    <g id="그룹_7801" data-name="그룹 7801" transform="translate(17379 -1110.243)">
      <g id="그룹_7799" data-name="그룹 7799" transform="translate(-16980 1614.243)">
        <path id="패스_3443" data-name="패스 3443" d="M4.663,0,0,9.037s4.464-2.3,5.815-2.053S7.1,9.56,8.664,9.56s2-2.576,3.395-2.576S13.435,9.56,14.944,9.56s1.685-2.822,3.138-2.576l5.635,1.985L19.588,0Z" transform="translate(34.246 9.56) rotate(180)" fill="#ececec" stroke="#666" stroke-linecap="round" stroke-linejoin="round" stroke-width="2"/>
        <path id="패스_3175" data-name="패스 3175" d="M25.741,47.2h5.905s8.692-6.12,12.329-12.624-2.75-32.639-2.75-32.639A109.794,109.794,0,0,0,22.414,0,95.97,95.97,0,0,0,4.36,1.938S-2.695,27.779,1.143,34.577,13.691,47.2,13.691,47.2h12.05Z" transform="translate(45.094 57.736) rotate(180)" fill="#ececec" stroke="#666" stroke-linecap="round" stroke-linejoin="round" stroke-width="2"/>
        <path id="패스_3180" data-name="패스 3180" d="M0,0H4.247" transform="translate(15.506 16.04) rotate(-65)" fill="none" stroke="#666" stroke-linecap="round" stroke-width="2"/>
        <path id="패스_3445" data-name="패스 3445" d="M0,0,4.249,0" transform="translate(28.766 16.294) rotate(-111)" fill="none" stroke="#666" stroke-linecap="round" stroke-width="2"/>
        <path id="패스_3444" data-name="패스 3444" d="M0,0H4.25" transform="translate(22.199 16.233) rotate(-89)" fill="none" stroke="#666" stroke-linecap="round" stroke-width="2"/>
        <path id="패스_3446" data-name="패스 3446" d="M0,0H2.9" transform="translate(19.825 9.166) rotate(-115)" fill="none" stroke="#666" stroke-linecap="round" stroke-width="2"/>
        <path id="패스_3447" data-name="패스 3447" d="M0,0H2.9" transform="translate(24.535 9.074) rotate(-61)" fill="none" stroke="#666" stroke-linecap="round" stroke-width="2"/>
      </g>
      <g id="그룹_7800" data-name="그룹 7800" transform="translate(-16953.24 1634.936)">
        <path id="패스_3443-2" data-name="패스 3443" d="M3.15,0,0,6.106S3.015,4.553,3.93,4.719,4.8,6.46,5.854,6.46,7.205,4.719,8.148,4.719,9.078,6.46,10.1,6.46s1.14-1.907,2.121-1.741L16.027,6.06,13.236,0Z" transform="translate(23.143 6.46) rotate(180)" fill="#ececec" stroke="#666" stroke-linecap="round" stroke-linejoin="round" stroke-width="2"/>
        <path id="패스_3175-2" data-name="패스 3175" d="M17.393,32.763h3.992s5.874-4.136,8.331-8.531S27.856,2.178,27.856,2.178A46.417,46.417,0,0,0,15.131,0,40.442,40.442,0,0,0,2.947,2.178S-1.821,19.64.773,24.233s8.479,8.531,8.479,8.531h8.141Z" transform="translate(30.471 39.882) rotate(180)" fill="#ececec" stroke="#666" stroke-linecap="round" stroke-linejoin="round" stroke-width="2"/>
        <path id="패스_3180-2" data-name="패스 3180" d="M0,0H2.87" transform="translate(11.984 11.01) rotate(-65)" fill="none" stroke="#666" stroke-linecap="round" stroke-width="2"/>
        <path id="패스_3445-2" data-name="패스 3445" d="M0,0H2.871" transform="translate(17.932 11.01) rotate(-111)" fill="none" stroke="#666" stroke-linecap="round" stroke-width="2"/>
      </g>
      <path id="패스_3448" data-name="패스 3448" d="M-16973.045,1635.13s-2.676,4.055-2.27,6.813,3.893,4.217,3.893,4.217" transform="translate(0.844 15.038)" fill="none" stroke="#666" stroke-linecap="round" stroke-linejoin="round" stroke-width="1"/>
      <path id="패스_3449" data-name="패스 3449" d="M0,0A5.591,5.591,0,0,1,1.22,3.069,6.962,6.962,0,0,1,0,6.4" transform="translate(-16926.797 1658.142) rotate(37)" fill="none" stroke="#666" stroke-linecap="round" stroke-linejoin="round" stroke-width="1"/>
      <path id="패스_3450" data-name="패스 3450" d="M0,0A3.747,3.747,0,0,1,1.11,2.242,4.577,4.577,0,0,1,0,4.674" transform="translate(-16943.635 1667.172) rotate(133)" fill="none" stroke="#666" stroke-linecap="round" stroke-linejoin="round" stroke-width="1"/>
    </g>
  </g>
</svg>
