<svg xmlns="http://www.w3.org/2000/svg" width="116" height="116" viewBox="0 0 116 116">
  <g id="그룹_8028" data-name="그룹 8028" transform="translate(24009 -1711)">
    <rect id="사각형_2202" data-name="사각형 2202" width="116" height="116" transform="translate(-24009 1711)" fill="none"/>
    <g id="그룹_8003" data-name="그룹 8003" transform="translate(-23992 1732)">
      <g id="그룹_8002" data-name="그룹 8002" transform="translate(0 16.789)">
        <g id="사각형_2814" data-name="사각형 2814" transform="translate(5.071 25.947)" fill="#ececec" stroke="#707070" stroke-width="2">
          <rect width="73.263" height="30.526" stroke="none"/>
          <rect x="1" y="1" width="71.263" height="28.526" fill="none"/>
        </g>
        <g id="패스_3521" data-name="패스 3521" transform="translate(13.225)" fill="#98c9f4">
          <path d="M 66.307373046875 28.15371131896973 L -11.31595516204834 28.15371131896973 L 7.484253406524658 1.000001072883606 L 45.93006896972656 1.000001072883606 L 66.307373046875 28.15371131896973 Z" stroke="none"/>
          <path d="M 8.008171081542969 1.999998092651367 L -9.407310485839844 27.15371513366699 L 64.30665588378906 27.15371513366699 L 45.43024063110352 1.999998092651367 L 8.008171081542969 1.999998092651367 M 6.960311889648438 -1.9073486328125e-06 L 46.42988967895508 -1.9073486328125e-06 L 68.30807495117188 29.15371513366699 L -13.22461700439453 29.15371513366699 L 6.960311889648438 -1.9073486328125e-06 Z" stroke="none" fill="#707070"/>
        </g>
        <g id="사각형_2815" data-name="사각형 2815" transform="translate(14.229 36.632)" fill="#fff" stroke="#707070" stroke-width="2">
          <rect width="15.263" height="19.842" stroke="none"/>
          <rect x="1" y="1" width="13.263" height="17.842" fill="none"/>
        </g>
        <g id="사각형_2816" data-name="사각형 2816" transform="translate(67.65 35.105) rotate(90)" fill="#fff" stroke="#707070" stroke-width="2">
          <rect width="12.211" height="16.789" stroke="none"/>
          <rect x="1" y="1" width="10.211" height="14.789" fill="none"/>
        </g>
        <path id="패스_3522" data-name="패스 3522" d="M-24918.816,1590.035l17.594,25.5" transform="translate(24940.957 -1588.455)" fill="none" stroke="#707070" stroke-width="2"/>
        <line id="선_335" data-name="선 335" y2="27.474" transform="translate(39.735 26.711)" fill="none" stroke="#707070" stroke-width="2"/>
      </g>
      <g id="패스_3512" data-name="패스 3512" transform="translate(50.658 39.251) rotate(-135)" fill="#fff" stroke-linecap="round" stroke-linejoin="round">
        <path d="M 2.729812860488892 16.69023323059082 C 3.595419406890869 14.78588390350342 4.427552223205566 12.29913425445557 4.427552223205566 9.776652336120605 C 4.427552223205566 7.304722309112549 3.628588914871216 4.867437362670898 2.781962156295776 2.978596210479736 C 4.700502872467041 3.992977380752563 7.217593193054199 4.974152565002441 9.776652336120605 4.974152565002441 C 12.13763904571533 4.974152565002441 14.46279716491699 4.139031410217285 16.31528472900391 3.21312689781189 C 15.36999988555908 5.069844245910645 14.5147123336792 7.405106544494629 14.5147123336792 9.776652336120605 C 14.5147123336792 12.20424365997314 15.41093158721924 14.59387302398682 16.38247489929199 16.4710693359375 C 14.52005195617676 15.57052421569824 12.16574096679688 14.74862194061279 9.776652336120605 14.74862194061279 C 7.194676399230957 14.74862194061279 4.653584480285645 15.70847129821777 2.729812860488892 16.69023323059082 Z" stroke="none"/>
        <path d="M 4.590120315551758 4.901412010192871 C 5.077572822570801 6.410409927368164 5.427552223205566 8.083361625671387 5.427552223205566 9.776652336120605 C 5.427552223205566 11.52522850036621 5.054436683654785 13.25184440612793 4.542035102844238 14.79888916015625 C 6.143097877502441 14.19552421569824 7.946645736694336 13.74862289428711 9.776652336120605 13.74862289428711 C 11.4011173248291 13.74862289428711 13.00479888916016 14.10079765319824 14.46444606781006 14.60194396972656 C 13.90917015075684 13.10586929321289 13.51470184326172 11.4529447555542 13.51470184326172 9.776652336120605 C 13.51470184326172 8.158556938171387 13.88224601745605 6.562248229980469 14.40718460083008 5.107781410217285 C 12.96299171447754 5.617987632751465 11.38035583496094 5.974152565002441 9.776652336120605 5.974152565002441 C 7.96450138092041 5.974152565002441 6.179203033447266 5.519353866577148 4.590120315551758 4.901412010192871 M 1.9073486328125e-06 1.9073486328125e-06 C 1.9073486328125e-06 1.9073486328125e-06 4.888321876525879 3.974152565002441 9.776652336120605 3.974152565002441 C 14.66497230529785 3.974152565002441 19.55330276489258 1.9073486328125e-06 19.55330276489258 1.9073486328125e-06 C 19.55330276489258 1.9073486328125e-06 15.51470184326172 4.888321876525879 15.51470184326172 9.776652336120605 C 15.51470184326172 14.66497230529785 19.55330276489258 19.55330276489258 19.55330276489258 19.55330276489258 C 19.55330276489258 19.55330276489258 14.66497230529785 15.74862289428711 9.776652336120605 15.74862289428711 C 4.888321876525879 15.74862289428711 1.9073486328125e-06 19.55330276489258 1.9073486328125e-06 19.55330276489258 C 1.9073486328125e-06 19.55330276489258 3.427553176879883 14.66497230529785 3.427553176879883 9.776652336120605 C 3.427553176879883 4.888321876525879 1.9073486328125e-06 1.9073486328125e-06 1.9073486328125e-06 1.9073486328125e-06 Z" stroke="none" fill="#666"/>
      </g>
      <g id="패스_3513" data-name="패스 3513" transform="translate(19.428 23.197) rotate(-135)" fill="#fff" stroke-linecap="round" stroke-linejoin="round">
        <path d="M 2.615565299987793 13.66077995300293 C 3.280662536621094 12.10700798034668 3.875330448150635 10.16793251037598 3.875330448150635 8.20149040222168 C 3.875330448150635 6.27875280380249 3.306777238845825 4.382121086120605 2.659775972366333 2.846307277679443 C 4.229730606079102 3.628984451293945 6.199419021606445 4.333860397338867 8.20149040222168 4.333860397338867 C 10.03443717956543 4.333860397338867 11.84010410308838 3.74310827255249 13.33686065673828 3.042681694030762 C 12.62083530426025 4.544120311737061 12.01506042480469 6.358911991119385 12.01506042480469 8.20149040222168 C 12.01506042480469 10.09170818328857 12.65264129638672 11.95283889770508 13.39268970489502 13.47628498077393 C 11.88561820983887 12.7933464050293 10.05688762664795 12.21129035949707 8.20149040222168 12.21129035949707 C 6.180906295776367 12.21129035949707 4.191904067993164 12.90162467956543 2.615565299987793 13.66077995300293 Z" stroke="none"/>
        <path d="M 4.343807220458984 4.633661270141602 C 4.661618232727051 5.760241508483887 4.875329971313477 6.973958969116211 4.875329971313477 8.20149040222168 C 4.875329971313477 9.475851058959961 4.644965171813965 10.73545932769775 4.30695915222168 11.89797401428223 C 5.523744583129883 11.49247550964355 6.853599548339844 11.21129035949707 8.20149040222168 11.21129035949707 C 9.372879028320312 11.21129035949707 10.53029441833496 11.42354488372803 11.61201286315918 11.74529647827148 C 11.21503353118896 10.51591491699219 11.01506042480469 9.331274032592773 11.01506042480469 8.20149040222168 C 11.01506042480469 7.11320972442627 11.20068740844727 5.973787307739258 11.56914138793945 4.792736053466797 C 10.49988651275635 5.119491577148438 9.357803344726562 5.333860397338867 8.20149040222168 5.333860397338867 C 6.866636276245117 5.333860397338867 5.550561904907227 5.048121452331543 4.343807220458984 4.633661270141602 M 0 0 C 0 0 4.100740432739258 3.333860397338867 8.20149040222168 3.333860397338867 C 12.3022403717041 3.333860397338867 16.40298080444336 0 16.40298080444336 0 C 16.40298080444336 0 13.01506042480469 4.100740432739258 13.01506042480469 8.20149040222168 C 13.01506042480469 12.3022403717041 16.40298080444336 16.40298080444336 16.40298080444336 16.40298080444336 C 16.40298080444336 16.40298080444336 12.3022403717041 13.21129035949707 8.20149040222168 13.21129035949707 C 4.100740432739258 13.21129035949707 0 16.40298080444336 0 16.40298080444336 C 0 16.40298080444336 2.875329971313477 12.3022403717041 2.875329971313477 8.20149040222168 C 2.875329971313477 4.100740432739258 0 0 0 0 Z" stroke="none" fill="#666"/>
      </g>
    </g>
  </g>
</svg>
