<svg xmlns="http://www.w3.org/2000/svg" width="116" height="116" viewBox="0 0 116 116">
  <g id="그룹_5499" data-name="그룹 5499" transform="translate(-0.491)">
    <rect id="사각형_2201" data-name="사각형 2201" width="116" height="116" transform="translate(0.491)" fill="none"/>
    <g id="그룹_5369" data-name="그룹 5369" transform="translate(27.492 26.78)">
      <g id="패스_3147" data-name="패스 3147" transform="translate(7.05)" fill="#98c9f4">
        <path d="M 45.16021347045898 20.07478141784668 L 4.516021728515625 20.07478141784668 C 2.577281951904297 20.07478141784668 1.000001907348633 18.49750137329102 1.000001907348633 16.55876159667969 L 1.000001907348633 4.516021728515625 C 1.000001907348633 2.577281713485718 2.577281951904297 1.000001668930054 4.516021728515625 1.000001668930054 L 45.16021347045898 1.000001668930054 C 47.09894180297852 1.000001668930054 48.67622375488281 2.577281713485718 48.67622375488281 4.516021728515625 L 48.67622375488281 16.55876159667969 C 48.67622375488281 18.49750137329102 47.09894180297852 20.07478141784668 45.16021347045898 20.07478141784668 Z" stroke="none"/>
        <path d="M 4.516021728515625 2.000001907348633 C 3.128681182861328 2.000001907348633 2 3.128681182861328 2 4.516021728515625 L 2 16.55876159667969 C 2 17.94610214233398 3.128681182861328 19.07478141784668 4.516021728515625 19.07478141784668 L 45.16021347045898 19.07478141784668 C 46.54754257202148 19.07478141784668 47.67622375488281 17.94610214233398 47.67622375488281 16.55876159667969 L 47.67622375488281 4.516021728515625 C 47.67622375488281 3.128681182861328 46.54754257202148 2.000001907348633 45.16021347045898 2.000001907348633 L 4.516021728515625 2.000001907348633 M 4.516021728515625 1.9073486328125e-06 L 45.16021347045898 1.9073486328125e-06 C 47.65434265136719 1.9073486328125e-06 49.67622375488281 2.021892547607422 49.67622375488281 4.516021728515625 L 49.67622375488281 16.55876159667969 C 49.67622375488281 19.05289077758789 47.65434265136719 21.07478141784668 45.16021347045898 21.07478141784668 L 4.516021728515625 21.07478141784668 C 2.021892547607422 21.07478141784668 0 19.05289077758789 0 16.55876159667969 L 0 4.516021728515625 C 0 2.021892547607422 2.021892547607422 1.9073486328125e-06 4.516021728515625 1.9073486328125e-06 Z" stroke="none" fill="#666"/>
      </g>
      <g id="사각형_2173" data-name="사각형 2173" transform="translate(25.114 39.139)" fill="#ececec" stroke="#666" stroke-width="2">
        <path d="M0,0H13.548a0,0,0,0,1,0,0V22.085a2,2,0,0,1-2,2H2a2,2,0,0,1-2-2V0A0,0,0,0,1,0,0Z" stroke="none"/>
        <path d="M1,1H12.548a0,0,0,0,1,0,0V22.085a1,1,0,0,1-1,1H2a1,1,0,0,1-1-1V1A0,0,0,0,1,1,1Z" fill="none"/>
      </g>
      <path id="패스_3148" data-name="패스 3148" d="M-23550.391,9868h14.814" transform="translate(23574.926 -9828.86)" fill="none" stroke="#666" stroke-linecap="round" stroke-width="2"/>
      <path id="패스_3149" data-name="패스 3149" d="M-23566.684,9849v29.955a4.449,4.449,0,0,0,4.162,3.039,3.932,3.932,0,0,0,3.867-3.039v-10.52a3.234,3.234,0,0,1,3.158-2.357,2.734,2.734,0,0,1,2.73,2.605v4.383h.035a3.28,3.28,0,0,0,3.48,2.146c2.852-.094,3.389-2.146,3.389-2.146v-3.641s.814-2.334,2.439-3.059,2.275.248,4.053-.289a10.25,10.25,0,0,0,3.6-2.521" transform="translate(23566.684 -9838.462)" fill="none" stroke="#666" stroke-linecap="round" stroke-linejoin="round" stroke-width="2"/>
      <path id="패스_3150" data-name="패스 3150" d="M-23521.266,9848.721a8.249,8.249,0,0,1,3.926.826c1.434.915,1.6,3.265,1.6,3.265v5.809a5.285,5.285,0,0,1-2.176,2.562c-1.656.994-23.807,9.557-23.807,9.557a8.433,8.433,0,0,0-3.373,2.416,4.542,4.542,0,0,0-.352,3.37" transform="translate(23577.33 -9838.604)" fill="none" stroke="#666" stroke-width="2"/>
    </g>
  </g>
</svg>
