<svg xmlns="http://www.w3.org/2000/svg" width="116" height="116" viewBox="0 0 116 116">
  <g id="그룹_8030" data-name="그룹 8030" transform="translate(24484 -2340)">
    <rect id="사각형_2202" data-name="사각형 2202" width="116" height="116" transform="translate(-24484 2340)" fill="none"/>
    <g id="그룹_8016" data-name="그룹 8016" transform="translate(455.348 -4.963)">
      <g id="그룹_8015" data-name="그룹 8015" transform="translate(-24933.332 2365.963)">
        <g id="사각형_2814" data-name="사각형 2814" transform="translate(21.002 37.907)" fill="#ececec" stroke="#666" stroke-width="2">
          <rect width="61.628" height="34.238" stroke="none"/>
          <rect x="1" y="1" width="59.628" height="32.238" fill="none"/>
        </g>
        <g id="사각형_2815" data-name="사각형 2815" transform="translate(31.559 49.29)" fill="#fff" stroke="#666" stroke-width="2">
          <rect width="12.854" height="22.645" stroke="none"/>
          <rect x="1" y="1" width="10.854" height="20.645" fill="none"/>
        </g>
        <g id="사각형_2817" data-name="사각형 2817" transform="translate(42.115 49.29)" fill="#fff" stroke="#666" stroke-width="2">
          <rect width="12.854" height="22.645" stroke="none"/>
          <rect x="1" y="1" width="10.854" height="20.645" fill="none"/>
        </g>
        <g id="그룹_8012" data-name="그룹 8012" transform="translate(62.007 49.2)">
          <g id="사각형_2816" data-name="사각형 2816" transform="translate(13.695 0) rotate(90)" fill="#fff" stroke="#666" stroke-width="2">
            <rect width="13.695" height="13.695" stroke="none"/>
            <rect x="1" y="1" width="11.695" height="11.695" fill="none"/>
          </g>
        </g>
        <g id="그룹_8014" data-name="그룹 8014" transform="translate(14.984 24.931)">
          <g id="패스_3537" data-name="패스 3537" transform="translate(0 -3)" fill="#fff">
            <path d="M 5.447957038879395 20.80742263793945 C 3.744003057479858 20.80742263793945 2.033596515655518 19.99014282226562 1.160443663597107 19.49954605102539 L 5.331518173217773 4.000002384185791 L 13.39596366882324 4.000002384185791 L 12.37105274200439 19.23414421081543 C 10.96148300170898 19.70680236816406 7.462616920471191 20.80742263793945 5.447957038879395 20.80742263793945 Z" stroke="none"/>
            <path d="M 6.097982406616211 5.000001907348633 L 2.335542678833008 18.98107528686523 C 3.209095001220703 19.39191055297852 4.376919746398926 19.80742263793945 5.447957038879395 19.80742263793945 C 6.979333877563477 19.80742263793945 9.668584823608398 19.05645370483398 11.41843128204346 18.49610328674316 L 12.32641983032227 5.000001907348633 L 6.097982406616211 5.000001907348633 M 4.565047264099121 3.000001907348633 L 14.46549701690674 3.000001907348633 L 13.32422733306885 19.96354293823242 C 13.32422733306885 19.96354293823242 8.20838737487793 21.80742263793945 5.447957038879395 21.80742263793945 C 2.687526702880859 21.80742263793945 -2.86102294921875e-06 19.96354293823242 -2.86102294921875e-06 19.96354293823242 L 4.565047264099121 3.000001907348633 Z" stroke="none" fill="#666"/>
          </g>
          <g id="패스_3538" data-name="패스 3538" transform="translate(12.863 -3)" fill="#98c9f4">
            <path d="M 5.589216232299805 20.80742263793945 C 3.703848838806152 20.80742263793945 1.187358975410461 19.82753753662109 0.04444848001003265 19.33635139465332 L 1.076244592666626 4.000002384185791 L 11.3242359161377 4.000002384185791 L 11.3242359161377 19.30773735046387 C 10.1646032333374 19.79216957092285 7.505485057830811 20.80742263793945 5.589216232299805 20.80742263793945 Z" stroke="none"/>
            <path d="M 2.011232376098633 5.000001907348633 L 1.090245246887207 18.6893196105957 C 2.38661003112793 19.20223617553711 4.240331649780273 19.80742263793945 5.589216232299805 19.80742263793945 C 6.979474544525146 19.80742263793945 8.970499038696289 19.16087913513184 10.3242359161377 18.63514137268066 L 10.3242359161377 5.000001907348633 L 2.011232376098633 5.000001907348633 M 0.141265869140625 3.000001907348633 L 12.3242359161377 3.000001907348633 L 12.3242359161377 19.96354293823242 C 12.3242359161377 19.96354293823242 8.349645614624023 21.80742263793945 5.589216232299805 21.80742263793945 C 2.82878589630127 21.80742263793945 -1.000003814697266 19.96354293823242 -1.000003814697266 19.96354293823242 L 0.141265869140625 3.000001907348633 Z" stroke="none" fill="#666"/>
          </g>
          <g id="패스_3545" data-name="패스 3545" transform="translate(36.932 -3)" fill="#98c9f4">
            <path d="M 5.589216232299805 20.80742263793945 C 3.679097652435303 20.80742263793945 1.121021270751953 19.80157470703125 -3.949279744119849e-06 19.31719589233398 L -3.949279744119849e-06 4.000002384185791 L 11.3242359161377 4.000002384185791 L 11.3242359161377 19.30773735046387 C 10.1646032333374 19.79216957092285 7.505485057830811 20.80742263793945 5.589216232299805 20.80742263793945 Z" stroke="none"/>
            <path d="M 0.9999961853027344 5.000001907348633 L 0.9999961853027344 18.65340232849121 C 2.299423217773438 19.17354774475098 4.208608150482178 19.80742263793945 5.589216232299805 19.80742263793945 C 6.979474544525146 19.80742263793945 8.970499038696289 19.16087913513184 10.3242359161377 18.63514137268066 L 10.3242359161377 5.000001907348633 L 0.9999961853027344 5.000001907348633 M -1.000003814697266 3.000001907348633 L 12.3242359161377 3.000001907348633 L 12.3242359161377 19.96354293823242 C 12.3242359161377 19.96354293823242 8.349645614624023 21.80742263793945 5.589216232299805 21.80742263793945 C 2.82878589630127 21.80742263793945 -1.000003814697266 19.96354293823242 -1.000003814697266 19.96354293823242 L -1.000003814697266 3.000001907348633 Z" stroke="none" fill="#666"/>
          </g>
          <g id="패스_3541" data-name="패스 3541" transform="translate(25.047 -3)" fill="#fff">
            <path d="M 5.589216232299805 20.80742263793945 C 3.679097652435303 20.80742263793945 1.121021270751953 19.80157470703125 -3.949279744119849e-06 19.31719589233398 L -3.949279744119849e-06 4.000002384185791 L 11.3242359161377 4.000002384185791 L 11.3242359161377 19.30773735046387 C 10.1646032333374 19.79216957092285 7.505485057830811 20.80742263793945 5.589216232299805 20.80742263793945 Z" stroke="none"/>
            <path d="M 0.9999961853027344 5.000001907348633 L 0.9999961853027344 18.65340232849121 C 2.299423217773438 19.17354774475098 4.208608150482178 19.80742263793945 5.589216232299805 19.80742263793945 C 6.979474544525146 19.80742263793945 8.970499038696289 19.16087913513184 10.3242359161377 18.63514137268066 L 10.3242359161377 5.000001907348633 L 0.9999961853027344 5.000001907348633 M -1.000003814697266 3.000001907348633 L 12.3242359161377 3.000001907348633 L 12.3242359161377 19.96354293823242 C 12.3242359161377 19.96354293823242 8.349645614624023 21.80742263793945 5.589216232299805 21.80742263793945 C 2.82878589630127 21.80742263793945 -1.000003814697266 19.96354293823242 -1.000003814697266 19.96354293823242 L -1.000003814697266 3.000001907348633 Z" stroke="none" fill="#666"/>
          </g>
          <g id="패스_3546" data-name="패스 3546" transform="translate(49.116 -3)" fill="#fff">
            <path d="M 5.589216232299805 20.80742263793945 C 3.679097652435303 20.80742263793945 1.121021270751953 19.80157470703125 -3.949279744119849e-06 19.31719589233398 L -3.949279744119849e-06 4.000002384185791 L 11.3242359161377 4.000002384185791 L 11.3242359161377 19.30773735046387 C 10.1646032333374 19.79216957092285 7.505485057830811 20.80742263793945 5.589216232299805 20.80742263793945 Z" stroke="none"/>
            <path d="M 0.9999961853027344 5.000001907348633 L 0.9999961853027344 18.65340232849121 C 2.299423217773438 19.17354774475098 4.208608150482178 19.80742263793945 5.589216232299805 19.80742263793945 C 6.979474544525146 19.80742263793945 8.970499038696289 19.16087913513184 10.3242359161377 18.63514137268066 L 10.3242359161377 5.000001907348633 L 0.9999961853027344 5.000001907348633 M -1.000003814697266 3.000001907348633 L 12.3242359161377 3.000001907348633 L 12.3242359161377 19.96354293823242 C 12.3242359161377 19.96354293823242 8.349645614624023 21.80742263793945 5.589216232299805 21.80742263793945 C 2.82878589630127 21.80742263793945 -1.000003814697266 19.96354293823242 -1.000003814697266 19.96354293823242 L -1.000003814697266 3.000001907348633 Z" stroke="none" fill="#666"/>
          </g>
          <g id="패스_3544" data-name="패스 3544" transform="translate(60.199 -3)" fill="#98c9f4">
            <path d="M 6.730476856231689 20.80742263793945 C 4.795767784118652 20.80742263793945 2.196425676345825 19.77555656433105 1.098800897598267 19.29879760742188 L 0.06953126192092896 4.000002384185791 L 8.133975982666016 4.000002384185791 L 12.27466011047363 19.38661575317383 C 11.03386306762695 19.89407730102539 8.548013687133789 20.80742263793945 6.730476856231689 20.80742263793945 Z" stroke="none"/>
            <path d="M 1.139073371887207 5.000001907348633 L 2.055309295654297 18.61880493164062 C 3.35533332824707 19.14496421813965 5.319191455841064 19.80742263793945 6.730476856231689 19.80742263793945 C 7.992794990539551 19.80742263793945 9.750415802001953 19.27439117431641 11.07657718658447 18.78273773193359 L 7.367511749267578 5.000001907348633 L 1.139073371887207 5.000001907348633 M -1.000002861022949 3.000001907348633 L 8.900446891784668 3.000001907348633 L 13.46549701690674 19.96354293823242 C 13.46549701690674 19.96354293823242 9.490907669067383 21.80742263793945 6.730476856231689 21.80742263793945 C 3.970057487487793 21.80742263793945 0.1412572860717773 19.96354293823242 0.1412572860717773 19.96354293823242 L -1.000002861022949 3.000001907348633 Z" stroke="none" fill="#666"/>
          </g>
        </g>
        <g id="패스_3512" data-name="패스 3512" transform="translate(70.748 40.71) rotate(-135)" fill="#fff" stroke-linecap="round" stroke-linejoin="round">
          <path d="M 2.814269781112671 19.36307907104492 C 3.854763746261597 17.16191101074219 4.911744594573975 14.18174076080322 4.911744594573975 11.15772438049316 C 4.911744594573975 8.190616607666016 3.893840312957764 5.265017032623291 2.872685670852661 3.076749801635742 C 5.086428165435791 4.293018341064453 8.096946716308594 5.5355544090271 11.15772438049316 5.5355544090271 C 13.99578285217285 5.5355544090271 16.7908992767334 4.467122077941895 18.94744300842285 3.342023611068726 C 17.79965782165527 5.502400875091553 16.70635414123535 8.308220863342285 16.70635414123535 11.15772438049316 C 16.70635414123535 14.07065391540527 17.84858703613281 16.93740653991699 19.02388191223145 19.11620712280273 C 16.85825729370117 18.02382278442383 14.02904033660889 16.97330474853516 11.15772438049316 16.97330474853516 C 8.070211410522461 16.97330474853516 5.031773090362549 18.18777847290039 2.814269781112671 19.36307907104492 Z" stroke="none"/>
          <path d="M 4.77655029296875 5.103853225708008 C 5.423377990722656 6.946080207824707 5.911745071411133 9.03862476348877 5.911745071411133 11.15772438049316 C 5.911745071411133 13.33902931213379 5.394262313842773 15.49226760864258 4.71916389465332 17.37324142456055 C 6.653183937072754 16.58654403686523 8.88857364654541 15.97330474853516 11.15772438049316 15.97330474853516 C 13.19436454772949 15.97330474853516 15.203369140625 16.46714401245117 16.99211120605469 17.13717842102051 C 16.2553768157959 15.31228733062744 15.70635414123535 13.25022315979004 15.70635414123535 11.15772438049316 C 15.70635414123535 9.131352424621582 16.22114562988281 7.133713722229004 16.92275238037109 5.352191925048828 C 15.15137672424316 6.035688400268555 13.16871166229248 6.535544395446777 11.15772438049316 6.535544395446777 C 8.910306930541992 6.535544395446777 6.697708129882812 5.911029815673828 4.77655029296875 5.103853225708008 M -5.7220458984375e-06 -5.7220458984375e-06 C -5.7220458984375e-06 -5.7220458984375e-06 5.578865051269531 4.535543441772461 11.15772438049316 4.535543441772461 C 16.7365837097168 4.535543441772461 22.31544494628906 -5.7220458984375e-06 22.31544494628906 -5.7220458984375e-06 C 22.31544494628906 -5.7220458984375e-06 17.70635414123535 5.578865051269531 17.70635414123535 11.15772438049316 C 17.70635414123535 16.7365837097168 22.31544494628906 22.31544494628906 22.31544494628906 22.31544494628906 C 22.31544494628906 22.31544494628906 16.7365837097168 17.97330474853516 11.15772438049316 17.97330474853516 C 5.578865051269531 17.97330474853516 -5.7220458984375e-06 22.31544494628906 -5.7220458984375e-06 22.31544494628906 C -5.7220458984375e-06 22.31544494628906 3.911745071411133 16.7365837097168 3.911745071411133 11.15772438049316 C 3.911745071411133 5.578865051269531 -5.7220458984375e-06 -5.7220458984375e-06 -5.7220458984375e-06 -5.7220458984375e-06 Z" stroke="none" fill="#666"/>
        </g>
        <g id="패스_3513" data-name="패스 3513" transform="translate(37.987 26.474) rotate(-135)" fill="#fff" stroke-linecap="round" stroke-linejoin="round">
          <path d="M 2.701696157455444 15.88677597045898 C 3.514288425445557 14.07388496398926 4.281502246856689 11.733642578125 4.281502246856689 9.360052108764648 C 4.281502246856689 7.035296440124512 3.545567750930786 4.742605209350586 2.75182580947876 2.945972442626953 C 4.579426765441895 3.899126768112183 6.950048923492432 4.804801940917969 9.360052108764648 4.804801940917969 C 11.57955265045166 4.804801940917969 13.76549625396729 4.036722183227539 15.52481269836426 3.170754194259644 C 14.64037990570068 4.934492111206055 13.85360240936279 7.130075454711914 13.85360240936279 9.360052108764648 C 13.85360240936279 11.64385509490967 14.6788969039917 13.8917407989502 15.58908748626709 15.67644786834717 C 13.81967067718506 14.83369445800781 11.6061315536499 14.07754230499268 9.360052108764648 14.07754230499268 C 6.928163528442383 14.07754230499268 4.53493070602417 14.96372890472412 2.701696157455444 15.88677597045898 Z" stroke="none"/>
          <path d="M 4.528851509094238 4.834836006164551 C 4.969936370849609 6.242813110351562 5.281501770019531 7.79219913482666 5.281501770019531 9.360052108764648 C 5.281501770019531 10.98078346252441 4.948453903198242 12.58213043212891 4.483676910400391 14.0275821685791 C 5.983518600463867 13.47793769836426 7.659624099731445 13.07754230499268 9.360052108764648 13.07754230499268 C 10.86326503753662 13.07754230499268 12.3475456237793 13.39047622680664 13.70778846740723 13.84278869628906 C 13.2051362991333 12.44613075256348 12.85360145568848 10.91380500793457 12.85360145568848 9.360052108764648 C 12.85360145568848 7.862009048461914 13.18032646179199 6.384026527404785 13.65425300598145 5.028223991394043 C 12.30881881713867 5.488383293151855 10.84391593933105 5.804801940917969 9.360052108764648 5.804801940917969 C 7.676146507263184 5.804801940917969 6.017189025878906 5.397500991821289 4.528851509094238 4.834836006164551 M 1.9073486328125e-06 1.9073486328125e-06 C 1.9073486328125e-06 1.9073486328125e-06 4.680022239685059 3.804801940917969 9.360052108764648 3.804801940917969 C 14.04007148742676 3.804801940917969 18.72010231018066 1.9073486328125e-06 18.72010231018066 1.9073486328125e-06 C 18.72010231018066 1.9073486328125e-06 14.85360240936279 4.680022239685059 14.85360240936279 9.360052108764648 C 14.85360240936279 14.04007148742676 18.72010231018066 18.72010231018066 18.72010231018066 18.72010231018066 C 18.72010231018066 18.72010231018066 14.04007148742676 15.07754230499268 9.360052108764648 15.07754230499268 C 4.680022239685059 15.07754230499268 1.9073486328125e-06 18.72010231018066 1.9073486328125e-06 18.72010231018066 C 1.9073486328125e-06 18.72010231018066 3.281501770019531 14.04007148742676 3.281501770019531 9.360052108764648 C 3.281501770019531 4.680022239685059 1.9073486328125e-06 1.9073486328125e-06 1.9073486328125e-06 1.9073486328125e-06 Z" stroke="none" fill="#666"/>
        </g>
      </g>
      <rect id="사각형_2819" data-name="사각형 2819" width="15.978" height="3.424" transform="translate(-24872.467 2425.351)" fill="#666"/>
    </g>
  </g>
</svg>
