<svg xmlns="http://www.w3.org/2000/svg" width="50" height="50" viewBox="0 0 50 50">
  <g id="그룹_8389" data-name="그룹 8389" transform="translate(16745 21530)">
    <g id="그룹_8339" data-name="그룹 8339" transform="translate(-16741 -21525)">
      <g id="그룹_8338" data-name="그룹 8338" transform="translate(0 0.519)">
        <rect id="사각형_2790" data-name="사각형 2790" width="25.351" height="4.829" transform="translate(12.148 8.734) rotate(45)" fill="#999"/>
        <path id="빼기_23" data-name="빼기 23" d="M5.88,12.072A6.171,6.171,0,0,1,0,7.938a1.994,1.994,0,0,0,.654.109H3.88a2,2,0,0,0,2-2V6.024a2,2,0,0,0-2-2H.655A2,2,0,0,0,0,4.133,6.172,6.172,0,0,1,5.88,0a6.123,6.123,0,0,1,6.192,6.036A6.122,6.122,0,0,1,5.88,12.072Z" transform="translate(8.536 0) rotate(45)" fill="#ccc"/>
        <path id="빼기_24" data-name="빼기 24" d="M5.877,12.072A6.169,6.169,0,0,1,0,7.938a1.994,1.994,0,0,0,.655.11H3.877a2,2,0,0,0,2-2V6.024a2,2,0,0,0-2-2H.656A2,2,0,0,0,0,4.134,6.169,6.169,0,0,1,5.877,0a6.121,6.121,0,0,1,6.189,6.036A6.121,6.121,0,0,1,5.877,12.072Z" transform="translate(30.012 38.549) rotate(-135)" fill="#ccc"/>
      </g>
      <g id="그룹_8337" data-name="그룹 8337" transform="translate(4.144 9.741)">
        <path id="사각형_2786_-_윤곽선" data-name="사각형 2786 - 윤곽선" d="M6,.038V29.01a2.236,2.236,0,0,1-2,2.414H2A2.236,2.236,0,0,1,0,29.01V.038L2.989,0" transform="translate(22.221 0) rotate(45)" fill="#c79671"/>
        <path id="사각형_2786_-_윤곽선-2" data-name="사각형 2786 - 윤곽선" d="M6.147.038,6.023,1.613A2.239,2.239,0,0,1,4.015,4.027H2.008A2.239,2.239,0,0,1,0,1.613L.124.038l3-.038" transform="translate(2.848 19.267) rotate(45)" fill="#9d6840"/>
      </g>
      <path id="합치기_120" data-name="합치기 120" d="M20.174,18.082l-3.09-3.09H13.957L9.524,10.561S10.676,5.923,8.3,3.892,0,2.436,0,2.436A27.265,27.265,0,0,1,7.961.026a12.155,12.155,0,0,1,6.327,1.4s4.535,3.152,5.829,5.658a7.726,7.726,0,0,1,.67,4.782l2.8,2.8a1,1,0,0,1,0,1.414l-2,2a1,1,0,0,1-1.414,0Z" transform="translate(15.936 0)" fill="#666"/>
      <rect id="사각형_2787" data-name="사각형 2787" width="3.622" height="7.243" rx="1" transform="translate(39.804 13.241) rotate(45)" fill="#999"/>
    </g>
    <rect id="사각형_2955" data-name="사각형 2955" width="50" height="50" transform="translate(-16745 -21530)" fill="none"/>
  </g>
</svg>
