<svg xmlns="http://www.w3.org/2000/svg" width="116" height="116" viewBox="0 0 116 116">
  <g id="그룹_5505" data-name="그룹 5505" transform="translate(0.458)">
    <rect id="사각형_2207" data-name="사각형 2207" width="116" height="116" transform="translate(-0.458)" fill="none"/>
    <g id="그룹_5362" data-name="그룹 5362" transform="translate(27.542 22.845)">
      <g id="사각형_2176" data-name="사각형 2176" transform="translate(11.893 0)" fill="#ececec" stroke="#707070" stroke-width="2">
        <rect width="37.054" height="67.933" stroke="none"/>
        <rect x="1" y="1" width="35.054" height="65.933" fill="none"/>
      </g>
      <g id="패스_3171" data-name="패스 3171" transform="translate(19.613 46.731)" fill="#98c9f4" stroke-linejoin="round">
        <path d="M 20.61509895324707 12.48239707946777 L 0.9999985098838806 12.48239707946777 L 0.9999985098838806 1.489193677902222 C 1.240461587905884 1.241204142570496 1.774183392524719 0.7800118923187256 2.761308431625366 0.3194272816181183 C 4.128688335418701 -0.3185727298259735 6.651338577270508 -1.079102754592896 10.90404891967773 -1.079102754592896 C 15.13691806793213 -1.079102754592896 17.60380935668945 -0.3261327147483826 18.92789840698242 0.3055272698402405 C 19.89321708679199 0.7660309672355652 20.39604377746582 1.226299405097961 20.61509895324707 1.467565298080444 L 20.61509895324707 12.48239707946777 Z" stroke="none"/>
        <path d="M 10.90404891967773 -0.07910251617431641 C 5.230279922485352 -0.07910251617431641 2.818527221679688 1.293286323547363 1.999998092651367 1.93657112121582 L 1.999998092651367 11.48239707946777 L 19.61509895324707 11.48239707946777 L 19.61509895324707 1.898682594299316 C 18.85954284667969 1.279197692871094 16.55759048461914 -0.07910251617431641 10.90404891967773 -0.07910251617431641 M 10.90404891967773 -2.079102516174316 C 19.8299388885498 -2.079102516174316 21.61509895324707 1.130897521972656 21.61509895324707 1.130897521972656 L 21.61509895324707 13.48239707946777 L -1.9073486328125e-06 13.48239707946777 L -1.9073486328125e-06 1.130897521972656 C -1.9073486328125e-06 1.130897521972656 1.9781494140625 -2.079102516174316 10.90404891967773 -2.079102516174316 Z" stroke="none" fill="#707070"/>
      </g>
      <g id="패스_3172" data-name="패스 3172" transform="translate(19.613 9.677)" fill="#98c9f4" stroke-linejoin="round">
        <path d="M 0.9999985098838806 25.90743446350098 L 0.9999985098838806 1.489192724227905 C 1.240461587905884 1.241203308105469 1.774183392524719 0.780010998249054 2.761308431625366 0.3194263875484467 C 4.128688335418701 -0.3185736238956451 6.651338577270508 -1.079103589057922 10.90404891967773 -1.079103589057922 C 15.13691806793213 -1.079103589057922 17.60380935668945 -0.3261336088180542 18.92789840698242 0.3055263757705688 C 19.89321708679199 0.7660300731658936 20.39604377746582 1.226298451423645 20.61509895324707 1.467564463615417 L 20.61509895324707 25.88347816467285 C 18.63498687744141 25.13101196289062 14.85786056518555 23.92773628234863 10.95228862762451 23.92773628234863 C 7.000856399536133 23.92773628234863 3.039504766464233 25.15993881225586 0.9999985098838806 25.90743446350098 Z" stroke="none"/>
        <path d="M 10.90404891967773 -0.07910346984863281 C 5.230279922485352 -0.07910346984863281 2.818527221679688 1.293285369873047 1.999998092651367 1.936569213867188 L 1.999998092651367 24.50699424743652 C 4.263851165771484 23.77525901794434 7.607831001281738 22.92773628234863 10.95228862762451 22.92773628234863 C 14.23618793487549 22.92773628234863 17.42799758911133 23.74404907226562 19.61509895324707 24.46898460388184 L 19.61509895324707 1.898681640625 C 18.85954284667969 1.279197692871094 16.55759048461914 -0.07910346984863281 10.90404891967773 -0.07910346984863281 M 10.90404891967773 -2.079103469848633 C 19.8299388885498 -2.079103469848633 21.61509895324707 1.130895614624023 21.61509895324707 1.130895614624023 L 21.61509895324707 27.37783622741699 C 21.61509895324707 27.37783622741699 16.3560676574707 24.92773628234863 10.95228862762451 24.92773628234863 C 5.548519134521484 24.92773628234863 -1.9073486328125e-06 27.37783622741699 -1.9073486328125e-06 27.37783622741699 L -1.9073486328125e-06 1.130895614624023 C -1.9073486328125e-06 1.130895614624023 1.9781494140625 -2.079103469848633 10.90404891967773 -2.079103469848633 Z" stroke="none" fill="#707070"/>
      </g>
      <path id="패스_3170" data-name="패스 3170" d="M-23335.7,9888.381h60.139" transform="translate(23335.703 -9821.403)" fill="none" stroke="#707070" stroke-width="2"/>
      <path id="합치기_22" data-name="합치기 22" d="M7.844,4.282q-.084,0-.169,0A4.862,4.862,0,0,1,5.4,3.606c-2.557-1.383-4.12-.1-4.131-.09a.772.772,0,1,1-1-1.176,4.616,4.616,0,0,1,2.847-.923A6.314,6.314,0,0,1,6.14,2.25a5.305,5.305,0,0,0,.624.292q-.011-.111-.011-.226A2.315,2.315,0,1,1,7.844,4.282Z" transform="translate(34.475 38.598)" fill="#666"/>
    </g>
  </g>
</svg>
