<svg xmlns="http://www.w3.org/2000/svg" width="45" height="30" viewBox="0 0 45 30">
  <g id="그룹_5855" data-name="그룹 5855" transform="translate(-9513 11424)">
    <rect id="사각형_2448" data-name="사각형 2448" width="45" height="30" transform="translate(9513 -11424)" fill="none"/>
    <g id="그룹_5851" data-name="그룹 5851" transform="translate(-526 14)">
      <g id="빼기_14" data-name="빼기 14" transform="translate(10038 -11435)" fill="#c7ebeb">
        <path d="M 42.99920272827148 24.00029754638672 L 4.999600887298584 24.00020217895508 L 4.999600887298584 17.89932250976562 C 7.279243469238281 17.43401718139648 9.000101089477539 15.41348934173584 9.000101089477539 12.99959945678711 C 9.000101089477539 10.58505249023438 7.279449462890625 8.564824104309082 4.999600887298584 8.100424766540527 L 4.999600887298584 0.9999997019767761 L 42.99920272827148 0.9999997019767761 L 42.99920272827148 8.100263595581055 C 42.04589462280273 8.293667793273926 41.1693000793457 8.762317657470703 40.46514129638672 9.466469764709473 C 39.52007293701172 10.41156005859375 38.99959945678711 11.66630935668945 38.99959945678711 12.99959945678711 C 38.99959945678711 15.41441631317139 40.72000122070312 17.4349536895752 42.99920272827148 17.89962005615234 L 42.99920272827148 24.00029754638672 Z" stroke="none"/>
        <path d="M 41.99920272827148 23.00029563903809 L 41.99920272827148 18.65731048583984 C 39.67121887207031 17.8317985534668 37.99959945678711 15.60733413696289 37.99959945678711 12.99959945678711 C 37.99959945678711 11.39919948577881 38.62409210205078 9.893329620361328 39.75804138183594 8.759369850158691 C 40.40185165405273 8.115557670593262 41.16578674316406 7.635878562927246 41.99920272827148 7.341360092163086 L 41.99920272827148 1.999999761581421 L 5.999600887298584 1.999999761581421 L 5.999600887298584 7.342630863189697 C 8.327935218811035 8.168021202087402 10.00010108947754 10.39225959777832 10.00010108947754 12.99959945678711 C 10.00010108947754 15.60635375976562 8.327861785888672 17.83083915710449 5.999600887298584 18.65687942504883 L 5.999600887298584 23.00020408630371 L 41.99920272827148 23.00029563903809 M 43.99920272827148 25.00029945373535 L 43.99920272827148 25.00020027160645 L 3.999601125717163 25.00020027160645 L 3.999601125717163 17.00009918212891 C 6.206760883331299 16.99909973144531 8.000101089477539 15.20492935180664 8.000101089477539 12.99959945678711 C 8.000101089477539 10.79420948028564 6.205481052398682 9 3.999601125717163 9 L 3.999601125717163 -2.731323149873788e-07 L 43.99920272827148 -2.731323149873788e-07 L 43.99920272827148 9 C 42.93206024169922 9.000949859619141 41.92845153808594 9.417379379272461 41.1722526550293 10.17358016967773 C 40.41606140136719 10.92978000640869 39.99959945678711 11.93340969085693 39.99959945678711 12.99959945678711 C 39.99959945678711 15.20547962188721 41.7938117980957 17.00009918212891 43.99920272827148 17.00009918212891 L 43.99920272827148 25.00029945373535 Z" stroke="none" fill="#00babb"/>
      </g>
      <path id="패스_3280" data-name="패스 3280" d="M0,0V24" transform="translate(10051.5 -11434.5)" fill="none" stroke="#00babb" stroke-width="2" stroke-dasharray="3"/>
      <text id="_" data-name="%" transform="translate(10057 -11417)" fill="#00babb" font-size="14" font-family="Helvetica-Bold, Helvetica" font-weight="700"><tspan x="0" y="0">%</tspan></text>
    </g>
  </g>
</svg>
