<svg xmlns="http://www.w3.org/2000/svg" width="116" height="116" viewBox="0 0 116 116">
  <g id="그룹_8696" data-name="그룹 8696" transform="translate(-18061.999 17554)">
    <g id="그룹_8692" data-name="그룹 8692">
      <g id="그룹_8683" data-name="그룹 8683">
        <g id="그룹_8687" data-name="그룹 8687">
          <g id="그룹_8681" data-name="그룹 8681" transform="translate(18062.088 -17554)">
            <rect id="사각형_2197" data-name="사각형 2197" width="116" height="116" transform="translate(-0.089)" fill="none"/>
          </g>
        </g>
      </g>
      <g id="그룹_8694" data-name="그룹 8694" transform="translate(18081.842 -17533.684)">
        <g id="그룹_7909" data-name="그룹 7909" transform="translate(3.053 13.737)">
          <path id="패스_3512" data-name="패스 3512" d="M0,0A8.784,8.784,0,0,0,4.641,1.887,8.784,8.784,0,0,0,9.283,0,8.717,8.717,0,0,0,7.366,4.641,8.717,8.717,0,0,0,9.283,9.283,8.977,8.977,0,0,0,4.641,7.477,8.977,8.977,0,0,0,0,9.283,9.51,9.51,0,0,0,1.627,4.641,9.51,9.51,0,0,0,0,0Z" transform="translate(29.119 13.128) rotate(-135)" fill="#5ea2de"/>
          <path id="패스_3513" data-name="패스 3513" d="M0,0S3.481,2.83,6.962,2.83,13.924,0,13.924,0s-2.876,3.481-2.876,6.962,2.876,6.962,2.876,6.962-3.481-2.709-6.962-2.709S0,13.924,0,13.924s2.441-3.481,2.441-6.962S0,0,0,0Z" transform="translate(9.846 28.552) rotate(-135)" fill="#5ea2de"/>
          <path id="패스_3514" data-name="패스 3514" d="M-21580.137-5205.014c1.508-.125,41.309-1.053,48.887,0s9.813,2.011,9.668,4.116-3.141,2.763-9.668,3.435-8.121-2.616-15.41-1.918c-7.363.7-7.113,3.526-14.477,3.211s-8.23-1.185-14.355-2.525c-6.1-1.344-7.113.155-10.773-.686-3.691-.843-2.379-2.718-1.082-4.179C-21585.969-5205.02-21581.648-5204.89-21580.137-5205.014Z" transform="translate(21590.537 5245.029)" fill="#999"/>
          <path id="패스_3515" data-name="패스 3515" d="M-21550.832-5217.744a22.167,22.167,0,0,1-7.707,5.619c-4.672,1.945-8.906,1.122-10.992,2.167-2.1,1.05-14.207,13.763-14.207,13.763s-.793,1.644,0,2.392,1.406,1.046,3.133.6,6.891-5.831,12.188-7.775c5.328-1.944,9.07-.561,9.07,0s-6.086.8-9.07,2.242c-2.957,1.438-3.441,2.187-3.441,3.439s1.281,1.943,2.328,2.094,19.742-.3,21.91-.973,2.859-2.056,4.043-4.561.242-2.711,1.191-5.159a22.108,22.108,0,0,1,2.629-4.639Z" transform="translate(21598.777 5230.236)" fill="#f2d1a0"/>
          <rect id="사각형_2797" data-name="사각형 2797" width="20.886" height="11.604" rx="1" transform="matrix(0.766, 0.643, -0.643, 0.766, 54.746, 0)" fill="#2e4e8e"/>
        </g>
      </g>
    </g>
  </g>
</svg>
