<svg xmlns="http://www.w3.org/2000/svg" width="135" height="25" viewBox="0 0 135 25">
  <g id="그룹_4987" data-name="그룹 4987" transform="translate(-16 -40)">
    <g id="그룹_4748" data-name="그룹 4748" transform="translate(23.576 45.892)">
      <path id="패스_2955" data-name="패스 2955" d="M-912.507,1136.013c.037.069,1.823-2.681,1.823-2.681s-5.279-3.118-9.748,0a7.594,7.594,0,0,0-1.382,6.977c.371.94,1.382,3.806,4.787,3.6a33.618,33.618,0,0,0,6.009-1.04l-1.779-2.818a9.105,9.105,0,0,1-4.23.261c-1.914-.469-1.382-4.225,0-4.537A14.421,14.421,0,0,1-912.507,1136.013Z" transform="translate(922.134 -1131.198)" fill="#fff"/>
      <path id="패스_2956" data-name="패스 2956" d="M-912.535,1135.923c.005,0,1.826-2.656,1.826-2.656s-5.442-3.335-9.762,0a7.32,7.32,0,0,0-1.491,6.913c.345.712,1.491,3.773,4.9,3.565a34.082,34.082,0,0,0,6.018-1.033l-1.757-3.359a6.973,6.973,0,0,1-4.261.827c-1.918-.465-1.132-3.43,0-4.5S-912.541,1135.925-912.535,1135.923Z" transform="translate(965.408 -1131.037)" fill="#fff"/>
      <path id="빼기_1" data-name="빼기 1" d="M6.733,13.466a6.733,6.733,0,1,1,6.733-6.733A6.741,6.741,0,0,1,6.733,13.466Zm0-9.426A2.693,2.693,0,1,0,9.427,6.733,2.7,2.7,0,0,0,6.733,4.04Z" transform="translate(12.971 0)" fill="#fff"/>
      <path id="빼기_2" data-name="빼기 2" d="M6.733,13.468a6.734,6.734,0,1,1,6.733-6.734A6.741,6.741,0,0,1,6.733,13.468Zm0-9.427A2.694,2.694,0,1,0,9.427,6.734,2.7,2.7,0,0,0,6.733,4.041Z" transform="translate(56.935 0)" fill="#fff"/>
      <rect id="사각형_1092" data-name="사각형 1092" width="4.489" height="12.718" transform="translate(114.289 0.748)" fill="#fff"/>
      <path id="패스_2957" data-name="패스 2957" d="M-792.932,1132h-4.57a35.8,35.8,0,0,0,0,7.962c.288,2.1,2.472,4,5.544,4,4.654.08,6.517-.609,6.817-3.73a69.374,69.374,0,0,0,0-8.234h-4.869v7.147s-.149,1.7-.973,1.7-2.023-.339-1.948-1.7S-792.932,1132-792.932,1132Z" transform="translate(883.728 -1131.252)" fill="#fff"/>
      <path id="패스_2958" data-name="패스 2958" d="M-875.247,1132.475H-880.1v11.849h4.849v-4.467s1.521-.2,1.883.744a13.239,13.239,0,0,1,.8,3.184h5.139a5.368,5.368,0,0,0-2.605-5.148c-.073-.473,2.316-1.354,2.316-6.162,0-.272-4.849,0-4.849,0s.362,2.234-.8,2.844a7.215,7.215,0,0,1-1.883.812C-875.319,1134.573-875.247,1132.475-875.247,1132.475Z" transform="translate(909.186 -1131.606)" fill="#fff"/>
      <path id="패스_2959" data-name="패스 2959" d="M-811.152,1135.708c-.042-.531,0-1.446,3.908-.185.435.2.782-3.055.782-3.055s-4.263-1.394-6.608-.265-2.857,2.387-2.572,4.048c.071.862.938,2.726,4.491,2.859,1.37.127,1.35,1.2.71,1.33a13.469,13.469,0,0,1-4.333-.4c-.82-.358-.64,3.056-.64,3.056s7.863,2.113,9.45-1.393-2.772-4.85-2.772-4.85S-811.11,1136.239-811.152,1135.708Z" transform="translate(888.77 -1131.013)" fill="#fff"/>
      <path id="빼기_4" data-name="빼기 4" d="M11.2,12.718H6.844s.045-.923,0-2.611C6.682,7.955,5.4,7.633,4.65,7.633a2.234,2.234,0,0,0-.473.046v4.84H0V.069l.078,0C1.765.024,3.364,0,4.581,0s2.1.023,2.579.069A3.291,3.291,0,0,1,10.2,2.38a3.011,3.011,0,0,1-.609,3.13c-.177.215-.317.385-.3.55,1.168.758,1.627,2.527,1.806,3.879a15.787,15.787,0,0,1,.111,2.778ZM4.9,2.651c-.587,0-1.084.04-1.089.041v2.26a9.514,9.514,0,0,0,1.451.14,1.9,1.9,0,0,0,.853-.14,2.045,2.045,0,0,0,.9-1.178.87.87,0,0,0-.093-.7C6.694,2.724,5.7,2.651,4.9,2.651Z" transform="translate(100.521 0.748)" fill="#fff"/>
    </g>
    <rect id="사각형_1933" data-name="사각형 1933" width="135" height="25" transform="translate(16 40)" fill="none"/>
  </g>
</svg>
