<svg id="그룹_4859" data-name="그룹 4859" xmlns="http://www.w3.org/2000/svg" width="35" height="35" viewBox="0 0 35 35">
  <rect id="사각형_1855" data-name="사각형 1855" width="35" height="35" fill="none"/>
  <g id="그룹_4857" data-name="그룹 4857" transform="translate(6.999 8)">
    <g id="그룹_4858" data-name="그룹 4858">
      <g id="그룹_4856" data-name="그룹 4856">
        <g id="그룹_4852" data-name="그룹 4852">
          <path id="합치기_7" data-name="합치기 7" d="M11.219,20a1.552,1.552,0,1,1,0-3.1h1.4a1.552,1.552,0,0,1,1.38.841,4.469,4.469,0,0,0,3.054-.784,3.591,3.591,0,0,0,.73-1.609H16.5V7.586h.015a10.529,10.529,0,0,0-.7-2.127c-1.2-2.592-3.883-2.73-5.177-2.73s-4.046.142-5.359,2.753a10.489,10.489,0,0,0-.779,2.1h0v7.759H2a2,2,0,0,1-2-2V9.586A2,2,0,0,1,1.778,7.6a12.53,12.53,0,0,1,.967-2.783A8.333,8.333,0,0,1,10.637,0a7.964,7.964,0,0,1,7.729,4.839A12.194,12.194,0,0,1,19.225,7.6,2,2,0,0,1,21,9.586v3.758a2,2,0,0,1-1.691,1.977,5.416,5.416,0,0,1-1.131,2.662c-.746.864-2.952,1.305-4.21,1.305v-.08A1.551,1.551,0,0,1,12.616,20Z" fill="#2e4e8e"/>
        </g>
      </g>
      <g id="그룹_4855" data-name="그룹 4855" transform="translate(7.955 6.851)">
        <path id="패스_3062" data-name="패스 3062" d="M-7877.721-3286.423a2.218,2.218,0,0,1,.1-.8,3.157,3.157,0,0,1,1.327-1.485,1.245,1.245,0,0,0,.376-.967.741.741,0,0,0-.448-.652,1.6,1.6,0,0,0-1.687.333.637.637,0,0,1-.641-.233c-.248-.333.087-.729.087-.729a2.49,2.49,0,0,1,2.785-.334,1.824,1.824,0,0,1,1.068,1.546,2.267,2.267,0,0,1-.873,1.931l-.017.011a2.248,2.248,0,0,0-.85.853,2.361,2.361,0,0,0-.1.529Z" transform="translate(7878.785 3291.578)" fill="#2e4e8e"/>
        <circle id="타원_174" data-name="타원 174" cx="0.583" cy="0.583" r="0.583" transform="translate(1.024 6.149)" fill="#2e4e8e"/>
      </g>
    </g>
  </g>
</svg>
