<svg id="그룹_4864" data-name="그룹 4864" xmlns="http://www.w3.org/2000/svg" width="35" height="35" viewBox="0 0 35 35">
  <rect id="사각형_1852" data-name="사각형 1852" width="35" height="35" fill="none"/>
  <path id="Icon_awesome-home" data-name="Icon awesome-home" d="M12.247,7.33,4.193,13.963v7.159a.7.7,0,0,0,.7.7l4.9-.013a.7.7,0,0,0,.7-.7V16.929a.7.7,0,0,1,.7-.7h2.8a.7.7,0,0,1,.7.7v4.178a.7.7,0,0,0,.7.7l4.893.014a.7.7,0,0,0,.7-.7V13.958L12.915,7.33A.532.532,0,0,0,12.247,7.33Zm12.722,4.508-3.652-3.01V2.778a.524.524,0,0,0-.524-.524H18.346a.524.524,0,0,0-.524.524V5.95L13.911,2.732a2.1,2.1,0,0,0-2.665,0L.189,11.838a.524.524,0,0,0-.07.738l1.114,1.354A.524.524,0,0,0,1.972,14L12.247,5.539a.532.532,0,0,1,.668,0L23.191,14a.524.524,0,0,0,.738-.07l1.114-1.354a.524.524,0,0,0-.074-.74Z" transform="translate(4.168 5.913)" fill="#2e4e8e"/>
</svg>
