<svg data-name="그룹 4864" xmlns="http://www.w3.org/2000/svg" width="42" height="42"><path data-name="사각형 1852" fill="none" d="M0 0h42v42H0z"/><path data-name="Icon awesome-home" d="m19.701 15.892-9.668 7.955v8.6a.839.839 0 0 0 .839.839l5.874-.015a.839.839 0 0 0 .835-.839v-5.021a.839.839 0 0 1 .839-.839h3.355a.839.839 0 0 1 .839.839v5.013a.839.839 0 0 0 .839.841l5.872.016a.839.839 0 0 0 .839-.839v-8.595l-9.663-7.955a.639.639 0 0 0-.8 0Zm15.266 5.41-4.386-3.612v-7.26a.629.629 0 0 0-.629-.629h-2.935a.629.629 0 0 0-.629.629v3.806l-4.693-3.861a2.516 2.516 0 0 0-3.2 0L5.228 21.302a.629.629 0 0 0-.084.886l1.337 1.625a.629.629 0 0 0 .886.085l12.334-10.151a.639.639 0 0 1 .8 0L32.83 23.899a.629.629 0 0 0 .886-.084l1.337-1.625a.629.629 0 0 0-.089-.887Z" fill="#999"/></svg>