<svg width="24" height="24" viewBox="0 0 24 24" fill="none" xmlns="http://www.w3.org/2000/svg">
<g id="Frame 395">
<path id="Vector" fill-rule="evenodd" clip-rule="evenodd" d="M21.9891 5.05289L19.1771 21.2351C19.0425 22.0074 17.9598 22.2562 17.2058 21.6959L10.6092 16.7967C9.66924 16.0989 9.52391 14.9181 10.2726 14.1706C12.0279 12.4165 13.7912 10.6525 15.5645 8.87933C15.8725 8.5717 15.3665 8.14756 14.9779 8.38581L6.8306 13.3773C6.25928 13.7275 5.51528 13.7759 4.87996 13.5102C3.3913 12.8864 1.94399 12.2784 0.532667 11.686C-0.231992 11.364 -0.155326 10.3606 0.646666 10.1138L20.3398 4.06584C21.1851 3.80599 22.1111 4.35253 21.9891 5.05223V5.05289Z" fill="#777676"/>
</g>
</svg>
