<svg width="9" height="10" viewBox="0 0 9 10" fill="none" xmlns="http://www.w3.org/2000/svg">
<path d="M7.77012 4.07208C8.09331 3.7558 8.29339 3.31755 8.29339 2.83265C8.29339 1.8691 7.50236 1.08776 6.52686 1.08776C6.09992 1.08776 5.70868 1.23727 5.40335 1.48633C5.11736 0.902612 4.51227 0.5 3.81198 0.5C2.83649 0.5 2.04545 1.28135 2.04545 2.2449C2.04545 2.36135 2.05736 2.47486 2.0793 2.58506C1.97777 2.56706 1.87326 2.55714 1.76653 2.55714C0.791033 2.55714 0 3.33849 0 4.30204C0 5.14547 0.605455 5.84894 1.41062 6.01167C1.13467 6.31951 0.966942 6.72396 0.966942 7.16735C0.966942 8.1309 1.75798 8.91224 2.73347 8.91224C3.16041 8.91224 3.55165 8.76273 3.85698 8.51367C4.1426 9.09739 4.74769 9.5 5.44835 9.5C6.42384 9.5 7.21488 8.71865 7.21488 7.7551C7.21488 7.66106 7.20707 7.56849 7.19256 7.47849C7.20632 7.47849 7.21971 7.47959 7.23347 7.47959C8.20897 7.47959 9 6.69824 9 5.73469C9 4.95592 8.48343 4.29653 7.77012 4.07208Z" fill="#D83503"/>
</svg>
