<svg width="61" height="60" viewBox="0 0 61 60" fill="none" xmlns="http://www.w3.org/2000/svg">
<rect x="0.666626" width="60" height="60" rx="30" fill="white"/>
<path d="M43 38.9187C42.3327 39.8362 41.9407 40.965 41.9407 42.1883C41.9407 43.4116 42.3355 44.5377 43 45.4579H22.3396C20.5351 45.4579 19.0699 43.9955 19.0699 42.1883V17.2017C19.0699 15.3945 20.5324 13.9321 22.3396 13.9321H43V38.9187Z" fill="#1D3D98" fill-opacity="0.2" stroke="#414141" stroke-width="1.5" stroke-linecap="round" stroke-linejoin="round"/>
<path d="M22.3396 36.4581V13.9321" stroke="#414141" stroke-width="1.5" stroke-linecap="round" stroke-linejoin="round"/>
<path d="M43 38.9186H22.3396C20.5351 38.9186 19.0699 40.3811 19.0699 42.1883C19.0699 43.9955 20.5324 45.4579 22.3396 45.4579H43C42.3327 44.5404 41.9407 43.4116 41.9407 42.1883C41.9407 40.9649 42.3355 39.8389 43 38.9186Z" fill="white" stroke="#414141" stroke-width="1.5" stroke-linecap="round" stroke-linejoin="round"/>
<path d="M22.5044 42.2572L38.5553 42.2572" stroke="#414141" stroke-width="1.5" stroke-linecap="round" stroke-linejoin="round"/>
<path d="M37.5506 23.0153L40.2364 26.1181V13.9321H34.8621V26.1181L37.5506 23.0153Z" fill="white" stroke="#414141" stroke-width="1.5" stroke-linecap="round" stroke-linejoin="round"/>
</svg>
