<svg width="20" height="20" viewBox="0 0 20 20" fill="none" xmlns="http://www.w3.org/2000/svg">
<g id="Location Icon" clip-path="url(#clip0_2474_21136)">
<path id="Icon" d="M16.6667 9.99996C16.6667 13.6819 13.6819 16.6666 10 16.6666M16.6667 9.99996C16.6667 6.31806 13.6819 3.33329 10 3.33329M16.6667 9.99996H18.3334M10 16.6666C6.31812 16.6666 3.33335 13.6819 3.33335 9.99996M10 16.6666V18.3333M3.33335 9.99996C3.33335 6.31806 6.31812 3.33329 10 3.33329M3.33335 9.99996H1.66669M10 3.33329V1.66663M12.5 9.99996C12.5 11.3807 11.3807 12.5 10 12.5C8.61931 12.5 7.50002 11.3807 7.50002 9.99996C7.50002 8.61925 8.61931 7.49996 10 7.49996C11.3807 7.49996 12.5 8.61925 12.5 9.99996Z" stroke="#1F1F1F" stroke-width="1.5" stroke-linecap="round" stroke-linejoin="round"/>
</g>
<defs>
<clipPath id="clip0_2474_21136">
<rect width="20" height="20" fill="white"/>
</clipPath>
</defs>
</svg>
