<svg width="32" height="40" viewBox="0 0 32 40" fill="none" xmlns="http://www.w3.org/2000/svg">
<path d="M16 39.3846C20 31.5077 32 26.4237 32 15.7538C32 7.05324 24.8366 0 16 0C7.16344 0 0 7.05324 0 15.7538C0 26.4237 12 31.5077 16 39.3846Z" fill="#F7931D"/>
<path d="M8.08142 12.4778C8.08142 13.5757 8.96955 14.4683 10.0619 14.4683H13.2967C13.2967 14.4683 13.3097 14.4683 13.3227 14.4683H13.3454C13.9288 14.4683 14.4798 14.2142 14.8558 13.7646C14.9563 13.6441 15.0049 13.4909 14.992 13.3346C14.979 13.1782 14.9045 13.0349 14.7845 12.9339C14.5382 12.7254 14.1687 12.7547 13.958 13.0023C13.8024 13.1847 13.5787 13.289 13.3421 13.289C13.3356 13.289 13.3259 13.289 13.3162 13.289H10.0586C9.61134 13.289 9.24831 12.9208 9.24831 12.4745V10.6501H14.4053C14.7294 10.6501 14.992 10.3863 14.992 10.0605C14.992 9.73471 14.7294 9.47083 14.4053 9.47083H8.45418C8.13004 9.47083 7.86749 9.73471 7.86749 10.0605C7.86749 10.2331 7.94204 10.396 8.07494 10.5068V12.4713L8.08142 12.4778Z" fill="white"/>
<path d="M15.556 21.0589C15.4361 20.9579 15.2902 20.909 15.1281 20.922C14.9725 20.9351 14.8299 21.01 14.7294 21.1305C14.5771 21.313 14.3502 21.4172 14.1136 21.4172H8.94688C8.72971 21.4172 8.55468 21.2413 8.55468 21.023C8.55468 20.8048 8.72971 20.6288 8.94688 20.6288H13.9191C14.7813 20.6288 15.4847 19.9252 15.4847 19.0553C15.4847 18.1855 14.7845 17.4818 13.9191 17.4818H8.45744C8.1333 17.4818 7.87075 17.7457 7.87075 18.0715C7.87075 18.3973 8.1333 18.6611 8.45744 18.6611H13.9191C14.1363 18.6611 14.3113 18.8371 14.3113 19.0553C14.3113 19.2736 14.1363 19.4495 13.9191 19.4495H8.94688C8.08468 19.4495 7.38455 20.1532 7.38455 21.023C7.38455 21.8929 8.08468 22.5933 8.94688 22.5933H14.1136C14.697 22.5933 15.2481 22.3359 15.6241 21.8864C15.7245 21.7658 15.7732 21.6127 15.7602 21.4563C15.7472 21.2999 15.6727 21.1566 15.5527 21.0556L15.556 21.0589Z" fill="white"/>
<path d="M8.07805 16.6085H14.9821C15.3062 16.6085 15.5688 16.3446 15.5688 16.0188C15.5688 15.693 15.3062 15.4291 14.9821 15.4291H12.1168V15.2825C12.1168 14.9568 11.8542 14.6929 11.5301 14.6929C11.2059 14.6929 10.9434 14.9568 10.9434 15.2825V15.4291H8.07805C7.75391 15.4291 7.49136 15.693 7.49136 16.0188C7.49136 16.3446 7.75391 16.6085 8.07805 16.6085Z" fill="white"/>
<path d="M17.1247 14.4682H24.0256C24.3497 14.4682 24.6123 14.2043 24.6123 13.8786C24.6123 13.5528 24.3497 13.2889 24.0256 13.2889H21.1602C21.1537 12.9696 20.8944 12.7123 20.5735 12.7123C20.2526 12.7123 19.9933 12.9696 19.9869 13.2889H17.1215C16.7974 13.2889 16.5348 13.5528 16.5348 13.8786C16.5348 14.2043 16.7974 14.4682 17.1215 14.4682H17.1247Z" fill="white"/>
<path d="M18.8524 12.4841H22.3239C23.3546 12.4841 24.1909 11.6403 24.1909 10.6076V8.78974C24.1909 8.46396 23.9283 8.20007 23.6042 8.20007C23.2801 8.20007 23.0175 8.46396 23.0175 8.78974V9.47713H19.2705C18.9464 9.47713 18.6838 9.74101 18.6838 10.0668C18.6838 10.3926 18.9464 10.6565 19.2705 10.6565H23.0143C22.9916 11.0213 22.6869 11.3113 22.3174 11.3113H18.8459C18.4602 11.3113 18.149 10.9985 18.149 10.6108V8.79299C18.149 8.46721 17.8865 8.20333 17.5623 8.20333C17.2382 8.20333 16.9756 8.46721 16.9756 8.79299V10.6108C16.9756 11.6468 17.8152 12.4873 18.8427 12.4873L18.8524 12.4841Z" fill="white"/>
<path d="M22.0547 15.4454H17.1246C16.8005 15.4454 16.538 15.7093 16.538 16.0351C16.538 16.3088 16.7227 16.5401 16.982 16.6052V20.0031C16.982 20.3289 17.2446 20.5928 17.5687 20.5928H21.9802C21.9802 20.5928 21.9996 20.5928 22.0256 20.5928C22.0353 20.5928 22.045 20.5928 22.0547 20.5928C23.4647 20.5928 24.6154 19.4395 24.6154 18.0191C24.6154 16.5987 23.468 15.4454 22.0547 15.4454ZM18.1554 16.6248H22.0547C22.8197 16.6248 23.442 17.2503 23.442 18.0191C23.442 18.7879 22.8197 19.4134 22.0547 19.4134C22.045 19.4134 22.0353 19.4134 22.0094 19.4134C21.9996 19.4134 21.9899 19.4134 21.9769 19.4134H18.1522V16.6248H18.1554Z" fill="white"/>
</svg>
