<svg width="18" height="18" viewBox="0 0 18 18" fill="none" xmlns="http://www.w3.org/2000/svg">
<path d="M15.75 6H2.25M12 1.5V3.75M6 1.5V3.75M5.85 16.5H12.15C13.4101 16.5 14.0402 16.5 14.5215 16.2548C14.9448 16.039 15.289 15.6948 15.5048 15.2715C15.75 14.7902 15.75 14.1601 15.75 12.9V6.6C15.75 5.33988 15.75 4.70982 15.5048 4.22852C15.289 3.80516 14.9448 3.46095 14.5215 3.24524C14.0402 3 13.4101 3 12.15 3H5.85C4.58988 3 3.95982 3 3.47852 3.24524C3.05516 3.46095 2.71095 3.80516 2.49524 4.22852C2.25 4.70982 2.25 5.33988 2.25 6.6V12.9C2.25 14.1601 2.25 14.7902 2.49524 15.2715C2.71095 15.6948 3.05516 16.039 3.47852 16.2548C3.95982 16.5 4.58988 16.5 5.85 16.5ZM8.99795 9.24795C8.39814 8.5662 7.39792 8.38281 6.64641 9.00709C5.89489 9.63136 5.78909 10.6751 6.37926 11.4135C6.80775 11.9495 7.99445 13.0048 8.6125 13.5427C8.74648 13.6593 8.81348 13.7176 8.89198 13.7407C8.95998 13.7608 9.03591 13.7608 9.10391 13.7407C9.18242 13.7176 9.24941 13.6593 9.38339 13.5427C10.0014 13.0048 11.1881 11.9495 11.6166 11.4135C12.2068 10.6751 12.1139 9.6248 11.3495 9.00709C10.585 8.38938 9.59775 8.5662 8.99795 9.24795Z" stroke="#777676" stroke-width="1.5" stroke-linecap="round" stroke-linejoin="round"/>
</svg>
