<svg id="그룹_4848" data-name="그룹 4848" xmlns="http://www.w3.org/2000/svg" width="35" height="35" viewBox="0 0 35 35">
  <rect id="사각형_1854" data-name="사각형 1854" width="35" height="35" fill="none"/>
  <path id="Icon_awesome-hammer" data-name="Icon awesome-hammer" d="M21.678,7.883l-.866-.92a.588.588,0,0,0-.866,0l-.433.46L18.406,6.248a2.7,2.7,0,0,0-.626-2.5L16.048,1.9a5.877,5.877,0,0,0-8.663,0l3.465,1.839a3.2,3.2,0,0,0,.223,2.5l2.549,2.641c.64.679,1.37.347,2.186.118l1.106,1.175-.433.46a.679.679,0,0,0,0,.92l.866.92a.588.588,0,0,0,.866,0L21.679,8.8a.679.679,0,0,0,0-.919ZM10.7,7.265c-.142-.15-.252-.133-.367-.3L1.284,14.616c-.979.971-.089,2.237.858,3.243s2.253,1.754,3.143.921l7.774-9.108a4.39,4.39,0,0,1-.475-.409l-1.881-2Z" transform="translate(6.642 8.167)" fill="#2e4e8e"/>
</svg>
