<svg id="그룹_4870" data-name="그룹 4870" xmlns="http://www.w3.org/2000/svg" width="35" height="35" viewBox="0 0 35 35">
  <rect id="사각형_1853" data-name="사각형 1853" width="35" height="35" fill="none"/>
  <path id="Icon_awesome-shopping-bag" data-name="Icon awesome-shopping-bag" d="M14.667,6.563V5.25A5.334,5.334,0,0,0,4,5.25V6.563H0V17.719A3.308,3.308,0,0,0,3.333,21h12a3.308,3.308,0,0,0,3.333-3.281V6.563Zm-8-1.312A2.667,2.667,0,0,1,12,5.25V6.563H6.667Zm6.667,4.922a.984.984,0,1,1,1-.984A.992.992,0,0,1,13.333,10.172Zm-8,0a.984.984,0,1,1,1-.984A.992.992,0,0,1,5.333,10.172Z" transform="translate(7.667 7)" fill="#2e4e8e"/>
</svg>
