<svg id="그룹_4861" data-name="그룹 4861" xmlns="http://www.w3.org/2000/svg" width="35" height="35" viewBox="0 0 35 35">
  <rect id="사각형_1973" data-name="사각형 1973" width="35" height="35" fill="none"/>
  <g id="그룹_4860" data-name="그룹 4860" transform="translate(6.503 6.992)">
    <path id="패스_3062" data-name="패스 3062" d="M-7928.244-3272.708h-13.466a1.472,1.472,0,0,1-1.442-1.5v-4.389a1.472,1.472,0,0,1,1.442-1.5,1.473,1.473,0,0,1,1.443,1.5v2.889h10.58v-15h-10.58v4.234a1.473,1.473,0,0,1-1.443,1.5,1.472,1.472,0,0,1-1.442-1.5v-5.735a1.472,1.472,0,0,1,1.442-1.5h13.466a1.473,1.473,0,0,1,1.443,1.5v18A1.473,1.473,0,0,1-7928.244-3272.708Z" transform="translate(7947.804 3293.711)" fill="#2e4e8e"/>
    <path id="합치기_8" data-name="합치기 8" d="M9.227,5.084H1.017a1.017,1.017,0,0,1,0-2.034H9.227V0l4.066,4.066L9.227,8.134Z" transform="translate(0 7.138)" fill="#2e4e8e"/>
  </g>
</svg>
