<svg width="166" height="56" viewBox="0 0 166 56" fill="none" xmlns="http://www.w3.org/2000/svg">
    <g clip-path="url(#8j8eq18eba)">
        <path d="M56.111 28c0-4.865-3.115-8.806-6.976-11.175a.087.087 0 0 1-.042-.072c-.14-4.51-1.967-9.158-6.162-11.578-4.221-2.437-9.192-1.678-13.18.496-3.988-2.175-8.96-2.933-13.18-.496-4.196 2.424-6.022 7.069-6.162 11.578 0 .03-.017.055-.043.072C6.506 19.194 3.391 23.14 3.391 28c0 4.861 3.115 8.807 6.975 11.176a.087.087 0 0 1 .043.072c.14 4.51 1.966 9.158 6.162 11.578 4.22 2.437 9.192 1.678 13.18-.496 3.988 2.174 8.959 2.933 13.18.496 4.196-2.424 6.022-7.069 6.162-11.578 0-.03.017-.055.042-.072 3.861-2.369 6.976-6.315 6.976-11.176z" fill="#F39800"/>
        <path d="M21.092 17.969a4.284 4.284 0 0 0 1.225-3.005 4.314 4.314 0 0 0-4.31-4.31 4.28 4.28 0 0 0-3.047 1.263 1.118 1.118 0 0 0 0 1.581 1.12 1.12 0 0 0 1.576 0 2.082 2.082 0 1 1 1.47 3.551c-.614 0-1.114.5-1.114 1.115 0 .614.5 1.115 1.12 1.115a3.381 3.381 0 0 1 3.377 3.377 3.384 3.384 0 0 1-3.378 3.378 3.384 3.384 0 0 1-3.377-3.378 1.116 1.116 0 0 0-2.23 0 5.618 5.618 0 0 0 5.611 5.611 5.618 5.618 0 0 0 5.611-5.61 5.6 5.6 0 0 0-2.53-4.684l-.004-.004zM30.649 14.731a5.55 5.55 0 0 0-3.408 1.153v-1.966a3.413 3.413 0 0 1 3.408-3.408c.614 0 1.114-.5 1.114-1.114 0-.615-.5-1.115-1.114-1.115-2.916 0-5.374 2.272-5.616 5.175a1.009 1.009 0 0 0-.025.22v6.349c0 .046 0 .089.008.131v.047c-.008.055-.008.11-.008.165 0 3.11 2.53 5.637 5.636 5.637a5.645 5.645 0 0 0 5.637-5.637 5.645 5.645 0 0 0-5.637-5.637h.005zm0 9.044a3.413 3.413 0 0 1-3.408-3.407 3.413 3.413 0 0 1 3.408-3.407 3.413 3.413 0 0 1 3.407 3.407 3.413 3.413 0 0 1-3.407 3.407zM42.405 15.041a4.748 4.748 0 0 0-4.742 4.742v3.102c0 2.463 1.844 4.573 4.15 4.891v-3.288c-.683-.09-1.408-.488-1.891-1.238-.869-1.343-.945-3.225-.127-3.907.445-.373.979-.25 1.517.156.28-.53.67-.864 1.098-.864.428 0 .818.335 1.097.869.538-.412 1.077-.534 1.517-.161.818.682.738 2.564-.127 3.907-.483.746-1.203 1.148-1.89 1.238v3.288c2.301-.318 4.15-2.428 4.15-4.89v-3.103a4.748 4.748 0 0 0-4.743-4.742h-.009zM20.49 35.697a2.592 2.592 0 0 0 2.59 2.59H27.373c.763 0 1.483-.331 1.975-.916a.768.768 0 0 0-1.174-.992 1.059 1.059 0 0 1-.805.373h-4.294c-.584 0-1.059-.479-1.059-1.06V33.32h6.743a.767.767 0 1 0 0-1.534h-7.781a.767.767 0 0 0-.767.767.75.75 0 0 0 .271.58v2.556l.009.009zM30.263 46.86a.756.756 0 0 0-.56-.179.76.76 0 0 0-.52.272c-.2.237-.497.372-.806.372h-6.755a.512.512 0 1 1 0-1.025h6.5a2.048 2.048 0 0 0 2.048-2.047 2.046 2.046 0 0 0-2.047-2.047h-7.141a.767.767 0 1 0 0 1.534h7.14a.512.512 0 1 1 0 1.026h-6.5a2.045 2.045 0 0 0 0 4.09h6.755c.763 0 1.483-.335 1.975-.92a.768.768 0 0 0-.093-1.08l.004.003zM20.486 41.07h9.027a.767.767 0 1 0 0-1.534h-3.747v-.19a.767.767 0 1 0-1.534 0v.19h-3.746a.767.767 0 1 0 0 1.534zM32.314 38.285h9.023a.767.767 0 1 0 0-1.534H37.59a.766.766 0 0 0-1.535 0H32.31a.767.767 0 1 0 0 1.534h.004zM34.573 35.705h4.539a2.444 2.444 0 0 0 2.44-2.441v-2.365a.767.767 0 1 0-1.533 0v.894h-4.9a.767.767 0 1 0 0 1.534h4.895a.913.913 0 0 1-.91.852h-4.54a.91.91 0 0 1-.91-.911v-2.365a.767.767 0 1 0-1.535 0v2.365a2.444 2.444 0 0 0 2.441 2.441l.013-.004zM38.76 39.557h-6.446a.767.767 0 0 0-.187 1.508v4.42c0 .424.344.768.768.768h5.865c1.843 0 3.348-1.5 3.348-3.348a3.35 3.35 0 0 0-3.348-3.348zm-5.098 1.534h5.098c1 0 1.814.813 1.814 1.814 0 1-.814 1.813-1.814 1.813h-5.102v-3.627h.004z" fill="#fff"/>
        <path d="M59.51 28c0 2.62-.683 5.137-2.039 7.48-1.335 2.315-3.534 4.095-5.297 5.387l-.064.047-.008.076c-.238 2.174-.683 4.967-2.013 7.28-1.356 2.34-3.192 4.192-5.463 5.506a13.477 13.477 0 0 1-3.335 1.365c-1.174.3-2.408.457-3.692.457-2.5 0-5.106-.58-7.75-1.729l-.069-.03-.068.03c-5.33 2.306-10.739 2.272-14.84-.093-4.1-2.37-6.837-7.035-7.502-12.807l-.009-.077-.063-.046C2.594 37.35 0 32.79 0 28c0-2.62.687-5.137 2.038-7.48 1.335-2.314 3.535-4.094 5.298-5.387l.063-.046.009-.077c.237-2.174.678-4.967 2.013-7.28 1.352-2.34 3.191-4.192 5.459-5.506 4.144-2.39 9.39-2.428 14.773-.093l.068.03.068-.03c5.331-2.31 10.739-2.276 14.841.093a13.319 13.319 0 0 1 3.005 2.39l.119.12.457-.408a.508.508 0 0 1 .509-.106.52.52 0 0 1 .343.386l.403 1.92a.518.518 0 0 1-.67.598l-1.865-.611a.525.525 0 0 1-.182-.881l.36-.323-.123-.13a12.403 12.403 0 0 0-2.784-2.209C40.27.704 35.057.721 29.9 3.026a.46.46 0 0 1-.352 0C24.34.7 19.28.678 15.312 2.971c-2.136 1.233-3.865 2.98-5.145 5.192-1.28 2.22-1.704 5.013-1.928 7.204a.44.44 0 0 1-.178.305c-1.78 1.289-3.993 3.056-5.272 5.272-1.276 2.208-1.92 4.582-1.92 7.048 0 4.586 2.543 8.95 7.162 12.299a.433.433 0 0 1 .178.305c.585 5.624 3.174 10.146 7.103 12.413 3.928 2.267 9.137 2.246 14.299-.055.11-.051.241-.051.351 0 5.209 2.326 10.265 2.348 14.24.055 2.136-1.233 3.865-2.98 5.14-5.192 1.28-2.216 1.704-5.013 1.933-7.204a.427.427 0 0 1 .174-.305c1.784-1.289 3.992-3.056 5.272-5.272 1.276-2.208 1.924-4.582 1.924-7.048 0-4.586-2.547-8.955-7.166-12.303a.433.433 0 0 1-.098-.602.432.432 0 0 1 .602-.097c4.853 3.517 7.522 8.137 7.522 13.002l.005.013z" fill="#FABE00"/>
        <path d="M48.045 14.189c.772.619.725.716 1.708.593-.364.801-.06 1.246.509 1.823.491.525 1.31.754 1.775.072.437-.649.526-1.662.505-2.429.746.301 1.55.598 2.343.48.704-.12.975-.81.733-1.442-.254-.741-.58-1.436-1.508-1.347.64-.708.313-.954.16-1.742-.071-.377-.016-.678-.037-1.043-.085-.813-.772-1.076-1.42-.606-1.043.742-1.551 2.149-1.788 3.378-1.081-.305-2.971-.305-3.946.284-.521.3-.67 1.038-.157 1.407.369.271.772.288 1.123.568v.004z" fill="#fff"/>
        <path d="M53.398 8.32c.428-.03.78.27.835.839.021.364-.038.66.038 1.042.153.784.479 1.03-.161 1.742h.05c.895-.06 1.209.619 1.459 1.348.246.631-.03 1.326-.733 1.44a2.712 2.712 0 0 1-.195.022c-.733.05-1.467-.22-2.153-.5.02.767-.072 1.78-.505 2.428-.186.275-.436.403-.695.42-.381.025-.788-.183-1.08-.492-.564-.576-.873-1.026-.509-1.822-.152.016-.28.033-.39.038-.597.042-.665-.11-1.318-.632-.351-.28-.75-.296-1.123-.568-.513-.368-.364-1.101.157-1.407.458-.28 1.119-.428 1.805-.47.772-.05 1.568.025 2.14.186.238-1.224.746-2.631 1.789-3.377.2-.144.398-.22.585-.23m-.064-.99a2.13 2.13 0 0 0-1.097.415c-1.039.741-1.62 1.936-1.946 3.034a8.916 8.916 0 0 0-1.466-.034c-.636.042-1.538.182-2.242.61-.56.33-.928.924-.958 1.56-.03.602.238 1.148.73 1.5.275.204.55.31.77.39.14.05.246.093.31.144.093.076.174.14.246.2.33.275.597.482.966.584.119.733.615 1.246.911 1.547.513.543 1.204.84 1.856.793.585-.039 1.098-.34 1.446-.848.326-.483.504-1.064.593-1.632.42.106.86.161 1.314.132.093-.005.182-.017.27-.03H55.052a1.926 1.926 0 0 0 1.386-.95c.305-.533.347-1.19.114-1.805-.136-.39-.415-1.182-1.076-1.644.02-.318-.047-.615-.136-.911a3.563 3.563 0 0 1-.097-.382c-.026-.131-.022-.258-.017-.436 0-.14.008-.297 0-.475v-.042c-.11-1.064-.903-1.789-1.886-1.725l-.009.004z" fill="#F39800"/>
        <path d="M80.046 19.004c0-.62.604-.973 1.3-.973.696 0 1.308.353 1.308.973v12.044c0 .747-.537 1.099-1.308 1.099-.772 0-1.3-.352-1.3-1.099v-5.921h-3.087c-.453 2.172-2.357 3.623-5.074 3.623-3.145 0-5.192-1.946-5.192-4.722 0-2.776 2.047-4.739 5.192-4.739 2.692 0 4.571 1.451 5.074 3.598h3.087v-3.891.008zm-8.161 7.616c1.677 0 2.65-1.074 2.65-2.609s-.973-2.608-2.65-2.608-2.65 1.073-2.65 2.608c0 1.535.99 2.609 2.65 2.609zm-1.988 4.78c0-.645.638-.99 1.367-.99.764 0 1.384.353 1.384.99v3.313c0 .395.059.453.453.453h9.192c.621 0 .915.495.915 1.099 0 .663-.294 1.14-.915 1.14H71.86c-1.41 0-1.963-.327-1.963-1.861V31.4zM85.598 30.78c1.778-1.552 3.062-3.372 3.062-7.306v-1.409h-2.382c-.62 0-.873-.536-.873-1.14 0-.604.294-1.099.873-1.099h7.288c.579 0 .89.52.89 1.099 0 .578-.27 1.14-.89 1.14h-2.315v1.368c0 3.832 1.267 5.82 3.045 7.12.52.411.52 1.183.1 1.695-.41.52-1.073.578-1.576.251-1.183-.763-2.399-2.273-2.877-3.908-.436 1.593-1.552 3.27-2.86 4.101-.638.411-1.266.143-1.594-.268-.352-.479-.394-1.183.101-1.636l.008-.008zm10.057-11.44c0-.604.562-.931 1.266-.931.705 0 1.241.335 1.241.93v16.523c0 .705-.52 1.015-1.24 1.015-.722 0-1.267-.31-1.267-1.015v-9.008H93.65c-.62 0-.93-.477-.93-1.157 0-.721.31-1.182.93-1.182h2.005V19.34zm4.059-.378c0-.578.562-.93 1.266-.93.747 0 1.284.352 1.284.93v17.286c0 .721-.52 1.032-1.284 1.032-.721 0-1.266-.31-1.266-1.032V18.962zM107.539 20.455v8.673c0 .478.042.52.537.536 2.482.084 4.881-.142 6.768-.578.478-.101.956.184 1.074.805.126.721-.143 1.182-.579 1.325-1.887.604-4.99.805-8.446.721-1.451-.042-2.004-.62-2.004-2.13v-9.36c0-.62.604-.99 1.342-.99.738 0 1.308.37 1.308.99v.008zm12.111-1.45v5.736h2.239c.646 0 .889.478.889 1.116 0 .637-.251 1.14-.889 1.14h-2.239v9.21c0 .746-.537 1.098-1.3 1.098s-1.3-.352-1.3-1.099V19.004c0-.62.562-.99 1.3-.99s1.3.37 1.3.99zM136.466 24.91h-3.003c-1.409 0-2.004-.294-2.004-1.82v-2.92c0-1.367.452-1.82 1.987-1.82h10.023c.621 0 .914.437.914 1.074 0 .638-.293 1.057-.914 1.057h-8.815c-.411 0-.478.059-.478.478v1.325c0 .411.059.495.478.495h8.899c.62 0 .914.411.914 1.057 0 .646-.31 1.073-.931 1.073h-4.328v1.41h6.794c.562 0 .805.561.805 1.073 0 .512-.252 1.073-.805 1.073h-16.355c-.562 0-.805-.536-.805-1.073 0-.537.251-1.074.805-1.074h6.827V24.91h-.008zm7.682 10.802c.579 0 .873.436.873 1.032 0 .595-.294 1.098-.873 1.098h-10.802c-1.409 0-1.988-.453-1.988-1.736v-1.862c0-1.031.369-1.577 1.593-1.577h8.153c.327 0 .369-.016.369-.293v-.52c0-.268-.017-.31-.369-.31h-8.983c-.579 0-.872-.437-.872-1.032 0-.596.293-1.057.872-1.057h10.375c1.325 0 1.736.579 1.736 1.694v1.62c0 1.199-.394 1.76-1.736 1.76h-8.01c-.327 0-.369.042-.369.31v.563c0 .268.042.31.369.31h9.671-.009zM155.514 26.041h-2.835c-1.82 0-2.173-.478-2.173-2.03V19.13c0-.604.638-.914 1.3-.914.764 0 1.384.31 1.384.914v1.116h7.373V19.13c0-.604.662-.914 1.325-.914.763 0 1.367.31 1.367.914v4.907c0 1.635-.562 2.004-2.198 2.004h-2.818v1.426h6.811c.562 0 .83.579.83 1.099s-.268 1.098-.83 1.098h-16.355c-.562 0-.805-.562-.805-1.098 0-.537.251-1.1.805-1.1h6.81v-1.425h.009zm-5.108 6.794c0-1.51.495-1.963 2.029-1.963h8.698c1.677 0 2.298.37 2.298 1.988v2.818c0 1.535-.495 1.988-2.046 1.988h-8.941c-1.535 0-2.03-.453-2.03-1.988v-2.835l-.008-.008zm3.187.167c-.369 0-.478.06-.478.478v1.594c0 .394.1.453.478.453h6.626c.394 0 .478-.059.478-.453V33.48c0-.41-.084-.478-.478-.478h-6.626zm-.394-9.586c0 .478.058.495.478.495h6.399c.436 0 .495-.042.495-.52v-1.057h-7.372V23.416z" fill="#D55E12"/>
    </g>
    <defs>
        <clipPath id="8j8eq18eba">
            <path fill="#fff" transform="translate(0 .242)" d="M0 0h166v55.517H0z"/>
        </clipPath>
    </defs>
</svg>
