<svg width="24" height="24" viewBox="0 0 24 24" fill="none" xmlns="http://www.w3.org/2000/svg">
<g id="&#236;&#149;&#132;&#236;&#157;&#180;&#236;&#189;&#152;(S)">
<g id="Group">
<path id="Vector" d="M22.1338 11.9403C22.1338 10.0114 20.9051 8.44876 19.3821 7.50952C19.3721 7.5028 19.3654 7.49272 19.3654 7.48096C19.3102 5.69321 18.5897 3.85001 16.9347 2.8906C15.2696 1.92448 13.3087 2.22523 11.7356 3.08719C10.1625 2.22523 8.20154 1.92448 6.5365 2.8906C4.88148 3.85169 4.16096 5.69321 4.10579 7.48096C4.10579 7.49272 4.09911 7.5028 4.08908 7.50952C2.56613 8.44876 1.3374 10.013 1.3374 11.9403C1.3374 13.8675 2.56613 15.4318 4.08908 16.371C4.09911 16.3777 4.10579 16.3878 4.10579 16.3996C4.16096 18.1873 4.88148 20.0305 6.5365 20.9899C8.20154 21.956 10.1625 21.6553 11.7356 20.7933C13.3087 21.6553 15.2696 21.956 16.9347 20.9899C18.5897 20.0288 19.3102 18.1873 19.3654 16.3996C19.3654 16.3878 19.3721 16.3777 19.3821 16.371C20.9051 15.4318 22.1338 13.8675 22.1338 11.9403Z" fill="#F39800"/>
<path id="Vector_2" d="M8.32012 7.96317C8.62939 7.64561 8.80325 7.22051 8.80325 6.77189C8.80325 5.82929 8.04094 5.06311 7.1031 5.06311C6.64839 5.06311 6.2221 5.24121 5.90112 5.56382C5.72893 5.73688 5.72893 6.01747 5.90112 6.19054C6.07331 6.36192 6.35249 6.36192 6.52301 6.19054C6.67848 6.03428 6.8841 5.94859 7.1031 5.94859C7.55614 5.94859 7.92392 6.31823 7.92392 6.77357C7.92392 7.22891 7.55614 7.59856 7.1031 7.59856C6.8607 7.59856 6.66343 7.79683 6.66343 8.04046C6.66343 8.28409 6.8607 8.48236 7.10477 8.48236C7.84033 8.48236 8.43714 9.08387 8.43714 9.82149C8.43714 10.5591 7.83866 11.1606 7.10477 11.1606C6.37088 11.1606 5.7724 10.5591 5.7724 9.82149C5.7724 9.57786 5.57513 9.37959 5.33273 9.37959C5.09033 9.37959 4.89307 9.57786 4.89307 9.82149C4.89307 11.0481 5.88608 12.0461 7.10644 12.0461C8.32681 12.0461 9.31982 11.0481 9.31982 9.82149C9.31982 9.06875 8.94201 8.37482 8.32179 7.96485L8.32012 7.96317Z" fill="white"/>
<path id="Vector_3" d="M12.0898 6.67949C11.5967 6.67949 11.1302 6.83911 10.7458 7.1365V6.35688C10.7458 5.61255 11.3492 5.00599 12.0898 5.00599C12.3322 5.00599 12.5295 4.80772 12.5295 4.56409C12.5295 4.32046 12.3322 4.12219 12.0898 4.12219C10.9397 4.12219 9.97007 5.02279 9.87478 6.17374C9.86809 6.20398 9.86475 6.23255 9.86475 6.26111V8.77808C9.86475 8.79656 9.86475 8.81336 9.86809 8.83017V8.84865C9.86475 8.87049 9.86475 8.89233 9.86475 8.91418C9.86475 10.1475 10.8628 11.1489 12.0882 11.1489C13.3135 11.1489 14.3116 10.1458 14.3116 8.91418C14.3116 7.68258 13.3135 6.67949 12.0882 6.67949H12.0898ZM12.0898 10.2651C11.3492 10.2651 10.7458 9.65851 10.7458 8.91418C10.7458 8.16984 11.3492 7.56328 12.0898 7.56328C12.8304 7.56328 13.4339 8.16984 13.4339 8.91418C13.4339 9.65851 12.8304 10.2651 12.0898 10.2651Z" fill="white"/>
<path id="Vector_4" d="M16.7274 6.80212C15.6959 6.80212 14.8567 7.64559 14.8567 8.68229V9.91221C14.8567 10.8884 15.5839 11.7252 16.4933 11.8512V10.5473C16.2242 10.512 15.9383 10.3541 15.7477 10.0567C15.405 9.52408 15.3749 8.77806 15.6976 8.50755C15.8731 8.35969 16.0837 8.40841 16.2961 8.56971C16.4064 8.35969 16.5602 8.22695 16.729 8.22695C16.8979 8.22695 17.0517 8.35969 17.162 8.57139C17.3743 8.40841 17.5866 8.35969 17.7605 8.50755C18.0831 8.77806 18.0514 9.52408 17.7103 10.0567C17.5198 10.3524 17.2356 10.512 16.9647 10.5473V11.8512C17.8725 11.7252 18.6014 10.8884 18.6014 9.91221V8.68229C18.6014 7.64559 17.7622 6.80212 16.7307 6.80212H16.7274Z" fill="white"/>
<g id="Group_2">
<path id="Vector_5" d="M8.08299 14.9915C8.08299 15.5577 8.54105 16.0181 9.10442 16.0181H10.7728C10.7728 16.0181 10.7795 16.0181 10.7862 16.0181H10.7979C11.0988 16.0181 11.383 15.8871 11.5769 15.6552C11.6287 15.593 11.6538 15.5141 11.6471 15.4334C11.6404 15.3528 11.602 15.2788 11.5401 15.2267C11.4131 15.1192 11.2225 15.1343 11.1138 15.262C11.0336 15.3561 10.9183 15.4099 10.7962 15.4099C10.7929 15.4099 10.7879 15.4099 10.7828 15.4099H9.10275C8.87205 15.4099 8.68482 15.22 8.68482 14.9898V14.0489H11.3445C11.5117 14.0489 11.6471 13.9128 11.6471 13.7448C11.6471 13.5768 11.5117 13.4407 11.3445 13.4407H8.27524C8.10807 13.4407 7.97266 13.5768 7.97266 13.7448C7.97266 13.8338 8.01111 13.9179 8.07965 13.975V14.9882L8.08299 14.9915Z" fill="white"/>
<path id="Vector_6" d="M11.9378 19.4173C11.876 19.3652 11.8007 19.34 11.7172 19.3467C11.6369 19.3534 11.5634 19.3921 11.5115 19.4542C11.433 19.5483 11.3159 19.6021 11.1939 19.6021H8.52916C8.41716 19.6021 8.32688 19.5114 8.32688 19.3988C8.32688 19.2862 8.41716 19.1955 8.52916 19.1955H11.0936C11.5383 19.1955 11.9011 18.8326 11.9011 18.3839C11.9011 17.9353 11.54 17.5724 11.0936 17.5724H8.27673C8.10956 17.5724 7.97415 17.7085 7.97415 17.8765C7.97415 18.0445 8.10956 18.1806 8.27673 18.1806H11.0936C11.2056 18.1806 11.2959 18.2714 11.2959 18.3839C11.2959 18.4965 11.2056 18.5872 11.0936 18.5872H8.52916C8.08448 18.5872 7.72339 18.9502 7.72339 19.3988C7.72339 19.8474 8.08448 20.2087 8.52916 20.2087H11.1939C11.4948 20.2087 11.779 20.0759 11.9729 19.844C12.0248 19.7819 12.0498 19.7029 12.0431 19.6223C12.0365 19.5416 11.998 19.4677 11.9362 19.4156L11.9378 19.4173Z" fill="white"/>
<path id="Vector_7" d="M8.08115 17.122H11.6419C11.8091 17.122 11.9445 16.9859 11.9445 16.8179C11.9445 16.6499 11.8091 16.5138 11.6419 16.5138H10.1641V16.4382C10.1641 16.2701 10.0287 16.134 9.86155 16.134C9.69437 16.134 9.55896 16.2701 9.55896 16.4382V16.5138H8.08115C7.91398 16.5138 7.77856 16.6499 7.77856 16.8179C7.77856 16.9859 7.91398 17.122 8.08115 17.122Z" fill="white"/>
</g>
<g id="Group_3">
<path id="Vector_8" d="M12.7469 16.0182H16.306C16.4732 16.0182 16.6086 15.8821 16.6086 15.7141C16.6086 15.546 16.4732 15.4099 16.306 15.4099H14.8282C14.8248 15.2453 14.6911 15.1125 14.5256 15.1125C14.3601 15.1125 14.2264 15.2453 14.223 15.4099H12.7452C12.578 15.4099 12.4426 15.546 12.4426 15.7141C12.4426 15.8821 12.578 16.0182 12.7452 16.0182H12.7469Z" fill="white"/>
<path id="Vector_9" d="M13.6379 14.9949H15.4283C15.9599 14.9949 16.3912 14.5597 16.3912 14.0271V13.0895C16.3912 12.9215 16.2558 12.7854 16.0886 12.7854C15.9214 12.7854 15.786 12.9215 15.786 13.0895V13.444H13.8535C13.6863 13.444 13.5509 13.5801 13.5509 13.7482C13.5509 13.9162 13.6863 14.0523 13.8535 14.0523H15.7844C15.7727 14.2405 15.6155 14.39 15.4249 14.39H13.6345C13.4356 14.39 13.2751 14.2287 13.2751 14.0288V13.0912C13.2751 12.9232 13.1397 12.7871 12.9725 12.7871C12.8053 12.7871 12.6699 12.9232 12.6699 13.0912V14.0288C12.6699 14.5631 13.1029 14.9966 13.6328 14.9966L13.6379 14.9949Z" fill="white"/>
<path id="Vector_10" d="M15.2896 16.5221H12.7469C12.5797 16.5221 12.4443 16.6582 12.4443 16.8262C12.4443 16.9674 12.5396 17.0866 12.6734 17.1203V18.8727C12.6734 19.0407 12.8088 19.1768 12.9759 19.1768H15.2512C15.2512 19.1768 15.2612 19.1768 15.2746 19.1768C15.2796 19.1768 15.2846 19.1768 15.2896 19.1768C16.0168 19.1768 16.6103 18.582 16.6103 17.8495C16.6103 17.1169 16.0185 16.5221 15.2896 16.5221ZM13.2785 17.1303H15.2896C15.6842 17.1303 16.0051 17.4529 16.0051 17.8495C16.0051 18.246 15.6842 18.5686 15.2896 18.5686C15.2846 18.5686 15.2796 18.5686 15.2662 18.5686C15.2612 18.5686 15.2562 18.5686 15.2495 18.5686H13.2769V17.1303H13.2785Z" fill="white"/>
</g>
<path id="Vector_11" d="M23.4745 11.9403C23.4745 12.9786 23.2053 13.9767 22.6704 14.9058C22.1438 15.8232 21.2762 16.5289 20.5807 17.0414L20.5556 17.0599L20.5523 17.0901C20.4587 17.9521 20.2832 19.0593 19.7582 19.9767C19.2233 20.9042 18.4994 21.6385 17.6034 22.1593C17.1904 22.3979 16.7508 22.5794 16.2877 22.7004C15.8246 22.8197 15.3382 22.8818 14.8316 22.8818C13.8453 22.8818 12.8172 22.6516 11.774 22.1963L11.7473 22.1845L11.7205 22.1963C9.61749 23.1103 7.48435 23.0969 5.86612 22.1593C4.24955 21.2201 3.16961 19.3702 2.90715 17.0817L2.9038 17.0515L2.87873 17.033C1.0231 15.6468 0 13.8389 0 11.9403C0 10.9019 0.270821 9.90383 0.804104 8.97466C1.3307 8.05727 2.19833 7.35157 2.89377 6.83911L2.91885 6.82062L2.92219 6.79038C3.01581 5.92843 3.18967 4.82116 3.71626 3.90376C4.24955 2.97628 4.97508 2.24203 5.86946 1.72116C7.50441 0.773516 9.57402 0.758394 11.6971 1.68419L11.7239 1.69596L11.7506 1.68419C13.8537 0.768476 15.9868 0.781917 17.605 1.72116C18.0363 1.97151 18.4342 2.29075 18.7903 2.6688L18.8371 2.71585L19.0176 2.55455C19.0728 2.50414 19.148 2.48902 19.2183 2.51254C19.2868 2.53607 19.3386 2.59319 19.3537 2.66544L19.5125 3.42658C19.5275 3.49883 19.5025 3.57276 19.449 3.62149C19.3938 3.67021 19.3186 3.68702 19.2483 3.66349L18.5128 3.42154C18.4426 3.39634 18.3924 3.33921 18.3774 3.26696C18.3607 3.19471 18.3857 3.12078 18.4409 3.07206L18.583 2.94436L18.5345 2.89227C18.2035 2.54279 17.8341 2.24707 17.4362 2.01688C15.8848 1.11796 13.8286 1.12468 11.7941 2.03872C11.7506 2.0572 11.6988 2.0572 11.6553 2.03872C9.60077 1.11628 7.60472 1.10788 6.03998 2.01688C5.19742 2.50582 4.51535 3.19807 4.01049 4.07515C3.50563 4.95558 3.33845 6.06285 3.24985 6.93152C3.24484 6.98025 3.21809 7.02393 3.17964 7.05249C2.47751 7.56328 1.60486 8.26393 1.1 9.14269C0.596809 10.0181 0.342705 10.959 0.342705 11.9369C0.342705 13.7549 1.34575 15.4855 3.16794 16.8129C3.20806 16.8414 3.23313 16.8868 3.23815 16.9339C3.46885 19.1635 4.49028 20.9563 6.03998 21.8552C7.58967 22.7541 9.64423 22.7457 11.6804 21.8334C11.7239 21.8132 11.7757 21.8132 11.8192 21.8334C13.8737 22.7558 15.8681 22.7642 17.4362 21.8552C18.2787 21.3663 18.9608 20.674 19.464 19.797C19.9689 18.9182 20.136 17.8093 20.2263 16.9406C20.2297 16.8935 20.2564 16.8482 20.2949 16.8196C20.9987 16.3088 21.8696 15.6082 22.3745 14.7294C22.8777 13.854 23.1335 12.9131 23.1335 11.9352C23.1335 10.1172 22.1287 8.38491 20.3066 7.05754C20.2313 7.00377 20.2129 6.89455 20.2681 6.81894C20.3233 6.74333 20.4286 6.72485 20.5055 6.7803C22.4196 8.17488 23.4728 10.0063 23.4728 11.9352L23.4745 11.9403Z" fill="#FABE00"/>
<g id="Group_4">
<path id="Vector_12" d="M18.9524 6.4644C19.2566 6.70971 19.2382 6.74836 19.6261 6.69963C19.4823 7.01719 19.6027 7.19362 19.8267 7.42213C20.0206 7.63047 20.3432 7.72121 20.5271 7.45069C20.6993 7.19362 20.7344 6.79205 20.7261 6.48793C21.0203 6.60722 21.3379 6.72484 21.6505 6.67779C21.9281 6.63074 22.035 6.35687 21.9398 6.10652C21.8395 5.81248 21.7107 5.53692 21.3446 5.57221C21.597 5.29161 21.4683 5.19416 21.4081 4.88164C21.3797 4.7321 21.4015 4.6128 21.3931 4.4683C21.3597 4.1457 21.0888 4.04153 20.8331 4.22803C20.4218 4.52207 20.2212 5.0799 20.1276 5.56717C19.7013 5.44619 18.9557 5.44619 18.5712 5.67974C18.3656 5.79904 18.3071 6.09139 18.5094 6.23757C18.6548 6.34511 18.8136 6.35183 18.9524 6.46272V6.4644Z" fill="white"/>
<path id="Vector_13" d="M21.0639 4.13729C21.2327 4.12553 21.3715 4.24482 21.3932 4.46997C21.4016 4.61447 21.3782 4.73209 21.4083 4.88331C21.4684 5.19415 21.5972 5.2916 21.3447 5.57388C21.3514 5.57388 21.3581 5.57388 21.3648 5.57388C21.7175 5.55035 21.8412 5.81919 21.9399 6.10819C22.0368 6.35854 21.9282 6.6341 21.6507 6.67946C21.6256 6.68282 21.6005 6.68618 21.5738 6.68786C21.2845 6.70803 20.9953 6.60049 20.7245 6.4896C20.7329 6.79372 20.6961 7.19529 20.5256 7.45236C20.452 7.56158 20.3534 7.61198 20.2514 7.6187C20.101 7.62879 19.9405 7.54645 19.8251 7.4238C19.6028 7.19529 19.4807 7.01719 19.6245 6.7013C19.5643 6.70802 19.5142 6.71475 19.4707 6.71643C19.235 6.73323 19.2082 6.67274 18.9508 6.46607C18.812 6.35518 18.6549 6.34846 18.5078 6.24092C18.3055 6.09475 18.364 5.80407 18.5696 5.68309C18.7502 5.5722 19.011 5.51339 19.2818 5.49659C19.5861 5.47642 19.9003 5.50667 20.126 5.57052C20.2196 5.08493 20.4203 4.5271 20.8315 4.23138C20.9101 4.17425 20.9886 4.14401 21.0622 4.14065M21.0371 3.74748C20.8883 3.75756 20.7379 3.81469 20.6041 3.91214C20.1946 4.20618 19.9655 4.68 19.8368 5.11518C19.6496 5.09501 19.449 5.08997 19.2584 5.10174C19.0076 5.11854 18.6516 5.17399 18.3741 5.34369C18.1534 5.47474 18.0079 5.70998 17.9962 5.96201C17.9845 6.2006 18.0899 6.41735 18.2838 6.55681C18.3924 6.63746 18.5011 6.67946 18.588 6.71139C18.6432 6.73155 18.685 6.74835 18.7101 6.76851C18.7469 6.79876 18.7786 6.82396 18.807 6.84748C18.9374 6.9567 19.0427 7.03903 19.1882 7.07935C19.235 7.37003 19.4306 7.57334 19.5476 7.69263C19.7499 7.9077 20.0224 8.02532 20.2798 8.00683C20.5105 7.99171 20.7128 7.87242 20.8499 7.67079C20.9786 7.47925 21.0488 7.24906 21.0839 7.02391C21.2494 7.06591 21.4233 7.08775 21.6022 7.07599C21.639 7.07431 21.6741 7.06927 21.7092 7.06423H21.7125H21.7159C21.9532 7.02391 22.1472 6.89117 22.2625 6.68786C22.3829 6.47616 22.3996 6.21572 22.3076 5.97209C22.2542 5.81751 22.1438 5.50331 21.883 5.32016C21.8914 5.19415 21.8646 5.07653 21.8295 4.95892C21.8145 4.90851 21.8011 4.86146 21.7911 4.8077C21.7811 4.75561 21.7827 4.7052 21.7844 4.63463C21.7844 4.57919 21.7877 4.51702 21.7844 4.44645V4.43805V4.42965C21.7409 4.00791 21.4283 3.7206 21.0405 3.7458L21.0371 3.74748Z" fill="#F39800"/>
</g>
</g>
</g>
</svg>
