<svg width="50" height="48" viewBox="0 0 50 48" fill="none" xmlns="http://www.w3.org/2000/svg">
<g id="&#236;&#149;&#132;&#236;&#157;&#180;&#236;&#189;&#152;(S)" clip-path="url(#clip0_6708_28563)">
<g id="Group">
<path id="Vector" d="M45.2903 23.8805C45.2903 20.0227 42.7817 16.8975 39.6723 15.019C39.6518 15.0056 39.6382 14.9854 39.6382 14.9619C39.5256 11.3864 38.0545 7.70001 34.6755 5.7812C31.276 3.84895 27.2724 4.45047 24.0607 6.17437C20.8489 4.45047 16.8453 3.84895 13.4459 5.7812C10.0669 7.70337 8.59582 11.3864 8.48319 14.9619C8.48319 14.9854 8.46954 15.0056 8.44906 15.019C5.3397 16.8975 2.83105 20.0261 2.83105 23.8805C2.83105 27.7349 5.3397 30.8635 8.44906 32.742C8.46954 32.7554 8.48319 32.7756 8.48319 32.7991C8.59582 36.3746 10.0669 40.061 13.4459 41.9798C16.8453 43.9121 20.8489 43.3106 24.0607 41.5867C27.2724 43.3106 31.276 43.9121 34.6755 41.9798C38.0545 40.0577 39.5256 36.3746 39.6382 32.7991C39.6382 32.7756 39.6518 32.7554 39.6723 32.742C42.7817 30.8635 45.2903 27.7349 45.2903 23.8805Z" fill="white"/>
<path id="Vector_2" d="M17.0877 15.9265C17.7192 15.2913 18.0741 14.4411 18.0741 13.5439C18.0741 11.6587 16.5177 10.1263 14.603 10.1263C13.6746 10.1263 12.8043 10.4825 12.1489 11.1278C11.7974 11.4739 11.7974 12.0351 12.1489 12.3812C12.5005 12.724 13.0705 12.724 13.4186 12.3812C13.736 12.0687 14.1559 11.8973 14.603 11.8973C15.5279 11.8973 16.2788 12.6366 16.2788 13.5473C16.2788 14.4579 15.5279 15.1972 14.603 15.1972C14.1081 15.1972 13.7053 15.5938 13.7053 16.081C13.7053 16.5683 14.1081 16.9648 14.6064 16.9648C16.1082 16.9648 17.3266 18.1679 17.3266 19.6431C17.3266 21.1183 16.1047 22.3214 14.6064 22.3214C13.108 22.3214 11.8861 21.1183 11.8861 19.6431C11.8861 19.1558 11.4834 18.7593 10.9885 18.7593C10.4936 18.7593 10.0908 19.1558 10.0908 19.6431C10.0908 22.0962 12.1182 24.0923 14.6098 24.0923C17.1014 24.0923 19.1288 22.0962 19.1288 19.6431C19.1288 18.1376 18.3574 16.7498 17.0911 15.9298L17.0877 15.9265Z" fill="#F7931D"/>
<path id="Vector_3" d="M24.7841 13.359C23.7772 13.359 22.8249 13.6782 22.0399 14.273V12.7138C22.0399 11.2251 23.2721 10.012 24.7841 10.012C25.279 10.012 25.6817 9.61544 25.6817 9.12818C25.6817 8.64092 25.279 8.24438 24.7841 8.24438C22.4359 8.24438 20.4562 10.0456 20.2617 12.3475C20.248 12.408 20.2412 12.4651 20.2412 12.5222V17.5562C20.2412 17.5931 20.2412 17.6267 20.248 17.6603V17.6973C20.2412 17.741 20.2412 17.7847 20.2412 17.8284C20.2412 20.2949 22.2788 22.2977 24.7807 22.2977C27.2825 22.2977 29.3201 20.2916 29.3201 17.8284C29.3201 15.3652 27.2825 13.359 24.7807 13.359H24.7841ZM24.7841 20.5301C23.2721 20.5301 22.0399 19.317 22.0399 17.8284C22.0399 16.3397 23.2721 15.1266 24.7841 15.1266C26.2961 15.1266 27.5282 16.3397 27.5282 17.8284C27.5282 19.317 26.2961 20.5301 24.7841 20.5301Z" fill="#F7931D"/>
<path id="Vector_4" d="M34.2524 13.6042C32.1465 13.6042 30.4331 15.2912 30.4331 17.3646V19.8244C30.4331 21.7768 31.9178 23.4503 33.7746 23.7024V21.0947C33.225 21.0241 32.6414 20.7082 32.2523 20.1134C31.5526 19.0482 31.4912 17.5561 32.1499 17.0151C32.5083 16.7194 32.9383 16.8168 33.3718 17.1394C33.5971 16.7194 33.9111 16.4539 34.2558 16.4539C34.6005 16.4539 34.9145 16.7194 35.1398 17.1428C35.5733 16.8168 36.0067 16.7194 36.3617 17.0151C37.0204 17.5561 36.9556 19.0482 36.2593 20.1134C35.8702 20.7049 35.29 21.0241 34.7371 21.0947V23.7024C36.5904 23.4503 38.0785 21.7768 38.0785 19.8244V17.3646C38.0785 15.2912 36.3651 13.6042 34.2592 13.6042H34.2524Z" fill="#F7931D"/>
<g id="Group_2">
<path id="Vector_5" d="M16.6032 29.983C16.6032 31.1155 17.5384 32.0363 18.6886 32.0363H22.0949C22.0949 32.0363 22.1086 32.0363 22.1222 32.0363H22.1461C22.7605 32.0363 23.3407 31.7741 23.7366 31.3104C23.8424 31.1861 23.8936 31.0281 23.88 30.8668C23.8663 30.7055 23.7878 30.5577 23.6615 30.4535C23.4021 30.2384 23.013 30.2687 22.7912 30.5241C22.6274 30.7122 22.3919 30.8198 22.1427 30.8198C22.1359 30.8198 22.1256 30.8198 22.1154 30.8198H18.6852C18.2142 30.8198 17.8319 30.4401 17.8319 29.9797V28.0978H23.2622C23.6035 28.0978 23.88 27.8256 23.88 27.4896C23.88 27.1535 23.6035 26.8813 23.2622 26.8813H16.9957C16.6544 26.8813 16.3779 27.1535 16.3779 27.4896C16.3779 27.6677 16.4564 27.8357 16.5964 27.95V29.9763L16.6032 29.983Z" fill="#F7931D"/>
<path id="Vector_6" d="M24.4736 38.8345C24.3473 38.7304 24.1937 38.68 24.0231 38.6934C23.8593 38.7068 23.7091 38.7841 23.6033 38.9085C23.4429 39.0967 23.2039 39.2042 22.9548 39.2042H17.5143C17.2856 39.2042 17.1013 39.0227 17.1013 38.7976C17.1013 38.5724 17.2856 38.391 17.5143 38.391H22.75C23.6579 38.391 24.3985 37.6651 24.3985 36.7679C24.3985 35.8706 23.6613 35.1448 22.75 35.1448H16.9989C16.6576 35.1448 16.3811 35.417 16.3811 35.753C16.3811 36.0891 16.6576 36.3613 16.9989 36.3613H22.75C22.9787 36.3613 23.163 36.5427 23.163 36.7679C23.163 36.993 22.9787 37.1745 22.75 37.1745H17.5143C16.6064 37.1745 15.8691 37.9003 15.8691 38.7976C15.8691 39.6948 16.6064 40.4173 17.5143 40.4173H22.9548C23.5691 40.4173 24.1494 40.1518 24.5453 39.6881C24.6511 39.5638 24.7023 39.4058 24.6887 39.2445C24.675 39.0832 24.5965 38.9353 24.4702 38.8312L24.4736 38.8345Z" fill="#F7931D"/>
<path id="Vector_7" d="M16.5997 34.244H23.8697C24.211 34.244 24.4874 33.9718 24.4874 33.6358C24.4874 33.2997 24.211 33.0275 23.8697 33.0275H20.8525V32.8763C20.8525 32.5403 20.576 32.2681 20.2347 32.2681C19.8934 32.2681 19.6169 32.5403 19.6169 32.8763V33.0275H16.5997C16.2584 33.0275 15.9819 33.2997 15.9819 33.6358C15.9819 33.9718 16.2584 34.244 16.5997 34.244Z" fill="#F7931D"/>
</g>
<g id="Group_3">
<path id="Vector_8" d="M26.1258 32.0363H33.3924C33.7337 32.0363 34.0101 31.7641 34.0101 31.428C34.0101 31.092 33.7337 30.8198 33.3924 30.8198H30.3752C30.3683 30.4904 30.0953 30.225 29.7574 30.225C29.4195 30.225 29.1464 30.4904 29.1396 30.8198H26.1224C25.7811 30.8198 25.5046 31.092 25.5046 31.428C25.5046 31.7641 25.7811 32.0363 26.1224 32.0363H26.1258Z" fill="#F7931D"/>
<path id="Vector_9" d="M27.9449 29.9898H31.6004C32.6858 29.9898 33.5664 29.1194 33.5664 28.0542V26.179C33.5664 25.843 33.2899 25.5708 32.9486 25.5708C32.6073 25.5708 32.3308 25.843 32.3308 26.179V26.8881H28.3852C28.0439 26.8881 27.7675 27.1603 27.7675 27.4963C27.7675 27.8324 28.0439 28.1046 28.3852 28.1046H32.3274C32.3035 28.4809 31.9827 28.78 31.5936 28.78H27.9381C27.532 28.78 27.2043 28.4574 27.2043 28.0575V26.1824C27.2043 25.8464 26.9278 25.5742 26.5865 25.5742C26.2452 25.5742 25.9688 25.8464 25.9688 26.1824V28.0575C25.9688 29.1261 26.8527 29.9931 27.9347 29.9931L27.9449 29.9898Z" fill="#F7931D"/>
<path id="Vector_10" d="M31.3169 33.0443H26.1256C25.7843 33.0443 25.5078 33.3165 25.5078 33.6525C25.5078 33.9348 25.7024 34.1734 25.9754 34.2406V37.7456C25.9754 38.0816 26.2519 38.3538 26.5932 38.3538H31.2384C31.2384 38.3538 31.2589 38.3538 31.2862 38.3538C31.2965 38.3538 31.3067 38.3538 31.3169 38.3538C32.8017 38.3538 34.0133 37.1642 34.0133 35.6991C34.0133 34.2339 32.8051 33.0443 31.3169 33.0443ZM27.211 34.2608H31.3169C32.1224 34.2608 32.7778 34.906 32.7778 35.6991C32.7778 36.4921 32.1224 37.1373 31.3169 37.1373C31.3067 37.1373 31.2965 37.1373 31.2692 37.1373C31.2589 37.1373 31.2487 37.1373 31.235 37.1373H27.2075V34.2608H27.211Z" fill="#F7931D"/>
</g>
<path id="Vector_11" d="M48.0277 23.8805C48.0277 25.9573 47.4782 27.9534 46.386 29.8117C45.3108 31.6465 43.5394 33.0579 42.1196 34.0828L42.0684 34.1198L42.0615 34.1802C41.8704 35.9041 41.512 38.1187 40.4403 39.9535C39.3481 41.8084 37.8702 43.2769 36.0408 44.3187C35.1977 44.7959 34.3001 45.1588 33.3547 45.4007C32.4092 45.6393 31.416 45.7637 30.3818 45.7637C28.3681 45.7637 26.269 45.3033 24.1392 44.3926L24.0846 44.3691L24.03 44.3926C19.7363 46.2207 15.3811 46.1938 12.0772 44.3187C8.77675 42.4402 6.57187 38.7404 6.03601 34.1634L6.02918 34.103L5.97799 34.066C2.18942 31.2936 0.100586 27.6778 0.100586 23.8805C0.100586 21.8037 0.653512 19.8077 1.7423 17.9493C2.81743 16.1145 4.58884 14.7031 6.0087 13.6782L6.0599 13.6412L6.06673 13.5808C6.25786 11.8569 6.61283 9.64233 7.68796 7.80753C8.77675 5.95257 10.258 4.48406 12.0841 3.44232C15.4221 1.54703 19.6475 1.51679 23.9822 3.36839L24.0368 3.39191L24.0914 3.36839C28.3851 1.53695 32.7403 1.56383 36.0442 3.44232C36.9248 3.94302 37.7371 4.58151 38.4641 5.33761L38.5597 5.4317L38.9283 5.1091C39.0409 5.00828 39.1945 4.97804 39.3379 5.02509C39.4778 5.07213 39.5836 5.18639 39.6143 5.33089L39.9386 6.85316C39.9693 6.99766 39.9181 7.14552 39.8089 7.24297C39.6962 7.34043 39.5426 7.37403 39.3993 7.32699L37.8975 6.84308C37.7542 6.79268 37.6518 6.67842 37.6211 6.53392C37.5869 6.38942 37.6381 6.24156 37.7508 6.14411L38.0409 5.88872L37.9419 5.78454C37.2661 5.08557 36.5118 4.49414 35.6995 4.03376C32.5321 2.23592 28.334 2.24936 24.1802 4.07744C24.0914 4.11441 23.9856 4.11441 23.8969 4.07744C19.7022 2.23256 15.6269 2.21576 12.4322 4.03376C10.712 5.01164 9.31943 6.39614 8.28867 8.15029C7.25791 9.91116 6.91659 12.1257 6.7357 13.863C6.72546 13.9605 6.67085 14.0479 6.59235 14.105C5.15884 15.1266 3.37719 16.5279 2.34642 18.2854C1.31907 20.0362 0.800276 21.918 0.800276 23.8738C0.800276 27.5098 2.84815 30.971 6.56846 33.6258C6.65037 33.6829 6.70157 33.7736 6.71181 33.8677C7.18282 38.327 9.26824 41.9126 12.4322 43.7104C15.5962 45.5083 19.7909 45.4915 23.9481 43.6668C24.0368 43.6264 24.1426 43.6264 24.2314 43.6668C28.4261 45.5116 32.498 45.5284 35.6995 43.7104C37.4197 42.7326 38.8122 41.3481 39.8396 39.5939C40.8704 37.8364 41.2117 35.6185 41.396 33.8812C41.4028 33.7871 41.4574 33.6963 41.5359 33.6392C42.9728 32.6176 44.7511 31.2163 45.7818 29.4588C46.8092 27.708 47.3314 25.8262 47.3314 23.8704C47.3314 20.2344 45.2801 16.7698 41.5598 14.1151C41.4062 14.0075 41.3687 13.7891 41.4813 13.6379C41.5939 13.4867 41.809 13.4497 41.966 13.5606C45.874 16.3498 48.0243 20.0126 48.0243 23.8704L48.0277 23.8805Z" fill="white"/>
<g id="Group_4">
<path id="Vector_12" d="M38.7951 12.9288C39.4163 13.4194 39.3788 13.4967 40.1706 13.3993C39.8771 14.0344 40.1228 14.3872 40.5802 14.8443C40.9761 15.2609 41.6348 15.4424 42.0103 14.9014C42.3618 14.3872 42.4335 13.5841 42.4164 12.9759C43.0171 13.2144 43.6656 13.4497 44.3039 13.3556C44.8705 13.2615 45.0889 12.7137 44.8944 12.213C44.6896 11.625 44.4268 11.0738 43.6793 11.1444C44.1947 10.5832 43.9319 10.3883 43.809 9.76327C43.751 9.46419 43.7953 9.2256 43.7783 8.9366C43.71 8.2914 43.1571 8.08305 42.6349 8.45606C41.7952 9.04414 41.3857 10.1598 41.1945 11.1343C40.3242 10.8924 38.8019 10.8924 38.0169 11.3595C37.5971 11.5981 37.4776 12.1828 37.8906 12.4751C38.1876 12.6902 38.5118 12.7037 38.7951 12.9254V12.9288Z" fill="#F7931D"/>
<path id="Vector_13" d="M43.1059 8.27458C43.4507 8.25106 43.734 8.48965 43.7783 8.93995C43.7954 9.22894 43.7476 9.46418 43.809 9.76661C43.9319 10.3883 44.1947 10.5832 43.6794 11.1478C43.693 11.1478 43.7067 11.1478 43.7203 11.1478C44.4405 11.1007 44.6931 11.6384 44.8944 12.2164C45.0924 12.7171 44.8705 13.2682 44.304 13.3589C44.2528 13.3656 44.2016 13.3724 44.147 13.3757C43.5565 13.4161 42.966 13.201 42.4131 12.9792C42.4301 13.5874 42.3551 14.3906 42.0069 14.9047C41.8567 15.1232 41.6554 15.224 41.4472 15.2374C41.14 15.2576 40.8123 15.0929 40.5768 14.8476C40.1229 14.3906 39.8737 14.0344 40.1672 13.4026C40.0444 13.416 39.942 13.4295 39.8532 13.4329C39.372 13.4665 39.3174 13.3455 38.7918 12.9321C38.5085 12.7104 38.1876 12.6969 37.8873 12.4818C37.4743 12.1895 37.5938 11.6081 38.0136 11.3662C38.3822 11.1444 38.9146 11.0268 39.4676 10.9932C40.0887 10.9528 40.7304 11.0133 41.1912 11.141C41.3823 10.1699 41.7919 9.0542 42.6315 8.46276C42.7919 8.34851 42.9524 8.28802 43.1025 8.2813M43.0513 7.49496C42.7476 7.51512 42.4404 7.62938 42.1673 7.82428C41.3311 8.41236 40.8635 9.36 40.6007 10.2304C40.2184 10.19 39.8089 10.1799 39.4198 10.2035C38.9078 10.2371 38.1808 10.348 37.6142 10.6874C37.1637 10.9495 36.8668 11.42 36.8429 11.924C36.819 12.4012 37.034 12.8347 37.4299 13.1136C37.6518 13.2749 37.8736 13.3589 38.0511 13.4228C38.1637 13.4631 38.2491 13.4967 38.3003 13.537C38.3754 13.5975 38.4402 13.6479 38.4982 13.695C38.7645 13.9134 38.9795 14.0781 39.2764 14.1587C39.372 14.7401 39.7713 15.1467 40.0102 15.3853C40.4232 15.8154 40.9796 16.0506 41.5052 16.0137C41.9762 15.9834 42.3892 15.7448 42.6691 15.3416C42.9319 14.9585 43.0752 14.4981 43.1469 14.0478C43.4848 14.1318 43.8398 14.1755 44.205 14.152C44.2801 14.1486 44.3517 14.1385 44.4234 14.1285H44.4302H44.4371C44.9217 14.0478 45.3177 13.7823 45.5532 13.3757C45.7989 12.9523 45.833 12.4314 45.6453 11.9442C45.5361 11.635 45.3108 11.0066 44.7784 10.6403C44.7954 10.3883 44.7408 10.1531 44.6692 9.91783C44.6384 9.81702 44.6111 9.72293 44.5907 9.61539C44.5702 9.51122 44.5736 9.41041 44.577 9.26927C44.577 9.15838 44.5838 9.03404 44.577 8.8929V8.8761V8.8593C44.4883 8.01583 43.85 7.44119 43.0582 7.4916L43.0513 7.49496Z" fill="white"/>
</g>
</g>
</g>
<defs>
<clipPath id="clip0_6708_28563">
<rect width="49" height="48" fill="white" transform="translate(0.100586)"/>
</clipPath>
</defs>
</svg>
