<svg width="143" height="140" viewBox="0 0 143 140" fill="none" xmlns="http://www.w3.org/2000/svg">
    <g clip-path="url(#9qmh2a7ima)">
        <path d="M80.912 42.123C58.14 27.972 51.132-1.935 51.132-1.935s29.909-6.947 52.689 7.205c22.77 14.16 29.78 44.058 29.78 44.058s-29.909 6.948-52.689-7.205z" fill="#006934"/>
        <path d="M73.7 23.372a21.882 21.882 0 0 0 2.562-16.697C73.342-5.09 61.434-12.265 49.664-9.346A21.895 21.895 0 0 0 37.312-1.12c-5.216-6.277-13.736-9.382-22.184-7.286C3.358-5.486-3.82 6.418-.899 18.184A22.03 22.03 0 0 0 .54 22.232a21.91 21.91 0 0 0-3.857.595C-15.091 25.747-22.27 37.65-19.35 49.416c2.553 10.298 11.993 17.077 22.197 16.655A21.86 21.86 0 0 0 .995 81.51c2.92 11.765 14.83 18.941 26.599 16.022a21.895 21.895 0 0 0 12.352-8.226c5.215 6.273 13.735 9.377 22.184 7.28 11.77-2.918 18.947-14.823 16.027-26.588a22.59 22.59 0 0 0-1.105-3.312c.164-.038.329-.067.497-.11 11.77-2.918 18.948-14.823 16.028-26.588-2.36-9.508-10.592-16.017-19.876-16.625v.009z" fill="#70BC53"/>
        <path d="M45.456 35.875v3.206c0 .552.486 1.08 1.055 1.054.57-.025 1.055-.464 1.055-1.054v-3.206c0-.553-.485-1.08-1.055-1.055-.57.026-1.055.464-1.055 1.055zM53.812 36.985c-.14.974-.203 1.948-.122 2.931.02.283.1.54.308.747.181.181.485.32.747.308.261-.013.556-.101.746-.308.19-.207.334-.468.308-.747-.067-.83-.046-1.67.064-2.497l-.038.278c.008-.05.012-.1.02-.156.043-.29.052-.548-.105-.814a1.08 1.08 0 0 0-.628-.485c-.27-.063-.574-.046-.815.106-.215.139-.447.367-.485.628v.009zM32.978 42.434c6.967 7.243 17.715 9.968 27.277 6.855a26.518 26.518 0 0 0 7.617-3.919c.456-.341.688-.91.38-1.442-.262-.452-.983-.722-1.443-.38-3.79 2.822-8.36 4.569-13.082 4.885-4.722.316-9.09-.684-13.098-2.83a24.754 24.754 0 0 1-6.157-4.658c-.941-.978-2.435.51-1.494 1.494v-.005z" fill="#fff"/>
        <path d="M56.31 107.554c0-4.687-2.941-8.686-7.081-10.255a10.933 10.933 0 0 0 1.173-4.931c0-6.058-4.912-10.968-10.972-10.968-1.692 0-3.296.384-4.726 1.067-1.7-3.855-5.558-6.551-10.044-6.551-4.486 0-8.688 2.94-10.258 7.079a10.93 10.93 0 0 0-4.933-1.173c-6.06 0-10.972 4.91-10.972 10.968 0 1.691.384 3.294 1.067 4.724-3.857 1.7-6.553 5.556-6.553 10.04 0 4.662 2.912 8.644 7.013 10.23-1.928 4.071-1.21 9.082 2.16 12.448 3.373 3.367 8.226 4.063 12.26 2.249a10.916 10.916 0 0 0 2.658 4.315c4.284 4.282 11.234 4.282 15.517 0a10.887 10.887 0 0 0 2.587-4.096 10.972 10.972 0 0 0 11.736-2.468c3.35-3.349 4.08-8.327 2.19-12.385a10.966 10.966 0 0 0 7.174-10.293h.004z" fill="#FFD30D"/>
        <path d="m26.357 101.981-.283 1.485a.796.796 0 0 0-.017.422c.009.139.047.27.127.392a.793.793 0 0 0 .27.296c.101.092.22.156.359.189.27.064.574.047.814-.105.22-.143.435-.363.486-.628l.282-1.485a.797.797 0 0 0 .017-.422.785.785 0 0 0-.127-.392.793.793 0 0 0-.27-.296.797.797 0 0 0-.358-.189c-.27-.064-.574-.047-.815.105-.22.143-.434.363-.485.628zM31.05 103.281c0 .384-.03.768-.08 1.148l.037-.279c-.012.08-.02.165-.038.245a.796.796 0 0 0-.017.422c.009.139.047.27.127.392a.797.797 0 0 0 .27.295c.101.093.22.156.359.19.27.063.574.046.814-.105l.215-.165c.131-.131.22-.287.27-.464.09-.553.152-1.109.157-1.67 0-.27-.119-.557-.308-.747a.808.808 0 0 0-.338-.219.793.793 0 0 0-.405-.093c-.274.013-.557.101-.747.308-.19.206-.308.46-.308.746l-.009-.004zM16.858 106.2c1.941 2.868 4.9 4.86 8.208 5.826 3.553 1.037 7.385.793 10.891-.325 2.09-.667 4.085-1.629 5.942-2.793 1.148-.721.089-2.548-1.063-1.822-5.503 3.455-12.664 5.003-18.517 1.455-1.435-.869-2.697-2.016-3.638-3.404-.755-1.118-2.587-.063-1.823 1.063z" fill="#D83503"/>
    </g>
    <defs>
        <clipPath id="9qmh2a7ima">
            <path fill="#fff" d="M0 0h143v140H0z"/>
        </clipPath>
    </defs>
</svg>
