<svg id="그룹_4860" data-name="그룹 4860" xmlns="http://www.w3.org/2000/svg" width="20" height="20" viewBox="0 0 20 20">
  <path id="패스_3062" data-name="패스 3062" d="M-7929.422-3273.711h-12.4a1.381,1.381,0,0,1-1.329-1.428v-4.179a1.381,1.381,0,0,1,1.329-1.428,1.382,1.382,0,0,1,1.33,1.428v2.751h9.744v-14.286h-9.744v4.032a1.382,1.382,0,0,1-1.33,1.429,1.381,1.381,0,0,1-1.329-1.429v-5.461a1.381,1.381,0,0,1,1.329-1.428h12.4a1.381,1.381,0,0,1,1.329,1.428v17.143A1.381,1.381,0,0,1-7929.422-3273.711Z" transform="translate(7948.093 3293.711)" fill="#16284c"/>
  <path id="합치기_8" data-name="합치기 8" d="M9.8,5.4H1.08a1.08,1.08,0,0,1,0-2.16H9.8V0l4.319,4.319L9.8,8.639Z" transform="translate(0 6.302)" fill="#16284c"/>
</svg>
