<svg xmlns="http://www.w3.org/2000/svg" width="70" height="70" viewBox="0 0 70 70">
  <g id="그룹_8028" data-name="그룹 8028" transform="translate(17053 -1667)">
    <rect id="사각형_2202" data-name="사각형 2202" width="70" height="70" transform="translate(-17053 1667)" fill="none"/>
    <g id="그룹_7793" data-name="그룹 7793" transform="translate(0 -0.328)">
      <g id="패스_3428" data-name="패스 3428" transform="translate(-17011.941 1688.835) rotate(90)" fill="#98c9f4">
        <path d="M 8.166345596313477 9.166340827941895 C 6.596285820007324 9.166340827941895 2.621621370315552 6.918004512786865 -0.2016006857156754 5.083170413970947 C 2.621621370315552 3.248336553573608 6.596285820007324 1.000000357627869 8.166345596313477 1.000000357627869 C 10.41781520843506 1.000000357627869 12.24951553344727 2.831700325012207 12.24951553344727 5.083170413970947 C 12.24951553344727 7.334640502929688 10.41781520843506 9.166340827941895 8.166345596313477 9.166340827941895 Z" stroke="none"/>
        <path d="M 8.166345596313477 2 C 8.042264938354492 2 6.844655513763428 2.063400268554688 3.055215835571289 4.259260177612305 C 2.574755668640137 4.537670135498047 2.109952926635742 4.817310810089111 1.678617477416992 5.083170413970947 C 2.109955787658691 5.349031448364258 2.574755668640137 5.628670692443848 3.055215835571289 5.90708065032959 C 6.844655513763428 8.102940559387207 8.042264938354492 8.166339874267578 8.166345596313477 8.166339874267578 C 9.866415023803711 8.166339874267578 11.24951553344727 6.78324031829834 11.24951553344727 5.083170413970947 C 11.24951553344727 3.383100509643555 9.866415023803711 2 8.166345596313477 2 M 8.166345596313477 0 C 10.97369575500488 0 13.24951553344727 2.275810241699219 13.24951553344727 5.083170413970947 C 13.24951553344727 7.890530586242676 10.97369575500488 10.16634082794189 8.166345596313477 10.16634082794189 C 5.358985424041748 10.16634082794189 -2.000004768371582 5.083170413970947 -2.000004768371582 5.083170413970947 C -2.000004768371582 5.083170413970947 5.358985424041748 0 8.166345596313477 0 Z" stroke="none" fill="#666"/>
      </g>
      <g id="패스_3430" data-name="패스 3430" transform="translate(-17006.02 1684.328) rotate(90)" fill="#98c9f4">
        <path d="M 5.087968349456787 6.087975978851318 C 4.864108562469482 6.087975978851318 3.930218458175659 5.969925880432129 1.311778545379639 4.450985908508301 C 0.7677762508392334 4.13541316986084 0.2537828385829926 3.818645000457764 -0.1789961904287338 3.544031620025635 C 0.2570317089557648 3.267338991165161 0.7752030491828918 2.948009729385376 1.32248854637146 2.630775928497314 C 3.932998418807983 1.117595791816711 4.864618301391602 0.9999958276748657 5.087968349456787 0.9999958276748657 C 6.490728378295898 0.9999958276748657 7.631958484649658 2.141225814819336 7.631958484649658 3.543985843658447 C 7.631958484649658 4.946745872497559 6.490728378295898 6.087975978851318 5.087968349456787 6.087975978851318 Z" stroke="none"/>
        <path d="M 5.09641170501709 2.000019073486328 C 5.028361320495605 2.005640506744385 4.218665599822998 2.100820064544678 1.755818367004395 3.535545825958252 C 1.750997543334961 3.538354158401489 1.746156692504883 3.541175842285156 1.741341114044189 3.543984413146973 C 4.215384483337402 4.986744403839111 5.028220653533936 5.082323551177979 5.096410274505615 5.087952613830566 C 5.943915843963623 5.083407402038574 6.631958484649658 4.392539978027344 6.631958484649658 3.543985843658447 C 6.631958484649658 2.695431709289551 5.943916797637939 2.004563808441162 5.09641170501709 2.000019073486328 M 5.087968349456787 -4.291534423828125e-06 C 7.045258522033691 -4.291534423828125e-06 8.6319580078125 1.586695671081543 8.6319580078125 3.543985843658447 C 8.6319580078125 5.501276016235352 7.045258522033691 7.087975978851318 5.087968349456787 7.087975978851318 C 3.130678415298462 7.087975978851318 -2.000001907348633 3.543985843658447 -2.000001907348633 3.543985843658447 C -2.000001907348633 3.543985843658447 3.130678415298462 -4.291534423828125e-06 5.087968349456787 -4.291534423828125e-06 Z" stroke="none" fill="#666"/>
      </g>
      <g id="그룹_7792" data-name="그룹 7792" transform="translate(1.281 -1.505)">
        <path id="패스_3429" data-name="패스 3429" d="M-16994.281,1688.9l-23.951,19.639-12.92-9.937" transform="translate(0 0.25)" fill="none" stroke="#666" stroke-width="2"/>
        <path id="다각형_18" data-name="다각형 18" d="M4,0,8,7H0Z" transform="matrix(0.643, -0.766, 0.766, 0.643, -17036.406, 1699.783)" fill="#666"/>
      </g>
      <rect id="사각형_2738" data-name="사각형 2738" width="42" height="3" transform="translate(-17039 1709)" fill="#98c9f4"/>
      <g id="빼기_19" data-name="빼기 19" transform="translate(-17049 1710)" fill="#ececec">
        <path d="M 54.99980163574219 11.99959945678711 L 7.000301361083984 11.99959945678711 L 7.000301361083984 7.350930213928223 L 10.4805793762207 2.999799489974976 L 14.00030136108398 2.999799489974976 L 14.00030136108398 5.000399589538574 L 14.00030136108398 6.000399589538574 L 15.00030136108398 6.000399589538574 L 46.99980163574219 6.000399589538574 L 47.99980163574219 6.000399589538574 L 47.99980163574219 5.000399589538574 L 47.99980163574219 2.999799489974976 L 51.51952362060547 2.999799489974976 L 54.99980163574219 7.350930213928223 L 54.99980163574219 11.99959945678711 Z" stroke="none"/>
        <path d="M 53.99980163574219 10.99959945678711 L 53.99980163574219 7.701663494110107 L 51.03884506225586 3.999799489974976 L 48.99980163574219 3.999799489974976 L 48.99980163574219 7.000399589538574 L 13.00030136108398 7.000399589538574 L 13.00030136108398 3.999799489974976 L 10.96125984191895 3.999799489974976 L 8.000301361083984 7.701663494110107 L 8.000301361083984 10.99959945678711 L 53.99980163574219 10.99959945678711 M 55.99980163574219 12.99959945678711 L 6.000301361083984 12.99959945678711 L 6.000301361083984 7.000199794769287 L 9.99990177154541 1.999799609184265 L 15.00030136108398 1.999799609184265 L 15.00030136108398 5.000399589538574 L 46.99980163574219 5.000399589538574 L 46.99980163574219 1.999799609184265 L 52.00020217895508 1.999799609184265 L 55.99980163574219 7.000199794769287 L 55.99980163574219 12.99959945678711 Z" stroke="none" fill="#666"/>
      </g>
    </g>
  </g>
</svg>
