<svg xmlns="http://www.w3.org/2000/svg" width="70" height="70" viewBox="0 0 70 70">
  <g id="그룹_8039" data-name="그룹 8039" transform="translate(24392 -1958)">
    <rect id="사각형_2202" data-name="사각형 2202" width="70" height="70" transform="translate(-24392 1958)" fill="none"/>
    <g id="그룹_8020" data-name="그룹 8020" transform="translate(535.348 -397.963)">
      <g id="그룹_8015" data-name="그룹 8015" transform="translate(-24918.348 2365.963)">
        <g id="사각형_2814" data-name="사각형 2814" transform="translate(4.209 26.514)" fill="#ececec" stroke="#666" stroke-width="2">
          <rect width="43.105" height="23.947" stroke="none"/>
          <rect x="1" y="1" width="41.105" height="21.947" fill="none"/>
        </g>
        <g id="사각형_2815" data-name="사각형 2815" transform="translate(11.593 34.476)" fill="#fff" stroke="#666" stroke-width="2">
          <rect width="8.991" height="15.839" stroke="none"/>
          <rect x="1" y="1" width="6.991" height="13.839" fill="none"/>
        </g>
        <g id="사각형_2817" data-name="사각형 2817" transform="translate(18.977 34.476)" fill="#fff" stroke="#666" stroke-width="2">
          <rect width="8.991" height="15.839" stroke="none"/>
          <rect x="1" y="1" width="6.991" height="13.839" fill="none"/>
        </g>
        <g id="그룹_8012" data-name="그룹 8012" transform="translate(32.89 34.412)">
          <g id="사각형_2816" data-name="사각형 2816" transform="translate(9.579 0) rotate(90)" fill="#fff" stroke="#666" stroke-width="2">
            <rect width="9.579" height="9.579" stroke="none"/>
            <rect x="1" y="1" width="7.579" height="7.579" fill="none"/>
          </g>
        </g>
        <g id="그룹_8014" data-name="그룹 8014" transform="translate(0 17.438)">
          <g id="패스_3537" data-name="패스 3537" transform="translate(0 -3)" fill="#fff">
            <path d="M 3.81051230430603 15.15463924407959 C 2.810079574584961 15.15463924407959 1.787275552749634 14.71574211120605 1.163794040679932 14.38853168487549 L 3.959443807601929 3.999999046325684 L 9.048189163208008 3.999999046325684 L 8.366371154785156 14.13446521759033 C 7.139006614685059 14.53811359405518 5.008286476135254 15.15463924407959 3.81051230430603 15.15463924407959 Z" stroke="none"/>
            <path d="M 4.725907802581787 4.999999046325684 L 2.349202632904053 13.83173942565918 C 2.807531833648682 14.01016139984131 3.329850673675537 14.15463924407959 3.810512065887451 14.15463924407959 C 4.647710800170898 14.15463924407959 6.165857791900635 13.77184867858887 7.414254188537598 13.38905334472656 L 7.978646278381348 4.999999046325684 L 4.725907802581787 4.999999046325684 M 3.192972183227539 3 L 10.1177225112915 3 L 9.31948184967041 14.86494922637939 C 9.31948184967041 14.86494922637939 5.741262435913086 16.15464019775391 3.810512065887451 16.15464019775391 C 1.879762649536133 16.15464019775391 1.9073486328125e-06 14.86494922637939 1.9073486328125e-06 14.86494922637939 L 3.192972183227539 3 Z" stroke="none" fill="#666"/>
          </g>
          <g id="패스_3538" data-name="패스 3538" transform="translate(9.297 -3)" fill="#98c9f4">
            <path d="M 3.60875129699707 15.15463924407959 C 2.514102697372437 15.15463924407959 0.9833145141601562 14.62208557128906 0.04472083225846291 14.23379135131836 L 0.733220636844635 3.999999046325684 L 7.319481372833252 3.999999046325684 L 7.319481372833252 14.20643901824951 C 6.351237773895264 14.59821033477783 4.730183124542236 15.15463924407959 3.60875129699707 15.15463924407959 Z" stroke="none"/>
            <path d="M 1.668209075927734 4.999999046325684 L 1.091764450073242 13.56820869445801 C 1.921394824981689 13.86942291259766 2.915085792541504 14.15463924407959 3.60875129699707 14.15463924407959 C 4.330341815948486 14.15463924407959 5.408744812011719 13.84986019134521 6.319481372833252 13.5205020904541 L 6.319481372833252 4.999999046325684 L 1.668209075927734 4.999999046325684 M -0.2017583847045898 3 L 8.319480895996094 3 L 8.319480895996094 14.86494922637939 C 8.319480895996094 14.86494922637939 5.539501190185547 16.15464019775391 3.60875129699707 16.15464019775391 C 1.678001403808594 16.15464019775391 -0.9999990463256836 14.86494922637939 -0.9999990463256836 14.86494922637939 L -0.2017583847045898 3 Z" stroke="none" fill="#666"/>
          </g>
          <g id="패스_3545" data-name="패스 3545" transform="translate(26.132 -3)" fill="#98c9f4">
            <path d="M 3.60875129699707 15.15463924407959 C 2.496531963348389 15.15463924407959 0.9340724945068359 14.6048583984375 1.401672307110857e-06 14.21521472930908 L 1.401672307110857e-06 3.999999046325684 L 7.319481372833252 3.999999046325684 L 7.319481372833252 14.20643901824951 C 6.351237773895264 14.59821033477783 4.730183124542236 15.15463924407959 3.60875129699707 15.15463924407959 Z" stroke="none"/>
            <path d="M 1.000001430511475 4.999999046325684 L 1.000001430511475 13.53458404541016 C 1.847144603729248 13.84783458709717 2.889318943023682 14.15463924407959 3.60875129699707 14.15463924407959 C 4.330341815948486 14.15463924407959 5.408744812011719 13.84986019134521 6.319481372833252 13.5205020904541 L 6.319481372833252 4.999999046325684 L 1.000001430511475 4.999999046325684 M -0.9999990463256836 3 L 8.319480895996094 3 L 8.319480895996094 14.86494922637939 C 8.319480895996094 14.86494922637939 5.539501190185547 16.15464019775391 3.60875129699707 16.15464019775391 C 1.678001403808594 16.15464019775391 -0.9999990463256836 14.86494922637939 -0.9999990463256836 14.86494922637939 L -0.9999990463256836 3 Z" stroke="none" fill="#666"/>
          </g>
          <g id="패스_3541" data-name="패스 3541" transform="translate(17.819 -3)" fill="#fff">
            <path d="M 3.60875129699707 15.15463924407959 C 2.496531963348389 15.15463924407959 0.9340724945068359 14.6048583984375 1.401672307110857e-06 14.21521472930908 L 1.401672307110857e-06 3.999999046325684 L 7.319481372833252 3.999999046325684 L 7.319481372833252 14.20643901824951 C 6.351237773895264 14.59821033477783 4.730183124542236 15.15463924407959 3.60875129699707 15.15463924407959 Z" stroke="none"/>
            <path d="M 1.000001430511475 4.999999046325684 L 1.000001430511475 13.53458404541016 C 1.847144603729248 13.84783458709717 2.889318943023682 14.15463924407959 3.60875129699707 14.15463924407959 C 4.330341815948486 14.15463924407959 5.408744812011719 13.84986019134521 6.319481372833252 13.5205020904541 L 6.319481372833252 4.999999046325684 L 1.000001430511475 4.999999046325684 M -0.9999990463256836 3 L 8.319480895996094 3 L 8.319480895996094 14.86494922637939 C 8.319480895996094 14.86494922637939 5.539501190185547 16.15464019775391 3.60875129699707 16.15464019775391 C 1.678001403808594 16.15464019775391 -0.9999990463256836 14.86494922637939 -0.9999990463256836 14.86494922637939 L -0.9999990463256836 3 Z" stroke="none" fill="#666"/>
          </g>
          <g id="패스_3546" data-name="패스 3546" transform="translate(34.654 -3)" fill="#fff">
            <path d="M 3.60875129699707 15.15463924407959 C 2.496531963348389 15.15463924407959 0.9340724945068359 14.6048583984375 1.401672307110857e-06 14.21521472930908 L 1.401672307110857e-06 3.999999046325684 L 7.319481372833252 3.999999046325684 L 7.319481372833252 14.20643901824951 C 6.351237773895264 14.59821033477783 4.730183124542236 15.15463924407959 3.60875129699707 15.15463924407959 Z" stroke="none"/>
            <path d="M 1.000001430511475 4.999999046325684 L 1.000001430511475 13.53458404541016 C 1.847144603729248 13.84783458709717 2.889318943023682 14.15463924407959 3.60875129699707 14.15463924407959 C 4.330341815948486 14.15463924407959 5.408744812011719 13.84986019134521 6.319481372833252 13.5205020904541 L 6.319481372833252 4.999999046325684 L 1.000001430511475 4.999999046325684 M -0.9999990463256836 3 L 8.319480895996094 3 L 8.319480895996094 14.86494922637939 C 8.319480895996094 14.86494922637939 5.539501190185547 16.15464019775391 3.60875129699707 16.15464019775391 C 1.678001403808594 16.15464019775391 -0.9999990463256836 14.86494922637939 -0.9999990463256836 14.86494922637939 L -0.9999990463256836 3 Z" stroke="none" fill="#666"/>
          </g>
          <g id="패스_3544" data-name="패스 3544" transform="translate(42.406 -3)" fill="#98c9f4">
            <path d="M 4.40699291229248 15.15463924407959 C 3.277711629867554 15.15463924407959 1.684148192405701 14.58780956268311 0.7555841207504272 14.19734859466553 L 0.06953608989715576 3.999999046325684 L 5.158281326293945 3.999999046325684 L 7.925514698028564 14.28293895721436 C 6.945452690124512 14.66668033599854 5.457119941711426 15.15463924407959 4.40699291229248 15.15463924407959 Z" stroke="none"/>
            <path d="M 1.139079093933105 4.999999046325684 L 1.711074352264404 13.50207424163818 C 2.572920799255371 13.82625007629395 3.662676811218262 14.15463924407959 4.40699291229248 14.15463924407959 C 5.026268005371094 14.15463924407959 5.908474922180176 13.93011856079102 6.721840858459473 13.65827369689941 L 4.391817092895508 4.999999046325684 L 1.139079093933105 4.999999046325684 M -0.9999971389770508 3 L 5.924752712249756 3 L 9.117722511291504 14.86494922637939 C 9.117722511291504 14.86494922637939 6.337742805480957 16.15464019775391 4.40699291229248 16.15464019775391 C 2.476242542266846 16.15464019775391 -0.2017574310302734 14.86494922637939 -0.2017574310302734 14.86494922637939 L -0.9999971389770508 3 Z" stroke="none" fill="#666"/>
          </g>
        </g>
        <g id="패스_3512" data-name="패스 3512" transform="translate(39.004 28.474) rotate(-135)" fill="#fff" stroke-linecap="round" stroke-linejoin="round">
          <path d="M 2.582923889160156 12.90063285827637 C 3.197559595108032 11.43737411499023 3.73602294921875 9.633511543273926 3.73602294921875 7.804142951965332 C 3.73602294921875 6.016767024993896 3.22186017036438 4.253413677215576 2.624983310699463 2.808616399765015 C 4.104996204376221 3.532991886138916 5.939381122589111 4.172342777252197 7.804142951965332 4.172342777252197 C 9.507064819335938 4.172342777252197 11.18493175506592 3.639018058776855 12.59047889709473 2.994781732559204 C 11.93155574798584 4.405163764953613 11.38450336456299 6.091726303100586 11.38450336456299 7.804142951965332 C 11.38450336456299 9.562076568603516 11.96106433868408 11.29284858703613 12.64329051971436 12.72546195983887 C 11.22742557525635 12.0968189239502 9.528175354003906 11.57122325897217 7.804142951965332 11.57122325897217 C 5.92205286026001 11.57122325897217 4.069473266601562 12.19761657714844 2.582923889160156 12.90063285827637 Z" stroke="none"/>
          <path d="M 4.276897430419922 4.566655158996582 C 4.553483009338379 5.594317436218262 4.73602294921875 6.693254470825195 4.73602294921875 7.804142951965332 C 4.73602294921875 8.962629318237305 4.537447929382324 10.10832786560059 4.240781784057617 11.17352390289307 C 5.360352516174316 10.81509304046631 6.573938369750977 10.57122230529785 7.804142951965332 10.57122230529785 C 8.865723609924316 10.57122230529785 9.915515899658203 10.75299453735352 10.90267467498779 11.03311824798584 C 10.5580358505249 9.91527271270752 10.38450241088867 8.836189270019531 10.38450241088867 7.804142951965332 C 10.38450241088867 6.814316749572754 10.54415225982666 5.781147956848145 10.86126613616943 4.712072372436523 C 9.804233551025391 5.018239974975586 8.782845497131348 5.172343254089355 7.804142951965332 5.172343254089355 C 6.681075096130371 5.172343254089355 5.501668930053711 4.969391822814941 4.276897430419922 4.566655158996582 M 2.86102294921875e-06 2.86102294921875e-06 C 2.86102294921875e-06 2.86102294921875e-06 3.902072906494141 3.172343254089355 7.804142951965332 3.172343254089355 C 11.70621299743652 3.172343254089355 15.60828304290771 2.86102294921875e-06 15.60828304290771 2.86102294921875e-06 C 15.60828304290771 2.86102294921875e-06 12.38450241088867 3.902072906494141 12.38450241088867 7.804142951965332 C 12.38450241088867 11.70621299743652 15.60828304290771 15.60828304290771 15.60828304290771 15.60828304290771 C 15.60828304290771 15.60828304290771 11.70621299743652 12.57122325897217 7.804142951965332 12.57122325897217 C 3.902072906494141 12.57122325897217 2.86102294921875e-06 15.60828304290771 2.86102294921875e-06 15.60828304290771 C 2.86102294921875e-06 15.60828304290771 2.73602294921875 11.70621299743652 2.73602294921875 7.804142951965332 C 2.73602294921875 3.902072906494141 2.86102294921875e-06 2.86102294921875e-06 2.86102294921875e-06 2.86102294921875e-06 Z" stroke="none" fill="#666"/>
        </g>
        <g id="패스_3513" data-name="패스 3513" transform="translate(16.09 18.517) rotate(-135)" fill="#fff" stroke-linecap="round" stroke-linejoin="round">
          <path d="M 2.46649694442749 10.50918769836426 C 2.922734022140503 9.338173866271973 3.295211553573608 7.951874732971191 3.295211553573608 6.546781539916992 C 3.295211553573608 5.177638530731201 2.941502094268799 3.82621431350708 2.501298666000366 2.674552202224731 C 3.690946340560913 3.215724229812622 5.107374668121338 3.661231517791748 6.546781539916992 3.661231517791748 C 7.848684787750244 3.661231517791748 9.131733894348145 3.296796321868896 10.24526119232178 2.82673192024231 C 9.76374340057373 3.945209264755249 9.389181137084961 5.236485481262207 9.389181137084961 6.546781539916992 C 9.389181137084961 7.895880222320557 9.786026954650879 9.224287986755371 10.2880916595459 10.36522674560547 C 9.164984703063965 9.905520439147949 7.86492395401001 9.545821189880371 6.546781539916992 9.545821189880371 C 5.093769550323486 9.545821189880371 3.662829875946045 9.982858657836914 2.46649694442749 10.50918769836426 Z" stroke="none"/>
          <path d="M 4.034470558166504 4.302443504333496 C 4.195432662963867 5.026265144348145 4.295211791992188 5.782918930053711 4.295211791992188 6.546781539916992 C 4.295211791992188 7.348577976226807 4.185260772705078 8.142508506774902 4.010029792785645 8.898770332336426 C 4.885254859924316 8.664003372192383 5.7327880859375 8.545811653137207 6.546781539916992 8.545811653137207 C 7.236089706420898 8.545811653137207 7.94955587387085 8.630590438842773 8.683405876159668 8.799118995666504 C 8.487668991088867 8.025424957275391 8.389181137084961 7.273226261138916 8.389181137084961 6.546781539916992 C 8.389181137084961 5.855072498321533 8.478433609008789 5.140178680419922 8.655950546264648 4.405458450317383 C 7.93228816986084 4.575664520263672 7.228165149688721 4.661231994628906 6.546781539916992 4.661231994628906 C 5.739460945129395 4.661231994628906 4.90028190612793 4.541131973266602 4.034470558166504 4.302443504333496 M 1.9073486328125e-06 1.9073486328125e-06 C 1.9073486328125e-06 1.9073486328125e-06 3.273391723632812 2.661231994628906 6.546781539916992 2.661231994628906 C 9.820171356201172 2.661231994628906 13.09356117248535 1.9073486328125e-06 13.09356117248535 1.9073486328125e-06 C 13.09356117248535 1.9073486328125e-06 10.38918113708496 3.273391723632812 10.38918113708496 6.546781539916992 C 10.38918113708496 9.820171356201172 13.09356117248535 13.09356117248535 13.09356117248535 13.09356117248535 C 13.09356117248535 13.09356117248535 9.820171356201172 10.54581165313721 6.546781539916992 10.54581165313721 C 3.273391723632812 10.54581165313721 1.9073486328125e-06 13.09356117248535 1.9073486328125e-06 13.09356117248535 C 1.9073486328125e-06 13.09356117248535 2.295211791992188 9.820171356201172 2.295211791992188 6.546781539916992 C 2.295211791992188 3.273391723632812 1.9073486328125e-06 1.9073486328125e-06 1.9073486328125e-06 1.9073486328125e-06 Z" stroke="none" fill="#666"/>
        </g>
      </g>
      <rect id="사각형_2819" data-name="사각형 2819" width="11.175" height="2.395" transform="translate(-24886.256 2407.501)" fill="#666"/>
    </g>
  </g>
</svg>
