<svg xmlns="http://www.w3.org/2000/svg" width="70" height="70" viewBox="0 0 70 70">
  <g id="그룹_8467" data-name="그룹 8467" transform="translate(17018 21540)">
    <g id="그룹_8335" data-name="그룹 8335" transform="translate(-17005 -21530)">
      <g id="그룹_8334" data-name="그룹 8334" transform="translate(0 0)">
        <path id="합치기_117" data-name="합치기 117" d="M2.4,0,3.889.614V2.656L2.4,3.286ZM0,3.269V0H2.4V3.269Z" transform="translate(37.613 11.771)" fill="#333"/>
        <path id="선_335" data-name="선 335" d="M1.135,49.052H-.5V0H1.135Z" transform="translate(42.037 0)" fill="#ccc"/>
        <path id="사각형_2777_-_윤곽선" data-name="사각형 2777 - 윤곽선" d="M0,0A3.435,3.435,0,0,1,3.27,3.58v3.58A3.435,3.435,0,0,1,0,10.739Z" transform="translate(34.344 8.175)" fill="#666"/>
        <path id="사각형_2779_-_윤곽선" data-name="사각형 2779 - 윤곽선" d="M0,0H4.086V10.739H0Z" transform="translate(30.91 8.175)" fill="#333"/>
        <circle id="타원_256" data-name="타원 256" cx="1.635" cy="1.635" r="1.635" transform="translate(34.996 20.438)" fill="#ccc"/>
        <circle id="타원_259" data-name="타원 259" cx="1.635" cy="1.635" r="1.635" transform="translate(30.092 23.708)" fill="#ccc"/>
        <circle id="타원_257" data-name="타원 257" cx="1.635" cy="1.635" r="1.635" transform="translate(33.362 28.614)" fill="#ccc"/>
        <circle id="타원_260" data-name="타원 260" cx="1.635" cy="1.635" r="1.635" transform="translate(30.092 31.884)" fill="#ccc"/>
        <circle id="타원_258" data-name="타원 258" cx="1.635" cy="1.635" r="1.635" transform="translate(34.996 36.789)" fill="#ccc"/>
        <path id="합치기_119" data-name="합치기 119" d="M2,33.181a2,2,0,0,1-2-2V29.95A2,2,0,0,1,1.559,28L3.889,16.35H3.745a3.27,3.27,0,0,1-3.27-3.27V3.27A3.27,3.27,0,0,1,3.745,0H26.636a3.27,3.27,0,0,1,3.27,3.27v9.811a3.27,3.27,0,0,1-3.27,3.27H13.7L11.332,28.169a2,2,0,0,1,1.09,1.781v1.23a2,2,0,0,1-2,2Z" transform="translate(1.005 5.723)" fill="#eeac2a"/>
        <path id="선_336" data-name="선 336" d="M1.289,8.269H0V0H1.289Z" transform="translate(14.735 7.396) rotate(90)" fill="#ec7203"/>
        <path id="선_336-2" data-name="선 336" d="M1.289,8.269H0V0H1.289Z" transform="translate(14.735 9.883) rotate(90)" fill="#ec7203"/>
        <path id="선_336-3" data-name="선 336" d="M1.289,8.269H0V0H1.289Z" transform="translate(14.735 12.371) rotate(90)" fill="#ec7203"/>
        <path id="패스_3496" data-name="패스 3496" d="M1.135,14.265H-.5V0H1.135Z" transform="translate(26.505 6.765)" fill="#ec7203"/>
        <path id="패스_3577" data-name="패스 3577" d="M-.557,0H2.712L2.4,5.351H-1.609Z" transform="translate(15.291 22.073)" fill="#333"/>
        <path id="사각형_2777_-_윤곽선-2" data-name="사각형 2777 - 윤곽선" d="M0,0A5.177,5.177,0,0,1,4.928,5.394v5.394A5.177,5.177,0,0,1,0,16.182Z" transform="translate(4.928 21.905) rotate(180)" fill="#ec7203"/>
      </g>
    </g>
    <rect id="사각형_2953" data-name="사각형 2953" width="70" height="70" transform="translate(-17018 -21540)" fill="none"/>
  </g>
</svg>
