<svg xmlns="http://www.w3.org/2000/svg" width="70" height="70" viewBox="0 0 70 70">
  <g id="그룹_5499" data-name="그룹 5499" transform="translate(5219 11695)">
    <rect id="사각형_2201" data-name="사각형 2201" width="70" height="70" transform="translate(-5219 -11695)" fill="none"/>
    <g id="그룹_5369" data-name="그룹 5369" transform="translate(18362.684 -21523)">
      <g id="패스_3147" data-name="패스 3147" transform="translate(-23562 9842)" fill="#98c9f4">
        <path d="M 30 13 L 3 13 C 1.897199988365173 13 1 12.1028003692627 1 11 L 1 3 C 1 1.897199988365173 1.897199988365173 1 3 1 L 30 1 C 31.1028003692627 1 32 1.897199988365173 32 3 L 32 11 C 32 12.1028003692627 31.1028003692627 13 30 13 Z" stroke="none"/>
        <path d="M 3 2 C 2.448600769042969 2 2 2.448599815368652 2 3 L 2 11 C 2 11.55140018463135 2.448600769042969 12 3 12 L 30 12 C 30.55139923095703 12 31 11.55140018463135 31 11 L 31 3 C 31 2.448599815368652 30.55139923095703 2 30 2 L 3 2 M 3 0 L 30 0 C 31.65685081481934 0 33 1.34315013885498 33 3 L 33 11 C 33 12.65684986114502 31.65685081481934 14 30 14 L 3 14 C 1.3431396484375 14 0 12.65684986114502 0 11 L 0 3 C 0 1.34315013885498 1.3431396484375 0 3 0 Z" stroke="none" fill="#666"/>
      </g>
      <g id="사각형_2173" data-name="사각형 2173" transform="translate(-23550 9868)" fill="#ececec" stroke="#666" stroke-width="2">
        <path d="M0,0H9A0,0,0,0,1,9,0V14a2,2,0,0,1-2,2H2a2,2,0,0,1-2-2V0A0,0,0,0,1,0,0Z" stroke="none"/>
        <rect x="1" y="1" width="7" height="14" rx="1" fill="none"/>
      </g>
      <path id="패스_3148" data-name="패스 3148" d="M-23550.385,9868h9.838" fill="none" stroke="#666" stroke-linecap="round" stroke-width="2"/>
      <path id="패스_3149" data-name="패스 3149" d="M-23566.684,9849v19.9a2.958,2.958,0,0,0,2.766,2.019,2.611,2.611,0,0,0,2.568-2.019v-6.989a2.15,2.15,0,0,1,2.1-1.565,1.814,1.814,0,0,1,1.813,1.73v2.911h.021a2.183,2.183,0,0,0,2.314,1.428,2.212,2.212,0,0,0,2.252-1.428v-2.417a3.882,3.882,0,0,1,1.619-2.032c1.078-.48,1.512.165,2.691-.192a6.807,6.807,0,0,0,2.391-1.676" fill="none" stroke="#666" stroke-linecap="round" stroke-linejoin="round" stroke-width="2"/>
      <path id="패스_3150" data-name="패스 3150" d="M-23529.441,9848.721a5.484,5.484,0,0,1,2.609.549,3.15,3.15,0,0,1,1.063,2.169v3.859a3.5,3.5,0,0,1-1.447,1.7c-1.1.659-15.812,6.347-15.812,6.347a5.612,5.612,0,0,0-2.24,1.605,3.014,3.014,0,0,0-.232,2.239" fill="none" stroke="#666" stroke-width="2"/>
    </g>
  </g>
</svg>
