<svg xmlns="http://www.w3.org/2000/svg" width="70" height="70" viewBox="0 0 70 70">
  <g id="그룹_8469" data-name="그룹 8469" transform="translate(16978 21416)">
    <g id="그룹_7909" data-name="그룹 7909" transform="translate(-16966 -21397)">
      <path id="패스_3512" data-name="패스 3512" d="M0,0A5.755,5.755,0,0,0,3.041,1.236,5.755,5.755,0,0,0,6.082,0,5.711,5.711,0,0,0,4.826,3.041,5.711,5.711,0,0,0,6.082,6.082,5.881,5.881,0,0,0,3.041,4.9,5.881,5.881,0,0,0,0,6.082,6.231,6.231,0,0,0,1.066,3.041,6.231,6.231,0,0,0,0,0Z" transform="translate(19.078 8.601) rotate(-135)" fill="#5ea2de"/>
      <path id="패스_3513" data-name="패스 3513" d="M0,0A8.633,8.633,0,0,0,4.561,1.854,8.633,8.633,0,0,0,9.123,0,8.567,8.567,0,0,0,7.239,4.561,8.567,8.567,0,0,0,9.123,9.123,8.822,8.822,0,0,0,4.561,7.348,8.822,8.822,0,0,0,0,9.123,9.347,9.347,0,0,0,1.6,4.561,9.347,9.347,0,0,0,0,0Z" transform="translate(6.451 18.707) rotate(-135)" fill="#5ea2de"/>
      <path id="패스_3514" data-name="패스 3514" d="M-21583.082-5205.185c.988-.082,27.064-.69,32.029,0s6.43,1.317,6.336,2.7-2.059,1.81-6.336,2.25-5.32-1.714-10.1-1.257c-4.824.457-4.66,2.311-9.484,2.1s-5.393-.776-9.406-1.655c-4-.88-4.658.1-7.057-.449-2.42-.552-1.561-1.78-.711-2.738C-21586.9-5205.189-21584.07-5205.1-21583.082-5205.185Z" transform="translate(21589.896 5231.402)" fill="#999"/>
      <path id="패스_3515" data-name="패스 3515" d="M-21562.3-5217.744a14.524,14.524,0,0,1-5.049,3.681c-3.061,1.274-5.834.735-7.2,1.42s-9.309,9.017-9.309,9.017-.52,1.077,0,1.567.922.685,2.053.391,4.516-3.82,7.986-5.094c3.49-1.274,5.941-.367,5.941,0s-3.986.525-5.941,1.469c-1.939.942-2.256,1.433-2.256,2.253s.84,1.273,1.525,1.372,12.936-.195,14.354-.637,1.875-1.347,2.65-2.988.158-1.776.779-3.38a14.546,14.546,0,0,1,1.723-3.039Z" transform="translate(21593.713 5225.928)" fill="#f2d1a0"/>
      <rect id="사각형_2797" data-name="사각형 2797" width="13.684" height="7.602" rx="1" transform="matrix(0.766, 0.643, -0.643, 0.766, 35.868, 0)" fill="#2e4e8e"/>
    </g>
    <rect id="사각형_2956" data-name="사각형 2956" width="70" height="70" transform="translate(-16978 -21416)" fill="none"/>
  </g>
</svg>
