<svg xmlns="http://www.w3.org/2000/svg" width="50" height="50" viewBox="0 0 50 50">
  <g id="그룹_7896" data-name="그룹 7896" transform="translate(-336 -429)">
    <g id="그룹_7892" data-name="그룹 7892" transform="translate(335.861 428.973)">
      <circle id="타원_236" data-name="타원 236" cx="25" cy="25" r="25" transform="translate(0.139 0.027)" fill="#16284c"/>
    </g>
    <g id="그룹_7895" data-name="그룹 7895" transform="translate(22337 5725)">
      <path id="선_335" data-name="선 335" d="M.5,30h-1V0h1Z" transform="translate(-21964 -5286)" fill="#fff"/>
      <path id="합치기_92" data-name="합치기 92" d="M4,20a1,1,0,0,1-1-1V10A2,2,0,0,1,1,8V2A2,2,0,0,1,3,0H17a2,2,0,0,1,1.937,1.5H21.5a2,2,0,0,1,2,2V4h2V5h-2v.5a2,2,0,0,1-2,2H19V8a2,2,0,0,1-2,2H12v4.5H9V19a1,1,0,0,1-1,1Zm5-6.5h2V10H9Zm7-4.137h1V.638H16ZM6,7.5H7v-5H6Zm-2,0H5v-5H4Zm16.611-1v-4H19v4Z" transform="translate(-21990 -5282.5)" fill="#fff"/>
      <g id="그룹_7894" data-name="그룹 7894">
        <circle id="타원_256" data-name="타원 256" cx="1" cy="1" r="1" transform="translate(-21968.5 -5273.5)" fill="#fff"/>
        <circle id="타원_259" data-name="타원 259" cx="1" cy="1" r="1" transform="translate(-21971.5 -5271.5)" fill="#fff"/>
        <circle id="타원_257" data-name="타원 257" cx="1" cy="1" r="1" transform="translate(-21969.5 -5268.5)" fill="#fff"/>
        <circle id="타원_260" data-name="타원 260" cx="1" cy="1" r="1" transform="translate(-21971.5 -5266.5)" fill="#fff"/>
        <circle id="타원_258" data-name="타원 258" cx="1" cy="1" r="1" transform="translate(-21968.5 -5263.5)" fill="#fff"/>
      </g>
    </g>
  </g>
</svg>
