<svg xmlns="http://www.w3.org/2000/svg" width="70" height="70" viewBox="0 0 70 70">
  <g id="그룹_8036" data-name="그룹 8036" transform="translate(17018 -1578)">
    <rect id="사각형_2200" data-name="사각형 2200" width="70" height="70" transform="translate(-17018 1578)" fill="none"/>
    <g id="그룹_7809" data-name="그룹 7809" transform="translate(79.348 -38.43)">
      <g id="그룹_7808" data-name="그룹 7808" transform="translate(2.748 6)">
        <g id="패스_3451" data-name="패스 3451" transform="translate(-17093.098 1635.931)" fill="#fff">
          <path d="M 23 27 C 19.97907066345215 27 17.05084991455078 26.64046859741211 14.29668998718262 25.93138885498047 C 11.65328025817871 25.25082969665527 9.284609794616699 24.27979850769043 7.256490230560303 23.04528999328613 C 5.264050006866455 21.83250999450684 3.707030057907104 20.43068885803223 2.628659963607788 18.87879943847656 C 1.547960042953491 17.32353973388672 1 15.68207931518555 1 13.99999904632568 C 1 12.31791877746582 1.547960042953491 10.67644882202148 2.628659963607788 9.121198654174805 C 3.707030057907104 7.569299221038818 5.264050006866455 6.167489051818848 7.256490230560303 4.954699039459229 C 9.284609794616699 3.720189094543457 11.65328025817871 2.749169111251831 14.29668998718262 2.068608999252319 C 17.05084991455078 1.3595290184021 19.97907066345215 0.9999990463256836 23 0.9999990463256836 C 26.02092933654785 0.9999990463256836 28.94915008544922 1.3595290184021 31.70331001281738 2.068608999252319 C 34.34672164916992 2.749169111251831 36.71538925170898 3.720189094543457 38.74351119995117 4.954699039459229 C 40.7359504699707 6.167489051818848 42.29296875 7.569299221038818 43.37134170532227 9.121198654174805 C 44.45204162597656 10.67644882202148 45 12.31791877746582 45 13.99999904632568 C 45 15.68207931518555 44.45204162597656 17.32353973388672 43.37134170532227 18.87879943847656 C 42.29296875 20.43068885803223 40.7359504699707 21.83250999450684 38.74351119995117 23.04528999328613 C 36.71538925170898 24.27979850769043 34.34672164916992 25.25082969665527 31.70331001281738 25.93138885498047 C 28.94915008544922 26.64046859741211 26.02092933654785 27 23 27 Z" stroke="none"/>
          <path d="M 23 1.999998092651367 C 20.0631103515625 1.999998092651367 17.21878051757812 2.348909378051758 14.5460090637207 3.037029266357422 C 11.99800872802734 3.693029403686523 9.720401763916016 4.625619888305664 7.776439666748047 5.80889892578125 C 5.903839111328125 6.948738098144531 4.448169708251953 8.255149841308594 3.449871063232422 9.691829681396484 C 2.487808227539062 11.07634925842285 2 12.52582931518555 2 13.99999904632568 C 2 15.47416877746582 2.487808227539062 16.92364883422852 3.449871063232422 18.30817031860352 C 4.448169708251953 19.74485015869141 5.903839111328125 21.05124855041504 7.776439666748047 22.19109916687012 C 9.720401763916016 23.3743782043457 11.99800872802734 24.30696868896484 14.5460090637207 24.96296882629395 C 17.21878051757812 25.65108871459961 20.0631103515625 26 23 26 C 25.9368896484375 26 28.78121948242188 25.65108871459961 31.4539909362793 24.96296882629395 C 34.00199127197266 24.30696868896484 36.27960205078125 23.3743782043457 38.22356033325195 22.19109916687012 C 40.09616088867188 21.05124855041504 41.55183029174805 19.74485015869141 42.55012893676758 18.30817031860352 C 43.51219177246094 16.92364883422852 44 15.47416877746582 44 13.99999904632568 C 44 12.52582931518555 43.51219177246094 11.07634925842285 42.55012893676758 9.691829681396484 C 41.55183029174805 8.255149841308594 40.09616088867188 6.948738098144531 38.22356033325195 5.80889892578125 C 36.27960205078125 4.625619888305664 34.00199127197266 3.693029403686523 31.4539909362793 3.037029266357422 C 28.78121948242188 2.348909378051758 25.9368896484375 1.999998092651367 23 1.999998092651367 M 23 -1.9073486328125e-06 C 35.70254898071289 -1.9073486328125e-06 46 6.268009185791016 46 13.99999904632568 C 46 21.73197937011719 35.70254898071289 28 23 28 C 10.29745101928711 28 0 21.73197937011719 0 13.99999904632568 C 0 6.268009185791016 10.29745101928711 -1.9073486328125e-06 23 -1.9073486328125e-06 Z" stroke="none" fill="#666"/>
        </g>
        <g id="패스_3453" data-name="패스 3453" transform="translate(-17089.098 1640.549)" fill="#ececec">
          <path d="M 18 17.70495796203613 C 13.26891040802002 17.70495796203613 8.828849792480469 16.77724838256836 5.497710227966309 15.09270763397217 C 3.905580043792725 14.28757762908936 2.660830020904541 13.35630798339844 1.798060059547424 12.32478809356689 C 0.9367300271987915 11.29498767852783 0.5 10.21084785461426 0.5 9.10247802734375 C 0.5 7.994108200073242 0.9367300271987915 6.90996789932251 1.798060059547424 5.880167961120605 C 2.660830020904541 4.848648071289062 3.905580043792725 3.917377948760986 5.497710227966309 3.112247943878174 C 8.828849792480469 1.427708029747009 13.26891040802002 0.4999980330467224 18 0.4999980330467224 C 22.7310905456543 0.4999980330467224 27.17115020751953 1.427708029747009 30.50229072570801 3.112247943878174 C 32.09442138671875 3.917377948760986 33.33916854858398 4.848648071289062 34.20193862915039 5.880167961120605 C 35.06327056884766 6.90996789932251 35.5 7.994108200073242 35.5 9.10247802734375 C 35.5 10.21084785461426 35.06327056884766 11.29498767852783 34.20193862915039 12.32478809356689 C 33.33916854858398 13.35630798339844 32.09442138671875 14.28757762908936 30.50229072570801 15.09270763397217 C 27.17115020751953 16.77724838256836 22.7310905456543 17.70495796203613 18 17.70495796203613 Z" stroke="none"/>
          <path d="M 18 0.9999980926513672 C 13.34580039978027 0.9999980926513672 8.985870361328125 1.908607482910156 5.723350524902344 3.558438301086426 C 4.192159652709961 4.332748413085938 3.000541687011719 5.221817970275879 2.181591033935547 6.200958251953125 C 1.397541046142578 7.138358116149902 1 8.114567756652832 1 9.10247802734375 C 1 10.09038829803467 1.397541046142578 11.0665979385376 2.181591033935547 12.00399780273438 C 3.000541687011719 12.98313808441162 4.192159652709961 13.87220764160156 5.723350524902344 14.64651775360107 C 8.985870361328125 16.29634857177734 13.34580039978027 17.20495796203613 18 17.20495796203613 C 22.65419960021973 17.20495796203613 27.01412963867188 16.29634857177734 30.27664947509766 14.64651775360107 C 31.80784034729004 13.87220764160156 32.99945831298828 12.98313808441162 33.81840896606445 12.00399780273438 C 34.60245895385742 11.0665979385376 35 10.09038829803467 35 9.10247802734375 C 35 8.114567756652832 34.60245895385742 7.138358116149902 33.81840896606445 6.200958251953125 C 32.99945831298828 5.221817970275879 31.80784034729004 4.332748413085938 30.27664947509766 3.558438301086426 C 27.01412963867188 1.908607482910156 22.65419960021973 0.9999980926513672 18 0.9999980926513672 M 18 -1.9073486328125e-06 C 27.94112968444824 -1.9073486328125e-06 36 4.075318336486816 36 9.10247802734375 C 36 14.129638671875 27.94112968444824 18.20495796203613 18 18.20495796203613 C 8.058870315551758 18.20495796203613 0 14.129638671875 0 9.10247802734375 C 0 4.075318336486816 8.058870315551758 -1.9073486328125e-06 18 -1.9073486328125e-06 Z" stroke="none" fill="#707070"/>
        </g>
        <g id="빼기_20" data-name="빼기 20" transform="translate(-17088.902 1640.549)" fill="#ececec">
          <path d="M 34.43835830688477 11.79160308837891 C 34.40000152587891 9.442676544189453 32.63682174682617 7.262164115905762 29.46370124816895 5.643821716308594 C 26.36226081848145 4.062031269073486 22.25620079040527 3.190901517868042 17.90190124511719 3.190901517868042 C 13.54784107208252 3.190901517868042 9.442001342773438 4.062031269073486 6.340721607208252 5.643821716308594 C 3.168169260025024 7.261974334716797 1.4051353931427 9.442131996154785 1.366357803344727 11.79072666168213 C 0.795729398727417 10.93201351165771 0.5000013709068298 10.03154754638672 0.5000013709068298 9.130491256713867 C 0.5000013709068298 6.889151573181152 2.265291452407837 4.754461288452148 5.470691204071045 3.119641542434692 C 8.782941818237305 1.430341482162476 13.19776153564453 0.5000014901161194 17.90190124511719 0.5000014901161194 C 22.60643196105957 0.5000014901161194 27.02154159545898 1.430341482162476 30.33391189575195 3.119651556015015 C 33.53937149047852 4.754441261291504 35.30470275878906 6.88914155960083 35.30470275878906 9.130491256713867 C 35.30470275878906 10.03136444091797 35.00897598266602 10.93212413787842 34.43835830688477 11.79160308837891 Z" stroke="none"/>
          <path d="M 34.65827178955078 10.16281318664551 C 34.75539016723633 9.819467544555664 34.80470275878906 9.474360466003418 34.80470275878906 9.130491256713867 C 34.80470275878906 7.086641311645508 33.13627243041992 5.11013126373291 30.10674095153809 3.565071582794189 C 26.8633918762207 1.910961508750916 22.52896118164062 1.000001430511475 17.90190124511719 1.000001430511475 C 13.27524185180664 1.000001430511475 8.941091537475586 1.910961508750916 5.697861194610596 3.565061569213867 C 2.668401479721069 5.110141277313232 1.000001430511475 7.08665132522583 1.000001430511475 9.130491256713867 C 1.000001430511475 9.474457740783691 1.049295783042908 9.819478034973145 1.14643383026123 10.16275978088379 C 1.784195184707642 8.257338523864746 3.493040084838867 6.534991264343262 6.113551616668701 5.198411464691162 C 9.283851623535156 3.581421375274658 13.47036170959473 2.690901517868042 17.90190124511719 2.690901517868042 C 22.33367156982422 2.690901517868042 26.52041053771973 3.581421375274658 29.69087219238281 5.19840145111084 C 32.3115234375 6.534981250762939 34.02047729492188 8.257387161254883 34.65827178955078 10.16281318664551 M 33.61769104003906 13.50711154937744 L 33.61608123779297 13.50601100921631 C 33.83035278320312 12.97302150726318 33.93900299072266 12.42261123657227 33.93900299072266 11.87009143829346 C 33.93900299072266 7.360061645507812 26.74479103088379 3.690901517868042 17.90190124511719 3.690901517868042 C 9.059511184692383 3.690901517868042 1.86570143699646 7.360061645507812 1.86570143699646 11.87009143829346 C 1.86570143699646 12.41976165771484 1.97326135635376 12.96915149688721 2.185381412506104 13.50302124023438 C 0.7551313638687134 12.171311378479 1.379394575451443e-06 10.65892124176025 1.379394575451443e-06 9.130491256713867 C 1.379394575451443e-06 6.691661357879639 1.862181425094604 4.398781299591064 5.243521213531494 2.67423152923584 C 8.624781608581543 0.9497314691543579 13.12028121948242 1.483154278503207e-06 17.90190124511719 1.483154278503207e-06 C 22.68391227722168 1.483154278503207e-06 27.17969131469727 0.9497314691543579 30.56107139587402 2.67423152923584 C 33.94248199462891 4.39876127243042 35.80470275878906 6.691641330718994 35.80470275878906 9.130491256713867 C 35.80470275878906 10.66011142730713 35.04844284057617 12.17352104187012 33.61769104003906 13.50711154937744 Z" stroke="none" fill="#666"/>
        </g>
        <g id="타원_249" data-name="타원 249" transform="translate(-17088 1644)" fill="#666" stroke="#666" stroke-width="1">
          <ellipse cx="17" cy="7.5" rx="17" ry="7.5" stroke="none"/>
          <ellipse cx="17" cy="7.5" rx="16.5" ry="7" fill="none"/>
        </g>
        <path id="패스_3456" data-name="패스 3456" d="M-17077.2,1647.3v2.034h10.578V1647.3" transform="translate(1.814 5.315)" fill="none" stroke="#fff" stroke-linecap="round" stroke-linejoin="round" stroke-width="2"/>
        <rect id="사각형_2746" data-name="사각형 2746" width="4" height="2" transform="translate(-17072 1658)" fill="#666"/>
      </g>
      <g id="그룹_7807" data-name="그룹 7807" transform="translate(-2.601 5.431)">
        <path id="패스_3452" data-name="패스 3452" d="M20,0C31.044,0,40,5.82,40,13S31.044,26,20,26,0,20.18,0,13,8.954,0,20,0Z" transform="translate(-17072.998 1628.658)" fill="#ececec" stroke="#666" stroke-width="2"/>
        <g id="패스_3459" data-name="패스 3459" transform="translate(-17072.496 1628)" fill="#fff">
          <path d="M 19.9990234375 23 C 14.83571338653564 23 9.996243476867676 21.80240058898926 6.372093200683594 19.62779998779297 C 2.907853364944458 17.54915046691895 1.000003457069397 14.8402099609375 1.000003457069397 12 C 1.000003457069397 9.1597900390625 2.907853364944458 6.450850009918213 6.372093200683594 4.372200012207031 C 9.996243476867676 2.1975998878479 14.83571338653564 1 19.9990234375 1 C 25.16233253479004 1 30.00180435180664 2.1975998878479 33.62595367431641 4.372200012207031 C 37.09020233154297 6.450850009918213 38.99804306030273 9.1597900390625 38.99804306030273 12 C 38.99804306030273 13.64638042449951 38.3616943359375 15.23439979553223 37.10667419433594 16.71994972229004 C 35.82209396362305 18.2404899597168 33.96614456176758 19.57554054260254 31.59036254882812 20.68803024291992 C 28.46091270446777 22.15748023986816 24.23638343811035 23 19.9990234375 23 Z" stroke="none"/>
          <path d="M 19.9990234375 2 C 17.46494293212891 2 15.01138305664062 2.296600341796875 12.70648384094238 2.881559371948242 C 10.51409339904785 3.437969207763672 8.556003570556641 4.227989196777344 6.886604309082031 5.229679107666016 C 5.290302276611328 6.187509536743164 4.052074432373047 7.281530380249023 3.206314086914062 8.48136043548584 C 2.405864715576172 9.616900444030762 2.000003814697266 10.80074024200439 2.000003814697266 12 C 2.000003814697266 13.19925975799561 2.405864715576172 14.38309955596924 3.206314086914062 15.51863956451416 C 4.052074432373047 16.71846961975098 5.290302276611328 17.81249046325684 6.886604309082031 18.77032089233398 C 8.556003570556641 19.77201080322266 10.51409339904785 20.56203079223633 12.70648384094238 21.11844062805176 C 15.01138305664062 21.70339965820312 17.46494293212891 22 19.9990234375 22 C 24.0946044921875 22 28.16421318054199 21.19205093383789 31.16629409790039 19.78240013122559 C 33.37879180908203 18.74637031555176 35.16880416870117 17.46422958374023 36.3427848815918 16.07460021972656 C 37.44113159179688 14.77449989318848 37.99804306030273 13.40361022949219 37.99804306030273 12 C 37.99804306030273 10.80074024200439 37.59218215942383 9.616900444030762 36.79173278808594 8.48136043548584 C 35.94597244262695 7.281530380249023 34.70774459838867 6.187509536743164 33.11144256591797 5.229679107666016 C 31.44204330444336 4.227989196777344 29.48395347595215 3.437969207763672 27.29156303405762 2.881559371948242 C 24.98666381835938 2.296600341796875 22.53310394287109 2 19.9990234375 2 M 19.9990234375 0 C 31.0441837310791 0 39.99804306030273 5.372579574584961 39.99804306030273 12 C 39.99804306030273 15.84389972686768 36.9859619140625 19.26568031311035 32.01443481445312 21.59366035461426 C 28.90805435180664 23.05228042602539 24.63799285888672 24 19.9990234375 24 C 8.953863143920898 24 3.814697265625e-06 18.62742042541504 3.814697265625e-06 12 C 3.814697265625e-06 5.372579574584961 8.953863143920898 0 19.9990234375 0 Z" stroke="none" fill="#666"/>
        </g>
        <g id="패스_3460" data-name="패스 3460" transform="translate(-17067.77 1631.411)" fill="#ececec" stroke-linecap="round" stroke-linejoin="round">
          <path d="M 15 16.5 C 11.07835960388184 16.5 7.399069786071777 15.63893032073975 4.639910221099854 14.07540035247803 C 1.970250010490417 12.56258964538574 0.5 10.58253955841064 0.5 8.5 C 0.5 6.417459964752197 1.970250010490417 4.4374098777771 4.639910221099854 2.924599885940552 C 7.399069786071777 1.361070036888123 11.07835960388184 0.5 15 0.5 C 18.92164039611816 0.5 22.60092926025391 1.361070036888123 25.3600902557373 2.924599885940552 C 28.02975082397461 4.4374098777771 29.5 6.417459964752197 29.5 8.5 C 29.5 10.58253955841064 28.02975082397461 12.56258964538574 25.3600902557373 14.07540035247803 C 22.60092926025391 15.63893032073975 18.92164039611816 16.5 15 16.5 Z" stroke="none"/>
          <path d="M 15 1 C 11.16337013244629 1 7.571620941162109 1.837989807128906 4.886409759521484 3.359609603881836 C 2.380220413208008 4.779789924621582 1 6.605349540710449 1 8.5 C 1 10.39464950561523 2.380220413208008 12.22021007537842 4.886409759521484 13.64039039611816 C 7.571620941162109 15.16201019287109 11.16337013244629 16 15 16 C 18.83662986755371 16 22.42837905883789 15.16201019287109 25.11359024047852 13.64039039611816 C 27.61977958679199 12.22021007537842 29 10.39464950561523 29 8.5 C 29 6.605349540710449 27.61977958679199 4.779789924621582 25.11359024047852 3.359609603881836 C 22.42837905883789 1.837989807128906 18.83662986755371 1 15 1 M 15 0 C 23.28426933288574 0 30 3.805580139160156 30 8.5 C 30 13.19441986083984 23.28426933288574 17 15 17 C 6.715730667114258 17 0 13.19441986083984 0 8.5 C 0 3.805580139160156 6.715730667114258 0 15 0 Z" stroke="none" fill="#666"/>
        </g>
        <line id="선_325" data-name="선 325" x2="6.25" transform="translate(-17065.248 1639)" fill="none" stroke="#707070" stroke-linecap="round" stroke-width="1"/>
        <line id="선_326" data-name="선 326" y1="4" x2="4" transform="translate(-17059.498 1641.5)" fill="none" stroke="#707070" stroke-linecap="round" stroke-width="1"/>
        <path id="패스_3463" data-name="패스 3463" d="M4,4,.2.363" transform="translate(-17049.498 1641.5)" fill="none" stroke="#707070" stroke-linecap="round" stroke-width="1"/>
        <line id="선_328" data-name="선 328" x2="5.25" transform="translate(-17046.498 1639)" fill="none" stroke="#707070" stroke-linecap="round" stroke-width="1"/>
        <line id="선_329" data-name="선 329" x2="2" y2="1.004" transform="translate(-17058.498 1634.496)" fill="none" stroke="#707070" stroke-linecap="round" stroke-width="1"/>
        <line id="선_330" data-name="선 330" x1="2" y2="1.004" transform="translate(-17048.998 1634.496)" fill="none" stroke="#707070" stroke-linecap="round" stroke-width="1"/>
        <g id="패스_3462" data-name="패스 3462" transform="translate(-17056.498 1636.049)" fill="none">
          <path d="M4,0C6.209,0,8,1.007,8,2.25S6.209,4.5,4,4.5,0,3.493,0,2.25,1.791,0,4,0Z" stroke="none"/>
          <path d="M 4 1 C 2.138989925384521 1 1 1.809309959411621 1 2.25 C 1 2.690690040588379 2.138989925384521 3.5 4 3.5 C 5.861010074615479 3.5 7 2.690690040588379 7 2.25 C 7 1.809309959411621 5.861010074615479 1 4 1 M 4 0 C 6.209139823913574 0 8 1.007359981536865 8 2.25 C 8 3.492640018463135 6.209139823913574 4.5 4 4.5 C 1.790860176086426 4.5 0 3.492640018463135 0 2.25 C 0 1.007359981536865 1.790860176086426 0 4 0 Z" stroke="none" fill="#666"/>
        </g>
      </g>
    </g>
  </g>
</svg>
