<svg xmlns="http://www.w3.org/2000/svg" width="30" height="30" viewBox="0 0 30 30">
  <g id="그룹_5529" data-name="그룹 5529" transform="translate(5513 10647)">
    <rect id="사각형_2246" data-name="사각형 2246" width="30" height="30" transform="translate(-5513 -10647)" fill="none"/>
    <g id="그룹_5521" data-name="그룹 5521" transform="translate(32 20)">
      <g id="패스_3202" data-name="패스 3202" transform="translate(-5542 -10662)" fill="#fff" stroke-linecap="round">
        <path d="M 18 19.5 L 2 19.5 C 1.172899961471558 19.5 0.5 18.82710075378418 0.5 18 L 0.5 2 C 0.5 1.172899961471558 1.172899961471558 0.5 2 0.5 L 18 0.5 C 18.82710075378418 0.5 19.5 1.172899961471558 19.5 2 L 19.5 18 C 19.5 18.82710075378418 18.82710075378418 19.5 18 19.5 Z" stroke="none"/>
        <path d="M 2 1 C 1.448600769042969 1 1 1.448600769042969 1 2 L 1 18 C 1 18.55139923095703 1.448600769042969 19 2 19 L 18 19 C 18.55139923095703 19 19 18.55139923095703 19 18 L 19 2 C 19 1.448600769042969 18.55139923095703 1 18 1 L 2 1 M 2 0 L 18 0 C 19.10457038879395 0 20 0.8954296112060547 20 2 L 20 18 C 20 19.10457038879395 19.10457038879395 20 18 20 L 2 20 C 0.8954296112060547 20 0 19.10457038879395 0 18 L 0 2 C 0 0.8954296112060547 0.8954296112060547 0 2 0 Z" stroke="none" fill="#16284c"/>
      </g>
      <g id="패스_3199" data-name="패스 3199" transform="translate(-5542 -10662)" fill="#16284c">
        <path d="M 19.5 6.5 L 0.5 6.5 L 0.5 2 C 0.5 1.172899961471558 1.172899961471558 0.5 2 0.5 L 18 0.5 C 18.82710075378418 0.5 19.5 1.172899961471558 19.5 2 L 19.5 6.5 Z" stroke="none"/>
        <path d="M 2 1 C 1.448600769042969 1 1 1.448599815368652 1 2 L 1 6 L 19 6 L 19 2 C 19 1.448599815368652 18.55139923095703 1 18 1 L 2 1 M 2 0 L 18 0 C 19.10457038879395 0 20 0.8954300880432129 20 2 L 20 7 L 0 7 L 0 2 C 0 0.8954300880432129 0.8954296112060547 0 2 0 Z" stroke="none" fill="#16284c"/>
      </g>
      <rect id="사각형_2224" data-name="사각형 2224" width="1" height="5" rx="0.5" transform="translate(-5538 -10664)" fill="#ccc"/>
      <rect id="사각형_2225" data-name="사각형 2225" width="1" height="5" rx="0.5" transform="translate(-5527 -10664)" fill="#ccc"/>
      <rect id="사각형_2226" data-name="사각형 2226" width="2" height="2" transform="translate(-5531 -10654)" fill="#16284c"/>
      <rect id="사각형_2231" data-name="사각형 2231" width="2" height="2" transform="translate(-5531 -10650)" fill="#16284c"/>
      <rect id="사각형_2236" data-name="사각형 2236" width="2" height="2" transform="translate(-5531 -10646)" fill="#16284c"/>
      <rect id="사각형_2232" data-name="사각형 2232" width="2" height="2" transform="translate(-5539 -10650)" fill="#16284c"/>
      <rect id="사각형_2238" data-name="사각형 2238" width="2" height="2" transform="translate(-5539 -10646)" fill="#16284c"/>
      <rect id="사각형_2227" data-name="사각형 2227" width="2" height="2" transform="translate(-5527 -10654)" fill="#16284c"/>
      <rect id="사각형_2230" data-name="사각형 2230" width="2" height="2" transform="translate(-5527 -10650)" fill="#16284c"/>
      <rect id="사각형_2233" data-name="사각형 2233" width="2" height="2" transform="translate(-5535 -10650)" fill="#16284c"/>
      <rect id="사각형_2245" data-name="사각형 2245" width="2" height="2" transform="translate(-5535 -10654)" fill="#16284c"/>
      <rect id="사각형_2237" data-name="사각형 2237" width="2" height="2" transform="translate(-5535 -10646)" fill="#16284c"/>
      <g id="그룹_5520" data-name="그룹 5520">
        <g id="타원_194" data-name="타원 194" transform="translate(-5527 -10649)" fill="#16284c" stroke="#16284c" stroke-width="1">
          <circle cx="5" cy="5" r="5" stroke="none"/>
          <circle cx="5" cy="5" r="4.5" fill="none"/>
        </g>
        <path id="패스_3200" data-name="패스 3200" d="M-5492.681-10702.33l1.673,1.719,3.392-3.211" transform="translate(-31.819 58.322)" fill="none" stroke="#fff" stroke-linecap="round" stroke-linejoin="round" stroke-width="1"/>
      </g>
    </g>
  </g>
</svg>
