<svg xmlns="http://www.w3.org/2000/svg" width="30" height="30" viewBox="0 0 30 30">
  <g id="그룹_6039" data-name="그룹 6039" transform="translate(-365 -240)">
    <rect id="사각형_2475" data-name="사각형 2475" width="30" height="30" rx="5" transform="translate(365 240)" fill="#f8f8f8"/>
    <path id="합치기_56" data-name="합치기 56" d="M14.321,15.393H8.877a1.8,1.8,0,1,1-2.813-1.725V12.321L4.4,4.434a.591.591,0,0,1-.014-.11L3.713,1.2H.6A.6.6,0,1,1,.6,0H4.2a.6.6,0,0,1,.588.475l.7,3.234H18.113a.6.6,0,0,1,.582.751l-2.05,7.951a.6.6,0,0,1-.582.451H7.268v.494a1.807,1.807,0,0,1,1.347.834h5.967a1.8,1.8,0,1,1-.261,1.2Zm-7.138-3.8a.484.484,0,0,1,.036.068H15.6l1.74-6.749H5.742Z" transform="translate(369.285 246.522)" fill="#16284c"/>
  </g>
</svg>
