<svg xmlns="http://www.w3.org/2000/svg" width="70" height="70" viewBox="0 0 70 70">
  <g id="그룹_5505" data-name="그룹 5505" transform="translate(5453 11604)">
    <rect id="사각형_2207" data-name="사각형 2207" width="70" height="70" transform="translate(-5453 -11604)" fill="none"/>
    <g id="그룹_5362" data-name="그룹 5362" transform="translate(17898.703 -21436)">
      <g id="사각형_2176" data-name="사각형 2176" transform="translate(-23328 9845)" fill="#ececec" stroke="#707070" stroke-width="2">
        <rect width="24" height="44" stroke="none"/>
        <rect x="1" y="1" width="22" height="42" fill="none"/>
      </g>
      <g id="패스_3171" data-name="패스 3171" transform="translate(-23323 9876)" fill="#98c9f4" stroke-linejoin="round">
        <path d="M 13 6.999999046325684 L 1 6.999999046325684 L 1 0.3840482234954834 C 1.475555181503296 -0.03568501397967339 3.060759305953979 -1.079100728034973 7.0625 -1.079100728034973 C 11.05886745452881 -1.079100728034973 12.56473064422607 -0.04125397279858589 13 0.3637694418430328 L 13 6.999999046325684 Z" stroke="none"/>
        <path d="M 7.0625 -0.07910060882568359 C 4.084383964538574 -0.07910060882568359 2.621006011962891 0.5200800895690918 2 0.8916435241699219 L 2 5.999999046325684 L 12 5.999999046325684 L 12 0.8607635498046875 C 11.41676235198975 0.5053548812866211 10.00940036773682 -0.07910060882568359 7.0625 -0.07910060882568359 M 7.0625 -2.079100608825684 C 12.84375953674316 -2.079100608825684 14 -9.5367431640625e-07 14 -9.5367431640625e-07 L 14 7.999999046325684 L 0 7.999999046325684 L 0 -9.5367431640625e-07 C 0 -9.5367431640625e-07 1.281240463256836 -2.079100608825684 7.0625 -2.079100608825684 Z" stroke="none" fill="#707070"/>
      </g>
      <g id="패스_3172" data-name="패스 3172" transform="translate(-23323 9852)" fill="#98c9f4" stroke-linejoin="round">
        <path d="M 1 15.5496129989624 L 1 0.3840482234954834 C 1.475555181503296 -0.03568501397967339 3.060759305953979 -1.079100728034973 7.0625 -1.079100728034973 C 11.05886745452881 -1.079100728034973 12.56473064422607 -0.04125397279858589 13 0.3637694418430328 L 13 15.52855014801025 C 11.61403751373291 15.04003238677979 9.38831615447998 14.41308879852295 7.09375 14.41308879852295 C 4.763814926147461 14.41308879852295 2.431465625762939 15.06000995635986 1 15.5496129989624 Z" stroke="none"/>
        <path d="M 7.0625 -0.07910060882568359 C 4.084383964538574 -0.07910060882568359 2.621006011962891 0.52008056640625 2 0.8916435241699219 L 2 14.19304180145264 C 3.435966491699219 13.78884029388428 5.26323127746582 13.41308975219727 7.09375 13.41308975219727 C 8.877965927124023 13.41308975219727 10.62033081054688 13.76962661743164 12 14.16318988800049 L 12 0.8607635498046875 C 11.41676235198975 0.5053548812866211 10.00940036773682 -0.07910060882568359 7.0625 -0.07910060882568359 M 7.0625 -2.0791015625 C 12.84375953674316 -2.0791015625 14 -9.5367431640625e-07 14 -9.5367431640625e-07 L 14 17 C 14 17 10.59375 15.41308879852295 7.09375 15.41308879852295 C 3.59375 15.41308879852295 0 17 0 17 L 0 -9.5367431640625e-07 C 0 -9.5367431640625e-07 1.281240463256836 -2.0791015625 7.0625 -2.0791015625 Z" stroke="none" fill="#707070"/>
      </g>
      <path id="패스_3170" data-name="패스 3170" d="M-23335.7,9888.381h38.953" fill="none" stroke="#707070" stroke-width="2"/>
      <path id="합치기_22" data-name="합치기 22" d="M5.08,2.773q-.054,0-.11,0A3.149,3.149,0,0,1,3.5,2.336,2.4,2.4,0,0,0,.824,2.277a.5.5,0,1,1-.649-.761A2.989,2.989,0,0,1,2.02.918a4.09,4.09,0,0,1,1.957.539,3.436,3.436,0,0,0,.4.189q-.007-.072-.007-.146A1.5,1.5,0,1,1,5.08,2.773Z" transform="translate(-23313.373 9870)" fill="#666"/>
    </g>
  </g>
</svg>
