<svg xmlns="http://www.w3.org/2000/svg" width="70" height="70" viewBox="0 0 70 70">
  <g id="그룹_8035" data-name="그룹 8035" transform="translate(17047 -1674)">
    <g id="그룹_8033" data-name="그룹 8033">
      <rect id="사각형_2207" data-name="사각형 2207" width="70" height="70" transform="translate(-17047 1674)" fill="none"/>
    </g>
    <g id="그룹_7785" data-name="그룹 7785" transform="translate(117 6)">
      <g id="그룹_7784" data-name="그룹 7784">
        <g id="사각형_2176" data-name="사각형 2176" transform="translate(-17144 1682)" fill="#ececec" stroke="#666" stroke-width="2">
          <rect width="30" height="40" stroke="none"/>
          <rect x="1" y="1" width="28" height="38" fill="none"/>
        </g>
        <g id="타원_247" data-name="타원 247" transform="translate(-17138 1695)" fill="#98c9f4" stroke="#666" stroke-width="2">
          <circle cx="9" cy="9" r="9" stroke="none"/>
          <circle cx="9" cy="9" r="8" fill="none"/>
        </g>
        <circle id="타원_248" data-name="타원 248" cx="5" cy="5" r="5" transform="translate(-17134 1699)" fill="#fff"/>
        <g id="사각형_2722" data-name="사각형 2722" transform="translate(-17124 1702)" fill="#fff" stroke="#707070" stroke-width="1">
          <rect width="6" height="4" rx="2" stroke="none"/>
          <rect x="0.5" y="0.5" width="5" height="3" rx="1.5" fill="none"/>
        </g>
        <g id="사각형_2723" data-name="사각형 2723" transform="translate(-17144 1682)" fill="#98c9f4" stroke="#666" stroke-width="2">
          <rect width="30" height="6" stroke="none"/>
          <rect x="1" y="1" width="28" height="4" fill="none"/>
        </g>
        <g id="사각형_2726" data-name="사각형 2726" transform="translate(-17124 1682)" fill="#fff" stroke="#666" stroke-width="2">
          <rect width="5" height="6" stroke="none"/>
          <rect x="1" y="1" width="3" height="4" fill="none"/>
        </g>
        <rect id="사각형_2724" data-name="사각형 2724" width="4" height="3" transform="translate(-17144 1722)" fill="#666"/>
        <rect id="사각형_2725" data-name="사각형 2725" width="4" height="3" transform="translate(-17118 1722)" fill="#666"/>
      </g>
    </g>
  </g>
</svg>
