<svg xmlns="http://www.w3.org/2000/svg" width="42" height="42" viewBox="0 0 42 42">
  <g id="그룹_8172" data-name="그룹 8172" transform="translate(-966 -273)">
    <rect id="사각형_1852" data-name="사각형 1852" width="42" height="42" transform="translate(966 273)" fill="none"/>
    <g id="그룹_6592" data-name="그룹 6592" transform="translate(20744 8267)">
      <g id="사각형_2524" data-name="사각형 2524" transform="translate(-19768 -7974)" fill="none" stroke="#ec7203" stroke-width="3">
        <path d="M11,0h0A11,11,0,0,1,22,11v3a0,0,0,0,1,0,0H0a0,0,0,0,1,0,0V11A11,11,0,0,1,11,0Z" stroke="none"/>
        <path d="M11,1.5h0A9.5,9.5,0,0,1,20.5,11v1.5a0,0,0,0,1,0,0H1.5a0,0,0,0,1,0,0V11A9.5,9.5,0,0,1,11,1.5Z" fill="none"/>
      </g>
      <g id="타원_219" data-name="타원 219" transform="translate(-19764 -7985)" fill="none" stroke="#ec7203" stroke-width="3">
        <circle cx="7" cy="7" r="7" stroke="none"/>
        <circle cx="7" cy="7" r="5.5" fill="none"/>
      </g>
    </g>
  </g>
</svg>
