<svg xmlns="http://www.w3.org/2000/svg" width="70" height="70" viewBox="0 0 70 70">
  <g id="그룹_8388" data-name="그룹 8388" transform="translate(16883 21540)">
    <g id="그룹_8336" data-name="그룹 8336" transform="translate(-16868.818 -21517.482)">
      <path id="합치기_94" data-name="합치기 94" d="M12.148,17.7V15.6H2a2,2,0,0,1-2-2V6.8a2,2,0,0,1,2-2H12.148V2.7A2.7,2.7,0,0,1,16.187.36l8.057,7.5c1.55,1.549,1.552,3.137,0,4.688l-8.057,7.5A2.694,2.694,0,0,1,12.148,17.7Z" transform="translate(16.202 4.649)" fill="#98c9f4"/>
      <path id="합치기_95" data-name="합치기 95" d="M12.148,17.7V15.6H2a2,2,0,0,1-2-2V6.8a2,2,0,0,1,2-2H12.148V2.7A2.7,2.7,0,0,1,16.187.36l8.057,7.5c1.55,1.549,1.552,3.137,0,4.688l-8.057,7.5A2.694,2.694,0,0,1,12.148,17.7Z" transform="translate(25.407 20.4) rotate(-180)" fill="#16284c"/>
    </g>
    <rect id="사각형_2954" data-name="사각형 2954" width="70" height="70" transform="translate(-16883 -21540)" fill="none"/>
  </g>
</svg>
