<svg xmlns="http://www.w3.org/2000/svg" width="32.527" height="32.527" viewBox="0 0 32.527 32.527">
  <g id="합치기_49" data-name="합치기 49" transform="translate(17.548 -4.95) rotate(45)" fill="#fff">
    <path d="M 14.09219932556152 27.15859985351562 C 13.4027795791626 27.15859985351562 12.84189891815186 26.59771919250488 12.84189891815186 25.90830039978027 L 12.84189891815186 17.40779876708984 L 12.84189891815186 17.15779876708984 L 12.59189891815186 17.15779876708984 L 4.091399192810059 17.15779876708984 C 3.40247917175293 17.15779876708984 2.841999292373657 16.59731864929199 2.841999292373657 15.90839958190918 C 2.841999292373657 15.21897983551025 3.40247917175293 14.65809917449951 4.091399192810059 14.65809917449951 L 12.59189891815186 14.65809917449951 L 12.84189891815186 14.65809917449951 L 12.84189891815186 14.40809917449951 L 12.84189891815186 5.908499717712402 C 12.84189891815186 5.219079494476318 13.4027795791626 4.658199787139893 14.09219932556152 4.658199787139893 C 14.78111934661865 4.658199787139893 15.3415994644165 5.219079494476318 15.3415994644165 5.908499717712402 L 15.3415994644165 14.40809917449951 L 15.3415994644165 14.65809917449951 L 15.5915994644165 14.65809917449951 L 24.09210014343262 14.65809917449951 C 24.78101921081543 14.65809917449951 25.34149932861328 15.21897983551025 25.34149932861328 15.90839958190918 C 25.34149932861328 16.59731864929199 24.78101921081543 17.15779876708984 24.09210014343262 17.15779876708984 L 15.5915994644165 17.15779876708984 L 15.3415994644165 17.15779876708984 L 15.3415994644165 17.40779876708984 L 15.3415994644165 25.90830039978027 C 15.3415994644165 26.59771919250488 14.78111934661865 27.15859985351562 14.09219932556152 27.15859985351562 Z" stroke="none"/>
    <path d="M 14.09219932556152 26.90859985351562 C 14.64326953887939 26.90859985351562 15.0915994644165 26.45986938476562 15.0915994644165 25.90830039978027 L 15.0915994644165 16.90779876708984 L 24.09210014343262 16.90779876708984 C 24.64316940307617 16.90779876708984 25.09149932861328 16.45946884155273 25.09149932861328 15.90839958190918 C 25.09149932861328 15.35682964324951 24.64316940307617 14.90809917449951 24.09210014343262 14.90809917449951 L 15.0915994644165 14.90809917449951 L 15.0915994644165 5.908499717712402 C 15.0915994644165 5.356929779052734 14.64326953887939 4.908199787139893 14.09219932556152 4.908199787139893 C 13.54062938690186 4.908199787139893 13.09189891815186 5.356929779052734 13.09189891815186 5.908499717712402 L 13.09189891815186 14.90809917449951 L 4.091399192810059 14.90809917449951 C 3.540329217910767 14.90809917449951 3.091999292373657 15.35682964324951 3.091999292373657 15.90839958190918 C 3.091999292373657 16.45946884155273 3.540329217910767 16.90779876708984 4.091399192810059 16.90779876708984 L 13.09189891815186 16.90779876708984 L 13.09189891815186 25.90830039978027 C 13.09189891815186 26.45986938476562 13.54062938690186 26.90859985351562 14.09219932556152 26.90859985351562 M 14.09219932556152 27.40859985351562 C 13.26329898834229 27.40859985351562 12.59189891815186 26.73629951477051 12.59189891815186 25.90830039978027 L 12.59189891815186 17.40779876708984 L 4.091399192810059 17.40779876708984 C 3.263399124145508 17.40779876708984 2.591999292373657 16.73639869689941 2.591999292373657 15.90839958190918 C 2.591999292373657 15.07949924468994 3.263399124145508 14.40809917449951 4.091399192810059 14.40809917449951 L 12.59189891815186 14.40809917449951 L 12.59189891815186 5.908499717712402 C 12.59189891815186 5.079599380493164 13.26329898834229 4.408199787139893 14.09219932556152 4.408199787139893 C 14.92019939422607 4.408199787139893 15.5915994644165 5.079599380493164 15.5915994644165 5.908499717712402 L 15.5915994644165 14.40809917449951 L 24.09210014343262 14.40809917449951 C 24.92009925842285 14.40809917449951 25.59149932861328 15.07949924468994 25.59149932861328 15.90839958190918 C 25.59149932861328 16.73639869689941 24.92009925842285 17.40779876708984 24.09210014343262 17.40779876708984 L 15.5915994644165 17.40779876708984 L 15.5915994644165 25.90830039978027 C 15.5915994644165 26.73629951477051 14.92019939422607 27.40859985351562 14.09219932556152 27.40859985351562 Z" stroke="none" fill="#ccc"/>
  </g>
</svg>
