<svg xmlns="http://www.w3.org/2000/svg" width="70" height="70" viewBox="0 0 70 70">
  <g id="그룹_8032" data-name="그룹 8032" transform="translate(17225 -1624)">
    <g id="그룹_8031" data-name="그룹 8031">
      <rect id="사각형_2743" data-name="사각형 2743" width="70" height="70" transform="translate(-17225 1624)" fill="none"/>
    </g>
    <g id="그룹_7797" data-name="그룹 7797" transform="translate(1.5 1.703)">
      <g id="사각형_2744" data-name="사각형 2744" transform="translate(-17210 1639)" fill="#ececec" stroke="#666" stroke-linecap="round" stroke-linejoin="round" stroke-width="2">
        <rect width="40" height="40" stroke="none"/>
        <rect x="1" y="1" width="38" height="38" fill="none"/>
      </g>
      <g id="사각형_2178" data-name="사각형 2178" transform="translate(-17206.055 1660.059)" fill="#fff" stroke="#666" stroke-linecap="round" stroke-linejoin="round" stroke-width="2">
        <rect width="15" height="15" stroke="none"/>
        <rect x="1" y="1" width="13" height="13" fill="none"/>
      </g>
      <g id="사각형_2740" data-name="사각형 2740" transform="translate(-17189.092 1643.092)" fill="#fff" stroke="#666" stroke-linecap="round" stroke-linejoin="round" stroke-width="2">
        <rect width="15" height="15" stroke="none"/>
        <rect x="1" y="1" width="13" height="13" fill="none"/>
      </g>
      <g id="사각형_2739" data-name="사각형 2739" transform="translate(-17188.939 1660.328)" fill="#fff" stroke="#666" stroke-linecap="round" stroke-linejoin="round" stroke-width="2">
        <rect width="15" height="15" stroke="none"/>
        <rect x="1" y="1" width="13" height="13" fill="none"/>
      </g>
      <line id="선_322" data-name="선 322" x1="4" y2="4" transform="translate(-17196.5 1653.5)" fill="none" stroke="#666" stroke-linecap="round" stroke-width="2"/>
      <line id="선_324" data-name="선 324" x1="3" y2="3" transform="translate(-17199.5 1645.5)" fill="none" stroke="#666" stroke-linecap="round" stroke-width="2"/>
      <line id="선_323" data-name="선 323" x1="9" y2="9" transform="translate(-17201.5 1647.5)" fill="none" stroke="#666" stroke-linecap="round" stroke-width="2"/>
      <g id="사각형_2745" data-name="사각형 2745" transform="translate(-17213 1635.592)" fill="#98c9f4" stroke="#666" stroke-linecap="round" stroke-linejoin="round" stroke-width="2">
        <rect width="15" height="15" stroke="none"/>
        <rect x="1" y="1" width="13" height="13" fill="none"/>
      </g>
    </g>
  </g>
</svg>
