<svg xmlns="http://www.w3.org/2000/svg" width="42" height="42" viewBox="0 0 42 42">
  <g id="그룹_8034" data-name="그룹 8034" transform="translate(-698 -461)">
    <g id="그룹_5220" data-name="그룹 5220" transform="translate(698 461)">
      <rect id="사각형_1854" data-name="사각형 1854" width="42" height="42" fill="none"/>
    </g>
    <g id="그룹_8032" data-name="그룹 8032" transform="translate(131 33.152)">
      <g id="그룹_8033" data-name="그룹 8033">
        <path id="합치기_113" data-name="합치기 113" d="M19446.551,21429.719c-1.176-.078.215-2.809.25-5.156h-.855a4,4,0,0,1-4.008-4v-12a4,4,0,0,1,4.008-4h17a3.991,3.991,0,0,1,4,4v12a3.991,3.991,0,0,1-4,4h-9.059c-3.07,2.422-6.047,5.156-7.289,5.156Z" transform="translate(-18866.938 -20968.719)" fill="#fff"/>
        <path id="합치기_113_-_윤곽선" data-name="합치기 113 - 윤곽선" d="M19449.809,21424c.039-.029.074-.061.111-.09.682-.557,1.387-1.135,2.109-1.7l.816-.645h10.1a.985.985,0,0,0,1-1v-12a.985.985,0,0,0-1-1h-17a1,1,0,0,0-1.008,1v12a1,1,0,0,0,1.008,1h3.9l-.037,2.438m-3.211,5.719h-.047c-1.176-.078.215-2.809.25-5.156h-.855a4,4,0,0,1-4.008-4v-12a4,4,0,0,1,4.008-4h17a3.991,3.991,0,0,1,4,4v12a3.991,3.991,0,0,1-4,4h-9.059C19450.816,21426.984,19447.84,21429.719,19446.6,21429.719Z" transform="translate(-18866.938 -20968.719)" fill="#ec7203"/>
        <path id="선_338" data-name="선 338" d="M13,1H0V-1H13Z" transform="translate(581 442)" fill="#ec7203"/>
        <path id="선_339" data-name="선 339" d="M13,1H0V-1H13Z" transform="translate(581 446)" fill="#ec7203"/>
        <path id="선_340" data-name="선 340" d="M6,1H0V-1H6Z" transform="translate(581 450)" fill="#ec7203"/>
      </g>
    </g>
  </g>
</svg>
