<svg xmlns="http://www.w3.org/2000/svg" width="30" height="30" viewBox="0 0 30 30">
  <g id="그룹_5850" data-name="그룹 5850" transform="translate(-10058 11405)">
    <g id="패스_3281" data-name="패스 3281" transform="translate(10058 -11405)" fill="#fff5cf">
      <path d="M 15 29 C 11.26047039031982 29 7.744760036468506 27.54375076293945 5.100510120391846 24.89949035644531 C 2.456249952316284 22.25523948669434 1 18.73953056335449 1 15 C 1 11.26047039031982 2.456249952316284 7.744760036468506 5.100510120391846 5.100510120391846 C 7.744760036468506 2.456249952316284 11.26047039031982 1 15 1 C 18.73953056335449 1 22.25523948669434 2.456249952316284 24.89949035644531 5.100510120391846 C 27.54375076293945 7.744760036468506 29 11.26047039031982 29 15 C 29 18.73953056335449 27.54375076293945 22.25523948669434 24.89949035644531 24.89949035644531 C 22.25523948669434 27.54375076293945 18.73953056335449 29 15 29 Z" stroke="none"/>
      <path d="M 15 2 C 11.5275707244873 2 8.262990951538086 3.352239608764648 5.807609558105469 5.807609558105469 C 3.352239608764648 8.262990951538086 2 11.5275707244873 2 15 C 2 18.47243118286133 3.352239608764648 21.73701095581055 5.807609558105469 24.19239044189453 C 8.262990951538086 26.64776039123535 11.5275707244873 28 15 28 C 18.47243118286133 28 21.73701095581055 26.64776039123535 24.19239044189453 24.19239044189453 C 26.64776039123535 21.73701095581055 28 18.47243118286133 28 15 C 28 11.5275707244873 26.64776039123535 8.262990951538086 24.19239044189453 5.807609558105469 C 21.73701095581055 3.352239608764648 18.47243118286133 2 15 2 M 15 0 C 23.28426933288574 0 30 6.715730667114258 30 15 C 30 23.28426933288574 23.28426933288574 30 15 30 C 6.715730667114258 30 0 23.28426933288574 0 15 C 0 6.715730667114258 6.715730667114258 0 15 0 Z" stroke="none" fill="#ec7203"/>
    </g>
    <g id="패스_3282" data-name="패스 3282" transform="translate(10063 -11400)" fill="none">
      <path d="M10,0A10,10,0,1,1,0,10,10,10,0,0,1,10,0Z" stroke="none"/>
      <path d="M 10 1 C 5.037380218505859 1 1 5.037380218505859 1 10 C 1 14.96261978149414 5.037380218505859 19 10 19 C 14.96261978149414 19 19 14.96261978149414 19 10 C 19 5.037380218505859 14.96261978149414 1 10 1 M 10 0 C 15.52285003662109 0 20 4.477149963378906 20 10 C 20 15.52285003662109 15.52285003662109 20 10 20 C 4.477149963378906 20 0 15.52285003662109 0 10 C 0 4.477149963378906 4.477149963378906 0 10 0 Z" stroke="none" fill="#ffa554"/>
    </g>
    <text id="P" transform="translate(10069 -11384)" fill="#ec7203" font-size="14" font-family="Helvetica-Bold, Helvetica" font-weight="700"><tspan x="0" y="0">P</tspan></text>
  </g>
</svg>
