<svg xmlns="http://www.w3.org/2000/svg" width="55" height="55" viewBox="0 0 55 55">
  <g id="그룹_5616" data-name="그룹 5616" transform="translate(2301 9951)">
    <path id="패스_3235" data-name="패스 3235" d="M10,0H45A10,10,0,0,1,55,10V45A10,10,0,0,1,45,55H10A10,10,0,0,1,0,45V10A10,10,0,0,1,10,0Z" transform="translate(-2301 -9951)" fill="#ccc"/>
    <path id="합치기_37" data-name="합치기 37" d="M2183.821,11284.605h-9.056a3,3,0,1,1-4.678-2.869v-2.241l-2.77-13.118a.983.983,0,0,1-.023-.184l-1.119-5.2H2161a1,1,0,1,1,0-2h5.983a1,1,0,0,1,.977.79l1.161,5.379h21.007a1,1,0,0,1,.969,1.25l-3.411,13.226a1,1,0,0,1-.969.751h-14.628v.821a3.005,3.005,0,0,1,2.241,1.388h9.926a3,3,0,1,1-.435,2Zm-11.874-6.322a.806.806,0,0,1,.06.113h13.937l2.9-11.227h-19.288Z" transform="translate(-4451.999 -21197)" fill="#fff"/>
  </g>
</svg>
