<svg xmlns="http://www.w3.org/2000/svg" width="116" height="116" viewBox="0 0 116 116">
  <g id="그룹_5501" data-name="그룹 5501" transform="translate(-0.202)">
    <rect id="사각형_2203" data-name="사각형 2203" width="116" height="116" transform="translate(0.202)" fill="none"/>
    <g id="그룹_5360" data-name="그룹 5360" transform="translate(1.131 24.495)">
      <path id="패스_3153" data-name="패스 3153" d="M-22885.607,9858.266l15.982.9" transform="translate(22902.68 -9847.373)" fill="none" stroke="#707070" stroke-linecap="round" stroke-width="2"/>
      <path id="패스_3154" data-name="패스 3154" d="M18.506,0,6.338,5.545A8.367,8.367,0,0,0,2.037,7.2,6.505,6.505,0,0,0,.1,11.589c.01-.017-.595,3.339,1.116,5.144a8.152,8.152,0,0,0,4.524,2.1L17.073,27.66Z" transform="matrix(1, 0.017, -0.017, 1, 26.578, 0)" fill="#98c9f4" stroke="#707070" stroke-linecap="round" stroke-linejoin="round" stroke-width="2"/>
      <path id="패스_3155" data-name="패스 3155" d="M-22869.963,9854.689l-.662,14.167" transform="translate(22903.018 -9849.316)" fill="none" stroke="#707070" stroke-width="2"/>
      <path id="합치기_21" data-name="합치기 21" d="M34.476,51.1l-6.947-21L0,27.684,2.422,0,39.51,3.245l-.006.072,1.531.139a13.9,13.9,0,0,1,.644,27.605L48.8,51.1Z" transform="translate(43.783 0.445)" fill="#ececec" stroke="#707070" stroke-width="2"/>
      <path id="패스_3157" data-name="패스 3157" d="M-22849.182,9870.77a11.1,11.1,0,0,0,2.982,3.682,8.535,8.535,0,0,0,4.166,1.283" transform="translate(22914.42 -9840.57)" fill="none" stroke="#707070" stroke-width="2"/>
      <g id="패스_3164" data-name="패스 3164" transform="matrix(0.996, 0.087, -0.087, 0.996, 70.16, 47.899)" fill="#ececec">
        <path d="M 21.84367942810059 14.43937587738037 L 6.175740242004395 14.43936538696289 C 3.321830272674561 14.43936538696289 1.000000357627869 12.11753559112549 1.000000357627869 9.263625144958496 L 1.000000357627869 6.175745487213135 C 1.000000357627869 3.321825504302979 3.321830272674561 0.9999955296516418 6.175740242004395 0.9999955296516418 L 21.84367942810059 1.000005602836609 C 24.69758987426758 1.000005602836609 27.0194206237793 3.321835517883301 27.0194206237793 6.175745487213135 L 27.0194206237793 9.263625144958496 C 27.0194206237793 12.11754512786865 24.69758987426758 14.43937587738037 21.84367942810059 14.43937587738037 Z" stroke="none"/>
        <path d="M 6.175741195678711 -4.76837158203125e-06 L 6.175741195678711 1.999995231628418 C 3.87322998046875 1.999995231628418 2 3.873225212097168 2 6.175745964050293 L 2 9.263626098632812 C 2 11.56613540649414 3.87322998046875 13.43936538696289 6.175741195678711 13.43936538696289 L 21.84368133544922 13.43937587738037 C 24.14619064331055 13.43937587738037 26.0194206237793 11.56614589691162 26.0194206237793 9.263626098632812 L 26.0194206237793 6.175745964050293 C 26.0194206237793 3.873235702514648 24.14619064331055 2.000005722045898 21.84368133544922 2.000005722045898 L 6.175741195678711 1.999995231628418 L 6.175741195678711 -4.76837158203125e-06 M 6.175741195678711 -4.76837158203125e-06 L 21.84368133544922 5.7220458984375e-06 C 25.25444984436035 5.7220458984375e-06 28.0194206237793 2.764975547790527 28.0194206237793 6.175745964050293 L 28.0194206237793 9.263626098632812 C 28.0194206237793 12.67439556121826 25.25444984436035 15.43937587738037 21.84368133544922 15.43937587738037 L 6.175741195678711 15.43936538696289 C 2.764970779418945 15.43936538696289 0 12.67439556121826 0 9.263626098632812 L 0 6.175745964050293 C 0 2.764975547790527 2.764970779418945 -4.76837158203125e-06 6.175741195678711 -4.76837158203125e-06 Z" stroke="none" fill="#707070"/>
      </g>
      <path id="패스_3158" data-name="패스 3158" d="M-22843.25,9886.551l15.559,1.025" transform="translate(22914.076 -9831.987)" fill="none" stroke="#707070" stroke-linecap="round" stroke-width="1"/>
      <path id="패스_3159" data-name="패스 3159" d="M-22843.25,9889.085l24.965,1.771" transform="translate(22914.324 -9830.473)" fill="none" stroke="#707070" stroke-linecap="round" stroke-width="1" stroke-dasharray="2 2"/>
      <path id="패스_3160" data-name="패스 3160" d="M-22841.676,9886.574l7.277.389" transform="translate(22930.852 -9872.584)" fill="none" stroke="#707070" stroke-linecap="round" stroke-width="1"/>
      <path id="패스_3162" data-name="패스 3162" d="M-22841.676,9886.574l7.277.389" transform="translate(22930.852 -9866.409)" fill="none" stroke="#707070" stroke-linecap="round" stroke-width="1"/>
      <path id="패스_3161" data-name="패스 3161" d="M-22836.262,9924.473l12.641.8" transform="translate(22921.451 -9907.55)" fill="none" stroke="#707070" stroke-linecap="round" stroke-width="1"/>
      <path id="패스_3163" data-name="패스 3163" d="M-22858.77,9915l-1.572,21.039-.291,3.9" transform="translate(22909.412 -9912.693)" fill="none" stroke="#707070" stroke-linecap="round" stroke-width="1" stroke-dasharray="2 2"/>
    </g>
  </g>
</svg>
