<svg data-name="그룹 4870" xmlns="http://www.w3.org/2000/svg" width="42" height="42"><path data-name="사각형 1853" fill="none" d="M0 0h42v42H0z"/><path data-name="Icon awesome-shopping-bag" d="M26.8 16.275V14.7a6.4 6.4 0 0 0-12.8 0v1.575H9.2v13.387a3.969 3.969 0 0 0 4 3.938h14.4a3.969 3.969 0 0 0 4-3.937V16.275ZM17.2 14.7a3.2 3.2 0 0 1 6.4 0v1.575h-6.4Zm8 5.906a1.181 1.181 0 1 1 1.2-1.181 1.191 1.191 0 0 1-1.2 1.181Zm-9.6 0a1.181 1.181 0 1 1 1.2-1.181 1.191 1.191 0 0 1-1.2 1.181Z" fill="#999"/></svg>