<svg xmlns="http://www.w3.org/2000/svg" width="50" height="50" viewBox="0 0 50 50">
  <g id="그룹_7924" data-name="그룹 7924" transform="translate(21629 5096)">
    <g id="그룹_7904" data-name="그룹 7904" transform="translate(-21629 -5096)">
      <circle id="타원_236" data-name="타원 236" cx="25" cy="25" r="25" fill="#16284c"/>
    </g>
    <g id="그룹_7905" data-name="그룹 7905" transform="translate(-1.328 -0.329)">
      <path id="합치기_105" data-name="합치기 105" d="M23.516,6.432H8.795a4.725,4.725,0,0,1-4.32,2.757A4.7,4.7,0,0,1,0,6.041a1.52,1.52,0,0,0,.507.086H2.944a1.532,1.532,0,0,0,0-3.064H.508A1.514,1.514,0,0,0,0,3.149,4.7,4.7,0,0,1,4.475,0a4.725,4.725,0,0,1,4.32,2.757H23.516a4.756,4.756,0,0,1,8.791.392,1.532,1.532,0,0,0-.508-.086H29.365a1.532,1.532,0,0,0,0,3.064H31.8a1.521,1.521,0,0,0,.508-.086,4.756,4.756,0,0,1-8.791.392Z" transform="translate(-21612.174 -5085.671) rotate(45)" fill="#fff"/>
      <path id="합치기_106" data-name="합치기 106" d="M1.838,26.988l-1.3-1.3a1.839,1.839,0,0,1,0-2.6L16.132,7.5a1.851,1.851,0,0,1,.187-.164c.153-1.111.243-3.256-1.065-4.37C13.442,1.417,8.944,1.854,8.944,1.854A20.768,20.768,0,0,1,15,.02a9.255,9.255,0,0,1,4.819,1.067s3.455,2.4,4.436,4.307a5.892,5.892,0,0,1,.513,3.64l1.7,1.7a1,1,0,0,1,1.354.055l.535.535a1,1,0,0,1,0,1.414L25.87,15.219a1,1,0,0,1-1.414,0l-.535-.535a1,1,0,0,1-.055-1.354l-1.919-1.919H20.014L4.437,26.988a1.837,1.837,0,0,1-2.6,0Zm-.65-3.249a.92.92,0,0,0,0,1.3l1.3,1.3a.92.92,0,0,0,1.3,0L19.141,10.985l-2.6-2.6Z" transform="translate(-21615.881 -5085.671)" fill="#fff"/>
    </g>
  </g>
</svg>
