<svg xmlns="http://www.w3.org/2000/svg" width="70" height="70" viewBox="0 0 70 70">
  <g id="그룹_8037" data-name="그룹 8037" transform="translate(24733 -1687)">
    <rect id="사각형_2202" data-name="사각형 2202" width="70" height="70" transform="translate(-24733 1687)" fill="none"/>
    <g id="그룹_8003" data-name="그룹 8003" transform="translate(117.404 -41)">
      <g id="그룹_8002" data-name="그룹 8002">
        <g id="사각형_2814" data-name="사각형 2814" transform="translate(-24839.082 1767)" fill="#ececec" stroke="#666" stroke-width="2">
          <rect width="48" height="20" stroke="none"/>
          <rect x="1" y="1" width="46" height="18" fill="none"/>
        </g>
        <g id="패스_3521" data-name="패스 3521" transform="translate(-24829.18 1750)" fill="#98c9f4">
          <path d="M 38.19265365600586 18.10070419311523 L -11.31595230102539 18.10070419311523 L 0.5239328742027283 1.000004053115845 L 25.35955047607422 1.000004053115845 L 38.19265365600586 18.10070419311523 Z" stroke="none"/>
          <path d="M 1.0478515625 2.000003814697266 L -9.407310485839844 17.10070419311523 L 36.19194030761719 17.10070419311523 L 24.85973167419434 2.000003814697266 L 1.0478515625 2.000003814697266 M -5.7220458984375e-06 3.814697265625e-06 L 25.859375 3.814697265625e-06 L 40.19335556030273 19.10070419311523 L -13.22461318969727 19.10070419311523 L -5.7220458984375e-06 3.814697265625e-06 Z" stroke="none" fill="#666"/>
        </g>
        <g id="사각형_2815" data-name="사각형 2815" transform="translate(-24833.082 1774)" fill="#fff" stroke="#666" stroke-width="2">
          <rect width="10" height="13" stroke="none"/>
          <rect x="1" y="1" width="8" height="11" fill="none"/>
        </g>
        <g id="사각형_2816" data-name="사각형 2816" transform="translate(-24798.082 1773) rotate(90)" fill="#fff" stroke="#666" stroke-width="2">
          <rect width="8" height="11" stroke="none"/>
          <rect x="1" y="1" width="6" height="9" fill="none"/>
        </g>
        <path id="패스_3522" data-name="패스 3522" d="M-24918.816,1590.035l11.527,16.708" transform="translate(90.918 161)" fill="none" stroke="#666" stroke-width="2"/>
        <line id="선_335" data-name="선 335" y2="18" transform="translate(-24816.371 1767.5)" fill="none" stroke="#666" stroke-width="2"/>
      </g>
      <g id="패스_3512" data-name="패스 3512" transform="translate(-24809.215 1764.716) rotate(-135)" fill="#fff" stroke-linecap="round" stroke-linejoin="round">
        <path d="M 2.451945543289185 10.24181747436523 C 2.890644311904907 9.104146957397461 3.245643138885498 7.763915061950684 3.245643138885498 6.405393123626709 C 3.245643138885498 5.082113265991211 2.908795118331909 3.776114702224731 2.485880613327026 2.657830238342285 C 3.642292261123657 3.178586006164551 5.012922286987305 3.603753089904785 6.405393123626709 3.603753089904785 C 7.663254261016846 3.603753089904785 8.902999877929688 3.256942510604858 9.983376502990723 2.806020021438599 C 9.521265983581543 3.891463756561279 9.164813041687012 5.139080047607422 9.164813041687012 6.405393123626709 C 9.164813041687012 7.70953893661499 9.542852401733398 8.993785858154297 10.0250358581543 10.10153770446777 C 8.935086250305176 9.660327911376953 7.679158687591553 9.318062782287598 6.405393123626709 9.318062782287598 C 4.999608039855957 9.318062782287598 3.615084648132324 9.735148429870605 2.451945543289185 10.24181747436523 Z" stroke="none"/>
        <path d="M 4.009548187255859 4.271193504333496 C 4.166626930236816 5.005792617797852 4.24564266204834 5.718472480773926 4.24564266204834 6.405393123626709 C 4.24564266204834 7.125203609466553 4.15888500213623 7.873269557952881 3.986453056335449 8.645237922668457 C 4.820239067077637 8.427572250366211 5.628180980682373 8.318063735961914 6.405393123626709 8.318063735961914 C 7.061607360839844 8.318063735961914 7.739872455596924 8.39616584777832 8.436991691589355 8.551492691040039 C 8.255874633789062 7.814940929412842 8.164802551269531 7.098411083221436 8.164802551269531 6.405393123626709 C 8.164802551269531 5.746613502502441 8.24714469909668 5.066393375396729 8.410854339599609 4.368114471435547 C 7.723507404327393 4.524904251098633 7.053955078125 4.603753089904785 6.405393123626709 4.603753089904785 C 5.634597301483154 4.603753089904785 4.834338188171387 4.492425918579102 4.009548187255859 4.271193504333496 M 2.86102294921875e-06 2.86102294921875e-06 C 2.86102294921875e-06 2.86102294921875e-06 3.202692985534668 2.603753089904785 6.405393123626709 2.603753089904785 C 9.60809326171875 2.603753089904785 12.81078338623047 2.86102294921875e-06 12.81078338623047 2.86102294921875e-06 C 12.81078338623047 2.86102294921875e-06 10.16480255126953 3.202692985534668 10.16480255126953 6.405393123626709 C 10.16480255126953 9.60809326171875 12.81078338623047 12.81078338623047 12.81078338623047 12.81078338623047 C 12.81078338623047 12.81078338623047 9.60809326171875 10.3180627822876 6.405393123626709 10.3180627822876 C 3.202692985534668 10.3180627822876 2.86102294921875e-06 12.81078338623047 2.86102294921875e-06 12.81078338623047 C 2.86102294921875e-06 12.81078338623047 2.24564266204834 9.60809326171875 2.24564266204834 6.405393123626709 C 2.24564266204834 3.202692985534668 2.86102294921875e-06 2.86102294921875e-06 2.86102294921875e-06 2.86102294921875e-06 Z" stroke="none" fill="#666"/>
      </g>
      <g id="패스_3513" data-name="패스 3513" transform="translate(-24829.676 1754.198) rotate(-135)" fill="#fff" stroke-linecap="round" stroke-linejoin="round">
        <path d="M 2.334444522857666 8.302327156066895 C 2.647450923919678 7.411289691925049 2.883840084075928 6.398972988128662 2.883840084075928 5.373390197753906 C 2.883840084075928 4.377884387969971 2.661116123199463 3.394894361495972 2.361778736114502 2.52315878868103 C 3.273125886917114 2.898176431655884 4.315211296081543 3.184250116348267 5.373390197753906 3.184250116348267 C 6.317402362823486 3.184250116348267 7.248698711395264 2.956546783447266 8.085666656494141 2.641171932220459 C 7.761698722839355 3.4832923412323 7.52711009979248 4.4217529296875 7.52711009979248 5.373390197753906 C 7.52711009979248 6.35701847076416 7.777660369873047 7.326373100280762 8.118564605712891 8.190021514892578 C 7.273092746734619 7.88062858581543 6.329611301422119 7.655670166015625 5.373390197753906 7.655670166015625 C 4.304912567138672 7.655670166015625 3.252124309539795 7.936631679534912 2.334444522857666 8.302327156066895 Z" stroke="none"/>
        <path d="M 3.770932197570801 4.010598182678223 C 3.842450618743896 4.454864025115967 3.883830070495605 4.911621570587158 3.883830070495605 5.373390197753906 C 3.883830070495605 5.866650581359863 3.836670398712158 6.353845119476318 3.755933284759521 6.826589584350586 C 4.279422760009766 6.719400882720947 4.822481155395508 6.655670166015625 5.373390197753906 6.655670166015625 C 5.809433460235596 6.655670166015625 6.240501403808594 6.695580959320068 6.660840511322021 6.76536750793457 C 6.576051235198975 6.312105178833008 6.52711009979248 5.84598970413208 6.52711009979248 5.373390197753906 C 6.52711009979248 4.932915687561035 6.569685459136963 4.497738838195801 6.644117832183838 4.073654651641846 C 6.229110240936279 4.144104480743408 5.803846836090088 4.184250354766846 5.373390197753906 4.184250354766846 C 4.827458381652832 4.184250354766846 4.289748191833496 4.119654178619385 3.770932197570801 4.010598182678223 M 0 0 C 0 0 2.686690330505371 2.184249877929688 5.373390197753906 2.184249877929688 C 8.060080528259277 2.184249877929688 10.74678039550781 0 10.74678039550781 0 C 10.74678039550781 0 8.52711009979248 2.686690330505371 8.52711009979248 5.373390197753906 C 8.52711009979248 8.060080528259277 10.74678039550781 10.74678039550781 10.74678039550781 10.74678039550781 C 10.74678039550781 10.74678039550781 8.060080528259277 8.655670166015625 5.373390197753906 8.655670166015625 C 2.686690330505371 8.655670166015625 0 10.74678039550781 0 10.74678039550781 C 0 10.74678039550781 1.883830070495605 8.060080528259277 1.883830070495605 5.373390197753906 C 1.883830070495605 2.686690330505371 0 0 0 0 Z" stroke="none" fill="#666"/>
      </g>
    </g>
  </g>
</svg>
