<svg xmlns="http://www.w3.org/2000/svg" width="70" height="70" viewBox="0 0 70 70">
  <g id="그룹_8027" data-name="그룹 8027" transform="translate(17003 -1629)">
    <rect id="사각형_2204" data-name="사각형 2204" width="70" height="70" transform="translate(-17003 1629)" fill="none"/>
    <g id="그룹_7795" data-name="그룹 7795" transform="translate(4.051 5.699)">
      <g id="패스_3433" data-name="패스 3433" transform="translate(-16998.051 1663.246) rotate(-45)" fill="#ececec" stroke-linecap="round">
        <path d="M 35.25059509277344 35.23335647583008 L 10.1417407989502 26.7300910949707 L 1.590242743492126 1.571222066879272 L 26.96435546875 9.856596946716309 L 35.25059509277344 35.23335647583008 Z" stroke="none"/>
        <path d="M 3.180484771728516 3.142436981201172 L 10.92977523803711 25.94117736816406 L 33.68024444580078 33.64575958251953 L 26.17134284973145 10.64961051940918 L 3.180484771728516 3.142436981201172 M -3.814697265625e-06 -3.814697265625e-06 L 27.75737762451172 9.063575744628906 L 36.82095718383789 36.82095718383789 L 9.353706359863281 27.51900672912598 L -3.814697265625e-06 -3.814697265625e-06 Z" stroke="none" fill="#666"/>
      </g>
      <g id="패스_3434" data-name="패스 3434" transform="translate(-16998.051 1658.5) rotate(-45)" fill="#fff" stroke-linecap="round">
        <path d="M 35.25059509277344 35.23335647583008 L 10.1417407989502 26.7300910949707 L 1.590242743492126 1.571222066879272 L 26.96435546875 9.856596946716309 L 35.25059509277344 35.23335647583008 Z" stroke="none"/>
        <path d="M 3.180484771728516 3.142436981201172 L 10.92977523803711 25.94117736816406 L 33.68024444580078 33.64575958251953 L 26.17134284973145 10.64961051940918 L 3.180484771728516 3.142436981201172 M -3.814697265625e-06 -3.814697265625e-06 L 27.75737762451172 9.063575744628906 L 36.82095718383789 36.82095718383789 L 9.353706359863281 27.51900672912598 L -3.814697265625e-06 -3.814697265625e-06 Z" stroke="none" fill="#666"/>
      </g>
      <g id="패스_3435" data-name="패스 3435" transform="translate(-16998.051 1653.338) rotate(-45)" fill="#98c9f4" stroke-linecap="round">
        <path d="M 35.25059509277344 35.23335647583008 L 10.1417407989502 26.7300910949707 L 1.590242743492126 1.571222066879272 L 26.96435546875 9.856596946716309 L 35.25059509277344 35.23335647583008 Z" stroke="none"/>
        <path d="M 3.180484771728516 3.142436981201172 L 10.92977523803711 25.94117736816406 L 33.68024444580078 33.64575958251953 L 26.17134284973145 10.64961051940918 L 3.180484771728516 3.142436981201172 M -3.814697265625e-06 -3.814697265625e-06 L 27.75737762451172 9.063575744628906 L 36.82095718383789 36.82095718383789 L 9.353706359863281 27.51900672912598 L -3.814697265625e-06 -3.814697265625e-06 Z" stroke="none" fill="#666"/>
      </g>
      <path id="패스_3442" data-name="패스 3442" d="M-16969.078,1671.246a5.414,5.414,0,0,1,1.82,2.794,7.12,7.12,0,0,1-.361,3.325l24.66-11.747a4.249,4.249,0,0,0,0-3.108,4.148,4.148,0,0,0-2.3-2.138Z" transform="translate(-3.573 -12.581)" fill="#98c9f4" stroke="#666" stroke-linecap="round" stroke-linejoin="round" stroke-width="2"/>
    </g>
  </g>
</svg>
