<svg xmlns="http://www.w3.org/2000/svg" width="50" height="50" viewBox="0 0 50 50">
  <g id="그룹_7916" data-name="그룹 7916" transform="translate(21907 5212)">
    <g id="그룹_7912" data-name="그룹 7912" transform="translate(-21907 -5212)">
      <circle id="타원_236" data-name="타원 236" cx="25" cy="25" r="25" fill="#16284c"/>
    </g>
    <g id="그룹_7915" data-name="그룹 7915" transform="translate(-0.999 3)">
      <g id="그룹_4856" data-name="그룹 4856" transform="translate(-21896.5 -5201.834)">
        <g id="그룹_4852" data-name="그룹 4852" transform="translate(0.499 -0.167)">
          <path id="합치기_7" data-name="합치기 7" d="M17.785,24.965a1.5,1.5,0,0,1,0-3h2a1.5,1.5,0,0,1,1.442,1.088,4.639,4.639,0,0,0,2.692-1.013,4.672,4.672,0,0,0,.94-2.092H23.214V9.862h.818a14.7,14.7,0,0,0-.97-3.057,8.69,8.69,0,0,0-8.275-5.142A8.851,8.851,0,0,0,6.467,6.8a15.078,15.078,0,0,0-1.1,3.057h1.42V19.948H5a4,4,0,0,1-4-4V13.862A4,4,0,0,1,3.32,10.231a16.6,16.6,0,0,1,1.319-3.97A10.712,10.712,0,0,1,14.786,0a10.237,10.237,0,0,1,9.936,6.291A16.057,16.057,0,0,1,25.839,9.95,4,4,0,0,1,29,13.862v2.086a4,4,0,0,1-2.836,3.829,6.056,6.056,0,0,1-1.345,3.046,5.823,5.823,0,0,1-3.74,1.4,1.5,1.5,0,0,1-1.292.739Z" transform="translate(0 0.001)" fill="#fff"/>
        </g>
      </g>
      <g id="그룹_7914" data-name="그룹 7914" transform="translate(2.608 0.608)">
        <path id="빼기_27" data-name="빼기 27" d="M7.909,12a1.327,1.327,0,0,1-.95-.4,1.364,1.364,0,0,0-1.919,0,1.328,1.328,0,0,1-.95.4,1.359,1.359,0,0,1-1.374-1.36A1.368,1.368,0,0,0,1.36,9.283,1.364,1.364,0,0,1,.4,6.959,1.368,1.368,0,0,0,.4,5.04,1.364,1.364,0,0,1,1.36,2.716,1.368,1.368,0,0,0,2.717,1.359,1.359,1.359,0,0,1,4.091,0a1.328,1.328,0,0,1,.95.4A1.355,1.355,0,0,0,6,.792,1.355,1.355,0,0,0,6.959.4a1.328,1.328,0,0,1,.95-.4A1.359,1.359,0,0,1,9.283,1.359,1.368,1.368,0,0,0,10.64,2.716,1.364,1.364,0,0,1,11.6,5.04a1.369,1.369,0,0,0,0,1.919,1.364,1.364,0,0,1-.962,2.324A1.368,1.368,0,0,0,9.283,10.64,1.359,1.359,0,0,1,7.909,12ZM6,2.846A3.154,3.154,0,1,0,9.153,6,3.157,3.157,0,0,0,6,2.846Z" transform="translate(-21889.609 -5195.608)" fill="#fff"/>
      </g>
    </g>
  </g>
</svg>
