<svg xmlns="http://www.w3.org/2000/svg" width="20.501" height="20.5" viewBox="0 0 20.501 20.5">
  <g id="그룹_4989" data-name="그룹 4989" transform="translate(0.501 0.5)">
    <path id="빼기_9" data-name="빼기 9" d="M.791,7.756A.85.85,0,0,1,.171,7.5a.591.591,0,0,1-.165-.5A10.84,10.84,0,0,1,1.614,2.553,5.544,5.544,0,0,1,5.264,0,6.737,6.737,0,0,0,9.871,1.773,6.734,6.734,0,0,0,14.477,0a5.925,5.925,0,0,1,1,.338A4.789,4.789,0,0,0,11.19,4.871a4.238,4.238,0,0,0,1.1,2.836C9.286,7.74,5.417,7.756.791,7.756Z" transform="translate(0 11.25)" fill="#fff" stroke="rgba(0,0,0,0)" stroke-miterlimit="10" stroke-width="1"/>
    <path id="Op_component_2" data-name="Op component 2" d="M337.683,41.622c.1.112.2.219.3.322a4.715,4.715,0,0,0,6.815,0c.1-.1.2-.21.3-.322s.189-.227.276-.347a6.083,6.083,0,0,0,1.138-3.576c0-3.144-2.3-5.7-5.122-5.7s-5.122,2.558-5.122,5.7a6.082,6.082,0,0,0,1.138,3.576C337.494,41.4,337.587,41.51,337.683,41.622Z" transform="translate(-331.843 -31.998)" fill="#fff" stroke="rgba(0,0,0,0)" stroke-miterlimit="10" stroke-width="1"/>
    <path id="빼기_10" data-name="빼기 10" d="M3.757,7.515A3.757,3.757,0,1,1,7.515,3.757,3.762,3.762,0,0,1,3.757,7.515ZM1.449,3.351a.413.413,0,1,0,0,.827H3.34v1.9a.413.413,0,1,0,.826,0v-1.9h1.9a.413.413,0,1,0,0-.827h-1.9v-1.9a.413.413,0,1,0-.826,0v1.9Z" transform="translate(12.485 12.485)" fill="#fff"/>
  </g>
</svg>
