<svg xmlns="http://www.w3.org/2000/svg" width="70" height="70" viewBox="0 0 70 70">
  <g id="그룹_5496" data-name="그룹 5496" transform="translate(5455 11695)">
    <rect id="사각형_2197" data-name="사각형 2197" width="70" height="70" transform="translate(-5455 -11695)" fill="none"/>
    <g id="그룹_5368" data-name="그룹 5368" transform="translate(18469.607 -21527.133)">
      <g id="패스_3130" data-name="패스 3130" transform="translate(-23908.357 9846.731) rotate(-8)" fill="#98c9f4">
        <path d="M 8.98429012298584 5.685540676116943 C 7.482300281524658 5.685540676116943 5.214250087738037 5.682080745697021 5.214080333709717 5.682080745697021 C 5.21081018447876 5.682080745697021 3.012590408325195 5.685540676116943 1.510640263557434 5.685540676116943 C 1.374266147613525 5.685540676116943 1.251715779304504 5.685511112213135 1.141634821891785 5.685457706451416 C 1.23592734336853 4.720933437347412 1.554619550704956 3.129670858383179 2.492250204086304 2.080190658569336 C 3.141640424728394 1.353330612182617 3.981940269470215 1.000000596046448 5.061180114746094 1.000000596046448 C 6.64555025100708 1.000000596046448 7.772820472717285 1.778840661048889 8.507410049438477 3.381030559539795 C 8.731311798095703 3.869382858276367 9.003519058227539 4.630965232849121 9.167219161987305 5.685521602630615 C 9.109366416931152 5.685534000396729 9.048449516296387 5.685540676116943 8.98429012298584 5.685540676116943 Z" stroke="none"/>
        <path d="M 5.061180114746094 2.000000476837158 C 4.292570114135742 2.000000476837158 3.725540161132812 2.223720550537109 3.276700496673584 2.704050540924072 C 2.777573108673096 3.23820948600769 2.485138416290283 3.99316930770874 2.317372798919678 4.685277462005615 C 3.691715240478516 4.684470176696777 5.209119319915771 4.682080745697021 5.209410190582275 4.682080745697021 L 5.215610504150391 4.682080745697021 C 5.215610504150391 4.682080745697021 6.602665901184082 4.684197425842285 7.925426483154297 4.68511962890625 C 7.817878723144531 4.3185715675354 7.702207088470459 4.024209499359131 7.598400115966797 3.797800540924072 C 6.867810249328613 2.20434045791626 5.858700275421143 2.000000476837158 5.061180114746094 2.000000476837158 M 5.061180114746094 4.76837158203125e-07 C 10.17092990875244 4.76837158203125e-07 10.25006008148193 6.674300670623779 10.28402042388916 6.682080745697021 C 10.31798076629639 6.689860820770264 5.212560176849365 6.682080745697021 5.212560176849365 6.682080745697021 C 5.212560653686523 6.682080745697021 0.2642126083374023 6.689860820770264 0.1410999298095703 6.682080745697021 C 0.0179901123046875 6.674300670623779 -0.04856014251708984 4.76837158203125e-07 5.061180114746094 4.76837158203125e-07 Z" stroke="none" fill="#666"/>
      </g>
      <path id="합치기_19" data-name="합치기 19" d="M7.344,16.919h0Zm0,0s-5.938-.662-5.938-6.573V4.061C-.026,3.846,0,2.885,0,2.885V0H47.768V2.336c0,.541-.129,1.516-1.99,1.657v6.867s.257,5.956-6.364,5.956c-6.138,0-28.91.1-32.07.1Z" transform="translate(-23913.607 9872.254)" fill="#ececec" stroke="#666" stroke-width="2"/>
      <path id="패스_3128" data-name="패스 3128" d="M-23905.445,9891.015l1.086-2.111" transform="translate(-0.07 0.27)" fill="none" stroke="#666" stroke-linecap="round" stroke-width="2"/>
      <path id="패스_3152" data-name="패스 3152" d="M-23902.785,9891.1l-1.574-2.194" transform="translate(29.93 0.27)" fill="none" stroke="#666" stroke-linecap="round" stroke-width="2"/>
      <path id="패스_3129" data-name="패스 3129" d="M-23912.2,9872.254v-26.188s1.139-2.933,4.012-2.933,4.307,2.933,4.307,2.933" fill="none" stroke="#666" stroke-linecap="round" stroke-linejoin="round" stroke-width="2"/>
      <path id="패스_3131" data-name="패스 3131" d="M-23908.395,9852.649l11.541-1.648" transform="translate(0 -0.17)" fill="none" stroke="#666" stroke-linecap="round" stroke-width="2"/>
      <path id="패스_3132" data-name="패스 3132" d="M-23905.215,9855.2l.146,2.515.639,10.9" fill="none" stroke="#666" stroke-linecap="round" stroke-width="2" stroke-dasharray="2 4"/>
      <path id="패스_3133" data-name="패스 3133" d="M-23905.215,9855.2l.785,13.412" transform="matrix(0.995, -0.105, 0.105, 0.995, -1157.803, -2444.71)" fill="none" stroke="#666" stroke-linecap="round" stroke-width="2" stroke-dasharray="2 4"/>
      <path id="패스_3134" data-name="패스 3134" d="M-23905.215,9855.2l.785,13.412" transform="matrix(0.978, -0.208, 0.208, 0.978, -2565.477, -4755.589)" fill="none" stroke="#666" stroke-linecap="round" stroke-width="2" stroke-dasharray="2 4"/>
      <path id="패스_3135" data-name="패스 3135" d="M-23912.2,9876.27h2.984" fill="none" stroke="#666" stroke-linecap="round" stroke-width="2"/>
      <path id="패스_3136" data-name="패스 3136" d="M-23912.2,9876.27h2.984" transform="translate(42)" fill="none" stroke="#666" stroke-linecap="round" stroke-width="2"/>
      <path id="패스_3137" data-name="패스 3137" d="M-23884.852,9846.147h2.18" fill="none" stroke="#666" stroke-linecap="round" stroke-width="2"/>
      <path id="패스_3138" data-name="패스 3138" d="M-23882.531,9845.638a2.368,2.368,0,0,1,2.18-2.321h11.092s-2.357-.417-2.225,2.321,0,16.012,0,16.012h-11.047Z" fill="#98c9f4" stroke="#666" stroke-linecap="round" stroke-width="2"/>
      <path id="패스_3139" data-name="패스 3139" d="M-23869.26,9843.332a1.931,1.931,0,0,1,1.844,2.092c.023,2.06,0,7.885,0,7.885" fill="none" stroke="#666" stroke-linecap="round" stroke-linejoin="round" stroke-width="2"/>
      <path id="패스_3140" data-name="패스 3140" d="M-23868.332,9846.3h2.635" fill="none" stroke="#666" stroke-linecap="round" stroke-width="2"/>
    </g>
  </g>
</svg>
