<svg id="그룹_4866" data-name="그룹 4866" xmlns="http://www.w3.org/2000/svg" width="35" height="35" viewBox="0 0 35 35">
  <path id="합치기_10" data-name="합치기 10" d="M16.79,14.606a2.332,2.332,0,1,1,2.331,2.331A2.331,2.331,0,0,1,16.79,14.606Zm-13.987,0a2.331,2.331,0,1,1,2.331,2.331A2.331,2.331,0,0,1,2.8,14.606Zm12.539,0H14.289V3.352h6.049l2.751,4.5V14.6H22.24a3.5,3.5,0,0,0-6.9,0h0Zm.838-5.628h4.9V8.15L19.232,5.13H16.179ZM1.305,14.606H0V0H14.287V14.6H8.3a3.5,3.5,0,1,0-6.994,0h0Z" transform="translate(5.42 9.382)" fill="#2e4e8e"/>
  <rect id="사각형_1974" data-name="사각형 1974" width="35" height="35" fill="none"/>
</svg>
