<svg xmlns="http://www.w3.org/2000/svg" width="70" height="70" viewBox="0 0 70 70">
  <g id="그룹_8470" data-name="그룹 8470" transform="translate(16791 21420)">
    <g id="그룹_8357" data-name="그룹 8357" transform="translate(36.03 56)">
      <g id="그룹_8350" data-name="그룹 8350" transform="translate(-16808.029 -21451.883)">
        <g id="패스_3587" data-name="패스 3587" transform="translate(0.148 2.525)" fill="#fff">
          <path d="M 15.31192874908447 24.35941123962402 C 11.49551868438721 24.35941123962402 7.897348880767822 23.0620002746582 5.180218696594238 20.70618057250977 C 3.882088661193848 19.58066940307617 2.863478660583496 18.27952003479004 2.15268874168396 16.83889007568359 C 1.425708770751953 15.36546039581299 1.057098746299744 13.81416988372803 1.057098746299744 12.22813034057617 C 1.057098746299744 11.28439044952393 1.00351870059967 10.33480072021484 0.9516987204551697 9.41649055480957 C 0.861778736114502 7.822850227355957 0.7768387198448181 6.317590236663818 0.9628087282180786 4.950610160827637 C 1.158398747444153 3.512890338897705 1.630048751831055 2.440640211105347 2.447118759155273 1.576170325279236 C 4.419708728790283 -0.5108596682548523 8.627819061279297 -1.525389671325684 15.31192874908447 -1.525389671325684 C 21.99603843688965 -1.525389671325684 26.20415878295898 -0.5108596682548523 28.17673873901367 1.576170325279236 C 28.99380874633789 2.440640211105347 29.46545791625977 3.512890338897705 29.66104888916016 4.950610160827637 C 29.84701919555664 6.317580223083496 29.7620792388916 7.822840213775635 29.67215919494629 9.41648006439209 C 29.62033843994141 10.33480072021484 29.56675910949707 11.28439044952393 29.56675910949707 12.22813034057617 C 29.56675910949707 13.81416988372803 29.19814872741699 15.36546039581299 28.47116851806641 16.83889007568359 C 27.76037788391113 18.27952003479004 26.74176788330078 19.58066940307617 25.44363784790039 20.70618057250977 C 22.72650909423828 23.0620002746582 19.12833786010742 24.35941123962402 15.31192874908447 24.35941123962402 Z" stroke="none"/>
          <path d="M 15.31193256378174 -0.525390625 C 9.006532669067383 -0.525390625 4.922693252563477 0.41278076171875 3.173871994018555 2.263071060180664 C 1.641153335571289 3.884710311889648 1.784332275390625 6.422100067138672 1.950113296508789 9.360139846801758 C 2.002712249755859 10.2923002243042 2.057102203369141 11.25619983673096 2.057102203369141 12.22813034057617 C 2.057102203369141 15.09562015533447 3.398893356323242 17.83819007873535 5.835311889648438 19.95063018798828 C 8.370632171630859 22.1488094329834 11.73615264892578 23.35940933227539 15.31193256378174 23.35940933227539 C 18.88770294189453 23.35940933227539 22.25323295593262 22.1488094329834 24.78855323791504 19.95063018798828 C 27.22496223449707 17.83819007873535 28.56675338745117 15.09562015533447 28.56675338745117 12.22813034057617 C 28.56675338745117 11.25619029998779 28.62114334106445 10.2923002243042 28.67374229431152 9.360139846801758 C 28.83952331542969 6.422100067138672 28.98270225524902 3.884710311889648 27.44998168945312 2.263071060180664 C 25.70116233825684 0.41278076171875 21.61733245849609 -0.525390625 15.31193256378174 -0.525390625 M 15.31193256378174 -2.525390625 C 33.7159423828125 -2.525390625 30.56675338745117 5.113559722900391 30.56675338745117 12.22813034057617 C 30.56675338745117 19.34270095825195 23.73694229125977 25.35940933227539 15.31193256378174 25.35940933227539 C 6.886922836303711 25.35940933227539 0.05710220336914062 19.34270095825195 0.05710220336914062 12.22813034057617 C 0.05710220336914062 5.113559722900391 -3.09208869934082 -2.525390625 15.31193256378174 -2.525390625 Z" stroke="none" fill="#16284c"/>
        </g>
      </g>
      <path id="합치기_125" data-name="합치기 125" d="M3.45,3.158,4.776,1.463l8.637,4.663L22.169.947,23.2,2.789,19.294,9.937l-5.8-2.99L7.946,10.233Z" transform="translate(-16805.453 -21426.502)" fill="#16284c"/>
      <circle id="타원_281" data-name="타원 281" cx="2" cy="2" r="2" transform="translate(-16801 -21440)" fill="#16284c"/>
      <circle id="타원_282" data-name="타원 282" cx="2" cy="2" r="2" transform="translate(-16787 -21440)" fill="#16284c"/>
      <g id="그룹_8356" data-name="그룹 8356">
        <g id="그룹_8355" data-name="그룹 8355">
          <g id="타원_283" data-name="타원 283" transform="translate(-16795 -21466)" fill="#16284c" stroke="#16284c" stroke-width="1">
            <circle cx="3" cy="3" r="3" stroke="none"/>
            <circle cx="3" cy="3" r="2.5" fill="none"/>
          </g>
          <path id="패스_3597" data-name="패스 3597" d="M10,1H21A10,10,0,0,1,31,11V22L16,17.828,0,22V11A10,10,0,0,1,10,1Z" transform="translate(-16808 -21465)" fill="#16284c"/>
          <path id="패스_3598" data-name="패스 3598" d="M-16751.34-21416.445s1.471,2.895,4.246,1.984,3.928-5.422,11.453-5.094,9.23,4.184,10.693,5.094,4.332-1.529,4.332-1.529.463-2.205-2.213-5.533-7.518-4.391-7.518-4.391a35.456,35.456,0,0,0-5.295-.457,36.551,36.551,0,0,0-5.346.457s-4.578,1-7.318,4.035S-16751.34-21416.445-16751.34-21416.445Z" transform="translate(-56.648 -26.512)" fill="#fff" stroke="#16284c" stroke-width="2"/>
        </g>
        <text id="코코수리" transform="translate(-16792 -21454)" fill="#ec7203" font-size="7" font-family="NotoSansCJKkr-Bold, Noto Sans CJK KR" font-weight="700"><tspan x="-12.88" y="0">코코수리</tspan></text>
      </g>
      <path id="패스_3599" data-name="패스 3599" d="M-16797-21432.018a10.566,10.566,0,0,0,4.773,1.533,9.5,9.5,0,0,0,4.6-1.533" transform="translate(0 1)" fill="none" stroke="#16284c" stroke-linecap="round" stroke-width="2"/>
    </g>
    <rect id="사각형_2957" data-name="사각형 2957" width="70" height="70" transform="translate(-16791 -21420)" fill="none"/>
  </g>
</svg>
