<svg xmlns="http://www.w3.org/2000/svg" width="70" height="70" viewBox="0 0 70 70">
  <g id="그룹_5501" data-name="그룹 5501" transform="translate(5141 11604)">
    <rect id="사각형_2203" data-name="사각형 2203" width="70" height="70" transform="translate(-5141 -11604)" fill="none"/>
    <g id="그룹_5360" data-name="그룹 5360" transform="translate(17749.605 -21441.211)">
      <path id="패스_3153" data-name="패스 3153" d="M-22885.605,9858.266l10.352.585" fill="none" stroke="#707070" stroke-linecap="round" stroke-width="2"/>
      <path id="패스_3154" data-name="패스 3154" d="M-22862.459,9851.313l-7.881,3.591a5.413,5.413,0,0,0-2.785,1.071,4.213,4.213,0,0,0-1.258,2.844c.006-.012-.385,2.163.723,3.332a5.276,5.276,0,0,0,2.93,1.357l7.344,5.72Z" transform="matrix(1, 0.017, -0.017, 1, 168.602, 400.611)" fill="#98c9f4" stroke="#707070" stroke-linecap="round" stroke-linejoin="round" stroke-width="2"/>
      <path id="패스_3155" data-name="패스 3155" d="M-22870.2,9854.69l-.43,9.175" fill="none" stroke="#707070" stroke-width="2"/>
      <path id="합치기_21" data-name="합치기 21" d="M23.418,34.178l-4.5-13.6-17.83-1.56L2.657,1.084l24.022,2.1,0,.047.992.09a9,9,0,0,1,.417,17.88L32.7,34.178Z" transform="translate(-22863.883 9850.415)" fill="#ececec" stroke="#707070" stroke-width="2"/>
      <path id="패스_3157" data-name="패스 3157" d="M-22849.178,9870.771a7.2,7.2,0,0,0,1.93,2.385,5.528,5.528,0,0,0,2.7.831" fill="none" stroke="#707070" stroke-width="2"/>
      <g id="패스_3164" data-name="패스 3164" transform="matrix(0.996, 0.087, -0.087, 0.996, -22843.678, 9882.234)" fill="#ececec">
        <path d="M 14.14804458618164 9 L 4.000004291534424 9 C 2.345794200897217 9 1.000004172325134 7.654210090637207 1.000004172325134 6 L 1.000004172325134 4 C 1.000004172325134 2.345789909362793 2.345794200897217 1 4.000004291534424 1 L 14.14804458618164 1 C 15.80225467681885 1 17.14804458618164 2.345789909362793 17.14804458618164 4 L 17.14804458618164 6 C 17.14804458618164 7.654210090637207 15.80225467681885 9 14.14804458618164 9 Z" stroke="none"/>
        <path d="M 4.000003814697266 2 C 2.897204399108887 2 2.000003814697266 2.897200107574463 2.000003814697266 4 L 2.000003814697266 6 C 2.000003814697266 7.102799892425537 2.897204399108887 8 4.000003814697266 8 L 14.14804458618164 8 C 15.25084400177002 8 16.14804458618164 7.102799892425537 16.14804458618164 6 L 16.14804458618164 4 C 16.14804458618164 2.897200107574463 15.25084400177002 2 14.14804458618164 2 L 4.000003814697266 2 M 4.000003814697266 0 L 14.14804458618164 0 C 16.3571834564209 0 18.14804458618164 1.790860176086426 18.14804458618164 4 L 18.14804458618164 6 C 18.14804458618164 8.209139823913574 16.3571834564209 10 14.14804458618164 10 L 4.000003814697266 10 C 1.790864944458008 10 3.814697265625e-06 8.209139823913574 3.814697265625e-06 6 L 3.814697265625e-06 4 C 3.814697265625e-06 1.790860176086426 1.790864944458008 0 4.000003814697266 0 Z" stroke="none" fill="#707070"/>
      </g>
      <path id="패스_3158" data-name="패스 3158" d="M-22843.246,9886.552l10.076.663" fill="none" stroke="#707070" stroke-linecap="round" stroke-width="1"/>
      <path id="패스_3159" data-name="패스 3159" d="M-22843.246,9889.085l16.17,1.146" transform="translate(0.161 0.088)" fill="none" stroke="#707070" stroke-linecap="round" stroke-width="1" stroke-dasharray="2 2"/>
      <path id="패스_3160" data-name="패스 3160" d="M-22841.674,9886.573l4.713.253" transform="translate(8 -26.302)" fill="none" stroke="#707070" stroke-linecap="round" stroke-width="1"/>
      <path id="패스_3162" data-name="패스 3162" d="M-22841.674,9886.573l4.713.253" transform="translate(8 -22.302)" fill="none" stroke="#707070" stroke-linecap="round" stroke-width="1"/>
      <path id="패스_3161" data-name="패스 3161" d="M-22836.258,9924.473l8.184.522" transform="translate(0 -62.302)" fill="none" stroke="#707070" stroke-linecap="round" stroke-width="1"/>
      <path id="패스_3163" data-name="패스 3163" d="M-22859.42,9915l-1.207,16.15" transform="translate(2 -61)" fill="none" stroke="#707070" stroke-linecap="round" stroke-width="1" stroke-dasharray="2 2"/>
    </g>
  </g>
</svg>
