<svg xmlns="http://www.w3.org/2000/svg" width="20" height="20" viewBox="0 0 20 20">
  <g id="그룹_4992" data-name="그룹 4992" transform="translate(16127 1863)">
    <path id="Icon_feather-heart" data-name="Icon feather-heart" d="M15.591,3.5a5.657,5.657,0,0,1,4.065,1.714,5.9,5.9,0,0,1,0,8.228L12.041,21.2a1,1,0,0,1-1.428,0L3,13.44A5.9,5.9,0,0,1,3,5.211a5.679,5.679,0,0,1,8.13,0l.2.2.2-.2A5.657,5.657,0,0,1,15.591,3.5ZM11.327,19.069l6.9-7.03a3.891,3.891,0,0,0,0-5.427,3.676,3.676,0,0,0-5.274,0l-.913.93a1,1,0,0,1-1.428,0L9.7,6.612a3.677,3.677,0,0,0-5.274,0,3.893,3.893,0,0,0,0,5.427Z" transform="translate(-16128.327 -1865.497)" fill="#fff"/>
    <rect id="사각형_2020" data-name="사각형 2020" width="20" height="20" transform="translate(-16127 -1863)" fill="none"/>
  </g>
</svg>
