<svg xmlns="http://www.w3.org/2000/svg" width="70" height="70" viewBox="0 0 70 70">
  <g id="그룹_8038" data-name="그룹 8038" transform="translate(24692 -1789)">
    <rect id="사각형_2202" data-name="사각형 2202" width="70" height="70" transform="translate(-24692 1789)" fill="none"/>
    <g id="그룹_8006" data-name="그룹 8006" transform="translate(107.678 4.857)">
      <g id="패스_3524" data-name="패스 3524" transform="translate(-24786.678 1804.858)" fill="#ececec">
        <path d="M 32.720703125 42.14184188842773 L 22.71094131469727 42.14184188842773 L 1.000001549720764 42.14184188842773 L 1.000001549720764 5.803791046142578 L 22.48744010925293 1.07315456867218 L 32.720703125 8.493043899536133 L 32.720703125 42.14184188842773 Z" stroke="none"/>
        <path d="M 22.26393890380859 2.146305084228516 L 2.000001907348633 6.607578277587891 L 2.000001907348633 41.14184188842773 L 31.72070121765137 41.14184188842773 L 31.72070121765137 9.003173828125 L 22.26393890380859 2.146305084228516 M 22.71094131469727 3.814697265625e-06 L 33.720703125 7.982913970947266 L 33.720703125 43.14184188842773 L 0 43.14184188842773 L 0 5.000003814697266 L 22.71094131469727 3.814697265625e-06 Z" stroke="none" fill="#666"/>
      </g>
      <g id="패스_3531" data-name="패스 3531" transform="translate(-24764.5 1817.429)" fill="#ececec">
        <path d="M 20.61523628234863 29.57092094421387 L 14.55788707733154 29.57092094421387 L 0.9999971985816956 29.57092094421387 L 0.9999971985816956 4.328887462615967 L 14.31634140014648 1.087982535362244 L 20.61523628234863 6.13684606552124 L 20.61523628234863 29.57092094421387 Z" stroke="none"/>
        <path d="M 14.07479286193848 2.175962448120117 L 1.999998092651367 5.114700317382812 L 1.999998092651367 28.57092094421387 L 19.61523818969727 28.57092094421387 L 19.61523818969727 6.616889953613281 L 14.07479286193848 2.175962448120117 M 14.55788707733154 1.9073486328125e-06 L 21.61523628234863 5.656801223754883 L 21.61523628234863 30.57092094421387 L -1.9073486328125e-06 30.57092094421387 L -1.9073486328125e-06 3.543071746826172 L 14.55788707733154 1.9073486328125e-06 Z" stroke="none" fill="#666"/>
      </g>
      <g id="패스_3525" data-name="패스 3525" transform="translate(-24782.678 1814.05)" fill="#98c9f4">
        <path d="M 1 6.819543361663818 L 1 0.8471233248710632 L 5 0.180456668138504 L 5 6.152876853942871 L 1 6.819543361663818 Z" stroke="none"/>
        <path d="M 4 1.360923290252686 L 2 1.694256782531738 L 2 5.639076709747314 L 4 5.305743217468262 L 4 1.360923290252686 M 6 -1 L 6 7 L 0 8 L 0 0 L 6 -1 Z" stroke="none" fill="#666"/>
      </g>
      <g id="패스_3536" data-name="패스 3536" transform="translate(-24760.5 1823.605)" fill="#98c9f4">
        <path d="M 1 6.819543361663818 L 1 0.8471233248710632 L 5 0.180456668138504 L 5 6.152876853942871 L 1 6.819543361663818 Z" stroke="none"/>
        <path d="M 4 1.360923290252686 L 2 1.694256782531738 L 2 5.639076709747314 L 4 5.305743217468262 L 4 1.360923290252686 M 6 -1 L 6 7 L 0 8 L 0 0 L 6 -1 Z" stroke="none" fill="#666"/>
      </g>
      <g id="패스_3527" data-name="패스 3527" transform="translate(-24782.678 1823.679)" fill="#98c9f4">
        <path d="M 5 6 L 1 6 L 1 0.8471233248710632 L 5 0.180456668138504 L 5 6 Z" stroke="none"/>
        <path d="M 4 1.360923290252686 L 2 1.694256782531738 L 2 5 L 4 5 L 4 1.360923290252686 M 6 -1 L 6 7 L 0 7 L 0 0 L 6 -1 Z" stroke="none" fill="#666"/>
      </g>
      <g id="패스_3534" data-name="패스 3534" transform="translate(-24760.5 1832.875)" fill="#98c9f4">
        <path d="M 5 6 L 1 6 L 1 0.8471233248710632 L 5 0.180456668138504 L 5 6 Z" stroke="none"/>
        <path d="M 4 1.360923290252686 L 2 1.694256782531738 L 2 5 L 4 5 L 4 1.360923290252686 M 6 -1 L 6 7 L 0 7 L 0 0 L 6 -1 Z" stroke="none" fill="#666"/>
      </g>
      <g id="패스_3530" data-name="패스 3530" transform="translate(-24782.678 1832.179)" fill="#98c9f4">
        <path d="M 5 6 L 1 6 L 1 1 L 5 1 L 5 6 Z" stroke="none"/>
        <path d="M 2 2 L 2 5 L 4 5 L 4 2 L 2 2 M 0 0 L 6 0 L 6 7 L 0 7 L 0 0 Z" stroke="none" fill="#666"/>
      </g>
      <g id="패스_3526" data-name="패스 3526" transform="translate(-24774.322 1812.55)" fill="#98c9f4">
        <path d="M 1 6.819543361663818 L 1 0.8471233248710632 L 5 0.180456668138504 L 5 6.152876853942871 L 1 6.819543361663818 Z" stroke="none"/>
        <path d="M 4 1.360923290252686 L 2 1.694256782531738 L 2 5.639076709747314 L 4 5.305743217468262 L 4 1.360923290252686 M 6 -1 L 6 7 L 0 8 L 0 0 L 6 -1 Z" stroke="none" fill="#666"/>
      </g>
      <g id="패스_3528" data-name="패스 3528" transform="translate(-24774.322 1822.179)" fill="#98c9f4">
        <path d="M 5 7 L 1 7 L 1 0.8471233248710632 L 5 0.180456668138504 L 5 7 Z" stroke="none"/>
        <path d="M 4 1.360923290252686 L 2 1.694256782531738 L 2 6 L 4 6 L 4 1.360923290252686 M 6 -1 L 6 8 L 0 8 L 0 0 L 6 -1 Z" stroke="none" fill="#666"/>
      </g>
      <g id="패스_3529" data-name="패스 3529" transform="translate(-24774.322 1831.679)" fill="#98c9f4">
        <path d="M 5 7 L 1 7 L 1 1 L 5 1 L 5 7 Z" stroke="none"/>
        <path d="M 2 2 L 2 6 L 4 6 L 4 2 L 2 2 M 0 0 L 6 0 L 6 8 L 0 8 L 0 0 Z" stroke="none" fill="#666"/>
      </g>
      <g id="패스_3512" data-name="패스 3512" transform="translate(-24756.811 1818.858) rotate(-135)" fill="#fff" stroke-linecap="round" stroke-linejoin="round">
        <path d="M 2.451945543289185 10.24181747436523 C 2.890644311904907 9.104146957397461 3.245643138885498 7.763915061950684 3.245643138885498 6.405393123626709 C 3.245643138885498 5.082113265991211 2.908795118331909 3.776114702224731 2.485880613327026 2.657830238342285 C 3.642292261123657 3.178586006164551 5.012922286987305 3.603753089904785 6.405393123626709 3.603753089904785 C 7.663254261016846 3.603753089904785 8.902999877929688 3.256942510604858 9.983376502990723 2.806020021438599 C 9.521265983581543 3.891463756561279 9.164813041687012 5.139080047607422 9.164813041687012 6.405393123626709 C 9.164813041687012 7.70953893661499 9.542852401733398 8.993785858154297 10.0250358581543 10.10153770446777 C 8.935086250305176 9.660327911376953 7.679158687591553 9.318062782287598 6.405393123626709 9.318062782287598 C 4.999608039855957 9.318062782287598 3.615084648132324 9.735148429870605 2.451945543289185 10.24181747436523 Z" stroke="none"/>
        <path d="M 4.009548187255859 4.271193504333496 C 4.166626930236816 5.005792617797852 4.24564266204834 5.718472480773926 4.24564266204834 6.405393123626709 C 4.24564266204834 7.125203609466553 4.15888500213623 7.873269557952881 3.986453056335449 8.645237922668457 C 4.820239067077637 8.427572250366211 5.628180980682373 8.318063735961914 6.405393123626709 8.318063735961914 C 7.061607360839844 8.318063735961914 7.739872455596924 8.39616584777832 8.436991691589355 8.551492691040039 C 8.255874633789062 7.814940929412842 8.164802551269531 7.098411083221436 8.164802551269531 6.405393123626709 C 8.164802551269531 5.746613502502441 8.24714469909668 5.066393375396729 8.410854339599609 4.368114471435547 C 7.723507404327393 4.524904251098633 7.053955078125 4.603753089904785 6.405393123626709 4.603753089904785 C 5.634597301483154 4.603753089904785 4.834338188171387 4.492425918579102 4.009548187255859 4.271193504333496 M 2.86102294921875e-06 2.86102294921875e-06 C 2.86102294921875e-06 2.86102294921875e-06 3.202692985534668 2.603753089904785 6.405393123626709 2.603753089904785 C 9.60809326171875 2.603753089904785 12.81078338623047 2.86102294921875e-06 12.81078338623047 2.86102294921875e-06 C 12.81078338623047 2.86102294921875e-06 10.16480255126953 3.202692985534668 10.16480255126953 6.405393123626709 C 10.16480255126953 9.60809326171875 12.81078338623047 12.81078338623047 12.81078338623047 12.81078338623047 C 12.81078338623047 12.81078338623047 9.60809326171875 10.3180627822876 6.405393123626709 10.3180627822876 C 3.202692985534668 10.3180627822876 2.86102294921875e-06 12.81078338623047 2.86102294921875e-06 12.81078338623047 C 2.86102294921875e-06 12.81078338623047 2.24564266204834 9.60809326171875 2.24564266204834 6.405393123626709 C 2.24564266204834 3.202692985534668 2.86102294921875e-06 2.86102294921875e-06 2.86102294921875e-06 2.86102294921875e-06 Z" stroke="none" fill="#666"/>
      </g>
      <g id="패스_3513" data-name="패스 3513" transform="translate(-24777.271 1806.34) rotate(-135)" fill="#fff" stroke-linecap="round" stroke-linejoin="round">
        <path d="M 2.334444522857666 8.302327156066895 C 2.647450923919678 7.411289691925049 2.883840084075928 6.398972988128662 2.883840084075928 5.373390197753906 C 2.883840084075928 4.377884387969971 2.661116123199463 3.394894361495972 2.361778736114502 2.52315878868103 C 3.273125886917114 2.898176431655884 4.315211296081543 3.184250116348267 5.373390197753906 3.184250116348267 C 6.317402362823486 3.184250116348267 7.248698711395264 2.956546783447266 8.085666656494141 2.641171932220459 C 7.761698722839355 3.4832923412323 7.52711009979248 4.4217529296875 7.52711009979248 5.373390197753906 C 7.52711009979248 6.35701847076416 7.777660369873047 7.326373100280762 8.118564605712891 8.190021514892578 C 7.273092746734619 7.88062858581543 6.329611301422119 7.655670166015625 5.373390197753906 7.655670166015625 C 4.304912567138672 7.655670166015625 3.252124309539795 7.936631679534912 2.334444522857666 8.302327156066895 Z" stroke="none"/>
        <path d="M 3.770932197570801 4.010598182678223 C 3.842450618743896 4.454864025115967 3.883830070495605 4.911621570587158 3.883830070495605 5.373390197753906 C 3.883830070495605 5.866650581359863 3.836670398712158 6.353845119476318 3.755933284759521 6.826589584350586 C 4.279422760009766 6.719400882720947 4.822481155395508 6.655670166015625 5.373390197753906 6.655670166015625 C 5.809433460235596 6.655670166015625 6.240501403808594 6.695580959320068 6.660840511322021 6.76536750793457 C 6.576051235198975 6.312105178833008 6.52711009979248 5.84598970413208 6.52711009979248 5.373390197753906 C 6.52711009979248 4.932915687561035 6.569685459136963 4.497738838195801 6.644117832183838 4.073654651641846 C 6.229110240936279 4.144104480743408 5.803846836090088 4.184250354766846 5.373390197753906 4.184250354766846 C 4.827458381652832 4.184250354766846 4.289748191833496 4.119654178619385 3.770932197570801 4.010598182678223 M 0 0 C 0 0 2.686690330505371 2.184249877929688 5.373390197753906 2.184249877929688 C 8.060080528259277 2.184249877929688 10.74678039550781 0 10.74678039550781 0 C 10.74678039550781 0 8.52711009979248 2.686690330505371 8.52711009979248 5.373390197753906 C 8.52711009979248 8.060080528259277 10.74678039550781 10.74678039550781 10.74678039550781 10.74678039550781 C 10.74678039550781 10.74678039550781 8.060080528259277 8.655670166015625 5.373390197753906 8.655670166015625 C 2.686690330505371 8.655670166015625 0 10.74678039550781 0 10.74678039550781 C 0 10.74678039550781 1.883830070495605 8.060080528259277 1.883830070495605 5.373390197753906 C 1.883830070495605 2.686690330505371 0 0 0 0 Z" stroke="none" fill="#666"/>
      </g>
      <line id="선_336" data-name="선 336" y2="41" transform="translate(-24764.5 1805.5)" fill="none" stroke="#666" stroke-width="2"/>
      <line id="선_337" data-name="선 337" y2="28.429" transform="translate(-24750.5 1818.071)" fill="none" stroke="#666" stroke-width="2"/>
    </g>
  </g>
</svg>
