<svg xmlns="http://www.w3.org/2000/svg" width="70" height="70" viewBox="0 0 70 70">
  <g id="그룹_8030" data-name="그룹 8030" transform="translate(17047 -1614)">
    <g id="그룹_8029" data-name="그룹 8029">
      <rect id="사각형_2207" data-name="사각형 2207" width="70" height="70" transform="translate(-17047 1614)" fill="none"/>
    </g>
    <g id="그룹_7790" data-name="그룹 7790">
      <g id="사각형_2176" data-name="사각형 2176" transform="translate(-17028 1626)" fill="#ececec" stroke="#666" stroke-width="2">
        <rect width="32" height="44" rx="5" stroke="none"/>
        <rect x="1" y="1" width="30" height="42" rx="4" fill="none"/>
      </g>
      <g id="타원_247" data-name="타원 247" transform="translate(-17019 1635)" fill="#fff" stroke="#666" stroke-width="2">
        <circle cx="7" cy="7" r="7" stroke="none"/>
        <circle cx="7" cy="7" r="6" fill="none"/>
      </g>
      <g id="합치기_86" data-name="합치기 86" transform="translate(-17017.154 1638.447)" fill="#98c9f4">
        <path d="M 5.069700241088867 8.06350040435791 C 4.143529891967773 8.06350040435791 3.299829959869385 7.517410278320312 2.920269966125488 6.672260284423828 L 2.912480115890503 6.654910087585449 L 2.903400182723999 6.638210296630859 C 2.53802752494812 5.96640682220459 2.175454378128052 4.882522106170654 1.932835102081299 4.080893039703369 L 2.521330118179321 4.352190017700195 L 2.995980024337769 4.571010112762451 L 3.193560123443604 4.087130069732666 C 3.710016489028931 2.822303056716919 4.526582717895508 1.251919627189636 5.124125003814697 0.1511953771114349 C 5.237406730651855 0.8264364004135132 5.42188835144043 1.629987716674805 5.721000194549561 2.383230209350586 C 5.935410022735596 2.921860218048096 6.233880043029785 3.434990167617798 6.497580051422119 3.865950345993042 L 6.784070014953613 4.334170341491699 L 7.223589897155762 4.005350112915039 C 7.466689109802246 3.823483228683472 7.709598541259766 3.626791477203369 7.931465625762939 3.439655542373657 C 7.780872344970703 4.867171287536621 7.508379459381104 6.417748928070068 7.169650077819824 6.800660133361816 L 7.136139869689941 6.838550090789795 L 7.110889911651611 6.88238000869751 C 6.691220283508301 7.610920429229736 5.909080028533936 8.06350040435791 5.069700241088867 8.06350040435791 Z" stroke="none"/>
        <path d="M 5.069700241088867 7.56350040435791 C 5.730820178985596 7.56350040435791 6.346940040588379 7.20688009262085 6.677629947662354 6.632800102233887 L 6.728129863739014 6.545150279998779 L 6.790762424468994 6.474340438842773 C 6.814472675323486 6.440960884094238 7.049028396606445 6.079884052276611 7.278821468353271 4.588466167449951 L 6.644060134887695 5.063340187072754 L 6.071080207824707 4.126920223236084 C 5.796370029449463 3.677960157394409 5.48477029800415 3.14171028137207 5.25629997253418 2.567760229110718 C 5.128040313720703 2.244767904281616 5.01997184753418 1.913257956504822 4.928906440734863 1.58584189414978 C 4.474014282226562 2.465387344360352 3.998007535934448 3.439672708511353 3.656460046768188 4.276140213012695 L 3.261300086975098 5.243890285491943 L 2.76242733001709 5.013908386230469 C 2.946359157562256 5.536471366882324 3.148069381713867 6.041564464569092 3.342640161514282 6.399320125579834 L 3.360810041427612 6.432730197906494 L 3.376389980316162 6.467420101165771 C 3.675420045852661 7.133260250091553 4.340080261230469 7.56350040435791 5.069700241088867 7.56350040435791 M 5.069700241088867 8.56350040435791 C 3.909240007400513 8.56350040435791 2.91060996055603 7.871200084686279 2.464159965515137 6.877100467681885 C 1.794000029563904 5.644890308380127 1.154700040817261 3.171600341796875 1.154700040817261 3.171600341796875 L 2.730659961700439 3.898120164871216 C 3.643370151519775 1.66286027431488 5.447700023651123 -1.457099795341492 5.447700023651123 -1.457099795341492 C 5.447700023651123 -1.457099795341492 5.520599842071533 0.523800253868103 6.185699939727783 2.198700189590454 C 6.381929874420166 2.691640138626099 6.653709888458252 3.163140296936035 6.924069881439209 3.604990243911743 C 7.721000194549561 3.008790254592896 8.532899856567383 2.232000350952148 8.532899856567383 2.232000350952148 C 8.532899856567383 2.232000350952148 8.300559997558594 6.276870250701904 7.544149875640869 7.131950378417969 C 7.051249980926514 7.98762035369873 6.127640247344971 8.56350040435791 5.069700241088867 8.56350040435791 Z" stroke="none" fill="#666"/>
      </g>
      <rect id="사각형_2725" data-name="사각형 2725" width="5" height="2" transform="translate(-17021 1670)" fill="#666"/>
      <rect id="사각형_2731" data-name="사각형 2731" width="5" height="2" transform="translate(-17007 1670)" fill="#666"/>
      <g id="사각형_2730" data-name="사각형 2730" transform="translate(-17016 1658)" fill="#fff" stroke="#666" stroke-width="1">
        <rect width="9" height="3" rx="1.5" stroke="none"/>
        <rect x="0.5" y="0.5" width="8" height="2" rx="1" fill="none"/>
      </g>
      <g id="사각형_2732" data-name="사각형 2732" transform="translate(-17024 1630)" fill="none" stroke="#666" stroke-width="1">
        <rect width="24" height="36" rx="2" stroke="none"/>
        <rect x="0.5" y="0.5" width="23" height="35" rx="1.5" fill="none"/>
      </g>
    </g>
  </g>
</svg>
