<svg xmlns="http://www.w3.org/2000/svg" width="20" height="20" viewBox="0 0 20 20">
  <g id="그룹_5594" data-name="그룹 5594" transform="translate(-372 -1059)">
    <rect id="사각형_2300" data-name="사각형 2300" width="20" height="20" transform="translate(372 1059)" fill="none"/>
    <path id="패스_3218" data-name="패스 3218" d="M-5147.434-10595.785a1,1,0,0,1-.742-.329l-4.611-5.1a1,1,0,0,1,.071-1.413,1,1,0,0,1,1.412.071l3.851,4.261,3.65-4.242a1,1,0,0,1,1.41-.105,1,1,0,0,1,.105,1.41l-4.389,5.1a1,1,0,0,1-.746.348Z" transform="translate(5530.045 11667.887)" fill="#999"/>
  </g>
</svg>
