<svg xmlns="http://www.w3.org/2000/svg" width="30" height="30" viewBox="0 0 30 30">
  <g id="그룹_5402" data-name="그룹 5402" transform="translate(8673 10786)">
    <g id="그룹_5406" data-name="그룹 5406" transform="translate(0 5)">
      <path id="패스_3108" data-name="패스 3108" d="M7.317,0H22.683A7.41,7.41,0,0,1,30,7.5v15A7.41,7.41,0,0,1,22.683,30H7.317A7.41,7.41,0,0,1,0,22.5V7.5A7.41,7.41,0,0,1,7.317,0Z" transform="translate(-8673 -10791)" fill="#16284c"/>
      <g id="그룹_5205" data-name="그룹 5205" transform="translate(-576.021 42.114)">
        <path id="패스_3081" data-name="패스 3081" d="M0,10H5V20.607L2.552,24,0,20.607Z" transform="translate(-8076.979 -10832.184) rotate(30)" fill="#fff"/>
        <path id="패스_3082" data-name="패스 3082" d="M0,10H5v3.147H0Z" transform="translate(-8074.905 -10835.775) rotate(30)" fill="#fff"/>
      </g>
    </g>
  </g>
</svg>
