<svg data-name="그룹 4859" xmlns="http://www.w3.org/2000/svg" width="42" height="42"><path data-name="사각형 1855" fill="none" d="M0 0h42v42H0z"/><g data-name="그룹 4857"><g data-name="그룹 4858"><g data-name="그룹 4856"><g data-name="그룹 4852"><path data-name="합치기 7" d="M21.862 33.6a1.862 1.862 0 0 1 0-3.724h1.676a1.862 1.862 0 0 1 1.656 1.01 5.363 5.363 0 0 0 3.666-.941 4.3 4.3 0 0 0 .877-1.931h-1.538V18.7h.019a12.656 12.656 0 0 0-.842-2.552c-1.444-3.11-4.659-3.275-6.212-3.275s-4.856.171-6.431 3.3a12.484 12.484 0 0 0-.934 2.527v9.31h-3.4a2 2 0 0 1-2-2V20.7a2 2 0 0 1 2-2h.135a15.005 15.005 0 0 1 1.159-3.32 10 10 0 0 1 9.472-5.78 9.557 9.557 0 0 1 9.274 5.807 14.7 14.7 0 0 1 1.027 3.3h.133a2 2 0 0 1 2 2v5.31a2 2 0 0 1-2 2h-.034a6.48 6.48 0 0 1-1.351 3.167c-.9 1.037-3.543 1.567-5.052 1.567v-.1a1.861 1.861 0 0 1-1.624.949Z" fill="#999"/></g></g><g data-name="그룹 4855" transform="translate(17.945 17.821)" fill="#999"><path data-name="패스 3062" d="M1.277 6.186a2.66 2.66 0 0 1 .12-.962A3.792 3.792 0 0 1 2.99 3.441a1.5 1.5 0 0 0 .451-1.16.892.892 0 0 0-.538-.783 1.925 1.925 0 0 0-2.024.4.764.764 0 0 1-.769-.28c-.3-.4.1-.875.1-.875a2.987 2.987 0 0 1 3.342-.4 2.186 2.186 0 0 1 1.282 1.855 2.719 2.719 0 0 1-1.048 2.317l-.02.013a2.7 2.7 0 0 0-1.02 1.023 2.853 2.853 0 0 0-.115.635Z"/><circle data-name="타원 174" cx=".7" cy=".7" transform="translate(1.228 7.379)" r=".7"/></g></g></g></svg>