<svg xmlns="http://www.w3.org/2000/svg" width="20" height="14" viewBox="0 0 20 14">
  <path id="합치기_10" data-name="합치기 10" d="M14.544,13a2,2,0,1,1,2,2A2,2,0,0,1,14.544,13ZM2.427,13a2,2,0,1,1,2,2A2,2,0,0,1,2.427,13Zm-.953.1H.377V1h12V13.1H7.29c0-.027,0-.052,0-.078A2.868,2.868,0,0,0,4.382,10.2a2.868,2.868,0,0,0-2.909,2.82c0,.026,0,.051,0,.078h0Zm11.859-.044h-.957V2.974h5.5L20.377,7v6.052H19.6a3.188,3.188,0,0,0-6.27,0h0ZM14.1,8.015h4.453V7.273L16.871,4.567H14.1Z" transform="translate(-0.377 -1)" fill="#fff"/>
</svg>
