<svg data-name="그룹 5220" xmlns="http://www.w3.org/2000/svg" width="42" height="42"><path data-name="사각형 1854" fill="none" d="M0 0h42v42H0z"/><path data-name="Icon awesome-hammer" d="m33.985 19.259-1.04-1.1a.705.705 0 0 0-1.04 0l-.52.552-1.327-1.411a3.242 3.242 0 0 0-.751-3l-2.079-2.214a7.053 7.053 0 0 0-10.4 0l4.158 2.207a3.844 3.844 0 0 0 .267 3l3.059 3.169c.768.815 1.644.417 2.623.142l1.328 1.41-.52.552a.815.815 0 0 0 0 1.1l1.04 1.1a.705.705 0 0 0 1.04 0l4.158-4.415a.815.815 0 0 0 0-1.1Zm-13.172-.741c-.17-.18-.3-.159-.441-.362L9.511 27.339c-1.175 1.161-.107 2.685 1.031 3.891s2.7 2.1 3.771 1.1l9.329-10.924a5.268 5.268 0 0 1-.57-.491l-2.257-2.4Z" fill="#999"/></svg>